<svg xmlns="http://www.w3.org/2000/svg" width="80" height="80" viewBox="0 0 80 80">
  <g id="Group_722" data-name="Group 722" transform="translate(-636 -13628)">
    <path id="Union_11" data-name="Union 11" d="M-5277,12805a39,39,0,0,1-39-39v-2a39,39,0,0,1,39-39h2a39,39,0,0,1,39,39v2a38.846,38.846,0,0,1-9.329,25.313l5.087,9.446-9.446-5.087A38.849,38.849,0,0,1-5275,12805Z" transform="translate(5952 903)" fill="#ff9a3a"/>
    <g id="Group_773" data-name="Group 773" transform="translate(7 3)">
      <path id="Path_1322" data-name="Path 1322" d="M-11.27-6.748H-3.7v1.624H-11.27Zm7.014,0h1.764v.441a2.4,2.4,0,0,1-.014.287Q-2.562-4.438-2.632-3.3t-.161,1.9A8.289,8.289,0,0,1-3.01-.2a1.885,1.885,0,0,1-.308.672A1.722,1.722,0,0,1-3.9.952a2.476,2.476,0,0,1-.707.2,6.6,6.6,0,0,1-.924.063q-.574.007-1.2-.021A3.277,3.277,0,0,0-6.9.329,3.531,3.531,0,0,0-7.28-.5q.588.042,1.092.056t.756.014A1.231,1.231,0,0,0-5.11-.469.589.589,0,0,0-4.858-.63a1.725,1.725,0,0,0,.273-.805q.105-.623.189-1.848t.14-3.171ZM-9.7-11.718l1.82.532A16.18,16.18,0,0,1-9.121-8.834a17.061,17.061,0,0,1-1.554,2.086A12.686,12.686,0,0,1-12.4-5.1q-.154-.182-.42-.441t-.539-.511a5.733,5.733,0,0,0-.483-.406,10.494,10.494,0,0,0,1.659-1.407,12.141,12.141,0,0,0,1.435-1.806A10.78,10.78,0,0,0-9.7-11.718Zm5.334-.028a11.967,11.967,0,0,0,.812,1.372A15.782,15.782,0,0,0-2.513-9.009q.567.665,1.162,1.253A11.8,11.8,0,0,0-.182-6.734a4.772,4.772,0,0,0-.5.441q-.273.273-.518.553a6.43,6.43,0,0,0-.413.518Q-2.2-5.768-2.8-6.447T-3.983-7.889q-.581-.763-1.1-1.582t-.938-1.617Zm-4.41,5.474h1.834a20.291,20.291,0,0,1-.322,2.3A8.055,8.055,0,0,1-8-1.862,6,6,0,0,1-9.471-.049,8.208,8.208,0,0,1-12,1.344a3.208,3.208,0,0,0-.28-.518q-.182-.28-.392-.553A3.856,3.856,0,0,0-13.09-.2a6.868,6.868,0,0,0,2.24-1.113A4.743,4.743,0,0,0-9.6-2.765a5.739,5.739,0,0,0,.581-1.687Q-8.862-5.348-8.778-6.272ZM.966-9.6q.42-.014.8-.035t.574-.035q.434-.028,1.071-.091T4.837-9.9q.791-.07,1.687-.14t1.862-.154q.728-.07,1.449-.119t1.372-.084q.651-.035,1.141-.049l.014,1.792q-.378,0-.868.014t-.973.049a4.843,4.843,0,0,0-.861.133,3.515,3.515,0,0,0-1.176.567,4.394,4.394,0,0,0-.945.938,4.506,4.506,0,0,0-.623,1.162,3.681,3.681,0,0,0-.224,1.253,2.834,2.834,0,0,0,.245,1.211,2.665,2.665,0,0,0,.672.9,3.768,3.768,0,0,0,1,.616,5.985,5.985,0,0,0,1.239.371,10.813,10.813,0,0,0,1.379.168L10.57.644A8.713,8.713,0,0,1,8.855.364,7.251,7.251,0,0,1,7.294-.252a5.009,5.009,0,0,1-1.267-.959,4.373,4.373,0,0,1-.854-1.3,4.136,4.136,0,0,1-.315-1.645A5.18,5.18,0,0,1,5.18-6.013a5.922,5.922,0,0,1,.8-1.484,4.853,4.853,0,0,1,.959-.987q-.392.056-.945.112t-1.19.133q-.637.077-1.295.161t-1.267.189q-.609.105-1.1.2ZM10.36-7.28q.182.252.385.6t.4.686q.2.343.336.623L10.416-4.9q-.266-.588-.511-1.036a8.429,8.429,0,0,0-.581-.91Zm1.568-.644q.182.252.4.581t.427.672q.21.343.35.609l-1.05.5q-.28-.56-.539-.994a9.856,9.856,0,0,0-.609-.9Z" transform="translate(676 13664)" fill="#fff"/>
      <path id="Path_1321" data-name="Path 1321" d="M.312-7.656a6.178,6.178,0,0,1,2.232.4A5.2,5.2,0,0,1,4.32-6.144,5.1,5.1,0,0,1,5.484-4.416,5.749,5.749,0,0,1,5.9-2.184,5.743,5.743,0,0,1,5.436.168,5.292,5.292,0,0,1,4.128,1.98,6.026,6.026,0,0,1,2.136,3.156a7.233,7.233,0,0,1-2.5.42,6.968,6.968,0,0,1-3.348-.792A5.466,5.466,0,0,1-5.952.624L-4.1-1.3A5,5,0,0,0-2.424.192,4.292,4.292,0,0,0-.336.744a2.973,2.973,0,0,0,2.124-.78,2.718,2.718,0,0,0,.828-2.076,2.7,2.7,0,0,0-.78-2.016A2.705,2.705,0,0,0-.144-4.9a3.122,3.122,0,0,0-1.476.36,2.884,2.884,0,0,0-1.092.984H-5.52a5.151,5.151,0,0,1,.1-.54q.1-.468.24-1.2t.312-1.632q.168-.9.36-1.836.432-2.208.96-4.944h8.4v2.928H-1.224l-.7,3.816a2.025,2.025,0,0,1,.852-.5A4.317,4.317,0,0,1,.312-7.656Z" transform="translate(654 13662)" fill="#fff"/>
      <path id="Path_1320" data-name="Path 1320" d="M-10.668-7.924H-3.4V-6.4h-7.266Zm-2.6,2.534H-.728v1.568H-13.272Zm3.388,1.26h1.82a11.334,11.334,0,0,1-.322,1.8A4.683,4.683,0,0,1-9.093-.819,4.525,4.525,0,0,1-10.444.392a8.464,8.464,0,0,1-2.24.9,3.493,3.493,0,0,0-.245-.5,6.528,6.528,0,0,0-.357-.553,2.913,2.913,0,0,0-.378-.441,7.888,7.888,0,0,0,1.925-.644,3.251,3.251,0,0,0,1.092-.861,3.054,3.054,0,0,0,.532-1.092A8.378,8.378,0,0,0-9.884-4.13Zm3.612-.28h1.694V-.994q0,.336.1.427a.826.826,0,0,0,.483.091h1.4a.482.482,0,0,0,.343-.112.845.845,0,0,0,.168-.483q.049-.371.077-1.1a3.2,3.2,0,0,0,.448.252A5.264,5.264,0,0,0-1-1.694q.287.1.511.168A6.192,6.192,0,0,1-.784.049a1.414,1.414,0,0,1-.6.784,2.162,2.162,0,0,1-1.057.217H-4.242A3.4,3.4,0,0,1-5.495.868,1.055,1.055,0,0,1-6.1.238a3.516,3.516,0,0,1-.168-1.2Zm-1.666-7.476h1.792v2.548H-7.938Zm-5.082,1.344H-.994V-7.21H-2.786V-8.946h-8.526V-7.21H-13.02ZM6.188-7.1H7.98V-.7A2.333,2.333,0,0,1,7.77.4,1.314,1.314,0,0,1,7.042.98a4.826,4.826,0,0,1-1.274.231Q5.012,1.26,4,1.26A5.553,5.553,0,0,0,3.717.385a7.75,7.75,0,0,0-.4-.847q.49.028,1,.042t.91.007q.4-.007.553-.007A.575.575,0,0,0,6.1-.483a.312.312,0,0,0,.084-.259ZM1.414-10.92h9.772v1.666H1.414Zm9.142,0h.462l.392-.1,1.33.966q-.63.77-1.428,1.582T9.639-6.923A15.185,15.185,0,0,1,7.91-5.656a3.248,3.248,0,0,0-.336-.4q-.21-.217-.427-.434a4.192,4.192,0,0,0-.4-.357,12.15,12.15,0,0,0,1.113-.812q.567-.462,1.085-.966t.938-.994a8.235,8.235,0,0,0,.672-.882Z" transform="translate(670 13681)" fill="#fff"/>
    </g>
  </g>
</svg>
