<svg xmlns="http://www.w3.org/2000/svg" width="249.912" height="150" viewBox="0 0 249.912 150">
  <g id="Group_729" data-name="Group 729" transform="translate(-225.916 -557.775)">
    <g id="Group_748" data-name="Group 748" transform="translate(-2)">
      <path id="Path_1319" data-name="Path 1319" d="M-47.16-4.92h4.96v1.48h-4.96Zm0,2.02h4.96v1.48h-4.96ZM-47.2-.88h5.32V.92H-47.2Zm1.78-5.3h1.78V.22h-1.78Zm-.9-1.04h4.22v1.74h-4.22V1.68H-48.3V-5.56l1.38-1.66Zm1.52-1.6,2.14.56q-.38.68-.7,1.32t-.6,1.1l-1.6-.52q.22-.52.44-1.22A10.712,10.712,0,0,0-44.8-8.82Zm-2.84-.08,1.96.48a14.819,14.819,0,0,1-1,2.5,9.355,9.355,0,0,1-1.36,2.04q-.16-.18-.43-.45t-.56-.53q-.29-.26-.51-.42a7.572,7.572,0,0,0,1.13-1.65A10.146,10.146,0,0,0-47.64-8.9Zm-3.78-7.46h9.2V-14h-9.2Zm1.54,3.16h7.68v4.64h-7.68v-1.92h5.12v-.78h-5.12Zm-1.12,0h2.4v5.24q0,1.04-.06,2.3t-.22,2.58a21.85,21.85,0,0,1-.46,2.55,11.369,11.369,0,0,1-.78,2.23,4.942,4.942,0,0,0-.58-.52q-.38-.3-.78-.57a4.316,4.316,0,0,0-.68-.39,10.366,10.366,0,0,0,.78-2.62,24.855,24.855,0,0,0,.31-2.89Q-51-6.74-51-7.96Zm9.44-3.18h8.38v2.42h-8.38Zm2.7,8.34v.84h2.96v-.84Zm0,2.82v.84h2.96v-.84Zm0-5.64v.82h2.96v-.82ZM-41.2-13h7.74V-2.24H-41.2Zm2.52-2,3.02.32q-.28.94-.57,1.82t-.53,1.52l-2.28-.4q.14-.72.24-1.62T-38.68-15Zm-.9,12.74,2.22,1.38A11.977,11.977,0,0,1-38.93.68a10.267,10.267,0,0,1-1.83,1.26q-.32-.36-.85-.85t-.97-.83a7.325,7.325,0,0,0,1.13-.71,10.847,10.847,0,0,0,1.06-.91A8.477,8.477,0,0,0-39.58-2.26ZM-37.2-.88l2.04-1.3q.42.38.89.85t.91.94a9.658,9.658,0,0,1,.72.85l-2.18,1.46a9.1,9.1,0,0,0-.64-.87q-.4-.49-.86-1T-37.2-.88Zm13.42-12.34,3.08.62a15.381,15.381,0,0,1-2.82,3.03,17.49,17.49,0,0,1-4,2.39,5.212,5.212,0,0,0-.51-.76q-.33-.42-.7-.81a4.482,4.482,0,0,0-.69-.61,13.325,13.325,0,0,0,3.52-1.75A8.709,8.709,0,0,0-23.78-13.22Zm.98,1.26h5.42v2.14h-7.36Zm4.54,0h.56l.48-.12,1.96,1.16a12,12,0,0,1-2.46,3.01,15.97,15.97,0,0,1-3.34,2.26,25.341,25.341,0,0,1-3.97,1.61,38.041,38.041,0,0,1-4.35,1.08,10.516,10.516,0,0,0-.59-1.34,7.616,7.616,0,0,0-.77-1.24,32.169,32.169,0,0,0,4-.8,23.911,23.911,0,0,0,3.61-1.27A14,14,0,0,0-20.2-9.35a7.423,7.423,0,0,0,1.94-2.21Zm-5.7,1.6a10.225,10.225,0,0,0,3,2.04,21.335,21.335,0,0,0,4.21,1.41,35.01,35.01,0,0,0,5.07.77,7.146,7.146,0,0,0-.67.85q-.35.51-.67,1.03a10.155,10.155,0,0,0-.52.94,29.585,29.585,0,0,1-5.17-1.12,19.83,19.83,0,0,1-4.34-1.95,14.848,14.848,0,0,1-3.43-2.87Zm-2.98,5.94H-15.2V1.86h-3V-2.06h-5.9V1.92h-2.84Zm1.44,3.38h8.74V1.32H-25.5Zm2.74-16.04h3v2.98h-3Zm-7.14,1.52h17.42v4.8h-2.98v-2.18h-11.6v2.18H-29.9Zm26.26-.14H8.88v2.5H-3.64Zm-.58,3.54H9.48v2.54H-4.22ZM.1-3.52H4.98v2.06H.1ZM-1.26-17.1H1.46v7.12H-1.26Zm4.92,0h2.8v7.12H3.66ZM-.66-5.52H.98V-.3H-.66Zm4.8,0H5.76v4.6H4.14ZM6.4-8.7H9.1V-.76A4.281,4.281,0,0,1,8.91.65a1.428,1.428,0,0,1-.77.81,3.557,3.557,0,0,1-1.32.34q-.76.06-1.74.06A8.177,8.177,0,0,0,4.83.65,8.748,8.748,0,0,0,4.42-.54q.46.02.97.03t.69.01q.32,0,.32-.3Zm-10.18,0H7.36v2.5H-1.22V1.88H-3.78Zm-4.88-6.16,1.7-2.08q.58.26,1.24.62t1.25.75a7.151,7.151,0,0,1,.97.75l-1.82,2.28a6.187,6.187,0,0,0-.89-.79q-.57-.43-1.21-.83T-8.66-14.86Zm-.96,5.52,1.54-2.22a12.272,12.272,0,0,1,1.28.47q.68.29,1.31.62a6.46,6.46,0,0,1,1.03.65L-6.1-7.38a6.48,6.48,0,0,0-.96-.68q-.6-.36-1.27-.7A14.143,14.143,0,0,0-9.62-9.34Zm.48,9.32q.46-.78,1.01-1.82T-7-4.06q.58-1.18,1.08-2.38l2.3,1.74q-.44,1.08-.92,2.17T-5.51-.38Q-6,.68-6.52,1.7ZM1.14-10.38H3.92v3.6H3.58v4.7H1.48v-4.7H1.14ZM21.2-6.62h8.12v2.68H21.2ZM17.3-5.34a6.2,6.2,0,0,0,1.42,2.21,6.332,6.332,0,0,0,1.99,1.31,9.477,9.477,0,0,0,2.41.63,20.655,20.655,0,0,0,2.68.17h2.97q.59,0,1.11-.01t.9-.03a5.112,5.112,0,0,0-.4.83q-.2.51-.35,1.04t-.23.95H25.62a21.468,21.468,0,0,1-3.44-.26A10.316,10.316,0,0,1,19.23.57,7.971,7.971,0,0,1,16.8-1.32a10.867,10.867,0,0,1-1.86-3.14ZM19.9-9.4h3V.42l-3-.94Zm-2.78-4.14v2.06h8.42v-2.06Zm-2.9-2.78H28.64v7.6H14.22Zm.7,8.62,3.04.36a32.9,32.9,0,0,1-.8,3.4A16.372,16.372,0,0,1,15.85-.72,8.671,8.671,0,0,1,13.84,1.8a8.334,8.334,0,0,0-.61-.67q-.37-.37-.76-.72t-.69-.57a6.514,6.514,0,0,0,1.66-2.09,12.244,12.244,0,0,0,.99-2.68A20.716,20.716,0,0,0,14.92-7.7ZM37.7-11.46H51.4V-9.2H37.7Zm.08,5.82H48.5V-3.4H37.78Zm2.34-6.9h2.74v4.22h2.98v-4.22H48.7v6.38H40.12Zm7.64,6.9h.56l.5-.1,1.82.9a9.358,9.358,0,0,1-2.06,2.83A11.739,11.739,0,0,1,45.69-.05a17.843,17.843,0,0,1-3.55,1.26,37.375,37.375,0,0,1-4.08.75A8.456,8.456,0,0,0,37.55.7a6.731,6.731,0,0,0-.69-1.16,33.255,33.255,0,0,0,3.65-.5,17.8,17.8,0,0,0,3.16-.91,9.5,9.5,0,0,0,2.48-1.42,5.884,5.884,0,0,0,1.61-1.99ZM42.2-3.92a7.061,7.061,0,0,0,2.29,1.7A14.6,14.6,0,0,0,47.8-1.11a31.064,31.064,0,0,0,4.12.59,6.5,6.5,0,0,0-.63.75q-.33.45-.61.91a9.276,9.276,0,0,0-.46.84,24.343,24.343,0,0,1-4.35-.92A13.919,13.919,0,0,1,42.38-.58,11.483,11.483,0,0,1,39.7-3.04ZM41.54-17.1h3.04v3.16H41.54Zm-5.62,1.7H51.5v2.58H35.92Zm-1.42,0h2.78v5.56q0,1.26-.08,2.78t-.31,3.11a21.963,21.963,0,0,1-.67,3.08A11.712,11.712,0,0,1,35.08,1.8a5.862,5.862,0,0,0-.68-.56q-.44-.32-.9-.61A5.435,5.435,0,0,0,32.7.2a9.454,9.454,0,0,0,1-2.34,18.011,18.011,0,0,0,.53-2.63q.17-1.35.22-2.66t.05-2.41Z" transform="translate(352.916 600)" fill="#404d61"/>
      <g id="Group_713" data-name="Group 713" transform="translate(-4552.084 740)">
        <path id="Path_1318" data-name="Path 1318" d="M-39.13-22.54a16.771,16.771,0,0,1,1.4-6.825,17.087,17.087,0,0,1,3.85-5.53,18.218,18.218,0,0,1,5.81-3.71,19.159,19.159,0,0,1,7.28-1.365,18.074,18.074,0,0,1,7.77,1.61,15.968,15.968,0,0,1,5.81,4.62,21.213,21.213,0,0,1,3.64,7.42,36.183,36.183,0,0,1,1.26,9.94A44.718,44.718,0,0,1-3.675-4.8,25.763,25.763,0,0,1-7.56,3.745,16.9,16.9,0,0,1-13.72,9.03a18.06,18.06,0,0,1-8.19,1.82,19.629,19.629,0,0,1-8.575-1.89A20.788,20.788,0,0,1-37.45,3.5l6.3-7.14a12.593,12.593,0,0,0,4.2,3.5,11.173,11.173,0,0,0,5.18,1.26,8.024,8.024,0,0,0,6.545-2.94q2.415-2.94,2.555-8.33a9.306,9.306,0,0,1-3.71,2.94,12.916,12.916,0,0,1-5.39,1.05,18.575,18.575,0,0,1-6.9-1.26,16.819,16.819,0,0,1-5.5-3.465,16.258,16.258,0,0,1-3.64-5.18A15.682,15.682,0,0,1-39.13-22.54Zm18.34-7.98a7.085,7.085,0,0,0-2.94.63,7.87,7.87,0,0,0-2.45,1.715,8.381,8.381,0,0,0-1.68,2.555,7.739,7.739,0,0,0-.63,3.08,7.364,7.364,0,0,0,.595,2.975,7.372,7.372,0,0,0,1.645,2.38,7.978,7.978,0,0,0,2.45,1.61,7.615,7.615,0,0,0,3.01.595,7.44,7.44,0,0,0,2.94-.595,7.978,7.978,0,0,0,2.45-1.61,7.854,7.854,0,0,0,1.68-2.38,7.013,7.013,0,0,0,.63-2.975,7.739,7.739,0,0,0-.63-3.08,8.381,8.381,0,0,0-1.68-2.555,7.87,7.87,0,0,0-2.45-1.715A7.085,7.085,0,0,0-20.79-30.52ZM2.1-22.54a16.771,16.771,0,0,1,1.4-6.825A17.087,17.087,0,0,1,7.35-34.9a18.218,18.218,0,0,1,5.81-3.71,19.159,19.159,0,0,1,7.28-1.365,18.074,18.074,0,0,1,7.77,1.61,15.968,15.968,0,0,1,5.81,4.62,21.213,21.213,0,0,1,3.64,7.42,36.183,36.183,0,0,1,1.26,9.94A44.718,44.718,0,0,1,37.555-4.8a25.763,25.763,0,0,1-3.885,8.54A16.9,16.9,0,0,1,27.51,9.03a18.06,18.06,0,0,1-8.19,1.82,19.629,19.629,0,0,1-8.575-1.89A20.788,20.788,0,0,1,3.78,3.5l6.3-7.14a12.593,12.593,0,0,0,4.2,3.5,11.173,11.173,0,0,0,5.18,1.26,8.024,8.024,0,0,0,6.545-2.94q2.415-2.94,2.555-8.33a9.306,9.306,0,0,1-3.71,2.94,12.916,12.916,0,0,1-5.39,1.05,18.575,18.575,0,0,1-6.9-1.26,16.819,16.819,0,0,1-5.5-3.465,16.258,16.258,0,0,1-3.64-5.18A15.683,15.683,0,0,1,2.1-22.54Zm18.34-7.98a7.085,7.085,0,0,0-2.94.63,7.87,7.87,0,0,0-2.45,1.715,8.381,8.381,0,0,0-1.68,2.555,7.739,7.739,0,0,0-.63,3.08,7.364,7.364,0,0,0,.595,2.975,7.372,7.372,0,0,0,1.645,2.38,7.978,7.978,0,0,0,2.45,1.61,7.615,7.615,0,0,0,3.01.595,7.44,7.44,0,0,0,2.94-.595,7.978,7.978,0,0,0,2.45-1.61,7.854,7.854,0,0,0,1.68-2.38,7.013,7.013,0,0,0,.63-2.975,7.739,7.739,0,0,0-.63-3.08,8.381,8.381,0,0,0-1.68-2.555,7.87,7.87,0,0,0-2.45-1.715A7.085,7.085,0,0,0,20.44-30.52Z" transform="translate(4888 -83)" fill="#404d61"/>
        <path id="Path_1317" data-name="Path 1317" d="M-8.12-16.44a7.36,7.36,0,0,1-2.68-.48,6.816,6.816,0,0,1-2.16-1.32,6.314,6.314,0,0,1-1.46-1.98,5.583,5.583,0,0,1-.54-2.42,5.454,5.454,0,0,1,.54-2.4A6.386,6.386,0,0,1-12.96-27a6.816,6.816,0,0,1,2.16-1.32,7.36,7.36,0,0,1,2.68-.48,7.36,7.36,0,0,1,2.68.48A7.065,7.065,0,0,1-3.26-27,5.988,5.988,0,0,1-1.8-25.04a5.629,5.629,0,0,1,.52,2.4,5.763,5.763,0,0,1-.52,2.42,5.928,5.928,0,0,1-1.46,1.98,7.065,7.065,0,0,1-2.18,1.32A7.36,7.36,0,0,1-8.12-16.44Zm0-3.12a2.091,2.091,0,0,0,1.7-.9,3.444,3.444,0,0,0,.7-2.18,3.361,3.361,0,0,0-.7-2.16,2.105,2.105,0,0,0-1.7-.88,2.091,2.091,0,0,0-1.7.9,3.382,3.382,0,0,0-.7,2.14,3.444,3.444,0,0,0,.7,2.18A2.091,2.091,0,0,0-8.12-19.56ZM8.12.4A7.36,7.36,0,0,1,5.44-.08,6.816,6.816,0,0,1,3.28-1.4,6.386,6.386,0,0,1,1.82-3.36a5.454,5.454,0,0,1-.54-2.4,5.583,5.583,0,0,1,.54-2.42,6.314,6.314,0,0,1,1.46-1.98,6.816,6.816,0,0,1,2.16-1.32,7.36,7.36,0,0,1,2.68-.48,7.36,7.36,0,0,1,2.68.48,7.065,7.065,0,0,1,2.18,1.32,5.928,5.928,0,0,1,1.46,1.98,5.763,5.763,0,0,1,.52,2.42,5.629,5.629,0,0,1-.52,2.4A5.988,5.988,0,0,1,12.98-1.4,7.065,7.065,0,0,1,10.8-.08,7.36,7.36,0,0,1,8.12.4Zm0-3.12a2.145,2.145,0,0,0,1.72-.9,3.321,3.321,0,0,0,.72-2.14,3.38,3.38,0,0,0-.72-2.18,2.145,2.145,0,0,0-1.72-.9,2.091,2.091,0,0,0-1.7.9,3.444,3.444,0,0,0-.7,2.18,3.361,3.361,0,0,0,.7,2.16A2.105,2.105,0,0,0,8.12-2.72Zm-20.32.48L-.92-15.2,9.32-28.76,12.2-26.2,1.28-13.56-9.36.36Z" transform="translate(4947 -74)" fill="#404d61"/>
      </g>
    </g>
    <g id="Group_749" data-name="Group 749">
      <g id="Group_709" data-name="Group 709" transform="translate(225.916 557.775)">
        <path id="Path_1070" data-name="Path 1070" d="M60.814,10.864a11.515,11.515,0,0,0-.082-2.634A22.269,22.269,0,0,0,60.17,5.6l-.763-2.673q-.183-.684-.344-1.385c-.059-.229-.086-.483-.125-.726L58.888.449A3.031,3.031,0,0,1,58.928,0c-.314.19-.46.239-.663.347s-.358.185-.534.287a8.265,8.265,0,0,0-.97.655,7.792,7.792,0,0,0-.86.784,7.632,7.632,0,0,0-.753.915A10.035,10.035,0,0,0,53.4,7.8a13.8,13.8,0,0,0,3.344,10.174c2.268-1.125,3.739-3.577,4.065-7.114" transform="translate(-27.575)" fill="#47aef5"/>
        <path id="Path_1071" data-name="Path 1071" d="M80.632,11.271A12.647,12.647,0,0,0,82.655,9.2,24.545,24.545,0,0,0,84.3,6.747L85.837,4.1q.4-.667.834-1.33c.136-.222.315-.437.479-.653l.256-.323a3.381,3.381,0,0,1,.385-.311c-.39-.1-.541-.182-.781-.26s-.42-.142-.636-.2A9.128,9.128,0,0,0,85.117.754,8.572,8.572,0,0,0,83.84.671a8.388,8.388,0,0,0-1.3.1A11.031,11.031,0,0,0,77.4,3.07a15.171,15.171,0,0,0-5.5,10.412c2.621.937,5.685.23,8.734-2.211" transform="translate(-37.168 -0.347)" fill="#47aef5"/>
        <path id="Path_1072" data-name="Path 1072" d="M75.622,32.737a21.221,21.221,0,0,0-2.08-.52,9.891,9.891,0,0,0-2.065-.205,6.08,6.08,0,0,0-2,.339c-2.6.923-4.043,2.964-3.991,5.108a14.873,14.873,0,0,0,4.288.764,11.809,11.809,0,0,0,4.048-.536c2.459-.816,3.764-2.409,3.845-4.325-.667-.209-1.353-.425-2.044-.625" transform="translate(-33.852 -16.548)" fill="#47aef5"/>
        <path id="Path_1073" data-name="Path 1073" d="M34.311,37.735a14.38,14.38,0,0,0,1.071,2.619,14.633,14.633,0,0,0,3.447,4.291,6.641,6.641,0,0,0,2.355-3.119,8.977,8.977,0,0,0,.538-2.164,13.871,13.871,0,0,0,.056-2.534,14.2,14.2,0,0,0-1.568-5.139c-.816-1.666-1.766-3.289-2.552-5.022-2.458,1.347-4.058,4.457-3.831,8.27a12.9,12.9,0,0,0,.484,2.8" transform="translate(-17.476 -13.786)" fill="#47aef5"/>
        <path id="Path_1074" data-name="Path 1074" d="M61.639,58.346a4.754,4.754,0,0,0,.592-1.409,5.08,5.08,0,0,0,.1-1.535c-2.949-.223-6.1-.88-8.628.487-2.5,1.385-3.662,3.693-3.247,5.881a15.825,15.825,0,0,0,4.509.088,12.971,12.971,0,0,0,2.125-.444,11.211,11.211,0,0,0,1.931-.767,6.546,6.546,0,0,0,2.614-2.3" transform="translate(-26.044 -28.458)" fill="#47aef5"/>
        <path id="Path_1075" data-name="Path 1075" d="M20.7,70.385a14.962,14.962,0,0,0,4.173,3.747,6.136,6.136,0,0,0,1.183-1.584,8.164,8.164,0,0,0,.683-1.95,8.785,8.785,0,0,0,.181-2.273c-.008-.2-.025-.409-.044-.618s-.036-.417-.063-.63a13.087,13.087,0,0,0-.24-1.316,11.727,11.727,0,0,0-.96-2.568,19.283,19.283,0,0,0-1.433-2.369c-.536-.774-1.116-1.538-1.7-2.312s-1.138-1.547-1.663-2.358a7.345,7.345,0,0,0-2.453,3.72,9.333,9.333,0,0,0-.386,2.508,10.792,10.792,0,0,0,.269,2.774A13.414,13.414,0,0,0,20.7,70.385" transform="translate(-9.292 -29.03)" fill="#47aef5"/>
        <path id="Path_1076" data-name="Path 1076" d="M48.067,85.839a8.5,8.5,0,0,0,.758-.639,6.73,6.73,0,0,0,.647-.666,5.255,5.255,0,0,0,.873-1.432,4.691,4.691,0,0,0,.226-3.094c-1.513.117-3.1.133-4.614.339a10.61,10.61,0,0,0-2.173.5,7.033,7.033,0,0,0-1.926,1.018,6.946,6.946,0,0,0-1.458,1.48,6.58,6.58,0,0,0-.889,1.648,5.286,5.286,0,0,0,.011,3.386,16.229,16.229,0,0,0,4.622-.659,12.876,12.876,0,0,0,3.925-1.88" transform="translate(-20.284 -41.361)" fill="#47aef5"/>
        <path id="Path_1077" data-name="Path 1077" d="M8.924,100.414a14.446,14.446,0,0,0,1.958,2.23,15.03,15.03,0,0,0,4.844,3.025,6.651,6.651,0,0,0,1.244-3.888,8.945,8.945,0,0,0-.2-2.315,15.941,15.941,0,0,0-.8-2.524,11.326,11.326,0,0,0-1.393-2.424q-.419-.566-.893-1.1c-.306-.356-.625-.7-.956-1.049-1.324-1.379-2.82-2.688-4.157-4.162A7.4,7.4,0,0,0,7.366,90.1a7.614,7.614,0,0,0-.637,2.313,10.742,10.742,0,0,0,.783,5.383,13.826,13.826,0,0,0,1.412,2.621" transform="translate(-3.445 -45.598)" fill="#47aef5"/>
        <path id="Path_1078" data-name="Path 1078" d="M33.045,110.246a7.149,7.149,0,0,0-.386.912,4.4,4.4,0,0,0-.224.917,5.434,5.434,0,0,0,.612,3.431,17.178,17.178,0,0,0,4.59-1.491,14.2,14.2,0,0,0,1.967-1.17,10.929,10.929,0,0,0,1.688-1.406,8.3,8.3,0,0,0,1.183-1.551,5.312,5.312,0,0,0,.656-1.581,5.055,5.055,0,0,0-.3-3.147c-.765.18-1.553.339-2.34.509s-1.581.352-2.315.587a8.921,8.921,0,0,0-3.917,2.232,8.229,8.229,0,0,0-1.211,1.757" transform="translate(-16.738 -54.364)" fill="#47aef5"/>
        <path id="Path_1079" data-name="Path 1079" d="M.82,128.665a10.7,10.7,0,0,0,1.243,2.653A14.3,14.3,0,0,0,3.975,133.7a13.123,13.123,0,0,0,2.34,1.885,15.532,15.532,0,0,0,5.44,2.157,6.371,6.371,0,0,0,.563-1.975,7.713,7.713,0,0,0,.044-1.056,7.427,7.427,0,0,0-.071-1.1,12.22,12.22,0,0,0-1.883-4.681,15.833,15.833,0,0,0-4.071-4.025c-1.574-1.154-3.309-2.209-4.912-3.462a8.179,8.179,0,0,0-1.114,4.584,11.148,11.148,0,0,0,.509,2.633" transform="translate(-0.157 -62.784)" fill="#47aef5"/>
        <path id="Path_1080" data-name="Path 1080" d="M30.684,138.635a4.879,4.879,0,0,0,.353,1.815A5.485,5.485,0,0,0,31.953,142a17.411,17.411,0,0,0,4.356-2.353,18.476,18.476,0,0,0,1.812-1.545,11.078,11.078,0,0,0,1.437-1.726,8.954,8.954,0,0,0,.523-.9,6.989,6.989,0,0,0,.413-.881,5.353,5.353,0,0,0,.366-1.709,5.668,5.668,0,0,0-.034-.823,4.515,4.515,0,0,0-.138-.795,4.945,4.945,0,0,0-.7-1.5c-1.487.628-3.084,1.191-4.543,1.923a9.061,9.061,0,0,0-3.56,2.962,7.281,7.281,0,0,0-1.2,3.969" transform="translate(-15.862 -67.091)" fill="#47aef5"/>
        <path id="Path_1081" data-name="Path 1081" d="M7.933,170.248a15.65,15.65,0,0,0,5.795,1.229,6.874,6.874,0,0,0-.162-4.239q-.095-.271-.212-.542c-.07-.183-.144-.366-.227-.548a9.9,9.9,0,0,0-.584-1.1,13.06,13.06,0,0,0-1.7-2.176c-.349-.358-.692-.692-1.057-1A12.805,12.805,0,0,0,8.638,161a21.045,21.045,0,0,0-2.572-1.445c-.9-.437-1.845-.842-2.777-1.261S1.44,157.447.538,156.96a7.6,7.6,0,0,0-.359,1.113q-.069.288-.118.584c-.025.2-.041.4-.051.6a9.37,9.37,0,0,0,.226,2.5,10.812,10.812,0,0,0,.372,1.28c.077.213.16.426.252.639s.209.42.324.629a13.23,13.23,0,0,0,1.733,2.43,13.765,13.765,0,0,0,5.017,3.519" transform="translate(0 -81.142)" fill="#47aef5"/>
        <path id="Path_1082" data-name="Path 1082" d="M35.247,169.694a18.19,18.19,0,0,0,4.051-3.166,14.922,14.922,0,0,0,2.71-3.912,7.838,7.838,0,0,0,.625-1.979c.057-.316.067-.624.092-.925a5.231,5.231,0,0,0-.016-.881,4.727,4.727,0,0,0-.467-1.613,6.2,6.2,0,0,0-.983-1.395l-2.151,1.343c-.714.452-1.422.916-2.087,1.417a8.081,8.081,0,0,0-3.7,5.849,7.267,7.267,0,0,0-.063,1.054,6.879,6.879,0,0,0,.134,1,5.747,5.747,0,0,0,1.852,3.213" transform="translate(-17.194 -80.554)" fill="#47aef5"/>
        <path id="Path_1083" data-name="Path 1083" d="M15.309,203.315a14.979,14.979,0,0,0,6.08-.087c.058-2.876-1.537-5.637-4.781-8.043a17.162,17.162,0,0,0-5.454-2.509c-.978-.3-1.979-.56-2.993-.839-.507-.139-1.015-.283-1.524-.436l-.761-.239-.741-.243a5.582,5.582,0,0,0-.15,1.21,8.946,8.946,0,0,0,.051,1.276,9.138,9.138,0,0,0,.7,2.6,10.707,10.707,0,0,0,1.492,2.5,12.282,12.282,0,0,0,2.255,2.215,13.336,13.336,0,0,0,2.8,1.65,13.715,13.715,0,0,0,3.027.941" transform="translate(-2.575 -98.698)" fill="#47aef5"/>
        <path id="Path_1084" data-name="Path 1084" d="M41.295,193.834a5.4,5.4,0,0,0,2.6,2.728,21.1,21.1,0,0,0,3.328-4.045,19.758,19.758,0,0,0,1.178-2.175,13.824,13.824,0,0,0,.774-2.167c.738-2.854.015-4.934-1.894-6.281-1.269,1.1-2.7,2.209-3.856,3.429a12.136,12.136,0,0,0-1.552,1.953,7.5,7.5,0,0,0-.923,2.237,8.428,8.428,0,0,0-.156,2.3,6.872,6.872,0,0,0,.5,2.018" transform="translate(-21.077 -94.032)" fill="#47aef5"/>
        <path id="Path_1085" data-name="Path 1085" d="M31.5,236.515a15.743,15.743,0,0,0,3.112-.421,16.01,16.01,0,0,0,2.9-1.01c-.556-2.87-2.763-5.264-6.531-6.9a17.45,17.45,0,0,0-5.972-1.223c-1.038-.065-2.11-.082-3.174-.124s-2.137-.1-3.214-.225a8.794,8.794,0,0,0,1.774,4.9,11.917,11.917,0,0,0,4.77,3.77,14.974,14.974,0,0,0,1.541.59,14.113,14.113,0,0,0,1.589.39,14.258,14.258,0,0,0,3.2.244" transform="translate(-9.628 -117.152)" fill="#47aef5"/>
        <path id="Path_1086" data-name="Path 1086" d="M54.868,215.467a6.472,6.472,0,0,0,.967,1.921,5.607,5.607,0,0,0,1.438,1.394,5.483,5.483,0,0,0,.853.48,5.974,5.974,0,0,0,.936.315,19.813,19.813,0,0,0,1.382-2.351,20.075,20.075,0,0,0,1.052-2.472,19.148,19.148,0,0,0,.681-2.473c.082-.407.135-.8.184-1.2a11.084,11.084,0,0,0,.084-1.176c.056-3.071-1.153-5.02-3.386-5.92C57,206.8,54.449,209.71,54.492,213.11a8.426,8.426,0,0,0,.1,1.229,8.559,8.559,0,0,0,.274,1.127" transform="translate(-28.17 -105.45)" fill="#47aef5"/>
        <path id="Path_1087" data-name="Path 1087" d="M78.67,239.342a20.5,20.5,0,0,0,1.548-5.355,15.855,15.855,0,0,0-.043-5.158c-.611-3.178-2.313-4.973-4.778-5.445-.358.826-.75,1.663-1.126,2.51s-.719,1.693-1.01,2.551a12.364,12.364,0,0,0-.608,2.582,7.594,7.594,0,0,0,.1,2.584c.756,3.44,3.184,5.547,5.912,5.73" transform="translate(-37.527 -115.481)" fill="#47aef5"/>
        <path id="Path_1088" data-name="Path 1088" d="M51.877,261.249a16.554,16.554,0,0,0,3.023-1,16.77,16.77,0,0,0,2.721-1.538c-1.059-2.768-3.726-4.763-7.8-5.617a12.9,12.9,0,0,0-3.068-.264,23.374,23.374,0,0,0-3.105.3c-1.051.166-2.1.368-3.165.557s-2.142.375-3.234.492a8.554,8.554,0,0,0,.98,2.344,10.069,10.069,0,0,0,1.739,2.074,11.54,11.54,0,0,0,2.418,1.641,12.8,12.8,0,0,0,3,1.061,13.971,13.971,0,0,0,3.275.339,15,15,0,0,0,3.218-.381" transform="translate(-19.257 -130.698)" fill="#47aef5"/>
        <path id="Path_1089" data-name="Path 1089" d="M93.743,239.9c-.406,1.817-.959,3.7-1.226,5.545a13.325,13.325,0,0,0-.16,2.738,8.11,8.11,0,0,0,.551,2.62c1.35,3.386,4.13,5.165,6.951,4.971a18.315,18.315,0,0,0-.156-10.99c-1.2-3.185-3.327-4.8-5.961-4.885" transform="translate(-47.736 -124.02)" fill="#47aef5"/>
        <path id="Path_1090" data-name="Path 1090" d="M124.314,270.291a20.065,20.065,0,0,0,.076-5.911,17.28,17.28,0,0,0-.612-2.793,13.953,13.953,0,0,0-1.042-2.526c-1.679-3.135-4.163-4.544-6.9-4.289-.275,3.857-1.1,7.987.729,11.278s4.887,4.755,7.754,4.241" transform="translate(-59.661 -131.692)" fill="#47aef5"/>
        <path id="Path_1091" data-name="Path 1091" d="M81.308,278c-1.451-2.631-4.445-4.253-8.655-4.433a12.841,12.841,0,0,0-3.106.256,22.787,22.787,0,0,0-3.046.842c-1.017.352-2.028.74-3.053,1.126s-2.065.774-3.121,1.088a8.108,8.108,0,0,0,1.34,2.132A9.625,9.625,0,0,0,63.7,280.74a11.993,11.993,0,0,0,5.759,1.745,15.294,15.294,0,0,0,1.658,0,15.986,15.986,0,0,0,1.641-.2,15.66,15.66,0,0,0,3.152-.886A17.2,17.2,0,0,0,81.308,278" transform="translate(-31.187 -141.415)" fill="#47aef5"/>
        <path id="Path_1092" data-name="Path 1092" d="M99.074,290.922a13.157,13.157,0,0,0-3.083.676,23.379,23.379,0,0,0-2.938,1.276c-1.938.99-3.838,2.165-5.858,3.13,1.657,2.851,5.316,4.665,9.768,4.316a15.921,15.921,0,0,0,6.323-1.916,17.853,17.853,0,0,0,5.035-4.085c-1.762-2.488-5-3.765-9.246-3.4" transform="translate(-45.077 -150.363)" fill="#47aef5"/>
      </g>
      <g id="Group_710" data-name="Group 710" transform="translate(410.916 557.775)">
        <path id="Path_1093" data-name="Path 1093" d="M889.782,10.864a11.512,11.512,0,0,1,.081-2.634,22.285,22.285,0,0,1,.563-2.625c.25-.876.506-1.772.763-2.673q.183-.684.344-1.385c.059-.229.086-.483.125-.726l.049-.371a3.03,3.03,0,0,0-.04-.449c.314.19.46.239.663.347s.358.185.534.287a8.266,8.266,0,0,1,.97.655,7.839,7.839,0,0,1,.861.784,7.676,7.676,0,0,1,.753.915A10.036,10.036,0,0,1,897.191,7.8a13.8,13.8,0,0,1-3.344,10.174c-2.267-1.125-3.739-3.577-4.065-7.114" transform="translate(-858.109)" fill="#47aef5"/>
        <path id="Path_1094" data-name="Path 1094" d="M861,11.271A12.645,12.645,0,0,1,858.975,9.2a24.477,24.477,0,0,1-1.649-2.449L855.793,4.1q-.4-.667-.834-1.33c-.136-.222-.315-.437-.479-.653l-.257-.323a3.376,3.376,0,0,0-.385-.311c.39-.1.54-.182.781-.26s.42-.142.636-.2a9.127,9.127,0,0,1,1.258-.268A8.578,8.578,0,0,1,857.79.671a8.4,8.4,0,0,1,1.3.1,11.032,11.032,0,0,1,5.141,2.3,15.171,15.171,0,0,1,5.5,10.412c-2.622.937-5.685.23-8.734-2.211" transform="translate(-839.549 -0.347)" fill="#47aef5"/>
        <path id="Path_1095" data-name="Path 1095" d="M869.979,32.737a21.2,21.2,0,0,1,2.08-.52,9.891,9.891,0,0,1,2.065-.205,6.079,6.079,0,0,1,2,.339c2.6.923,4.043,2.964,3.992,5.108a14.873,14.873,0,0,1-4.288.764,11.81,11.81,0,0,1-4.048-.536c-2.459-.816-3.764-2.409-3.845-4.325.667-.209,1.353-.425,2.044-.625" transform="translate(-846.836 -16.548)" fill="#47aef5"/>
        <path id="Path_1096" data-name="Path 1096" d="M915.76,37.735a14.368,14.368,0,0,1-1.071,2.619,14.633,14.633,0,0,1-3.447,4.291,6.64,6.64,0,0,1-2.355-3.119,8.979,8.979,0,0,1-.538-2.164,13.871,13.871,0,0,1-.056-2.534,14.189,14.189,0,0,1,1.568-5.139c.816-1.666,1.766-3.289,2.552-5.022,2.458,1.347,4.059,4.457,3.831,8.27a12.941,12.941,0,0,1-.485,2.8" transform="translate(-867.683 -13.786)" fill="#47aef5"/>
        <path id="Path_1097" data-name="Path 1097" d="M884.186,58.346a4.772,4.772,0,0,1-.593-1.409,5.1,5.1,0,0,1-.1-1.535c2.949-.223,6.1-.88,8.628.487,2.5,1.385,3.662,3.693,3.247,5.881a15.824,15.824,0,0,1-4.509.088,12.972,12.972,0,0,1-2.125-.444,11.212,11.212,0,0,1-1.931-.767,6.547,6.547,0,0,1-2.614-2.3" transform="translate(-854.869 -28.458)" fill="#47aef5"/>
        <path id="Path_1098" data-name="Path 1098" d="M928.363,70.385a14.964,14.964,0,0,1-4.173,3.747,6.136,6.136,0,0,1-1.183-1.584,8.163,8.163,0,0,1-.683-1.95,8.785,8.785,0,0,1-.181-2.273c.008-.2.025-.409.044-.618s.036-.417.063-.63a13.088,13.088,0,0,1,.24-1.316,11.724,11.724,0,0,1,.96-2.568,19.3,19.3,0,0,1,1.433-2.369c.536-.774,1.116-1.538,1.7-2.312s1.138-1.547,1.663-2.358a7.344,7.344,0,0,1,2.453,3.72,9.337,9.337,0,0,1,.386,2.508,10.789,10.789,0,0,1-.269,2.774,13.413,13.413,0,0,1-2.449,5.228" transform="translate(-874.855 -29.03)" fill="#47aef5"/>
        <path id="Path_1099" data-name="Path 1099" d="M898.268,85.839a8.621,8.621,0,0,1-.758-.639,6.752,6.752,0,0,1-.647-.666,5.252,5.252,0,0,1-.873-1.432,4.688,4.688,0,0,1-.227-3.094c1.513.117,3.1.133,4.614.339a10.612,10.612,0,0,1,2.173.5,7.023,7.023,0,0,1,1.926,1.018,6.948,6.948,0,0,1,1.458,1.48,6.587,6.587,0,0,1,.889,1.648,5.286,5.286,0,0,1-.011,3.386,16.229,16.229,0,0,1-4.622-.659,12.876,12.876,0,0,1-3.925-1.88" transform="translate(-861.139 -41.361)" fill="#47aef5"/>
        <path id="Path_1100" data-name="Path 1100" d="M938.672,100.414a14.422,14.422,0,0,1-1.957,2.23,15.04,15.04,0,0,1-4.845,3.025,6.65,6.65,0,0,1-1.244-3.888,8.963,8.963,0,0,1,.2-2.315,15.931,15.931,0,0,1,.8-2.524,11.312,11.312,0,0,1,1.393-2.424c.279-.377.578-.744.893-1.1s.625-.7.956-1.049c1.324-1.379,2.82-2.688,4.157-4.162A7.394,7.394,0,0,1,940.23,90.1a7.6,7.6,0,0,1,.637,2.313,10.737,10.737,0,0,1-.784,5.383,13.824,13.824,0,0,1-1.412,2.621" transform="translate(-879.24 -45.598)" fill="#47aef5"/>
        <path id="Path_1101" data-name="Path 1101" d="M913.956,110.246a7.17,7.17,0,0,1,.386.912,4.4,4.4,0,0,1,.224.917,5.433,5.433,0,0,1-.613,3.431,17.177,17.177,0,0,1-4.59-1.491,14.206,14.206,0,0,1-1.967-1.17,10.932,10.932,0,0,1-1.688-1.406,8.267,8.267,0,0,1-1.183-1.551,5.308,5.308,0,0,1-.656-1.581,5.055,5.055,0,0,1,.3-3.147c.765.18,1.553.339,2.34.509s1.582.352,2.315.587a8.924,8.924,0,0,1,3.917,2.232,8.228,8.228,0,0,1,1.211,1.757" transform="translate(-865.35 -54.364)" fill="#47aef5"/>
        <path id="Path_1102" data-name="Path 1102" d="M944.912,128.665a10.692,10.692,0,0,1-1.243,2.653,14.294,14.294,0,0,1-1.911,2.382,13.126,13.126,0,0,1-2.34,1.885,15.533,15.533,0,0,1-5.44,2.157,6.374,6.374,0,0,1-.563-1.975,7.708,7.708,0,0,1-.044-1.056,7.429,7.429,0,0,1,.071-1.1,12.217,12.217,0,0,1,1.883-4.681,15.831,15.831,0,0,1,4.071-4.025c1.574-1.154,3.309-2.209,4.912-3.462a8.181,8.181,0,0,1,1.114,4.584,11.142,11.142,0,0,1-.509,2.633" transform="translate(-880.663 -62.784)" fill="#47aef5"/>
        <path id="Path_1103" data-name="Path 1103" d="M917.06,138.635a4.878,4.878,0,0,1-.353,1.815,5.485,5.485,0,0,1-.915,1.554,17.408,17.408,0,0,1-4.356-2.353,18.468,18.468,0,0,1-1.812-1.545,11.077,11.077,0,0,1-1.437-1.726,8.934,8.934,0,0,1-.523-.9,6.969,6.969,0,0,1-.413-.881,5.355,5.355,0,0,1-.366-1.709,5.738,5.738,0,0,1,.034-.823,4.511,4.511,0,0,1,.138-.795,4.944,4.944,0,0,1,.7-1.5c1.487.628,3.084,1.191,4.543,1.923a9.061,9.061,0,0,1,3.56,2.962,7.282,7.282,0,0,1,1.2,3.969" transform="translate(-866.97 -67.091)" fill="#47aef5"/>
        <path id="Path_1104" data-name="Path 1104" d="M935.735,170.248a15.649,15.649,0,0,1-5.795,1.229,6.871,6.871,0,0,1,.162-4.239q.1-.271.212-.542c.069-.183.144-.366.227-.548a9.962,9.962,0,0,1,.583-1.1,13.087,13.087,0,0,1,1.7-2.176c.349-.358.692-.692,1.056-1A12.877,12.877,0,0,1,935.03,161a21.051,21.051,0,0,1,2.572-1.445c.9-.437,1.845-.842,2.777-1.261s1.849-.851,2.751-1.339a7.672,7.672,0,0,1,.359,1.113q.069.288.117.584c.025.2.041.4.051.6a9.388,9.388,0,0,1-.225,2.5,10.856,10.856,0,0,1-.372,1.28c-.077.213-.16.426-.252.639s-.209.42-.324.629a13.228,13.228,0,0,1-1.733,2.43,13.766,13.766,0,0,1-5.017,3.519" transform="translate(-878.756 -81.142)" fill="#47aef5"/>
        <path id="Path_1105" data-name="Path 1105" d="M913.25,169.694a18.19,18.19,0,0,1-4.051-3.166,14.925,14.925,0,0,1-2.71-3.912,7.847,7.847,0,0,1-.625-1.979c-.057-.316-.067-.624-.092-.925a5.246,5.246,0,0,1,.016-.881,4.728,4.728,0,0,1,.467-1.613,6.208,6.208,0,0,1,.983-1.395l2.152,1.343c.714.452,1.422.916,2.087,1.417a8.081,8.081,0,0,1,3.7,5.849,7.237,7.237,0,0,1,.063,1.054,6.809,6.809,0,0,1-.134,1,5.744,5.744,0,0,1-1.852,3.213" transform="translate(-866.391 -80.554)" fill="#47aef5"/>
        <path id="Path_1106" data-name="Path 1106" d="M925.767,203.315a14.982,14.982,0,0,1-6.081-.087c-.058-2.876,1.537-5.637,4.782-8.043a17.165,17.165,0,0,1,5.454-2.509c.978-.3,1.979-.56,2.993-.839.507-.139,1.016-.283,1.524-.436l.761-.239.741-.243a5.578,5.578,0,0,1,.15,1.21,8.991,8.991,0,0,1-.051,1.276,9.136,9.136,0,0,1-.7,2.6,10.7,10.7,0,0,1-1.492,2.5,12.281,12.281,0,0,1-2.255,2.215,13.339,13.339,0,0,1-2.8,1.65,13.715,13.715,0,0,1-3.027.941" transform="translate(-873.589 -98.698)" fill="#47aef5"/>
        <path id="Path_1107" data-name="Path 1107" d="M908.049,193.834a5.4,5.4,0,0,1-2.6,2.728,21.108,21.108,0,0,1-3.328-4.045,19.843,19.843,0,0,1-1.178-2.175,13.819,13.819,0,0,1-.774-2.167c-.738-2.854-.015-4.934,1.894-6.281,1.269,1.1,2.7,2.209,3.856,3.429a12.129,12.129,0,0,1,1.552,1.953,7.5,7.5,0,0,1,.923,2.237,8.412,8.412,0,0,1,.156,2.3,6.875,6.875,0,0,1-.5,2.018" transform="translate(-863.354 -94.032)" fill="#47aef5"/>
        <path id="Path_1108" data-name="Path 1108" d="M906.923,236.515a15.744,15.744,0,0,1-3.112-.421,16.012,16.012,0,0,1-2.9-1.01c.556-2.87,2.762-5.264,6.531-6.9a17.45,17.45,0,0,1,5.972-1.223c1.038-.065,2.11-.082,3.173-.124s2.137-.1,3.214-.225a8.792,8.792,0,0,1-1.774,4.9,11.917,11.917,0,0,1-4.77,3.77,14.989,14.989,0,0,1-1.541.59,14.727,14.727,0,0,1-4.789.634" transform="translate(-863.882 -117.152)" fill="#47aef5"/>
        <path id="Path_1109" data-name="Path 1109" d="M895.258,215.467a6.471,6.471,0,0,1-.967,1.921,5.608,5.608,0,0,1-1.438,1.394,5.483,5.483,0,0,1-.853.48,5.972,5.972,0,0,1-.936.315,19.822,19.822,0,0,1-1.382-2.351,20.057,20.057,0,0,1-1.052-2.472,19.142,19.142,0,0,1-.681-2.473c-.082-.407-.135-.8-.184-1.2a11.073,11.073,0,0,1-.084-1.176c-.056-3.071,1.153-5.02,3.386-5.92,2.062,2.818,4.609,5.729,4.566,9.129a8.43,8.43,0,0,1-.1,1.229,8.557,8.557,0,0,1-.274,1.127" transform="translate(-857.044 -105.45)" fill="#47aef5"/>
        <path id="Path_1110" data-name="Path 1110" d="M871.6,239.342a20.479,20.479,0,0,1-1.548-5.355,15.855,15.855,0,0,1,.043-5.158c.611-3.178,2.313-4.973,4.778-5.445.359.826.75,1.663,1.126,2.51s.719,1.693,1.01,2.551a12.367,12.367,0,0,1,.608,2.582,7.6,7.6,0,0,1-.1,2.584c-.757,3.44-3.184,5.547-5.912,5.73" transform="translate(-847.835 -115.481)" fill="#47aef5"/>
        <path id="Path_1111" data-name="Path 1111" d="M884.959,261.249a16.549,16.549,0,0,1-3.023-1,16.777,16.777,0,0,1-2.721-1.538c1.059-2.768,3.726-4.763,7.8-5.617a12.9,12.9,0,0,1,3.068-.264,23.376,23.376,0,0,1,3.105.3c1.051.166,2.1.368,3.165.557s2.142.375,3.235.492a8.557,8.557,0,0,1-.98,2.344,10.058,10.058,0,0,1-1.739,2.074,11.538,11.538,0,0,1-2.418,1.641,12.8,12.8,0,0,1-3,1.061,13.971,13.971,0,0,1-3.275.339,15,15,0,0,1-3.218-.381" transform="translate(-852.668 -130.698)" fill="#47aef5"/>
        <path id="Path_1112" data-name="Path 1112" d="M856.032,239.9c.406,1.817.959,3.7,1.226,5.545a13.362,13.362,0,0,1,.159,2.738,8.1,8.1,0,0,1-.551,2.62c-1.35,3.386-4.13,5.165-6.951,4.971a18.31,18.31,0,0,1,.156-10.99c1.2-3.185,3.326-4.8,5.96-4.885" transform="translate(-837.126 -124.02)" fill="#47aef5"/>
        <path id="Path_1113" data-name="Path 1113" d="M824.517,270.291a20.012,20.012,0,0,1-.076-5.911,17.287,17.287,0,0,1,.612-2.793,13.978,13.978,0,0,1,1.041-2.526c1.679-3.135,4.163-4.544,6.9-4.289.275,3.857,1.1,7.987-.728,11.278s-4.887,4.755-7.754,4.241" transform="translate(-824.257 -131.692)" fill="#47aef5"/>
        <path id="Path_1114" data-name="Path 1114" d="M854.877,278c1.451-2.631,4.445-4.253,8.655-4.433a12.842,12.842,0,0,1,3.106.256,22.786,22.786,0,0,1,3.045.842c1.017.352,2.028.74,3.053,1.126s2.065.774,3.121,1.088a8.108,8.108,0,0,1-1.34,2.132,9.63,9.63,0,0,1-2.036,1.735,11.994,11.994,0,0,1-5.759,1.745,15.3,15.3,0,0,1-1.658,0,15.99,15.99,0,0,1-1.641-.2,15.657,15.657,0,0,1-3.152-.886A17.194,17.194,0,0,1,854.877,278" transform="translate(-840.086 -141.415)" fill="#47aef5"/>
        <path id="Path_1115" data-name="Path 1115" d="M842.979,292.874a23.388,23.388,0,0,0-2.938-1.275,13.132,13.132,0,0,0-3.083-.677c-4.249-.368-7.484.909-9.246,3.4a17.845,17.845,0,0,0,5.035,4.085,15.919,15.919,0,0,0,6.323,1.916c4.451.349,8.11-1.465,9.768-4.316-2.02-.965-3.92-2.14-5.858-3.13" transform="translate(-826.042 -150.363)" fill="#47aef5"/>
      </g>
    </g>
  </g>
</svg>
