<svg xmlns="http://www.w3.org/2000/svg" width="88.685" height="20.315" viewBox="0 0 88.685 20.315">
  <path id="Path_331" data-name="Path 331" d="M1229.227,7.582c-3.577,0-5.907,2.546-8.242,5.1-3.488,3.811-6.984,7.633-13.929,7.633s-10.442-3.821-13.929-7.633c-2.335-2.552-4.665-5.1-8.242-5.1s-5.907,2.546-8.242,5.1c-3.488,3.811-6.984,7.633-13.929,7.633s-10.441-3.821-13.929-7.633c-2.335-2.552-4.665-5.1-8.242-5.1V0c6.87,0,10.337,3.789,13.812,7.587,2.35,2.569,4.707,5.144,8.36,5.144s6.009-2.575,8.36-5.144c3.475-3.8,6.942-7.587,13.811-7.587s10.337,3.789,13.812,7.587c2.35,2.569,4.707,5.144,8.36,5.144s6.009-2.575,8.359-5.144c3.475-3.8,6.942-7.587,13.812-7.587Z" transform="translate(-1140.542 0.002)" fill="#fff" fill-rule="evenodd"/>
</svg>
