<svg xmlns="http://www.w3.org/2000/svg" xmlns:xlink="http://www.w3.org/1999/xlink" width="780" height="508.128" viewBox="0 0 780 508.128">
  <defs>
    <clipPath id="clip-path">
      <path id="Path_117" data-name="Path 117" d="M28.528,24.761a3.42,3.42,0,0,0-3.41,3.406V356.978a3.414,3.414,0,0,0,3.41,3.4H631.937a3.408,3.408,0,0,0,3.4-3.4V28.167a3.414,3.414,0,0,0-3.4-3.406Z" transform="translate(-25.118 -24.761)" fill="none"/>
    </clipPath>
  </defs>
  <g id="_75400114" data-name="75400114" transform="translate(-20 60.001)">
    <g id="Group_568" data-name="Group 568" transform="translate(20 -60.001)">
      <path id="Path_107" data-name="Path 107" d="M221.544,316.269l-24.478,110.2H374.6l-24.486-110.2Z" transform="translate(50.881 81.659)" fill="#b3b3b3"/>
      <g id="Group_70" data-name="Group 70" transform="translate(0 0)">
        <path id="Path_108" data-name="Path 108" d="M673.419,404.051a24.556,24.556,0,0,1-24.487,24.486H24.489A24.559,24.559,0,0,1,0,404.051V24.487A24.563,24.563,0,0,1,24.489,0H648.932a24.56,24.56,0,0,1,24.487,24.488Z" transform="translate(0 0.001)" fill="#ccc"/>
        <path id="Path_109" data-name="Path 109" d="M648.933,0H24.491A24.564,24.564,0,0,0,0,24.488v373.44H673.419V24.488A24.559,24.559,0,0,0,648.933,0" transform="translate(0 0.001)" fill="#6d6d6d"/>
        <path id="Path_110" data-name="Path 110" d="M396.454,398.439a9.208,9.208,0,0,0-9.184-9.184H191.836a9.185,9.185,0,0,0,0,18.37H387.271a9.215,9.215,0,0,0,9.184-9.186" transform="translate(47.159 100.504)" fill="#ccc"/>
        <path id="Path_111" data-name="Path 111" d="M635.34,356.978a3.409,3.409,0,0,1-3.4,3.4H28.528a3.416,3.416,0,0,1-3.41-3.4V28.167a3.422,3.422,0,0,1,3.41-3.407H631.937a3.415,3.415,0,0,1,3.4,3.407Z" transform="translate(6.485 6.394)" fill="#fff"/>
      </g>
      <g id="Group_72" data-name="Group 72" transform="translate(31.603 31.155)">
        <g id="Group_71" data-name="Group 71" clip-path="url(#clip-path)">
          <rect id="Rectangle_78" data-name="Rectangle 78" width="610.223" height="25.164" transform="translate(-0.001 45.85)" fill="#227fbc"/>
          <rect id="Rectangle_79" data-name="Rectangle 79" width="110.721" height="10.066" transform="translate(180.152 12.581)" fill="#e6e6e6"/>
          <rect id="Rectangle_80" data-name="Rectangle 80" width="154.549" height="10.066" transform="translate(180.152 27.05)" fill="#e6e6e6"/>
          <rect id="Rectangle_81" data-name="Rectangle 81" width="1.258" height="17.615" transform="translate(352.797 49.624)" fill="#fff"/>
          <rect id="Rectangle_82" data-name="Rectangle 82" width="1.258" height="17.615" transform="translate(256.168 49.624)" fill="#fff"/>
          <rect id="Rectangle_83" data-name="Rectangle 83" width="1.258" height="17.615" transform="translate(159.538 49.624)" fill="#fff"/>
          <rect id="Rectangle_84" data-name="Rectangle 84" width="1.258" height="17.615" transform="translate(449.425 49.624)" fill="#fff"/>
          <rect id="Rectangle_85" data-name="Rectangle 85" width="1.258" height="17.615" transform="translate(62.908 49.624)" fill="#fff"/>
          <rect id="Rectangle_86" data-name="Rectangle 86" width="1.258" height="17.615" transform="translate(546.054 49.624)" fill="#fff"/>
          <rect id="Rectangle_87" data-name="Rectangle 87" width="75.492" height="22.647" rx="4" transform="translate(471.821 14.468)" fill="#004bac"/>
          <rect id="Rectangle_88" data-name="Rectangle 88" width="484.404" height="176.147" transform="translate(62.908 85.483)" fill="#e6e6e6"/>
          <rect id="Rectangle_89" data-name="Rectangle 89" width="150.983" height="150.983" transform="translate(62.908 283.019)" fill="#e6e6e6"/>
          <rect id="Rectangle_90" data-name="Rectangle 90" width="150.983" height="150.983" transform="translate(229.619 283.019)" fill="#e6e6e6"/>
          <rect id="Rectangle_91" data-name="Rectangle 91" width="150.983" height="150.983" transform="translate(396.329 283.019)" fill="#e6e6e6"/>
          <rect id="Rectangle_92" data-name="Rectangle 92" width="24.215" height="24.215" transform="translate(62.908 12.581)" fill="#6d6d6d"/>
          <path id="Path_112" data-name="Path 112" d="M104.7,51.795V39.5h1.312v11h8.044v1.3Z" transform="translate(-4.57 -20.957)" fill="#6d6d6d"/>
          <path id="Path_113" data-name="Path 113" d="M119.247,51.831h-.726c-3.455,0-4.964-1.54-4.964-4.95V44.437c0-3.486,1.585-4.964,4.964-4.964h.726c3.381,0,5.01,1.569,5.01,4.964v2.445c0,3.41-1.555,4.95-5.01,4.95m3.7-7.394c0-2.655-1.3-3.621-3.7-3.621h-.726c-2.4,0-3.68.966-3.68,3.621v2.445c0,2.671,1.282,3.653,3.68,3.653h.726c2.4,0,3.7-.981,3.7-3.653Z" transform="translate(-2.284 -20.962)" fill="#6d6d6d"/>
          <path id="Path_114" data-name="Path 114" d="M133.755,51.8l-.077-1.525a4.573,4.573,0,0,1-3.8,1.525h-1.132c-3.547,0-4.9-1.7-4.9-4.965V44.467c0-3.229,1.658-5,4.9-5h2.777v1.312h-2.777c-2.49,0-3.621,1.344-3.621,3.683v2.369c0,2.55,1.087,3.666,3.621,3.666h1.132c2.641,0,3.651-1.327,3.651-3.078V46.67H129V45.418h5.823V51.8Z" transform="translate(0.372 -20.963)" fill="#6d6d6d"/>
          <path id="Path_115" data-name="Path 115" d="M140.126,51.831H139.4c-3.455,0-4.965-1.54-4.965-4.95V44.437c0-3.486,1.584-4.964,4.965-4.964h.725c3.38,0,5.009,1.569,5.009,4.964v2.445c0,3.41-1.553,4.95-5.009,4.95m3.7-7.394c0-2.655-1.3-3.621-3.7-3.621H139.4c-2.4,0-3.683.966-3.683,3.621v2.445c0,2.671,1.283,3.653,3.683,3.653h.725c2.4,0,3.7-.981,3.7-3.653Z" transform="translate(3.107 -20.962)" fill="#6d6d6d"/>
          <path id="Path_116" data-name="Path 116" d="M451.1,43.26l4.358,2.516L451.1,48.293Z" transform="translate(84.869 -19.985)" fill="#fff"/>
        </g>
      </g>
    </g>
    <g id="Group_74" data-name="Group 74" transform="translate(623.137 70.669)">
      <path id="Path_118" data-name="Path 118" d="M656.231,455.429a25.958,25.958,0,0,1-25.881,25.884h-125.1a25.957,25.957,0,0,1-25.88-25.884V129.741a25.959,25.959,0,0,1,25.88-25.886h125.1a25.96,25.96,0,0,1,25.881,25.886Z" transform="translate(-479.368 -103.855)" fill="#6d6d6d"/>
      <path id="Path_119" data-name="Path 119" d="M567.009,129.67a1.729,1.729,0,0,1-1.722,1.726H540.7a1.726,1.726,0,1,1,0-3.452h24.586a1.727,1.727,0,0,1,1.722,1.726" transform="translate(-463.979 -97.635)" fill="#333"/>
      <path id="Path_120" data-name="Path 120" d="M532.535,129.715a1.94,1.94,0,1,1-1.943-1.943,1.94,1.94,0,0,1,1.943,1.943" transform="translate(-466.642 -97.68)" fill="#333"/>
      <path id="Path_121" data-name="Path 121" d="M576.946,381.826a1.727,1.727,0,0,1-1.725,1.725H533.378a1.724,1.724,0,1,1,0-3.449h41.843a1.727,1.727,0,0,1,1.725,1.724" transform="translate(-465.869 -32.53)" fill="#333"/>
      <path id="Path_122" data-name="Path 122" d="M642.343,414.125a2.172,2.172,0,0,1-2.165,2.16H490.693a2.17,2.17,0,0,1-2.164-2.16V146.671a2.164,2.164,0,0,1,2.164-2.155H640.178a2.167,2.167,0,0,1,2.165,2.155Z" transform="translate(-477.003 -93.357)" fill="#fff"/>
      <rect id="Rectangle_93" data-name="Rectangle 93" width="153.814" height="111.017" transform="translate(11.526 82.129)" fill="#e6e6e6"/>
      <rect id="Rectangle_94" data-name="Rectangle 94" width="54.398" height="54.398" transform="translate(27.929 200.926)" fill="#e6e6e6"/>
      <rect id="Rectangle_95" data-name="Rectangle 95" width="54.398" height="54.398" transform="translate(94.539 200.926)" fill="#e6e6e6"/>
      <rect id="Rectangle_96" data-name="Rectangle 96" width="54.398" height="54.398" transform="translate(27.929 266.345)" fill="#e6e6e6"/>
      <rect id="Rectangle_97" data-name="Rectangle 97" width="54.398" height="54.398" transform="translate(94.539 266.345)" fill="#e6e6e6"/>
      <rect id="Rectangle_98" data-name="Rectangle 98" width="16.652" height="16.652" transform="translate(21.583 59.202)" fill="#6d6d6d"/>
      <path id="Path_123" data-name="Path 123" d="M516.865,162.622v-8.459h.9v7.566H523.3v.893Z" transform="translate(-469.686 -90.866)" fill="#6d6d6d"/>
      <path id="Path_124" data-name="Path 124" d="M526.868,162.647h-.5c-2.377,0-3.414-1.059-3.414-3.4v-1.681c0-2.4,1.088-3.415,3.414-3.415h.5c2.325,0,3.446,1.081,3.446,3.415v1.681c0,2.345-1.07,3.4-3.446,3.4m2.543-5.086c0-1.826-.893-2.49-2.543-2.49h-.5c-1.651,0-2.532.664-2.532,2.49v1.681c0,1.837.881,2.511,2.532,2.511h.5c1.649,0,2.543-.674,2.543-2.511Z" transform="translate(-468.114 -90.87)" fill="#6d6d6d"/>
      <path id="Path_125" data-name="Path 125" d="M536.845,162.626l-.052-1.048a3.149,3.149,0,0,1-2.615,1.048H533.4c-2.438,0-3.372-1.173-3.372-3.415v-1.628c0-2.221,1.14-3.436,3.372-3.436h1.91v.9H533.4a2.23,2.23,0,0,0-2.49,2.533v1.628c0,1.754.747,2.521,2.49,2.521h.779c1.815,0,2.511-.913,2.511-2.116v-.52h-3.113v-.859h4v4.389Z" transform="translate(-466.288 -90.87)" fill="#6d6d6d"/>
      <path id="Path_126" data-name="Path 126" d="M541.227,162.647h-.5c-2.377,0-3.415-1.059-3.415-3.4v-1.681c0-2.4,1.088-3.415,3.415-3.415h.5c2.323,0,3.445,1.081,3.445,3.415v1.681c0,2.345-1.068,3.4-3.445,3.4m2.543-5.086c0-1.826-.893-2.49-2.543-2.49h-.5c-1.651,0-2.531.664-2.531,2.49v1.681c0,1.837.881,2.511,2.531,2.511h.5c1.649,0,2.543-.674,2.543-2.511Z" transform="translate(-464.407 -90.87)" fill="#6d6d6d"/>
      <rect id="Rectangle_99" data-name="Rectangle 99" width="12.212" height="1.11" transform="translate(142.649 61.421)" fill="#6d6d6d"/>
      <rect id="Rectangle_100" data-name="Rectangle 100" width="12.212" height="1.111" transform="translate(142.649 66.971)" fill="#6d6d6d"/>
      <rect id="Rectangle_101" data-name="Rectangle 101" width="12.212" height="1.111" transform="translate(142.649 72.522)" fill="#6d6d6d"/>
    </g>
  </g>
</svg>
