<svg xmlns="http://www.w3.org/2000/svg" width="115.421" height="115.421" viewBox="0 0 115.421 115.421">
  <g id="簡単5分見積りボタン" transform="translate(-1442.289 -832.289)">
    <path id="Path_1116" data-name="Path 1116" d="M66.471,3.3a7,7,0,0,1,9.25,1.84L77.7,7.82a7,7,0,0,0,6.681,2.768l3.3-.5a7,7,0,0,1,7.842,5.24l.8,3.237a7,7,0,0,0,5.114,5.114l3.237.8a7,7,0,0,1,5.24,7.842l-.5,3.3A7,7,0,0,0,112.18,42.3l2.684,1.979a7,7,0,0,1,1.84,9.25l-1.722,2.855a7,7,0,0,0,0,7.232l1.722,2.855a7,7,0,0,1-1.84,9.25L112.18,77.7a7,7,0,0,0-2.768,6.681l.5,3.3a7,7,0,0,1-5.24,7.842l-3.237.8a7,7,0,0,0-5.114,5.114l-.8,3.237a7,7,0,0,1-7.842,5.24l-3.3-.5A7,7,0,0,0,77.7,112.18l-1.979,2.684a7,7,0,0,1-9.25,1.84l-2.855-1.722a7,7,0,0,0-7.232,0L53.529,116.7a7,7,0,0,1-9.25-1.84L42.3,112.18a7,7,0,0,0-6.681-2.768l-3.3.5a7,7,0,0,1-7.842-5.24l-.8-3.237a7,7,0,0,0-5.114-5.114l-3.237-.8a7,7,0,0,1-5.24-7.842l.5-3.3A7,7,0,0,0,7.82,77.7L5.136,75.721a7,7,0,0,1-1.84-9.25l1.722-2.855a7,7,0,0,0,0-7.232L3.3,53.529a7,7,0,0,1,1.84-9.25L7.82,42.3a7,7,0,0,0,2.768-6.681l-.5-3.3a7,7,0,0,1,5.24-7.842l3.237-.8a7,7,0,0,0,5.114-5.114l.8-3.237a7,7,0,0,1,7.842-5.24l3.3.5A7,7,0,0,0,42.3,7.82l1.979-2.684a7,7,0,0,1,9.25-1.84l2.855,1.722a7,7,0,0,0,7.232,0Z" transform="translate(1440 830)" fill="#47aef5"/>
    <path id="Path_1323" data-name="Path 1323" d="M-28.56-9.408h1.728V1.424H-28.56ZM-25.2-4.48h1.728V.576H-25.2Zm.768,0h5.312V.032h-5.312V-1.04h3.616V-3.424h-3.616Zm-3.2-4.928h5.072v4.32h-5.072v-1.1h3.344V-8.3h-3.344Zm.016,1.632h3.808v1.04h-3.808Zm3.2,5.024h4.384v1.04h-4.384Zm3.84-5.024h3.92v1.04h-3.92Zm3.712-1.632v1.1H-19.9v2.112h3.04v1.1h-4.768v-4.32Zm-.432,0H-15.5V-.5a2.644,2.644,0,0,1-.168,1.04,1.12,1.12,0,0,1-.584.576,2.893,2.893,0,0,1-1.08.272q-.632.048-1.544.032a3.887,3.887,0,0,0-.192-.856,5.461,5.461,0,0,0-.336-.824q.544.032,1.08.032h.712q.32,0,.32-.288ZM-27.44-12.464h5.056v1.456H-27.44Zm6.448,0h6.144v1.456h-6.144Zm-6.368-1.264,1.776.5a11.82,11.82,0,0,1-1.176,2.064,12.254,12.254,0,0,1-1.416,1.7,3.99,3.99,0,0,0-.464-.352l-.576-.384a4.077,4.077,0,0,0-.528-.3A7.481,7.481,0,0,0-28.36-11.96,8.045,8.045,0,0,0-27.36-13.728Zm6.528,0,1.824.448a10.048,10.048,0,0,1-1.152,2.04,10.053,10.053,0,0,1-1.424,1.608,4.076,4.076,0,0,0-.5-.312q-.312-.168-.632-.336a6.141,6.141,0,0,0-.56-.264,6.658,6.658,0,0,0,1.432-1.416A7.711,7.711,0,0,0-20.832-13.728Zm-6,2.48,1.584-.432a10.18,10.18,0,0,1,.544.864,6.762,6.762,0,0,1,.416.848l-1.68.464a6.632,6.632,0,0,0-.352-.848A7.063,7.063,0,0,0-26.832-11.248Zm7.152-.016,1.632-.432q.336.384.688.872a5.344,5.344,0,0,1,.528.872l-1.712.464a5.7,5.7,0,0,0-.464-.856A8.353,8.353,0,0,0-19.68-11.264ZM-6.224-9.888H-4.24V1.424H-6.224Zm-2.912,3.2V-5.6H-1.2V-6.688Zm0-2.544v1.088H-1.2V-9.232ZM-11.008-10.8H.784v6.784H-11.008Zm-1.424,7.824H2.08V-1.2H-12.432Zm1.424-9.792,1.664-.752q.448.512.912,1.144a7.965,7.965,0,0,1,.7,1.112l-1.76.832a7.7,7.7,0,0,0-.648-1.144A14.757,14.757,0,0,0-11.008-12.768Zm3.936-.24,1.712-.656q.416.56.824,1.224a7.027,7.027,0,0,1,.6,1.176l-1.84.736A6.319,6.319,0,0,0-6.3-11.72Q-6.672-12.416-7.072-13.008ZM-1.12-13.6l2.128.624q-.512.8-1.048,1.568t-.968,1.3L-2.7-10.7q.288-.4.584-.9t.56-1.024Q-1.3-13.152-1.12-13.6ZM8.192.224A5.772,5.772,0,0,1,6.512,0,5.277,5.277,0,0,1,5.2-.592a6.545,6.545,0,0,1-1.024-.8L5.264-2.9a5.3,5.3,0,0,0,.728.608,3.448,3.448,0,0,0,.864.432,3.145,3.145,0,0,0,1.016.16,2.229,2.229,0,0,0,1.08-.256A1.85,1.85,0,0,0,9.7-2.7a2.381,2.381,0,0,0,.272-1.176,2.161,2.161,0,0,0-.552-1.584,1.943,1.943,0,0,0-1.448-.56,2.543,2.543,0,0,0-.88.136,4.955,4.955,0,0,0-.9.472L5.12-6.1l.32-5.76h6.336v1.984h-4.3L7.248-7.36a3.784,3.784,0,0,1,.688-.24,3.177,3.177,0,0,1,.736-.08,4.225,4.225,0,0,1,1.824.392,3.027,3.027,0,0,1,1.328,1.224,4.107,4.107,0,0,1,.5,2.128,4.162,4.162,0,0,1-.584,2.248,3.892,3.892,0,0,1-1.52,1.424A4.313,4.313,0,0,1,8.192.224ZM17.28-7.712h8.656v1.856H17.28Zm8.016,0h2.016v.5a2.737,2.737,0,0,1-.016.328q-.064,1.808-.144,3.112T26.968-1.6A9.473,9.473,0,0,1,26.72-.224a2.154,2.154,0,0,1-.352.768,1.968,1.968,0,0,1-.664.544,2.829,2.829,0,0,1-.808.224,7.545,7.545,0,0,1-1.056.072q-.656.008-1.376-.024a3.745,3.745,0,0,0-.192-.984,4.035,4.035,0,0,0-.432-.952q.672.048,1.248.064t.864.016a1.407,1.407,0,0,0,.368-.04.673.673,0,0,0,.288-.184,1.971,1.971,0,0,0,.312-.92q.12-.712.216-2.112t.16-3.624Zm-6.224-5.68,2.08.608A18.491,18.491,0,0,1,19.736-10.1,19.5,19.5,0,0,1,17.96-7.712a14.5,14.5,0,0,1-1.976,1.888q-.176-.208-.48-.5t-.616-.584a6.552,6.552,0,0,0-.552-.464,11.993,11.993,0,0,0,1.9-1.608,13.876,13.876,0,0,0,1.64-2.064A12.32,12.32,0,0,0,19.072-13.392Zm6.1-.032a13.677,13.677,0,0,0,.928,1.568,18.036,18.036,0,0,0,1.192,1.56q.648.76,1.328,1.432A13.487,13.487,0,0,0,29.952-7.7a5.454,5.454,0,0,0-.568.5q-.312.312-.592.632a7.349,7.349,0,0,0-.472.592q-.672-.624-1.36-1.4T25.608-9.016q-.664-.872-1.256-1.808T23.28-12.672Zm-5.04,6.256h2.1a23.19,23.19,0,0,1-.368,2.624,9.205,9.205,0,0,1-.84,2.416,6.853,6.853,0,0,1-1.68,2.072,9.381,9.381,0,0,1-2.888,1.592,3.666,3.666,0,0,0-.32-.592Q15.92.624,15.68.312a4.407,4.407,0,0,0-.48-.536A7.849,7.849,0,0,0,17.76-1.5,5.421,5.421,0,0,0,19.184-3.16a6.558,6.558,0,0,0,.664-1.928Q20.032-6.112,20.128-7.168ZM-20.3,15.12v.992h6.7V15.12Zm0,2.56v1.008h6.7V17.68Zm0-5.1v.992h6.7v-.992Zm-1.856-1.664h10.512v9.44H-22.16Zm5.936,8.16h1.968V22.9q0,.384.12.488a.985.985,0,0,0,.568.1h1.68a.563.563,0,0,0,.416-.144,1.123,1.123,0,0,0,.208-.608q.064-.464.1-1.408a3.409,3.409,0,0,0,.52.32,4.462,4.462,0,0,0,.656.272l.584.192a8.191,8.191,0,0,1-.336,1.96,1.705,1.705,0,0,1-.7.968,2.5,2.5,0,0,1-1.264.272H-13.84a3.813,3.813,0,0,1-1.464-.224,1.283,1.283,0,0,1-.72-.752,4.123,4.123,0,0,1-.2-1.424Zm-3.9.656h2.048a11.288,11.288,0,0,1-.344,1.992,4.673,4.673,0,0,1-.8,1.624,4.709,4.709,0,0,1-1.56,1.256,10.742,10.742,0,0,1-2.624.9,2.623,2.623,0,0,0-.264-.584q-.184-.312-.4-.624a3.042,3.042,0,0,0-.424-.5,9.87,9.87,0,0,0,2.224-.632A3.724,3.724,0,0,0-21,22.288a2.819,2.819,0,0,0,.616-1.128A8.522,8.522,0,0,0-20.128,19.728ZM-5.136,11.9H-3.28v13.52H-5.136Zm-2.16,2.88h5.6v1.792H-7.3Zm2.32.848,1.12.48q-.24.864-.552,1.792T-5.1,19.736a17.4,17.4,0,0,1-.816,1.7,10.317,10.317,0,0,1-.9,1.392,6.017,6.017,0,0,0-.392-.936,9.585,9.585,0,0,0-.5-.888A7.831,7.831,0,0,0-6.88,19.88q.4-.648.768-1.384t.656-1.472Q-5.168,16.288-4.976,15.632Zm2.32-5.056,1.28,1.472a14.808,14.808,0,0,1-1.752.536q-.952.232-1.936.384t-1.9.264a5.674,5.674,0,0,0-.224-.744,5.138,5.138,0,0,0-.32-.728q.88-.128,1.76-.312t1.68-.408A14.552,14.552,0,0,0-2.656,10.576Zm-.768,6.384a5.486,5.486,0,0,1,.44.408q.3.3.64.648t.616.648q.272.3.384.424l-1.088,1.52q-.144-.3-.376-.688t-.5-.8q-.264-.416-.52-.792t-.448-.616ZM1.84,10.4H3.76v5.12H1.84Zm-3.136.752H7.088V12.3H-1.3Zm.288,1.7H6.72v1.12H-1.008Zm-.784,1.664H7.424v1.2H-1.792Zm2.72,4.672v.688h3.9v-.688Zm0,1.792v.688h3.9v-.688Zm0-3.552V18.1h3.9v-.672ZM-.784,16.24H6.64v6.608H-.784Zm4.112,7.328,1.28-.912q.528.288,1.1.64t1.08.68q.512.328.88.568l-1.68.912q-.288-.24-.736-.568t-.944-.68Q3.808,23.856,3.328,23.568ZM.992,22.576l1.488.976a8.926,8.926,0,0,1-1.136.76,13.064,13.064,0,0,1-1.368.68q-.712.3-1.368.512a8.134,8.134,0,0,0-.552-.6q-.344-.344-.632-.6a9.231,9.231,0,0,0,1.328-.472q.672-.3,1.264-.624A7.24,7.24,0,0,0,.992,22.576ZM14.736,11.152q-.08.288-.176.72t-.192.9q-.1.472-.168.92t-.1.784a6.47,6.47,0,0,1,.688-.936,5.853,5.853,0,0,1,.9-.832,4.423,4.423,0,0,1,1.1-.6,3.607,3.607,0,0,1,1.272-.224,3.226,3.226,0,0,1,2.016.688A4.584,4.584,0,0,1,21.5,14.544a8.057,8.057,0,0,1,.52,3.04,8.143,8.143,0,0,1-.5,2.968A6,6,0,0,1,20.1,22.72a7.526,7.526,0,0,1-2.216,1.464,12.755,12.755,0,0,1-2.872.856l-1.216-1.856a15.933,15.933,0,0,0,2.44-.568,6.269,6.269,0,0,0,1.92-.984A4.114,4.114,0,0,0,19.4,20.024a5.932,5.932,0,0,0,.44-2.424,7.368,7.368,0,0,0-.256-2.088,2.825,2.825,0,0,0-.744-1.3,1.657,1.657,0,0,0-1.16-.448,2.255,2.255,0,0,0-1.344.464,4.783,4.783,0,0,0-1.144,1.208,6.759,6.759,0,0,0-.8,1.608,5.856,5.856,0,0,0-.328,1.664q-.016.336-.008.736a8.086,8.086,0,0,0,.088.96l-1.968.128q-.064-.464-.136-1.16a14.746,14.746,0,0,1-.072-1.512q0-.56.04-1.2t.1-1.3q.056-.664.144-1.336t.168-1.28q.064-.464.1-.912t.032-.768Z" transform="translate(1500 885)" fill="#fff"/>
  </g>
</svg>
