<svg xmlns="http://www.w3.org/2000/svg" width="80" height="80" viewBox="0 0 80 80">
  <g id="Group_774" data-name="Group 774" transform="translate(-636 -13628)">
    <path id="Union_11" data-name="Union 11" d="M-5277,12805a39,39,0,0,1-39-39v-2a39,39,0,0,1,39-39h2a39,39,0,0,1,39,39v2a38.846,38.846,0,0,1-9.329,25.313l5.087,9.446-9.446-5.087A38.849,38.849,0,0,1-5275,12805Z" transform="translate(5952 903)" fill="#f7ff00"/>
    <path id="Path_1314" data-name="Path 1314" d="M-15.3-17l2.36.7a16.4,16.4,0,0,1-1.28,2.16,17.124,17.124,0,0,1-1.59,1.96A17.392,17.392,0,0,1-17.5-10.6a4.422,4.422,0,0,0-.56-.54q-.36-.3-.74-.58t-.66-.46a11.814,11.814,0,0,0,2.4-2.12A10.907,10.907,0,0,0-15.3-17Zm-.16,2.12H-1.68v2.1H-16.04Zm-3.56,4.66H-.94v2.14H-19.02Zm.32,4.68H-1.24V-3.4H-18.7Zm5.94-8.6h2v9.72h-2Zm-3.56,0h2.14V-4.4h-2.14Zm7.04,0h2V-4.4h-2Zm3.52,0h2.2V-4.4h-2.2Zm-7.6,11.86,2.22-.24q.2.9.35,1.96a16.329,16.329,0,0,1,.17,1.8l-2.36.34q0-.48-.05-1.14t-.13-1.38Q-13.24-1.66-13.36-2.28Zm3.98.06,2.24-.38q.26.58.5,1.26t.42,1.32a9.881,9.881,0,0,1,.26,1.16l-2.4.46A14.987,14.987,0,0,0-8.75-.22Q-9.04-1.3-9.38-2.22Zm3.96-.12,2.3-.72q.48.62.96,1.34t.92,1.43A9.787,9.787,0,0,1-.56.98l-2.46.82A13.054,13.054,0,0,0-3.63.54q-.39-.72-.86-1.47T-5.42-2.34Zm-11.54-.64,2.32.58a12.676,12.676,0,0,1-.94,2.28,9.035,9.035,0,0,1-1.34,1.94l-2.3-.94a7.565,7.565,0,0,0,1.3-1.7A10.3,10.3,0,0,0-16.96-2.98ZM3.8-16.9H6V1.74H3.8ZM.76-10.32h8.2v2.24H.76Zm2.6,1.18,1.34.66q-.26,1-.6,2.11T3.34-4.16q-.42,1.1-.88,2.07A10.76,10.76,0,0,1,1.48-.4a6.236,6.236,0,0,0-.29-.83Q1-1.68.79-2.12T.4-2.88A11.014,11.014,0,0,0,1.57-4.71Q2.14-5.8,2.62-6.97A17.114,17.114,0,0,0,3.36-9.14ZM5.98-7.98q.16.16.47.5t.69.77q.38.43.73.86t.64.77a6.179,6.179,0,0,1,.41.52L7.46-2.68q-.2-.44-.52-1.03t-.7-1.22q-.38-.63-.74-1.19t-.62-.92ZM.74-15.36l1.68-.44a16.084,16.084,0,0,1,.47,1.56q.21.84.35,1.64t.2,1.44l-1.8.48a11.526,11.526,0,0,0-.15-1.45q-.13-.81-.32-1.66A16.038,16.038,0,0,0,.74-15.36Zm6.58-.54,2.02.44q-.24.82-.52,1.68t-.56,1.65q-.28.79-.52,1.39l-1.52-.44q.22-.64.43-1.47t.39-1.69Q7.22-15.2,7.32-15.9ZM14.9-17h2.24V1.78H14.9ZM8.92-4.48,19.2-6.32l.36,2.22L9.28-2.24Zm1.12-9.8,1.18-1.62q.56.32,1.17.74t1.16.86a6.231,6.231,0,0,1,.87.82l-1.24,1.8a5.742,5.742,0,0,0-.83-.86q-.53-.46-1.13-.92T10.04-14.28Zm-.9,5.04,1.12-1.72a13.5,13.5,0,0,1,1.24.71q.64.41,1.22.82a6.335,6.335,0,0,1,.94.79L12.44-6.72a6.392,6.392,0,0,0-.88-.83Q11-8,10.37-8.45A13.994,13.994,0,0,0,9.14-9.24Z" transform="translate(676 13677)" fill="#004bac"/>
  </g>
</svg>
