<svg xmlns="http://www.w3.org/2000/svg" xmlns:xlink="http://www.w3.org/1999/xlink" width="95" height="97.187" viewBox="0 0 95 97.187">
  <defs>
    <clipPath id="clip-path">
      <rect id="Rectangle_3911" data-name="Rectangle 3911" width="86.91" height="86.291" fill="#01675b"/>
    </clipPath>
  </defs>
  <g id="icon03" transform="translate(-204 -3988)">
    <g id="Group_67044" data-name="Group 67044" transform="translate(-114.678 -269)">
      <g id="Group_16807" data-name="Group 16807" transform="translate(322.678 4258)">
        <g id="Group_8501" data-name="Group 8501" clip-path="url(#clip-path)">
          <path id="Path_2443" data-name="Path 2443" d="M79.177,204.663l-10.583-8.474-3-6.585,4.837-4.836a5.009,5.009,0,0,0-2.085-8.336,5.008,5.008,0,0,0-4.432-7.483c0-.026,0-.051,0-.077a5.009,5.009,0,0,0-6.79-4.683,5.008,5.008,0,0,0-8.389-2.279l-.277.277a8.372,8.372,0,0,0-2.46-5.553,1.415,1.415,0,0,0-2,0l-5.744,5.744-1.765-1.519a4.871,4.871,0,0,0-6.862.515l-.189.22a4.829,4.829,0,0,0-1.164,3.536,4.911,4.911,0,0,0,.071.541,4.826,4.826,0,0,0-2.859,1.619l-.193.224a4.87,4.87,0,0,0-.732,5.2,4.838,4.838,0,0,0-2.127,1.436l-.19.221a4.874,4.874,0,0,0-.735,5.205,4.833,4.833,0,0,0-2.122,1.433l-.193.224a4.87,4.87,0,0,0,.512,6.86l.045.038L5.571,202.9a1.416,1.416,0,1,0,2,2L21.9,189.988l5.126,4.413a4.826,4.826,0,0,0,3.165,1.179c.123,0,.246,0,.37-.014a4.83,4.83,0,0,0,3.323-1.676l.193-.224a4.826,4.826,0,0,0,1.176-3.3,4.852,4.852,0,0,0,3.6-1.685l.192-.223a4.852,4.852,0,0,0,1.13-3.83,4.826,4.826,0,0,0,3.072-1.651l.193-.224a4.825,4.825,0,0,0,1.139-2.551,4.87,4.87,0,0,0,.913.088c.123,0,.246,0,.37-.014a4.832,4.832,0,0,0,3.325-1.678l.19-.221a4.865,4.865,0,0,0-.512-6.86l-3.076-2.648,4.952-4.952a2.231,2.231,0,0,1,3.082,0,2.18,2.18,0,0,1,.371,2.586l-2.441,2.441a1.409,1.409,0,0,0-.284.409l-.711.711a1.416,1.416,0,1,0,2,2L55.819,169a5.006,5.006,0,0,0,.6-.722l.944-.944a2.179,2.179,0,0,1,3.083,3.082l-3.612,3.612a1.416,1.416,0,1,0,2,2l3.612-3.612a2.179,2.179,0,0,1,3.082,3.082l-2.167,2.167-.019.018-2.891,2.891a1.416,1.416,0,0,0,2,2l1.457-1.458.007-.007,1.436-1.436a2.179,2.179,0,0,1,3.073,3.091L53.307,197.883a13.939,13.939,0,0,1-9.827,4.107c-.233,0-.464.013-.694.029l-.025,0a10.731,10.731,0,0,0-6.855,3.134L27.865,213.2a1.416,1.416,0,1,0,2,2l8.042-8.041a7.92,7.92,0,0,1,4.51-2.255L54.463,215.27a1.416,1.416,0,0,0,1.847-2.146l-9.946-8.563a16.743,16.743,0,0,0,8.946-4.676l8.143-8.143,2.695,5.909a1.423,1.423,0,0,0,.371.49l10.823,8.678a1.416,1.416,0,1,0,1.836-2.155m-34.311-44.9a5.606,5.606,0,0,1-.874,6.793l-.411.411L40.4,164.23ZM31.93,191.817l-.193.223a2.031,2.031,0,0,1-2.866.214l-7.323-6.3a2.035,2.035,0,0,1-.215-2.865l.193-.224a2.02,2.02,0,0,1,1.389-.7c.052,0,.1-.005.154-.005a2.018,2.018,0,0,1,1.323.492l7.322,6.3a2.031,2.031,0,0,1,.216,2.865m4.964-5.212-.192.223a2.034,2.034,0,0,1-2.866.214L24.6,179.088a2.032,2.032,0,0,1-.213-2.867l.19-.221a2.032,2.032,0,0,1,2.863-.217l8.944,7.7,0,0,.294.253a2.035,2.035,0,0,1,.214,2.866m4.4-5.705-.193.224a2.032,2.032,0,0,1-2.863.216l-8.943-7.7-.007-.006-1.635-1.407a2.035,2.035,0,0,1-.215-2.865l.193-.223a2.032,2.032,0,0,1,2.866-.214l6,5.161,4.591,3.952a2.032,2.032,0,0,1,.211,2.862m5.722-7.241a2.032,2.032,0,0,1,.213,2.867l-.19.221a2.035,2.035,0,0,1-2.867.214l-1.238-1.066-.007-.007-4.587-3.949-6.542-5.632a2.033,2.033,0,0,1-.212-2.869l.189-.22A2.036,2.036,0,0,1,34.637,163Z" transform="translate(-0.414 -129.407)" fill="#01675b"/>
          <path id="Path_2444" data-name="Path 2444" d="M79.308,204.663l-10.714-8.474-3-6.585,4.837-4.836a5.009,5.009,0,0,0-2.085-8.336,5.008,5.008,0,0,0-4.432-7.483c0-.026,0-.051,0-.077a5.009,5.009,0,0,0-6.79-4.683,5.008,5.008,0,0,0-8.389-2.279l-.277.277a8.372,8.372,0,0,0-2.46-5.553,1.415,1.415,0,0,0-2,0l-5.744,5.744-1.765-1.519a4.871,4.871,0,0,0-6.862.515l-.189.22a4.829,4.829,0,0,0-1.164,3.536,4.911,4.911,0,0,0,.071.541,4.826,4.826,0,0,0-2.859,1.619l-.193.224a4.87,4.87,0,0,0-.732,5.2,4.838,4.838,0,0,0-2.127,1.436l-.19.221a4.874,4.874,0,0,0-.735,5.205,4.833,4.833,0,0,0-2.122,1.433l-.193.224a4.87,4.87,0,0,0,.512,6.86l.045.038L5.447,202.9a1.416,1.416,0,1,0,2,2L21.9,189.988l5.126,4.413a4.826,4.826,0,0,0,3.165,1.179c.123,0,.246,0,.37-.014a4.83,4.83,0,0,0,3.323-1.676l.193-.224a4.826,4.826,0,0,0,1.176-3.3,4.852,4.852,0,0,0,3.6-1.685l.192-.223a4.852,4.852,0,0,0,1.13-3.83,4.826,4.826,0,0,0,3.072-1.651l.193-.224a4.825,4.825,0,0,0,1.139-2.551,4.87,4.87,0,0,0,.913.088c.123,0,.246,0,.37-.014a4.832,4.832,0,0,0,3.325-1.678l.19-.221a4.865,4.865,0,0,0-.512-6.86l-3.076-2.648,4.952-4.952a2.231,2.231,0,0,1,3.082,0,2.18,2.18,0,0,1,.371,2.586l-2.441,2.441a1.409,1.409,0,0,0-.284.409l-.711.711a1.416,1.416,0,1,0,2,2L55.819,169a5.006,5.006,0,0,0,.6-.722l.944-.944a2.179,2.179,0,0,1,3.083,3.082l-3.612,3.612a1.416,1.416,0,1,0,2,2l3.612-3.612a2.179,2.179,0,0,1,3.082,3.082l-2.167,2.167-.019.018-2.891,2.891a1.416,1.416,0,0,0,2,2l1.457-1.458.007-.007,1.436-1.436a2.179,2.179,0,0,1,3.073,3.091L53.307,197.883a13.939,13.939,0,0,1-9.827,4.107c-.233,0-.464.013-.694.029l-.025,0a10.731,10.731,0,0,0-6.855,3.134L27.865,213.2a1.416,1.416,0,1,0,2,2l8.042-8.041a7.92,7.92,0,0,1,4.51-2.255L54.463,215.27a1.416,1.416,0,0,0,1.847-2.146l-9.946-8.563a16.743,16.743,0,0,0,8.946-4.676l8.143-8.143,2.695,5.909a1.423,1.423,0,0,0,.371.49l10.954,8.678a1.416,1.416,0,1,0,1.836-2.155Zm-34.442-44.9a5.606,5.606,0,0,1-.874,6.793l-.411.411L40.4,164.23ZM31.93,191.817l-.193.223a2.031,2.031,0,0,1-2.866.214l-7.323-6.3a2.035,2.035,0,0,1-.215-2.865l.193-.224a2.02,2.02,0,0,1,1.389-.7c.052,0,.1-.005.154-.005a2.018,2.018,0,0,1,1.323.492l7.322,6.3a2.031,2.031,0,0,1,.216,2.865Zm4.964-5.212-.192.223a2.034,2.034,0,0,1-2.866.214L24.6,179.088a2.032,2.032,0,0,1-.213-2.867l.19-.221a2.032,2.032,0,0,1,2.863-.217l8.944,7.7,0,0,.294.253A2.035,2.035,0,0,1,36.894,186.6Zm4.4-5.705-.193.224a2.032,2.032,0,0,1-2.863.216l-8.943-7.7-.007-.006-1.635-1.407a2.035,2.035,0,0,1-.215-2.865l.193-.223a2.032,2.032,0,0,1,2.866-.214l6,5.161,4.591,3.952a2.032,2.032,0,0,1,.211,2.862Zm5.722-7.241a2.032,2.032,0,0,1,.213,2.867l-.19.221a2.035,2.035,0,0,1-2.867.214l-1.238-1.066-.007-.007-4.587-3.949-6.542-5.632a2.033,2.033,0,0,1-.212-2.869l.189-.22A2.036,2.036,0,0,1,34.637,163Z" transform="translate(-0.414 -129.407)" fill="#01675b"/>
          <path id="Path_2445" data-name="Path 2445" d="M177.369,17.787,176,25.77a1.416,1.416,0,0,0,2.055,1.492l7.169-3.769,7.17,3.769a1.416,1.416,0,0,0,2.055-1.492l-1.37-7.984,5.8-5.654a1.416,1.416,0,0,0-.785-2.415l-8.015-1.165-3.586-7.264a1.416,1.416,0,0,0-2.539,0l-3.585,7.264-8.016,1.165a1.416,1.416,0,0,0-.784,2.415Zm4.144-6.539a1.414,1.414,0,0,0,1.066-.774l2.645-5.359,2.646,5.359a1.414,1.414,0,0,0,1.066.774l5.913.859-4.278,4.171a1.417,1.417,0,0,0-.407,1.253l1.01,5.89-5.289-2.781a1.417,1.417,0,0,0-1.318,0l-5.289,2.781,1.01-5.89a1.417,1.417,0,0,0-.407-1.253L175.6,12.107Z" transform="translate(-141.768 -0.414)" fill="#01675b"/>
          <path id="Path_2446" data-name="Path 2446" d="M177.369,17.787,176,25.77a1.416,1.416,0,0,0,2.055,1.492l7.169-3.769,7.17,3.769a1.416,1.416,0,0,0,2.055-1.492l-1.37-7.984,5.8-5.654a1.416,1.416,0,0,0-.785-2.415l-8.015-1.165-3.586-7.264a1.416,1.416,0,0,0-2.539,0l-3.585,7.264-8.016,1.165a1.416,1.416,0,0,0-.784,2.415Zm4.144-6.539a1.414,1.414,0,0,0,1.066-.774l2.645-5.359,2.646,5.359a1.414,1.414,0,0,0,1.066.774l5.913.859-4.278,4.171a1.417,1.417,0,0,0-.407,1.253l1.01,5.89-5.289-2.781a1.417,1.417,0,0,0-1.318,0l-5.289,2.781,1.01-5.89a1.417,1.417,0,0,0-.407-1.253L175.6,12.107Z" transform="translate(-141.768 -0.414)" fill="#01675b"/>
        </g>
      </g>
      <g id="Rectangle_38830" data-name="Rectangle 38830" transform="translate(374.6 4343.957) rotate(-47)" fill="#fafdfc" stroke="#01675b" stroke-linecap="round" stroke-linejoin="round" stroke-width="3">
        <rect width="27" height="15" stroke="none"/>
        <rect x="1.5" y="1.5" width="24" height="12" fill="none"/>
      </g>
      <g id="Rectangle_38831" data-name="Rectangle 38831" transform="translate(347.306 4351.805) rotate(-138)" fill="#fafdfc" stroke="#01675b" stroke-linecap="round" stroke-linejoin="round" stroke-width="3">
        <rect width="30" height="15" stroke="none"/>
        <rect x="1.5" y="1.5" width="27" height="12" fill="none"/>
      </g>
    </g>
    <rect id="Rectangle_39401" data-name="Rectangle 39401" width="95" height="97" transform="translate(204 3988)" fill="none"/>
  </g>
</svg>
