<svg xmlns="http://www.w3.org/2000/svg" width="95" height="97" viewBox="0 0 95 97">
  <g id="icon02" transform="translate(-204 -3988)">
    <g id="Group_67196" data-name="Group 67196" transform="translate(210 4004)">
      <g id="Group_5292" data-name="Group 5292" transform="translate(3.559 40.214)">
        <path id="Path_4299" data-name="Path 4299" d="M119.715,304.924H54.27V296.26H69.847v-5.523H85.422v-5.521H101v-5.523h18.717Zm-62.3-3.142h59.162V282.834H104.14v5.523H88.563v5.521H72.988V299.4H57.411Z" transform="translate(-54.27 -279.693)" fill="#01675b"/>
      </g>
      <g id="Group_5294" data-name="Group 5294" transform="translate(50.327)">
        <g id="Group_5293" data-name="Group 5293">
          <path id="Path_4300" data-name="Path 4300" d="M94.63,289.475H91.489V247.69h15.788a3.012,3.012,0,0,1,3.006,2.874H123.97l-8.332,9.852,7.906,11.685H106.235a3.011,3.011,0,0,1-3-2.874h-8.6Zm11.735-20.516h11.26L111.7,260.2l5.5-6.5h-7.048a3.011,3.011,0,0,1-3-2.874H94.63v15.254h8.731A3.012,3.012,0,0,1,106.366,268.959Z" transform="translate(-91.489 -247.69)" fill="#01675b"/>
        </g>
      </g>
      <g id="Group_5295" data-name="Group 5295" transform="translate(6.377 1.488)">
        <path id="Path_4301" data-name="Path 4301" d="M62.415,260.681a5.9,5.9,0,1,1,5.9-5.9A5.91,5.91,0,0,1,62.415,260.681Zm0-8.665a2.762,2.762,0,1,0,2.762,2.761A2.763,2.763,0,0,0,62.415,252.015Z" transform="translate(-56.513 -248.874)" fill="#01675b"/>
      </g>
      <g id="Group_5296" data-name="Group 5296" transform="translate(16.421 23.005)">
        <rect id="Rectangle_2542" data-name="Rectangle 2542" width="3.141" height="11.423" transform="translate(0 2.891) rotate(-67.016)" fill="#01675b"/>
      </g>
      <g id="Group_5297" data-name="Group 5297" transform="translate(0 10.153)">
        <path id="Path_4302" data-name="Path 4302" d="M65.072,305.539H57.393V269.3h3.141v33.1h1.828L65.2,283.3l9.252,3.309L75,296.875h2.415V284.239L66.9,279.778V262.094a3.187,3.187,0,0,0-3.184-3.183,3.55,3.55,0,0,0-3.033,1.666c-1.593,2.339-5.195,8.5-6.1,10.063v10.014H51.438V269.8l.211-.366c.185-.319,4.553-7.852,6.439-10.622a6.75,6.75,0,0,1,5.629-3.038,6.332,6.332,0,0,1,6.326,6.324V277.7l10.516,4.461v17.856H72.026l-.6-11.152-3.682-1.317Z" transform="translate(-51.438 -255.77)" fill="#01675b"/>
      </g>
    </g>
    <rect id="Rectangle_39401" data-name="Rectangle 39401" width="95" height="97" transform="translate(204 3988)" fill="none"/>
  </g>
</svg>
