<svg xmlns="http://www.w3.org/2000/svg" width="687.572" height="135" viewBox="0 0 687.572 135">
  <g id="img_message_ttl" transform="translate(-369.155 -1340)">
    <path id="Path_229191" data-name="Path 229191" d="M0,0H348V61H0Z" transform="translate(708.727 1414)" fill="#fff"/>
    <path id="Path_229192" data-name="Path 229192" d="M45.325,1.372V-3.92H35.133V-20.286H44.1v-5.292H35.133V-37.24c0-.2.294-.441.686-.833a.78.78,0,0,0,.245-.49c0-.245-.294-.441-.539-.441L29.5-39.592v14.014H22.1v5.292h7.4V-3.92H17.934V1.372Zm-22.05-15.19a26.511,26.511,0,0,1-6.321-5.488,37.211,37.211,0,0,0,5.39-9.261l-2.2-2.205H14.847v-6.174c0-.2.1-.294.784-.98a.708.708,0,0,0,.343-.49c0-.245-.245-.392-.539-.441l-5.684-.637v8.722H3.871v5.292H14.847A37.1,37.1,0,0,1,1.862-11.907L5.537-8.134a31.034,31.034,0,0,0,4.312-3.332V2.254h5.145v-16.66a33.719,33.719,0,0,0,5.341,4.7ZM95.207-26.46A44.537,44.537,0,0,1,85.7-30.772a36.554,36.554,0,0,1-8.281-7.007.7.7,0,0,0,.441-.637c0-.343-.343-.588-.735-.637l-7.007-1.225A34.446,34.446,0,0,1,52.234-25.333l3.724,4.312a43.61,43.61,0,0,0,6.125-3.185v4.018H85.7v-4.165a29.5,29.5,0,0,0,5.635,2.6ZM84.476-25.039H63.406a47.722,47.722,0,0,0,10.143-9.6A44.475,44.475,0,0,0,84.476-25.039ZM92.561-.931A72.5,72.5,0,0,0,81.144-12.495H91.483v-4.753H55.468v4.753H66.591c-2.205,4.214-3.234,5.929-4.459,7.889-2.45.1-3.822.147-6.909.147L56.791,1.96a.573.573,0,0,0,.441.441c.147,0,.294-.147.588-.735a.62.62,0,0,1,.49-.343c1.176-.2,6.37-.637,7.4-.735C67.13.441,78.155-.784,84.868-1.617A33.752,33.752,0,0,1,88.1,2.744ZM80.9-5.88c-4.067.49-8.134.735-12.25.931.882-1.323,2.3-3.479,4.606-7.546H80.6L77.077-8.918A29.638,29.638,0,0,1,80.9-5.88ZM138.572-29.3v-5.684a34.229,34.229,0,0,1-11.613,2.009,43.161,43.161,0,0,1-6.272-.539v5.39c2.6.245,4.851.245,5.243.245A65.809,65.809,0,0,0,138.572-29.3Zm2.352,25.725V-9.653a39.971,39.971,0,0,1-11.172,1.519c-4.949,0-5.439-1.323-5.488-5.978l-5.341.735C119.07-5.1,120.932-2.695,129.85-2.695A66.976,66.976,0,0,0,140.924-3.577ZM115.3-12.3l-2.891-1.568c-1.078,1.911-1.372,2.4-1.96,3.43a26.953,26.953,0,0,1-.686-6.713c0-7.4,2.107-16.268,2.842-16.709.1-.049.735-.294.833-.343a.581.581,0,0,0,.245-.441c0-.392-.931-.735-1.274-.882l-5-1.813a96.579,96.579,0,0,0-2.058,11.172,86.675,86.675,0,0,0-.735,9.653,42.69,42.69,0,0,0,2.009,12.887A15,15,0,0,0,108.437.245l3.871-1.519A43.472,43.472,0,0,1,115.3-12.3Zm76,9.9a26.873,26.873,0,0,1-11.319-3.675h6.517V-26.362H156.408V-6.076h7.3a29.49,29.49,0,0,1-12.887,3.822l3.43,4.9a47.783,47.783,0,0,0,13.769-5.194,3.046,3.046,0,0,0,1.029.294c.2,0,.539,0,.539-.539a1.288,1.288,0,0,0-.343-.735l-2.009-2.548h8.379l-1.911,2.695c3.773,2.3,8.722,4.9,14.014,5.831ZM180.663-15.239H162.239v-2.352h18.424Zm0-5.39H162.239v-2.156h18.424Zm0,10.878H162.239V-12.2h18.424Zm11.662-18.571v-3.871H174.538v-2.744h13.916v-3.871H154.448v3.871h13.867v2.744H150.381v3.871Zm49.686-1.862a38.41,38.41,0,0,0-3.283-7.056l-4.508,1.862a52.545,52.545,0,0,1,2.891,7.056Zm1.225,29.3a34.414,34.414,0,0,1-6.811-10.241,31.029,31.029,0,0,1-2.744-11.025h8.036v-5.439h-8.036v-9.7c0-.392.1-.539.882-1.323a.7.7,0,0,0,.245-.539c0-.245,0-.588-1.519-.686l-5.047-.343v12.593h-5.537v5.439h5.39c-.833,8.673-1.813,12.495-6.419,19.159a14.031,14.031,0,0,0,.049-1.911V-27.587h-7.889v-2.891h9.212v-4.8h-9.212v-2.058c0-.441.1-.49.784-1.176a.825.825,0,0,0,.245-.588c0-.441-.392-.588-1.127-.637l-5.635-.343v4.8h-8.869v4.8H208.1v2.891h-8.036V2.548h4.753V-23.079h12.2v2.4a1.519,1.519,0,0,0-.637-.294l-3.969-.784a28.581,28.581,0,0,1-1.372,5.1h-3.381l2.5-.833a45.444,45.444,0,0,0-1.323-4.557l-3.724,1.029a16.41,16.41,0,0,1,1.911,4.361h-1.372v3.969h2.793v1.764h-2.793v3.773h2.793V.784h4.116V-7.154H215.7v-3.773h-3.136v-1.764H215.7V-16.66h-1.127c.2-.392,1.127-2.5,1.176-2.6.147-.2,1.225-.637,1.274-.833V-4.8c0,1.029-.392,1.813-2.009,1.813a9,9,0,0,1-1.96-.2l1.764,6.076c3.185-.049,5.145-.343,6.272-2.5l3.136,2.3a44,44,0,0,0,6.958-16.023A49.987,49.987,0,0,0,237.8,2.3Zm44.688-27.489v-5.292c-5,.392-6.517.539-13.328.931v-5.047c0-.2.049-.294.392-.588s.441-.441.441-.735c0-.49-.294-.637-1.421-.686l-5.439-.343c.294,3.577.294,6.174.343,7.693-10.29.49-14.5.49-17.836.49v5.684c6.223-.784,13.622-1.225,17.983-1.47l.1,3.675a6.463,6.463,0,0,0-2.3-.392c-5,0-7.693,3.724-7.693,9.114,0,2.4.539,5.047,2.548,6.811a6.17,6.17,0,0,0,4.018,1.519,9.853,9.853,0,0,0,2.646-.49C267.3-3.92,264.306-1.372,261.366.539l5.488,2.842a34,34,0,0,0,6.664-9.114,21.971,21.971,0,0,0,2.5-9.457,12.638,12.638,0,0,0-1.421-5.978v-6.86C280.966-28.273,284.2-28.371,287.924-28.371Zm-17.836,12.4c0,3.479-2.352,4.557-3.381,4.557-1.127,0-2.7-1.127-2.7-4.067,0-2.6,1.372-4.312,3.332-4.312a2.55,2.55,0,0,1,1.813.686A4.569,4.569,0,0,1,270.088-15.974Zm55.468,3.038a10.8,10.8,0,0,0-10.878-10.829,39.015,39.015,0,0,0-4.753.294c7.105-7.252,7.938-8.036,10.878-10.486l-2.548-3.969c-4.655,1.813-12.985,2.45-14.847,2.45-1.519,0-4.312-.2-5.488-.294l1.127,5.488a45.745,45.745,0,0,0,11.466-1.225c-7.84,9.506-13.034,13.867-18.13,17.689L296.5-9.506c2.744-2.793,7.056-7.154,10.094-8.771a13.289,13.289,0,0,1,5.586-1.225c3.185,0,7.938,1.568,7.938,6.419a8.632,8.632,0,0,1-3.234,6.517c-1.372-1.715-4.557-5.733-9.653-5.733a6.863,6.863,0,0,0-7.2,6.517c0,3.626,3.136,6.713,9.261,6.713C317.912.931,325.556-4.8,325.556-12.936Zm-13.23,8.771a13.931,13.931,0,0,1-3.332.441c-1.764,0-4.018-.49-4.018-2.2a2.159,2.159,0,0,1,2.45-2.058C310.219-7.987,311.689-5.292,312.326-4.165Z" transform="translate(715.727 1463)" fill="#01675b"/>
    <path id="Path_229193" data-name="Path 229193" d="M0,0H273V61H0Z" transform="translate(573.727 1340)" fill="#fff"/>
    <path id="Path_229194" data-name="Path 229194" d="M11.229,0V-41.61h-7.7V0ZM52.953-35.112v-6.5H15.618v6.5h14.82V0h7.695V-35.112Z" transform="translate(584.727 1390)" fill="#01675b"/>
    <path id="Path_229195" data-name="Path 229195" d="M41.6-19.061l-1.666-5.586c-2.3,1.029-2.94,1.323-8.673,4.018-1.127-3.234-3.283-4.949-6.664-4.949a9.475,9.475,0,0,0-4.214,1.029c.833-1.274,1.225-1.96,2.793-4.851a103.143,103.143,0,0,0,11.711-1.862l.343-5.488a41.374,41.374,0,0,1-9.6,2.5c.245-.539,1.47-3.283,1.519-3.332.049,0,1.029-.441,1.127-.49.294-.1.49-.245.49-.539,0-.343-.833-.441-.98-.49L21.658-40.18a38,38,0,0,1-2.45,6.517,68.919,68.919,0,0,1-9.359-.2l.588,5.1c2.058,0,3.577-.049,6.37-.2A65.15,65.15,0,0,1,7.154-15.484l4.8,2.989c2.695-4.41,5.635-8.869,10.437-8.869,2.842,0,3.43,1.764,3.724,3.234-7.35,3.773-11.858,6.076-11.858,12.152a6.7,6.7,0,0,0,1.862,4.8c3.087,3.283,8.771,3.283,11.515,3.283A81.094,81.094,0,0,0,39.3,1.372V-4.165A56.654,56.654,0,0,1,26.8-2.6c-3.577,0-7.35-.637-7.35-3.822,0-3.43,5.1-5.978,6.958-6.909-.049,2.156-.1,4.557-.245,7.35H31.85c0-1.666-.1-7.742-.1-9.653C35.378-17,37.73-17.836,41.6-19.061ZM91.973-8.82V-28.126H85.015l.686-.931c-.245-.147-1.323-.735-1.568-.833C88-33.418,90.062-35.525,91.189-36.7L89.67-38.612H67.13v4.7h5L70.707-31.36c2.156.98,4.214,2.058,6.272,3.234H66.934V-5.243h5.1V-11.76h4.851v6.027h5.047V-11.76h4.949v1.715c0,1.225-.343,1.225-3.381,1.176L85.211-4.7h2.6A4.022,4.022,0,0,0,91.973-8.82Zm-5.1-12.691H81.928v-2.548h4.949Zm0,6.076H81.928v-2.646h4.949Zm-10-6.076H72.03v-2.548h4.851Zm0,6.076H72.03v-2.646h4.851Zm4.361-18.473a14.263,14.263,0,0,1-1.519,1.764c-.588-.245-3.283-1.519-3.92-1.764Zm-17.4.833a31.683,31.683,0,0,0-6.909-5.831l-3.283,3.773a32.231,32.231,0,0,1,6.762,5.782Zm32.1,29.057c-7.35.686-14.749,1.029-22.148,1.029-3.92,0-10.927,0-10.927-4.9V-22.05H52.822v4.9h4.8V-6.615A39.876,39.876,0,0,1,51.6-3.381l2.646,5.145c.147.245.294.588.588.588.245,0,.441-.637.735-1.274a46.985,46.985,0,0,0,4.949-4.459c1.568,1.96,3.969,4.8,11.613,4.8H93.982Zm44.2-7.938-4.8-3.969C130.536-6.517,123.97-4.8,121.226-4.8a4.725,4.725,0,0,1-4.312-2.058c-.931-1.666-.931-6.419-.931-8.673,0-5.39.98-18.326,1.372-19.6.784-.637,1.372-1.029,1.372-1.421,0-.294-.441-.637-1.617-.784l-6.517-.931c.147,3.283-.245,17.836-.245,20.825,0,11.76.784,14.259,3.087,16.268a10.9,10.9,0,0,0,7.154,2.5,17.712,17.712,0,0,0,9.751-3.136C135.191-4.949,138.131-9.163,140.14-11.956Zm48.853-20.139v-5.88c-9.555,2.793-24.206,4.459-35.721,4.557l.98,5.782a187.362,187.362,0,0,1,18.669-2.107c-2.3,2.156-9.506,8.918-9.506,17.3,0,10.927,12.25,13.475,16.219,14.308l1.715-6.174a14.544,14.544,0,0,1-8.526-2.352,8.4,8.4,0,0,1-3.626-6.86c0-4.9,4.067-10.339,8.379-13.818C182.917-31.654,186.886-31.9,188.993-32.095Z" transform="translate(640.727 1388)" fill="#01675b"/>
    <path id="Path_229196" data-name="Path 229196" d="M40.768,2.058V-34.2H23.618c.245-.441,1.274-2.842,1.372-2.989.245-.392.392-.441,1.274-.931.147-.1.441-.245.441-.539s-.294-.49-.735-.539l-6.664-.637A21.749,21.749,0,0,1,17.591-34.2H8.428V2.058h5.684V-.49H35.133V2.058ZM35.133-15.19H14.112v-4.851H35.133Zm0-9.6H14.112V-29.2H35.133Zm0,19.551H14.112v-5.243H35.133ZM75.754-34.251A58.22,58.22,0,0,0,64.043-39.3l-2.107,4.851a46.414,46.414,0,0,1,11.319,5.341ZM84.77-12.4c0-7.105-5.733-10.731-10.878-10.731a18.843,18.843,0,0,0-12.054,4.949,62.6,62.6,0,0,1,2.94-10.78l-5.635-2.2c-1.078,3.724-3.43,12.054-3.822,18.718l4.263,2.254c5.047-5.88,10-7.84,13.377-7.84,3.675,0,6.174,2.009,6.174,5.145,0,4.508-4.165,9.261-13.279,9.261a49.069,49.069,0,0,1-6.125-.539l2.6,6.027C68.4,1.715,84.77,1.421,84.77-12.4Zm46.991-6.664L130.1-24.647c-2.3,1.029-2.94,1.323-8.673,4.018-1.127-3.234-3.283-4.949-6.664-4.949a9.475,9.475,0,0,0-4.214,1.029c.833-1.274,1.225-1.96,2.793-4.851a103.143,103.143,0,0,0,11.711-1.862l.343-5.488a41.374,41.374,0,0,1-9.6,2.5c.245-.539,1.47-3.283,1.519-3.332.049,0,1.029-.441,1.127-.49.294-.1.49-.245.49-.539,0-.343-.833-.441-.98-.49l-6.125-1.078a38,38,0,0,1-2.45,6.517,68.919,68.919,0,0,1-9.359-.2l.588,5.1c2.058,0,3.577-.049,6.37-.2a65.15,65.15,0,0,1-9.653,13.475l4.8,2.989c2.695-4.41,5.635-8.869,10.437-8.869,2.842,0,3.43,1.764,3.724,3.234-7.35,3.773-11.858,6.076-11.858,12.152a6.7,6.7,0,0,0,1.862,4.8c3.087,3.283,8.771,3.283,11.515,3.283a81.094,81.094,0,0,0,11.662-.735V-4.165a56.654,56.654,0,0,1-12.5,1.568c-3.577,0-7.35-.637-7.35-3.822,0-3.43,5.1-5.978,6.958-6.909-.049,2.156-.1,4.557-.245,7.35h5.684c0-1.666-.1-7.742-.1-9.653C125.538-17,127.89-17.836,131.761-19.061ZM180.908-5.782l-4.557-2.646c-.392,1.764-.833,4.018-1.813,4.018-1.715,0-4.116-3.724-4.8-4.753a46.609,46.609,0,0,0,5.978-10.927c.245-.539.245-.539,1.176-1.078a.7.7,0,0,0,.49-.637.663.663,0,0,0-.441-.588L171.7-25.137a38.737,38.737,0,0,1-4.655,10.29A46.644,46.644,0,0,1,164.787-26.9h15.631v-4.9h-7.252l2.744-2.5a33.327,33.327,0,0,0-4.459-5l-3.577,3.038a25.526,25.526,0,0,1,4.214,4.459h-7.6c-.049-1.568-.049-3.087-.049-4.606a1.582,1.582,0,0,1,.588-1.519,1.162,1.162,0,0,0,.441-.735c0-.245-.343-.539-.735-.588l-6.125-.637c.049,2.646.049,4.361.245,8.085h-17.1c.2,2.989.343,5.39.343,8.673,0,13.181-2.4,19.11-4.361,23.226l5.194,1.568a35.354,35.354,0,0,0,2.94-9.016l2.45,4.361h2.107c5,0,5.831-2.989,6.223-4.41.931-3.528,1.225-9.065,1.323-14.5H147.245c.049-1.323.1-2.352.1-5H159.25c.98,9.163,2.205,13.034,3.969,17.248a35.3,35.3,0,0,1-9.849,8.085L157.388,2.3A46.46,46.46,0,0,0,166.012-4.7C167.286-3.038,171.4,2.3,175.42,2.3c.931,0,2.009-.245,3.234-2.352A22.788,22.788,0,0,0,180.908-5.782ZM152.39-16.758c-.049,5.1-.539,7.3-.735,7.791-.294.686-.882.882-1.813.882a25.1,25.1,0,0,1-3.773-.294,67.04,67.04,0,0,0,.98-8.379Zm73.4,2.646v-4.459H197.715v-2.6h21.413v-3.969H197.715v-2.5h21.413v-3.92H197.715V-34.1h23.814V-38.71h-29.2v20.139H183.8v4.459h7.3V-3.479c-1.47.2-4.116.588-5.782.637l1.323,4.8c.2.686.294.98.637.98.147,0,.294-.049.49-.392.245-.49.539-.637,2.254-.931a117.272,117.272,0,0,0,17.346-4.165l.343-3.626c3.43,3.577,6.223,5.684,14.063,9.065l3.43-4.263a31.934,31.934,0,0,1-10.535-5.047,63.365,63.365,0,0,0,5.88-4.7c.2-.1,1.127-.2,1.323-.294a.226.226,0,0,0,.147-.245c0-.245-.294-.49-.441-.686l-1.715-1.764Zm-9.849,0a18.833,18.833,0,0,1-4.7,4.508,26.911,26.911,0,0,1-3.332-4.508Zm-8.575,7.546c-3.136.882-7.252,1.617-10.682,2.2v-9.751h5.684A34.321,34.321,0,0,0,207.368-6.566Zm57.379-7.987a49.205,49.205,0,0,1-9.457-13.034,44.919,44.919,0,0,0,7.644-3.577l-2.45-4.655a28.874,28.874,0,0,1-7.2,3.92,34.45,34.45,0,0,1-2.058-5.831c0-.294.637-1.274.637-1.519,0-.637-1.372-.343-1.715-.294l-4.949.735a67.727,67.727,0,0,0,3.185,8.575,61.21,61.21,0,0,1-10.241,2.058,24.779,24.779,0,0,1-3.871,0l2.5,5.145a56.3,56.3,0,0,0,13.72-2.891,53.581,53.581,0,0,0,4.606,7.595,32.561,32.561,0,0,0-5.978-.833c-5.39,0-11.564,2.989-11.564,10.094a8.971,8.971,0,0,0,1.911,5.733c3.43,4.41,10.094,4.655,12.936,4.655a40.88,40.88,0,0,0,7.742-.539l-.392-5.537a37.076,37.076,0,0,1-7.546.833c-5.733,0-9.016-1.519-9.016-5.292,0-3.332,3.283-5.292,7.2-5.292,5.341,0,8.967,2.548,11.221,4.116Zm49.588-8.967-.049-5.39c-4.508.735-6.076.931-8.82,1.323l.245-7.3c.049-.2.049-.343.441-.588.441-.294.539-.392.539-.637,0-.294,0-.588-1.617-.784l-5-.588a73.7,73.7,0,0,1,.441,10.535c-5.635.784-7.448.98-10.388,1.323,0-5.635.049-5.929.1-6.713,0-.1.049-.392.49-.735.735-.49.833-.539.833-.784,0-.637-.637-.686-1.666-.833l-5.537-.735c.245,3.43.294,8.477.294,10.486-3.675.392-5.145.539-9.016.882l.2,5.39c4.41-.686,4.9-.735,8.82-1.323l.049,6.713c.049,9.114,1.372,12.544,12.4,12.544a110.173,110.173,0,0,0,13.132-.735l.441-5.88a41.933,41.933,0,0,1-12.593,1.715c-7.252,0-8.134-1.421-8.134-7.007,0-.294,0-3.234.1-8.134,4.41-.588,5.243-.735,10.437-1.372,0,5.341-.147,6.223-3.136,6.223a11.785,11.785,0,0,1-2.891-.343l1.225,5.145a17.119,17.119,0,0,0,2.842.2c3.675,0,5.243-1.078,5.978-3.136.49-1.372.588-2.842.833-8.624C309.925-23.226,312.179-23.422,314.335-23.52ZM318.6-8.036a40.287,40.287,0,0,1,9.457,10.878l5.1-4.067a28.822,28.822,0,0,0-10.878-10.633Z" transform="translate(360.727 1463)" fill="#fff"/>
  </g>
</svg>
