<svg xmlns="http://www.w3.org/2000/svg" width="95" height="97" viewBox="0 0 95 97">
  <g id="icon01" transform="translate(-204 -3988)">
    <rect id="Rectangle_39401" data-name="Rectangle 39401" width="95" height="97" transform="translate(204 3988)" fill="none"/>
    <g id="Group_67043" data-name="Group 67043" transform="translate(214 3994)">
      <g id="Group_1597" data-name="Group 1597" transform="translate(9.19)">
        <g id="Group_1596" data-name="Group 1596">
          <g id="Group_1595" data-name="Group 1595">
            <g id="Group_1594" data-name="Group 1594">
              <g id="Group_1593" data-name="Group 1593">
                <g id="Group_1590" data-name="Group 1590" transform="translate(43.264)">
                  <path id="Path_2614" data-name="Path 2614" d="M293.5,367.067l-7.448-21.692,13.624-4.679,7.448,21.693Zm-2.972-19.5,5.161,15.028,6.957-2.391-5.16-15.027Z" transform="translate(-286.052 -340.696)" fill="#01675b"/>
                </g>
                <g id="Group_1591" data-name="Group 1591" transform="translate(0 7.816)">
                  <path id="Path_2615" data-name="Path 2615" d="M262.922,372.249a9.075,9.075,0,0,1-6.443-2.693l-1.117-1.194,20.382-22.122h26.426v3.524H277.29l-16.9,18.345c1.387.715,3.753,1.218,6.737-.93,3.2-2.311,12.586-10.138,12.681-10.215l2.257,2.707c-.389.324-9.572,7.985-12.878,10.366A10.614,10.614,0,0,1,262.922,372.249Z" transform="translate(-255.363 -346.24)" fill="#01675b"/>
                </g>
                <g id="Group_1592" data-name="Group 1592" transform="translate(22.375 17.128)">
                  <path id="Path_2616" data-name="Path 2616" d="M288.625,365.847l-12.171-1.327a5.855,5.855,0,0,1,1.252-11.642l10.407,1.1-.372,3.506-10.407-1.1a2.327,2.327,0,0,0-2.519,1.807,2.331,2.331,0,0,0,2.02,2.828l11.391,1.241,12.963-4.453,1.146,3.334Z" transform="translate(-271.234 -352.845)" fill="#01675b"/>
                </g>
              </g>
            </g>
          </g>
        </g>
      </g>
      <g id="Group_1605" data-name="Group 1605" transform="translate(0 52.162)">
        <g id="Group_1604" data-name="Group 1604">
          <g id="Group_1603" data-name="Group 1603">
            <g id="Group_1602" data-name="Group 1602">
              <g id="Group_1601" data-name="Group 1601">
                <g id="Group_1598" data-name="Group 1598" transform="translate(0 7.451)">
                  <path id="Path_2617" data-name="Path 2617" d="M256.293,409.353l-7.449-21.693,13.625-4.678,7.448,21.692Zm-2.972-19.5,5.161,15.027,6.957-2.391-5.16-15.025Z" transform="translate(-248.844 -382.982)" fill="#01675b"/>
                </g>
                <g id="Group_1599" data-name="Group 1599" transform="translate(17.528)">
                  <path id="Path_2618" data-name="Path 2618" d="M287.7,403.7H261.277V400.18h24.882l16.9-18.347c-1.384-.713-3.751-1.218-6.736.932-3.206,2.309-12.586,10.135-12.681,10.215l-2.258-2.707c.389-.324,9.572-7.986,12.88-10.367,5.793-4.174,10.845-1.513,12.7.479l1.117,1.2Z" transform="translate(-261.277 -377.696)" fill="#01675b"/>
                </g>
                <g id="Group_1600" data-name="Group 1600" transform="translate(10.862 3.693)">
                  <path id="Path_2619" data-name="Path 2619" d="M281.8,393.317a6.18,6.18,0,0,1-.622-.032l-10.407-1.1.371-3.5,10.408,1.1a2.33,2.33,0,0,0,.5-4.632L270.658,383.9l-12.966,4.453-1.143-3.336,13.709-4.706,12.172,1.328a5.854,5.854,0,0,1-.63,11.673Z" transform="translate(-256.549 -380.316)" fill="#01675b"/>
                </g>
              </g>
            </g>
          </g>
        </g>
      </g>
      <g id="Group_1606" data-name="Group 1606" transform="translate(25.205 33.1)">
        <path id="Path_2620" data-name="Path 2620" d="M278.282,384.691l-9.7-9.7a6.334,6.334,0,1,1,8.956-8.958l.746.746.746-.746a6.334,6.334,0,1,1,8.958,8.958l-2.492-2.492a2.808,2.808,0,0,0,0-3.973,2.876,2.876,0,0,0-3.973,0l-3.238,3.237-3.238-3.237a2.877,2.877,0,0,0-3.971,0,2.806,2.806,0,0,0,0,3.973l7.211,7.211,4.2-4.205,2.492,2.492Z" transform="translate(-266.723 -364.175)" fill="#01675b"/>
      </g>
    </g>
  </g>
</svg>
