<svg xmlns="http://www.w3.org/2000/svg" xmlns:xlink="http://www.w3.org/1999/xlink" width="95" height="97" viewBox="0 0 95 97">
  <defs>
    <clipPath id="clip-path">
      <rect id="Rectangle_3805" data-name="Rectangle 3805" width="93" height="93" transform="translate(0 0.023)" fill="#01675b"/>
    </clipPath>
  </defs>
  <g id="icon04" transform="translate(-204 -3988)">
    <rect id="Rectangle_39401" data-name="Rectangle 39401" width="95" height="97" transform="translate(204 3988)" fill="none"/>
    <g id="Group_8283" data-name="Group 8283" transform="translate(205 3989.883)">
      <g id="Group_8282" data-name="Group 8282" transform="translate(0 0.094)" clip-path="url(#clip-path)">
        <path id="Path_2052" data-name="Path 2052" d="M263.032,259.4a9.7,9.7,0,1,1,9.7-9.7,9.709,9.709,0,0,1-9.7,9.7m0-15.518a5.819,5.819,0,1,0,5.819,5.819,5.826,5.826,0,0,0-5.819-5.819" transform="translate(-216.479 -205.168)" fill="#01675b"/>
        <path id="Path_2053" data-name="Path 2053" d="M28.607,442.184a1.939,1.939,0,0,1-1.94-1.94v-5.819a7.769,7.769,0,0,1,7.759-7.759h9.7a1.94,1.94,0,0,1,0,3.879h-9.7a3.882,3.882,0,0,0-3.879,3.879v5.819a1.939,1.939,0,0,1-1.94,1.94" transform="translate(-22.788 -364.678)" fill="#01675b"/>
        <path id="Path_2054" data-name="Path 2054" d="M223.521,419.4a1.939,1.939,0,0,1-1.94-1.94V409.7a5.826,5.826,0,0,0-5.819-5.819h-19.4a5.826,5.826,0,0,0-5.819,5.819v7.759a1.94,1.94,0,1,1-3.879,0V409.7a9.707,9.707,0,0,1,9.7-9.7h19.4a9.707,9.707,0,0,1,9.7,9.7v7.759a1.939,1.939,0,0,1-1.94,1.94" transform="translate(-159.511 -341.891)" fill="#01675b"/>
        <path id="Path_2055" data-name="Path 2055" d="M87.759,308.851a7.759,7.759,0,1,1,7.759-7.759,7.769,7.769,0,0,1-7.759,7.759m0-11.638a3.879,3.879,0,1,0,3.879,3.879,3.883,3.883,0,0,0-3.879-3.879" transform="translate(-68.362 -250.742)" fill="#01675b"/>
        <path id="Path_2056" data-name="Path 2056" d="M497.457,442.184a1.939,1.939,0,0,1-1.94-1.94v-5.819a3.882,3.882,0,0,0-3.879-3.879h-9.7a1.94,1.94,0,0,1,0-3.879h9.7a7.769,7.769,0,0,1,7.759,7.759v5.819a1.939,1.939,0,0,1-1.94,1.94" transform="translate(-410.171 -364.678)" fill="#01675b"/>
        <path id="Path_2057" data-name="Path 2057" d="M461.093,308.851a7.759,7.759,0,1,1,7.759-7.759,7.769,7.769,0,0,1-7.759,7.759m0-11.638a3.879,3.879,0,1,0,3.879,3.879,3.883,3.883,0,0,0-3.879-3.879" transform="translate(-387.384 -250.742)" fill="#01675b"/>
        <path id="Path_226769" data-name="Path 226769" d="M2764.719,2672.1c0-.046,0-.093,0-.139,0-.012,0-.025,0-.038,0-.048-.009-.095-.016-.143,0-.014-.006-.028-.008-.042-.008-.045-.017-.09-.029-.135-.005-.021-.013-.042-.019-.062-.011-.037-.022-.075-.036-.112s-.028-.067-.043-.1-.018-.045-.029-.068l0,0v0c-.017-.035-.037-.068-.056-.1a1.857,1.857,0,0,0-1.012-.839h0l-9.253-3.154a1.864,1.864,0,1,0-1.2,3.529l4.971,1.694-7.395,3.6-22.743,11.079-1.021-3.516-1.256-4.327a1.864,1.864,0,0,0-2.567-1.174L2689,2693.639a1.864,1.864,0,1,0,1.554,3.388l13.816-6.338,18.213-8.355.68,2.343,1.611,5.55a1.864,1.864,0,0,0,2.606,1.156l32.169-15.671-1.709,5.016a1.864,1.864,0,1,0,3.529,1.2l3.151-9.247h0l0-.006c.006-.017.01-.034.015-.052.012-.04.025-.08.035-.121,0-.02.007-.04.011-.06.008-.039.016-.079.022-.119,0-.018,0-.036.005-.053,0-.043.009-.086.011-.129C2764.719,2672.127,2764.719,2672.113,2764.719,2672.1Z" transform="translate(-2679.758 -2663.902)" fill="#01675b"/>
      </g>
    </g>
  </g>
</svg>
