<svg xmlns="http://www.w3.org/2000/svg" width="120" height="120" viewBox="0 0 120 120">
  <g id="まるっと依頼ボタン" transform="translate(-1440 -830)">
    <path id="Polygon_11" data-name="Polygon 11" d="M66.471,3.3a7,7,0,0,1,9.25,1.84L77.7,7.82a7,7,0,0,0,6.681,2.768l3.3-.5a7,7,0,0,1,7.842,5.24l.8,3.237a7,7,0,0,0,5.114,5.114l3.237.8a7,7,0,0,1,5.24,7.842l-.5,3.3A7,7,0,0,0,112.18,42.3l2.684,1.979a7,7,0,0,1,1.84,9.25l-1.722,2.855a7,7,0,0,0,0,7.232l1.722,2.855a7,7,0,0,1-1.84,9.25L112.18,77.7a7,7,0,0,0-2.768,6.681l.5,3.3a7,7,0,0,1-5.24,7.842l-3.237.8a7,7,0,0,0-5.114,5.114l-.8,3.237a7,7,0,0,1-7.842,5.24l-3.3-.5A7,7,0,0,0,77.7,112.18l-1.979,2.684a7,7,0,0,1-9.25,1.84l-2.855-1.722a7,7,0,0,0-7.232,0L53.529,116.7a7,7,0,0,1-9.25-1.84L42.3,112.18a7,7,0,0,0-6.681-2.768l-3.3.5a7,7,0,0,1-7.842-5.24l-.8-3.237a7,7,0,0,0-5.114-5.114l-3.237-.8a7,7,0,0,1-5.24-7.842l.5-3.3A7,7,0,0,0,7.82,77.7L5.136,75.721a7,7,0,0,1-1.84-9.25l1.722-2.855a7,7,0,0,0,0-7.232L3.3,53.529a7,7,0,0,1,1.84-9.25L7.82,42.3a7,7,0,0,0,2.768-6.681l-.5-3.3a7,7,0,0,1,5.24-7.842l3.237-.8a7,7,0,0,0,5.114-5.114l.8-3.237a7,7,0,0,1,7.842-5.24l3.3.5A7,7,0,0,0,42.3,7.82l1.979-2.684a7,7,0,0,1,9.25-1.84l2.855,1.722a7,7,0,0,0,7.232,0Z" transform="translate(1440 830)" fill="#f7ff00"/>
    <path id="Path_926" data-name="Path 926" d="M-23.888-12.944q-.032.24-.056.536t-.04.6q-.016.32-.032.856t-.016,1.176v2.4q0,.672.032,1.5t.088,1.664q.056.84.1,1.568t.04,1.208a2.23,2.23,0,0,1-.352,1.224,2.379,2.379,0,0,1-1.048.872,4.2,4.2,0,0,1-1.752.32,5.014,5.014,0,0,1-2.912-.7A2.276,2.276,0,0,1-30.832-1.7a2.288,2.288,0,0,1,.472-1.432A3.1,3.1,0,0,1-29-4.1a5.748,5.748,0,0,1,2.12-.352,10.308,10.308,0,0,1,2.456.28,10.909,10.909,0,0,1,2.088.728,12.914,12.914,0,0,1,1.68.944q.736.5,1.248.9L-20.56.192A14.141,14.141,0,0,0-21.848-.88,11.193,11.193,0,0,0-23.4-1.84a9.526,9.526,0,0,0-1.776-.7A7.247,7.247,0,0,0-27.152-2.8a2.413,2.413,0,0,0-1.288.288.83.83,0,0,0-.456.7.785.785,0,0,0,.192.528,1.161,1.161,0,0,0,.56.336,3.243,3.243,0,0,0,.928.112,2.546,2.546,0,0,0,.744-.1.891.891,0,0,0,.488-.352A1.26,1.26,0,0,0-25.808-2q0-.352-.024-1.008t-.056-1.448q-.032-.792-.064-1.56t-.032-1.36q0-.576.008-1.208t.008-1.256q0-.624.008-1.144t.008-.856q0-.224-.024-.552a4.131,4.131,0,0,0-.072-.552Zm-6.64,1.5q.432.064.96.128t1.08.12q.552.056,1.048.08t.864.024q1.632,0,3.256-.1t3.368-.392l-.016,1.84q-.816.112-1.888.208t-2.28.152q-1.208.056-2.424.056-.5,0-1.224-.04t-1.448-.112q-.72-.072-1.248-.136Zm-.08,3.456q.384.064.912.128t1.08.1q.552.032,1.048.056t.816.024q1.488,0,2.7-.064t2.264-.16q1.056-.1,2.032-.224l-.016,1.888q-.832.1-1.608.16t-1.584.112q-.808.048-1.736.064t-2.08.016q-.464,0-1.152-.024t-1.4-.072q-.712-.048-1.256-.112Zm17.648-4.208q.336.048.72.064t.736.016q.256,0,.768-.008t1.16-.024l1.288-.032q.64-.016,1.16-.04t.808-.04q.5-.048.784-.088a2.6,2.6,0,0,0,.432-.088l1.04,1.424q-.272.176-.56.352a6.509,6.509,0,0,0-.56.384q-.32.224-.768.584t-.952.76q-.5.4-.976.784t-.856.688a6.139,6.139,0,0,1,.768-.136,6.956,6.956,0,0,1,.752-.04,5.483,5.483,0,0,1,2.44.528A4.4,4.4,0,0,1-3.064-5.672,3.527,3.527,0,0,1-2.432-3.6a4.229,4.229,0,0,1-.64,2.288A4.417,4.417,0,0,1-5,.32,7.543,7.543,0,0,1-8.224.928a5.846,5.846,0,0,1-1.992-.32,3.269,3.269,0,0,1-1.4-.912A2.06,2.06,0,0,1-12.128-1.7a2.245,2.245,0,0,1,.36-1.224,2.676,2.676,0,0,1,1.008-.92,3.085,3.085,0,0,1,1.5-.352,3.666,3.666,0,0,1,1.864.44A3.054,3.054,0,0,1-6.232-2.576,3.409,3.409,0,0,1-5.808-.96L-7.68-.7A2.287,2.287,0,0,0-8.12-2.12a1.366,1.366,0,0,0-1.128-.536,1.072,1.072,0,0,0-.72.232.69.69,0,0,0-.272.536.817.817,0,0,0,.448.72A2.227,2.227,0,0,0-8.624-.9a6.778,6.778,0,0,0,2.272-.328,2.836,2.836,0,0,0,1.368-.944,2.392,2.392,0,0,0,.456-1.464A1.951,1.951,0,0,0-4.968-4.9,2.885,2.885,0,0,0-6.16-5.744a4.491,4.491,0,0,0-1.7-.3,5.848,5.848,0,0,0-1.7.232A6.009,6.009,0,0,0-11-5.16a8.862,8.862,0,0,0-1.328,1.024A17.2,17.2,0,0,0-13.616-2.8l-1.456-1.5L-14.1-5.1q.544-.44,1.112-.92l1.072-.9q.5-.424.856-.712.336-.272.784-.64l.928-.76q.48-.392.912-.752t.72-.616q-.24,0-.624.016l-.84.032-.912.032q-.456.016-.848.04l-.648.04q-.32.016-.672.048t-.64.08ZM2.768-6.768q.368-.08.848-.2T4.464-7.2q.4-.128,1.072-.336t1.48-.416Q7.824-8.16,8.648-8.3a9.078,9.078,0,0,1,1.56-.144,4.93,4.93,0,0,1,2.216.472A3.5,3.5,0,0,1,13.9-6.624a4,4,0,0,1,.528,2.1,4.191,4.191,0,0,1-.472,1.984A4.466,4.466,0,0,1,12.528-.976,8.223,8.223,0,0,1,10.136.12,14.9,14.9,0,0,1,6.8.656L5.952-1.312a16.589,16.589,0,0,0,2.536-.24,8.415,8.415,0,0,0,2.016-.6,3.465,3.465,0,0,0,1.328-1A2.232,2.232,0,0,0,12.3-4.56a1.992,1.992,0,0,0-.28-1.064,1.9,1.9,0,0,0-.792-.712,2.69,2.69,0,0,0-1.216-.256,6.143,6.143,0,0,0-1.248.144Q8.08-6.3,7.352-6.08T5.92-5.6q-.7.256-1.312.5T3.6-4.688Zm28-2.56q-.352.224-.744.432t-.84.432q-.368.192-.9.448t-1.152.568q-.616.312-1.24.656t-1.168.7a7.941,7.941,0,0,0-1.608,1.36A2.3,2.3,0,0,0,22.5-3.184a1.424,1.424,0,0,0,.832,1.3,5.347,5.347,0,0,0,2.5.456q.832,0,1.768-.072T29.44-1.7q.912-.136,1.616-.312l-.032,2.3Q30.352.4,29.56.5T27.848.64q-.92.048-1.96.048A12.456,12.456,0,0,1,23.672.5,5.849,5.849,0,0,1,21.9-.1a3.072,3.072,0,0,1-1.184-1.12,3.293,3.293,0,0,1-.424-1.728A3.851,3.851,0,0,1,20.736-4.8,5.773,5.773,0,0,1,21.96-6.336a14.924,14.924,0,0,1,1.7-1.328q.576-.384,1.216-.744t1.256-.7q.616-.336,1.152-.616t.888-.488q.464-.272.816-.5a7.645,7.645,0,0,0,.672-.48ZM22.72-12.752q.4,1.056.84,2.032T24.44-8.9q.44.848.808,1.52L23.44-6.3q-.432-.736-.9-1.648T21.616-9.88q-.464-1.016-.9-2.056Zm-47.1,23.376h1.936v3.424h-1.936Zm-4.32,2.448h10.448v1.776H-28.7Zm4.336.736,1.824.608a14.261,14.261,0,0,1-1.568,2.344,17.032,17.032,0,0,1-1.976,2.04,15.822,15.822,0,0,1-2.168,1.6q-.128-.208-.352-.52t-.472-.616q-.248-.3-.44-.5a12.981,12.981,0,0,0,2.032-1.3,12.149,12.149,0,0,0,1.776-1.7A10.854,10.854,0,0,0-24.368,13.808Zm-4.256,9.552q.848-.16,1.928-.368t2.288-.456q1.208-.248,2.392-.5l.192,1.728q-1.088.256-2.192.512t-2.144.488q-1.04.232-1.936.424Zm9.312-7.328,1.44,1.344q-.576.464-1.184.944t-1.2.92q-.592.44-1.1.776l-1.072-1.136q.5-.352,1.064-.84t1.12-1.024Q-19.7,16.48-19.312,16.032Zm-2.864-1.808a29.816,29.816,0,0,0,.584,2.968,16.611,16.611,0,0,0,.9,2.664,10.05,10.05,0,0,0,1.312,2.2,6.535,6.535,0,0,0,1.792,1.576,6.478,6.478,0,0,0-.488.472,6.048,6.048,0,0,0-.5.6q-.232.32-.392.592a8.5,8.5,0,0,1-2.448-2.648,15.4,15.4,0,0,1-1.552-3.68A34.41,34.41,0,0,1-23.9,14.48Zm-7.36-3.776,1.808.576a25.464,25.464,0,0,1-1.256,2.7,24.48,24.48,0,0,1-1.568,2.552,16.813,16.813,0,0,1-1.736,2.1,5.7,5.7,0,0,0-.264-.624q-.184-.384-.384-.768a5.24,5.24,0,0,0-.36-.608,13.045,13.045,0,0,0,1.456-1.672,17.129,17.129,0,0,0,1.3-2.048A17.436,17.436,0,0,0-29.536,10.448Zm-1.536,4.416,1.824-1.824V25.392h-1.824Zm4.192,3.584,1.824-1.824v7.264H-26.88Zm11.1-6.368h6.752v1.68h-6.752Zm2.56-1.648H-11.5v5.3h-1.712Zm-.912,5.792v1.52h3.568v-1.52Zm-1.408-1.44h6.464v4.4h-6.464Zm2.32,3.5,1.184.576a18.65,18.65,0,0,1-.9,1.928A20.7,20.7,0,0,1-14.1,22.7a8.965,8.965,0,0,1-1.28,1.52,5.513,5.513,0,0,0-.368-.9q-.256-.512-.448-.864a9.511,9.511,0,0,0,1.144-1.192,13.339,13.339,0,0,0,1.064-1.5A10.462,10.462,0,0,0-13.216,18.288Zm1.632.464q.192.144.568.5t.792.768q.416.416.776.76t.5.5l-1.12,1.488a6.03,6.03,0,0,0-.5-.768q-.32-.432-.68-.888t-.7-.864q-.336-.408-.576-.68Zm-1.5-3.12h1.456v2.976h.128v6.816h-1.712V18.608h.128Zm4.224-4.592h7.808v1.632H-8.864Zm2.32,6.512v.976h3.168v-.976Zm0,2.32v.992h3.168v-.992Zm0-4.64v.992h3.168v-.992Zm-1.728-1.424h6.7v8.48h-6.7Zm2.32-1.872,2.1.24q-.24.736-.48,1.448t-.432,1.224l-1.6-.3q.128-.56.248-1.288T-5.952,11.936ZM-6.96,22.288l1.552.976A8.326,8.326,0,0,1-6.44,24.1q-.6.416-1.24.776a10.172,10.172,0,0,1-1.248.6,8.124,8.124,0,0,0-.584-.624,6.967,6.967,0,0,0-.68-.592,8.819,8.819,0,0,0,1.216-.56q.608-.336,1.152-.7A5.3,5.3,0,0,0-6.96,22.288Zm2.256.992,1.408-.864q.448.288.944.656t.944.744a8.959,8.959,0,0,1,.736.68l-1.5.976a7.345,7.345,0,0,0-.68-.688Q-3.28,24.4-3.768,24T-4.7,23.28ZM10.928,11.1q-.016.128-.04.408t-.04.56q-.016.28-.032.408-.016.32-.016.856v1.192q0,.656.008,1.32t.016,1.248q.008.584.008.968l-2-.672V15.48q0-.6-.008-1.192T8.8,13.216q-.016-.48-.032-.72-.032-.5-.08-.872t-.08-.52Zm-9.04,1.984q.7,0,1.6-.016L5.36,13.04l1.92-.032q.944-.016,1.776-.024t1.44-.008q.608,0,1.328-.008t1.424-.008H15.44l-.016,1.888q-.752-.032-1.984-.056t-3.008-.024q-1.088,0-2.208.024T6,14.848q-1.1.032-2.128.072t-1.936.1Zm8.656,4.736A6.482,6.482,0,0,1,10.232,20,2.629,2.629,0,0,1,9.3,21.3a2.627,2.627,0,0,1-1.552.44,2.554,2.554,0,0,1-.936-.192,3.038,3.038,0,0,1-.9-.56,2.687,2.687,0,0,1-.664-.912,3.062,3.062,0,0,1-.248-1.28,2.825,2.825,0,0,1,.432-1.576,3,3,0,0,1,1.16-1.04,3.451,3.451,0,0,1,1.608-.376,3.132,3.132,0,0,1,1.768.472,2.939,2.939,0,0,1,1.072,1.272,4.36,4.36,0,0,1,.36,1.808,5.64,5.64,0,0,1-.256,1.632,5.584,5.584,0,0,1-.84,1.656,6.027,6.027,0,0,1-1.568,1.464,8.663,8.663,0,0,1-2.456,1.072l-1.712-1.7a12.067,12.067,0,0,0,1.9-.544A6.035,6.035,0,0,0,8.008,22.1a3.62,3.62,0,0,0,1.04-1.264,4.005,4.005,0,0,0,.376-1.808,1.585,1.585,0,0,0-.376-1.152,1.22,1.22,0,0,0-.9-.384,1.309,1.309,0,0,0-.592.144,1.128,1.128,0,0,0-.464.432,1.326,1.326,0,0,0-.176.7,1.1,1.1,0,0,0,.376.872,1.266,1.266,0,0,0,.856.328,1.049,1.049,0,0,0,.68-.24,1.264,1.264,0,0,0,.392-.8,3.666,3.666,0,0,0-.16-1.5ZM20.96,11.808q.336.048.72.064t.736.016q.256,0,.768-.008t1.16-.024l1.288-.032q.64-.016,1.16-.04t.808-.04q.5-.048.784-.088a2.6,2.6,0,0,0,.432-.088l1.04,1.424q-.272.176-.56.352a6.509,6.509,0,0,0-.56.384q-.32.224-.768.584t-.952.76q-.5.4-.976.784t-.856.688a6.139,6.139,0,0,1,.768-.136,6.955,6.955,0,0,1,.752-.04,5.483,5.483,0,0,1,2.44.528,4.4,4.4,0,0,1,1.712,1.432,3.527,3.527,0,0,1,.632,2.072,4.229,4.229,0,0,1-.64,2.288A4.417,4.417,0,0,1,28.92,24.32a7.543,7.543,0,0,1-3.224.608,5.846,5.846,0,0,1-1.992-.32,3.269,3.269,0,0,1-1.4-.912,2.06,2.06,0,0,1-.512-1.392,2.245,2.245,0,0,1,.36-1.224,2.676,2.676,0,0,1,1.008-.92,3.085,3.085,0,0,1,1.5-.352,3.666,3.666,0,0,1,1.864.44,3.054,3.054,0,0,1,1.168,1.176,3.409,3.409,0,0,1,.424,1.616L26.24,23.3a2.287,2.287,0,0,0-.44-1.416,1.366,1.366,0,0,0-1.128-.536,1.072,1.072,0,0,0-.72.232.69.69,0,0,0-.272.536.817.817,0,0,0,.448.72A2.227,2.227,0,0,0,25.3,23.1a6.778,6.778,0,0,0,2.272-.328,2.836,2.836,0,0,0,1.368-.944,2.392,2.392,0,0,0,.456-1.464,1.951,1.951,0,0,0-.44-1.264,2.885,2.885,0,0,0-1.192-.848,4.491,4.491,0,0,0-1.7-.3,5.848,5.848,0,0,0-1.7.232,6.009,6.009,0,0,0-1.448.656,8.863,8.863,0,0,0-1.328,1.024A17.2,17.2,0,0,0,20.3,21.2l-1.456-1.5.976-.792q.544-.44,1.112-.92l1.072-.9q.5-.424.856-.712.336-.272.784-.64l.928-.76q.48-.392.912-.752t.72-.616q-.24,0-.624.016l-.84.032-.912.032q-.456.016-.848.04l-.648.04q-.32.016-.672.048t-.64.08Z" transform="translate(1500 885)" fill="#404d61"/>
  </g>
</svg>
