<svg xmlns="http://www.w3.org/2000/svg" width="249.912" height="150" viewBox="0 0 249.912 150">
  <g id="Group_730" data-name="Group 730" transform="translate(-505.749 -558.188)">
    <g id="Group_750" data-name="Group 750" transform="translate(-0.251)">
      <path id="Path_1316" data-name="Path 1316" d="M-29.32-15.54h2.7V-4.1h-2.7Zm3.62-1.14h2.78V-1.36A5.116,5.116,0,0,1-23.15.36a1.887,1.887,0,0,1-.83.98,4.208,4.208,0,0,1-1.52.45,17.346,17.346,0,0,1-2.08.11A9.667,9.667,0,0,0-27.91.46,11.647,11.647,0,0,0-28.44-1q.72.02,1.38.03t.92.01a.507.507,0,0,0,.34-.09.434.434,0,0,0,.1-.33Zm-11.08-.26h2.76V1.88h-2.76Zm3.94,9.88h2.6v4.92a4.86,4.86,0,0,1-.15,1.32,1.483,1.483,0,0,1-.63.84,2.551,2.551,0,0,1-1.06.37,8.665,8.665,0,0,1-1.28.05A5.909,5.909,0,0,0-33.61-.8,10.523,10.523,0,0,0-34.04-2q.28.02.57.02h.41a.194.194,0,0,0,.22-.22Zm-7.62,0h8.64v2.58h-6.06V.32h-2.58Zm-.7-3.72H-29.9v2.62H-41.16Zm2.18-3.78h8.3v2.62H-39.5Zm-.88-2.22,2.66.54a26.9,26.9,0,0,1-.83,3.12,17.2,17.2,0,0,1-1.07,2.6,6.039,6.039,0,0,0-.74-.39q-.46-.21-.94-.39t-.82-.3a10.938,10.938,0,0,0,1.04-2.36A20.249,20.249,0,0,0-39.86-16.78Zm29.18,2.9h9.64v2.76H-12.06Zm2.7,4.42h6.4v2.64h-6.4ZM-8-5.02h6.68v2.7H-8Zm-1.46-7.94h3V1.9h-3Zm-.94-3.98,2.8.74a32.884,32.884,0,0,1-1.32,3.27,28.079,28.079,0,0,1-1.65,3.05A19.922,19.922,0,0,1-12.38-7.4a6.626,6.626,0,0,0-.63-.67q-.41-.39-.83-.77a7.346,7.346,0,0,0-.74-.6,12.58,12.58,0,0,0,1.66-2.09,21.96,21.96,0,0,0,1.43-2.6A22.006,22.006,0,0,0-10.4-16.94Zm-5.56-.08,2.82.9a35.026,35.026,0,0,1-1.53,3.46A32.056,32.056,0,0,1-16.6-9.34a19.382,19.382,0,0,1-2.16,2.72,9.591,9.591,0,0,0-.4-.96q-.28-.6-.59-1.21a7.5,7.5,0,0,0-.57-.97,15.1,15.1,0,0,0,1.69-2.04,21.757,21.757,0,0,0,1.5-2.5A21.028,21.028,0,0,0-15.96-17.02Zm-1.96,5.74,2.94-2.94V1.88h-2.94Zm27-5.78h3v3.34h-3Zm-7.12,1.6H19.24v4.54H16.22v-2.02H4.84v2.02H1.96Zm1.84,3.7H17.58v2.32H3.8ZM1.88-5.36H19.44v2.5H1.88ZM4.12-8.58H17.1v2.32H4.12Zm7.76,3.7a6.346,6.346,0,0,0,2.78,2.97A12.906,12.906,0,0,0,19.74-.58a7.319,7.319,0,0,0-.93,1.2,12.845,12.845,0,0,0-.77,1.34A14.841,14.841,0,0,1,13.99.82,8.338,8.338,0,0,1,11.2-1.24,11.905,11.905,0,0,1,9.28-4.36ZM9-12.6h2.94v5.88a9.18,9.18,0,0,1-.24,2.09,6.7,6.7,0,0,1-.82,1.98A7.388,7.388,0,0,1,9.3-.86,11.309,11.309,0,0,1,6.8.68,19.855,19.855,0,0,1,3.2,1.9a6.211,6.211,0,0,0-.46-.75Q2.44.72,2.08.29A8.362,8.362,0,0,0,1.4-.44a21.772,21.772,0,0,0,3.33-.91A9.138,9.138,0,0,0,6.92-2.48,5.112,5.112,0,0,0,8.21-3.8a4.534,4.534,0,0,0,.62-1.44A6.767,6.767,0,0,0,9-6.76Zm24.92-4.5h2.9v6.58h-2.9Zm-3.86.82H40.78v1.7H30.06Zm.46,2.18h9.82v1.62H30.52Zm-.94,2.08H41.12v1.76H29.58Zm3.8,6.14v.6H37.5v-.6Zm0,2.2v.6H37.5v-.6Zm0-4.38v.58H37.5v-.58Zm-2.6-1.72h9.46v8.42H30.78Zm5,9.34L37.7-1.82q.64.38,1.35.82t1.36.86q.65.42,1.09.72L38.98,1.92q-.36-.3-.9-.71T36.94.36Q36.34-.08,35.78-.44ZM33-1.94l2.2,1.5a14.11,14.11,0,0,1-1.45.93,18.8,18.8,0,0,1-1.72.86A17.31,17.31,0,0,1,30.32,2a11.374,11.374,0,0,0-.83-.91Q28.98.58,28.56.2A12.759,12.759,0,0,0,30.2-.38a17.408,17.408,0,0,0,1.58-.77A9.05,9.05,0,0,0,33-1.94ZM25.2-17.08l2.5.86q-.42.8-.86,1.62t-.86,1.57q-.42.75-.8,1.31l-1.92-.78q.36-.62.72-1.41t.69-1.63Q25-16.38,25.2-17.08Zm2.26,2.42L29.8-13.6q-.76,1.14-1.63,2.37T26.43-8.87q-.87,1.13-1.65,1.99L23.14-7.8q.56-.68,1.16-1.53t1.18-1.77q.58-.92,1.09-1.84T27.46-14.66Zm-5.3,2.54,1.4-1.98q.5.46,1.03,1.02t.98,1.11a4.874,4.874,0,0,1,.67,1.03L24.7-8.7a5.577,5.577,0,0,0-.62-1.1q-.42-.6-.93-1.21T22.16-12.12ZM27-9.82l2.02-.82q.36.68.7,1.45t.59,1.51a8.718,8.718,0,0,1,.35,1.34L28.5-5.4a8.921,8.921,0,0,0-.31-1.34q-.23-.76-.54-1.57T27-9.82ZM22.16-8.36l3.21-.19q1.85-.11,3.73-.25l.04,2.34q-1.76.18-3.54.32t-3.24.26Zm5.3,3.64,2-.62a16.644,16.644,0,0,1,.62,1.8,10.708,10.708,0,0,1,.36,1.68l-2.12.7a11.722,11.722,0,0,0-.3-1.72A15.021,15.021,0,0,0,27.46-4.72Zm-4.64-.44,2.3.4a27.2,27.2,0,0,1-.43,2.85A13.108,13.108,0,0,1,24,.46a5.887,5.887,0,0,0-.62-.35Q23-.08,22.6-.26t-.68-.28a8.622,8.622,0,0,0,.61-2.13A24.568,24.568,0,0,0,22.82-5.16Zm2.24-1.86h2.48V1.9H25.06Z" transform="translate(631 600)" fill="#404d61"/>
      <g id="Group_714" data-name="Group 714" transform="translate(-4621 740)">
        <path id="Path_1315" data-name="Path 1315" d="M-28.968-17.688a20.052,20.052,0,0,0,1.08-2.376l-1.416-.192a18.1,18.1,0,0,1-5.9,8.088l.912,1.224a22.1,22.1,0,0,0,4.632-5.544h6.24v4.512H-31.56v6.792h-3.456v1.176h11.592V1.848h1.392V-4.008h9.048V-5.184h-9.048v-5.592h7.2v-1.2h-7.2v-4.512h7.992v-1.2Zm5.544,12.5h-6.768v-5.592h6.768ZM-3.1,1.8a14.886,14.886,0,0,0,8.64-5.52,36.427,36.427,0,0,1,4.7,5.376L11.328.7A37.826,37.826,0,0,0,6.216-4.728,17.766,17.766,0,0,0,8.3-13.176l.12-6.648H7.08l-.12,6.6C6.792-4.176,1.56-.576-3.768.576ZM.48-5.88A71.255,71.255,0,0,1-7.272-2.64L-7.68-19.728H-9.024l.432,17.544c-.48.168-1.2.408-2.784.888l.288,1.344A84.339,84.339,0,0,0,.672-4.632Zm1.728-5.736A24.465,24.465,0,0,0-2.448-18.1l-1.032.768a25.346,25.346,0,0,1,4.488,6.5Zm22.344-8.5H23.064V-.36H13.032V.888H34.968V-.36H24.552V-11.184h8.976v-1.3H24.552Z" transform="translate(5292 -78)" fill="#404d61"/>
        <path id="Path_1314" data-name="Path 1314" d="M-12.32-16.59a12.285,12.285,0,0,1,3.99,1.505,11.277,11.277,0,0,1,3.115,2.73A12.19,12.19,0,0,1-3.22-8.575a14.63,14.63,0,0,1,.7,4.585A12.9,12.9,0,0,1-3.85,1.925a12.728,12.728,0,0,1-3.815,4.48,18.532,18.532,0,0,1-5.985,2.87,28.123,28.123,0,0,1-7.84,1.015q-10.64,0-16.66-6.23l6.02-7.98A12.859,12.859,0,0,0-27.825-.945,14.863,14.863,0,0,0-22.05.07q7.91,0,7.91-5.81a5.4,5.4,0,0,0-2.345-4.76q-2.345-1.61-7.385-1.61h-2.1v-8.05h2.31a10.218,10.218,0,0,0,6.125-1.61,5.036,5.036,0,0,0,2.205-4.27,4.078,4.078,0,0,0-1.61-3.5,7.018,7.018,0,0,0-4.27-1.19,10.176,10.176,0,0,0-5.215,1.365A11.637,11.637,0,0,0-30.38-25.48l-7.07-8.12a12.823,12.823,0,0,1,2.94-2.73,19.117,19.117,0,0,1,4.13-2.135,28.673,28.673,0,0,1,4.97-1.365,30.079,30.079,0,0,1,5.46-.49,24.8,24.8,0,0,1,6.79.875,15.7,15.7,0,0,1,5.25,2.52,11.69,11.69,0,0,1,3.36,3.92A10.781,10.781,0,0,1-3.36-27.93a11.933,11.933,0,0,1-.665,3.99A12.179,12.179,0,0,1-5.88-20.51a10.571,10.571,0,0,1-2.835,2.555A10.221,10.221,0,0,1-12.32-16.59Zm39.83,0a12.285,12.285,0,0,1,3.99,1.505,11.277,11.277,0,0,1,3.115,2.73,12.19,12.19,0,0,1,1.995,3.78,14.63,14.63,0,0,1,.7,4.585,12.9,12.9,0,0,1-1.33,5.915,12.728,12.728,0,0,1-3.815,4.48,18.532,18.532,0,0,1-5.985,2.87,28.123,28.123,0,0,1-7.84,1.015Q7.7,10.29,1.68,4.06L7.7-3.92A12.859,12.859,0,0,0,12.005-.945,14.863,14.863,0,0,0,17.78.07q7.91,0,7.91-5.81a5.4,5.4,0,0,0-2.345-4.76Q21-12.11,15.96-12.11h-2.1v-8.05h2.31A10.218,10.218,0,0,0,22.3-21.77,5.036,5.036,0,0,0,24.5-26.04a4.078,4.078,0,0,0-1.61-3.5,7.018,7.018,0,0,0-4.27-1.19,10.176,10.176,0,0,0-5.215,1.365A11.637,11.637,0,0,0,9.45-25.48L2.38-33.6a12.823,12.823,0,0,1,2.94-2.73,19.117,19.117,0,0,1,4.13-2.135,28.673,28.673,0,0,1,4.97-1.365,30.079,30.079,0,0,1,5.46-.49,24.8,24.8,0,0,1,6.79.875,15.7,15.7,0,0,1,5.25,2.52,11.69,11.69,0,0,1,3.36,3.92,10.781,10.781,0,0,1,1.19,5.075,11.933,11.933,0,0,1-.665,3.99,12.179,12.179,0,0,1-1.855,3.43,10.571,10.571,0,0,1-2.835,2.555A10.221,10.221,0,0,1,27.51-16.59Z" transform="translate(5216 -83)" fill="#404d61"/>
      </g>
    </g>
    <g id="Group_751" data-name="Group 751">
      <g id="Group_711" data-name="Group 711" transform="translate(505.749 558.188)">
        <path id="Path_1070" data-name="Path 1070" d="M60.814,10.864a11.515,11.515,0,0,0-.082-2.634A22.27,22.27,0,0,0,60.17,5.6l-.763-2.673q-.183-.684-.344-1.385c-.059-.229-.086-.483-.125-.726L58.888.449A3.031,3.031,0,0,1,58.928,0c-.314.19-.46.239-.663.347s-.358.185-.534.287a8.265,8.265,0,0,0-.97.655,7.792,7.792,0,0,0-.86.784,7.631,7.631,0,0,0-.753.915A10.035,10.035,0,0,0,53.4,7.8a13.8,13.8,0,0,0,3.344,10.174c2.268-1.125,3.739-3.577,4.065-7.114" transform="translate(-27.575)" fill="#47aef5"/>
        <path id="Path_1071" data-name="Path 1071" d="M80.632,11.271A12.648,12.648,0,0,0,82.655,9.2,24.544,24.544,0,0,0,84.3,6.747L85.837,4.1q.4-.667.834-1.33c.136-.222.315-.437.479-.653l.257-.323a3.382,3.382,0,0,1,.385-.311c-.39-.1-.541-.182-.781-.26s-.42-.142-.636-.2A9.128,9.128,0,0,0,85.117.754,8.572,8.572,0,0,0,83.84.671a8.388,8.388,0,0,0-1.3.1A11.031,11.031,0,0,0,77.4,3.07a15.171,15.171,0,0,0-5.5,10.412c2.621.937,5.685.23,8.734-2.211" transform="translate(-37.168 -0.347)" fill="#47aef5"/>
        <path id="Path_1072" data-name="Path 1072" d="M75.622,32.737a21.219,21.219,0,0,0-2.08-.52,9.891,9.891,0,0,0-2.065-.205,6.08,6.08,0,0,0-2,.339c-2.6.923-4.043,2.964-3.991,5.108a14.873,14.873,0,0,0,4.288.764,11.809,11.809,0,0,0,4.048-.536c2.459-.816,3.764-2.409,3.845-4.325-.667-.209-1.353-.425-2.044-.625" transform="translate(-33.852 -16.548)" fill="#47aef5"/>
        <path id="Path_1073" data-name="Path 1073" d="M34.311,37.735a14.379,14.379,0,0,0,1.071,2.619,14.633,14.633,0,0,0,3.447,4.291,6.641,6.641,0,0,0,2.355-3.119,8.977,8.977,0,0,0,.538-2.164,13.872,13.872,0,0,0,.056-2.534,14.2,14.2,0,0,0-1.568-5.139c-.816-1.666-1.766-3.289-2.552-5.022-2.458,1.347-4.059,4.457-3.831,8.27a12.9,12.9,0,0,0,.484,2.8" transform="translate(-17.476 -13.786)" fill="#47aef5"/>
        <path id="Path_1074" data-name="Path 1074" d="M61.639,58.346a4.754,4.754,0,0,0,.592-1.409,5.08,5.08,0,0,0,.1-1.535c-2.949-.223-6.1-.88-8.628.487-2.5,1.385-3.662,3.693-3.247,5.881a15.825,15.825,0,0,0,4.509.088,12.971,12.971,0,0,0,2.125-.444,11.211,11.211,0,0,0,1.931-.767,6.546,6.546,0,0,0,2.614-2.3" transform="translate(-26.044 -28.458)" fill="#47aef5"/>
        <path id="Path_1075" data-name="Path 1075" d="M20.7,70.385a14.962,14.962,0,0,0,4.173,3.747,6.136,6.136,0,0,0,1.183-1.584,8.164,8.164,0,0,0,.683-1.95,8.785,8.785,0,0,0,.181-2.273c-.008-.2-.025-.409-.044-.618s-.036-.417-.063-.63a13.088,13.088,0,0,0-.24-1.316,11.727,11.727,0,0,0-.96-2.568,19.283,19.283,0,0,0-1.433-2.369c-.536-.774-1.116-1.538-1.7-2.312s-1.138-1.547-1.663-2.358a7.345,7.345,0,0,0-2.453,3.72,9.333,9.333,0,0,0-.386,2.508,10.792,10.792,0,0,0,.269,2.774A13.414,13.414,0,0,0,20.7,70.385" transform="translate(-9.292 -29.03)" fill="#47aef5"/>
        <path id="Path_1076" data-name="Path 1076" d="M48.067,85.839a8.495,8.495,0,0,0,.758-.639,6.729,6.729,0,0,0,.647-.666,5.255,5.255,0,0,0,.873-1.432,4.691,4.691,0,0,0,.226-3.094c-1.513.117-3.1.133-4.614.339a10.61,10.61,0,0,0-2.173.5,7.033,7.033,0,0,0-1.926,1.018,6.946,6.946,0,0,0-1.458,1.48,6.58,6.58,0,0,0-.889,1.648,5.286,5.286,0,0,0,.011,3.386,16.229,16.229,0,0,0,4.622-.659,12.876,12.876,0,0,0,3.925-1.88" transform="translate(-20.284 -41.361)" fill="#47aef5"/>
        <path id="Path_1077" data-name="Path 1077" d="M8.924,100.414a14.447,14.447,0,0,0,1.958,2.23,15.03,15.03,0,0,0,4.844,3.025,6.651,6.651,0,0,0,1.244-3.887,8.945,8.945,0,0,0-.2-2.315,15.941,15.941,0,0,0-.8-2.524,11.326,11.326,0,0,0-1.393-2.424q-.419-.566-.893-1.1c-.306-.356-.625-.7-.956-1.049-1.324-1.379-2.82-2.688-4.157-4.162A7.4,7.4,0,0,0,7.366,90.1a7.614,7.614,0,0,0-.637,2.313,10.742,10.742,0,0,0,.783,5.383,13.826,13.826,0,0,0,1.412,2.621" transform="translate(-3.445 -45.598)" fill="#47aef5"/>
        <path id="Path_1078" data-name="Path 1078" d="M33.045,110.246a7.149,7.149,0,0,0-.386.912,4.4,4.4,0,0,0-.224.917,5.434,5.434,0,0,0,.612,3.431,17.178,17.178,0,0,0,4.59-1.491,14.205,14.205,0,0,0,1.967-1.17,10.929,10.929,0,0,0,1.688-1.406,8.3,8.3,0,0,0,1.183-1.551,5.312,5.312,0,0,0,.656-1.581,5.055,5.055,0,0,0-.3-3.147c-.765.18-1.553.339-2.34.509s-1.581.352-2.315.587a8.921,8.921,0,0,0-3.917,2.232,8.229,8.229,0,0,0-1.211,1.757" transform="translate(-16.738 -54.364)" fill="#47aef5"/>
        <path id="Path_1079" data-name="Path 1079" d="M.82,128.665a10.7,10.7,0,0,0,1.243,2.653A14.3,14.3,0,0,0,3.975,133.7a13.123,13.123,0,0,0,2.34,1.885,15.532,15.532,0,0,0,5.44,2.157,6.371,6.371,0,0,0,.563-1.975,7.713,7.713,0,0,0,.044-1.056,7.427,7.427,0,0,0-.071-1.1,12.22,12.22,0,0,0-1.883-4.681,15.833,15.833,0,0,0-4.071-4.025c-1.574-1.154-3.309-2.209-4.912-3.462a8.179,8.179,0,0,0-1.114,4.584,11.148,11.148,0,0,0,.509,2.633" transform="translate(-0.157 -62.784)" fill="#47aef5"/>
        <path id="Path_1080" data-name="Path 1080" d="M30.684,138.635a4.879,4.879,0,0,0,.353,1.815A5.485,5.485,0,0,0,31.953,142a17.411,17.411,0,0,0,4.356-2.353,18.478,18.478,0,0,0,1.812-1.545,11.078,11.078,0,0,0,1.437-1.726,8.956,8.956,0,0,0,.523-.9,6.989,6.989,0,0,0,.413-.881,5.353,5.353,0,0,0,.366-1.709,5.668,5.668,0,0,0-.034-.823,4.515,4.515,0,0,0-.138-.795,4.945,4.945,0,0,0-.7-1.5c-1.487.628-3.084,1.191-4.543,1.923a9.061,9.061,0,0,0-3.56,2.962,7.281,7.281,0,0,0-1.2,3.969" transform="translate(-15.862 -67.091)" fill="#47aef5"/>
        <path id="Path_1081" data-name="Path 1081" d="M7.933,170.248a15.65,15.65,0,0,0,5.795,1.229,6.874,6.874,0,0,0-.162-4.239q-.095-.271-.212-.542c-.07-.183-.144-.366-.227-.548a9.9,9.9,0,0,0-.584-1.1,13.059,13.059,0,0,0-1.7-2.176c-.349-.358-.692-.692-1.057-1A12.805,12.805,0,0,0,8.638,161a21.047,21.047,0,0,0-2.572-1.445c-.9-.437-1.845-.842-2.777-1.261S1.44,157.447.538,156.96a7.6,7.6,0,0,0-.359,1.113q-.069.288-.118.584c-.025.2-.041.4-.051.6a9.37,9.37,0,0,0,.226,2.5,10.811,10.811,0,0,0,.372,1.28c.077.213.16.427.252.639s.209.42.324.629a13.229,13.229,0,0,0,1.733,2.43,13.765,13.765,0,0,0,5.017,3.519" transform="translate(0 -81.142)" fill="#47aef5"/>
        <path id="Path_1082" data-name="Path 1082" d="M35.247,169.694a18.191,18.191,0,0,0,4.051-3.166,14.923,14.923,0,0,0,2.71-3.912,7.838,7.838,0,0,0,.625-1.979c.057-.316.067-.624.092-.925a5.231,5.231,0,0,0-.016-.881,4.727,4.727,0,0,0-.467-1.613,6.2,6.2,0,0,0-.983-1.395l-2.151,1.343c-.714.452-1.422.916-2.087,1.417a8.081,8.081,0,0,0-3.7,5.849,7.266,7.266,0,0,0-.063,1.054,6.879,6.879,0,0,0,.134,1,5.747,5.747,0,0,0,1.852,3.213" transform="translate(-17.194 -80.554)" fill="#47aef5"/>
        <path id="Path_1083" data-name="Path 1083" d="M15.309,203.315a14.979,14.979,0,0,0,6.08-.087c.058-2.876-1.537-5.637-4.781-8.043a17.162,17.162,0,0,0-5.454-2.509c-.978-.3-1.979-.56-2.993-.839-.507-.139-1.015-.283-1.524-.436l-.761-.239-.741-.243a5.582,5.582,0,0,0-.15,1.21,8.946,8.946,0,0,0,.051,1.276,9.139,9.139,0,0,0,.7,2.6,10.707,10.707,0,0,0,1.492,2.5,12.282,12.282,0,0,0,2.255,2.215,13.336,13.336,0,0,0,2.8,1.65,13.715,13.715,0,0,0,3.027.941" transform="translate(-2.575 -98.698)" fill="#47aef5"/>
        <path id="Path_1084" data-name="Path 1084" d="M41.295,193.834a5.4,5.4,0,0,0,2.6,2.728,21.1,21.1,0,0,0,3.328-4.045,19.76,19.76,0,0,0,1.178-2.175,13.825,13.825,0,0,0,.774-2.167c.738-2.854.015-4.934-1.894-6.281-1.269,1.1-2.7,2.209-3.856,3.429a12.136,12.136,0,0,0-1.552,1.953,7.5,7.5,0,0,0-.923,2.237,8.428,8.428,0,0,0-.156,2.3,6.872,6.872,0,0,0,.5,2.018" transform="translate(-21.077 -94.032)" fill="#47aef5"/>
        <path id="Path_1085" data-name="Path 1085" d="M31.5,236.515a15.743,15.743,0,0,0,3.112-.421,16.01,16.01,0,0,0,2.9-1.01c-.556-2.87-2.763-5.264-6.531-6.9a17.45,17.45,0,0,0-5.972-1.223c-1.038-.065-2.11-.082-3.174-.124s-2.137-.1-3.214-.225a8.794,8.794,0,0,0,1.774,4.9,11.917,11.917,0,0,0,4.77,3.77,14.974,14.974,0,0,0,1.541.59,14.116,14.116,0,0,0,1.589.39,14.258,14.258,0,0,0,3.2.244" transform="translate(-9.628 -117.152)" fill="#47aef5"/>
        <path id="Path_1086" data-name="Path 1086" d="M54.868,215.467a6.472,6.472,0,0,0,.967,1.921,5.607,5.607,0,0,0,1.438,1.394,5.485,5.485,0,0,0,.853.48,5.975,5.975,0,0,0,.936.315,19.813,19.813,0,0,0,1.382-2.351,20.073,20.073,0,0,0,1.052-2.472,19.149,19.149,0,0,0,.681-2.473c.082-.407.135-.8.184-1.2a11.083,11.083,0,0,0,.084-1.176c.056-3.071-1.153-5.02-3.386-5.92C57,206.8,54.449,209.71,54.492,213.11a8.425,8.425,0,0,0,.1,1.229,8.558,8.558,0,0,0,.274,1.127" transform="translate(-28.17 -105.45)" fill="#47aef5"/>
        <path id="Path_1087" data-name="Path 1087" d="M78.67,239.342a20.5,20.5,0,0,0,1.548-5.355,15.856,15.856,0,0,0-.043-5.158c-.611-3.178-2.313-4.973-4.778-5.445-.358.826-.75,1.663-1.126,2.51s-.719,1.693-1.01,2.551a12.364,12.364,0,0,0-.608,2.582,7.593,7.593,0,0,0,.1,2.584c.756,3.44,3.184,5.547,5.912,5.73" transform="translate(-37.527 -115.481)" fill="#47aef5"/>
        <path id="Path_1088" data-name="Path 1088" d="M51.877,261.249a16.554,16.554,0,0,0,3.023-1,16.771,16.771,0,0,0,2.721-1.538c-1.059-2.768-3.726-4.763-7.8-5.617a12.9,12.9,0,0,0-3.068-.264,23.369,23.369,0,0,0-3.105.3c-1.051.166-2.1.368-3.165.557s-2.142.375-3.234.492a8.554,8.554,0,0,0,.98,2.344,10.069,10.069,0,0,0,1.739,2.074,11.542,11.542,0,0,0,2.418,1.641,12.8,12.8,0,0,0,3,1.061,13.971,13.971,0,0,0,3.275.339,15,15,0,0,0,3.218-.381" transform="translate(-19.257 -130.698)" fill="#47aef5"/>
        <path id="Path_1089" data-name="Path 1089" d="M93.743,239.9c-.406,1.817-.959,3.7-1.226,5.545a13.324,13.324,0,0,0-.16,2.738,8.11,8.11,0,0,0,.551,2.62c1.35,3.386,4.13,5.165,6.951,4.971a18.315,18.315,0,0,0-.156-10.99c-1.2-3.185-3.327-4.8-5.961-4.885" transform="translate(-47.736 -124.02)" fill="#47aef5"/>
        <path id="Path_1090" data-name="Path 1090" d="M124.314,270.291a20.065,20.065,0,0,0,.076-5.911,17.278,17.278,0,0,0-.612-2.793,13.951,13.951,0,0,0-1.042-2.526c-1.679-3.135-4.163-4.544-6.9-4.289-.275,3.857-1.1,7.987.729,11.278s4.887,4.755,7.754,4.241" transform="translate(-59.661 -131.692)" fill="#47aef5"/>
        <path id="Path_1091" data-name="Path 1091" d="M81.308,278c-1.451-2.631-4.445-4.253-8.655-4.433a12.84,12.84,0,0,0-3.106.256,22.786,22.786,0,0,0-3.046.842c-1.017.352-2.028.74-3.053,1.126s-2.065.774-3.121,1.088a8.109,8.109,0,0,0,1.34,2.132A9.626,9.626,0,0,0,63.7,280.74a11.993,11.993,0,0,0,5.759,1.745,15.309,15.309,0,0,0,1.658,0,16,16,0,0,0,1.641-.2,15.658,15.658,0,0,0,3.152-.886A17.2,17.2,0,0,0,81.308,278" transform="translate(-31.187 -141.415)" fill="#47aef5"/>
        <path id="Path_1092" data-name="Path 1092" d="M99.074,290.922a13.155,13.155,0,0,0-3.083.676,23.374,23.374,0,0,0-2.938,1.276c-1.938.99-3.838,2.165-5.858,3.13,1.657,2.851,5.316,4.665,9.768,4.316a15.922,15.922,0,0,0,6.323-1.916,17.854,17.854,0,0,0,5.035-4.085c-1.762-2.488-5-3.765-9.246-3.4" transform="translate(-45.077 -150.363)" fill="#47aef5"/>
      </g>
      <g id="Group_712" data-name="Group 712" transform="translate(690.749 558.188)">
        <path id="Path_1093" data-name="Path 1093" d="M889.782,10.864a11.509,11.509,0,0,1,.082-2.634,22.272,22.272,0,0,1,.563-2.625c.25-.876.506-1.772.763-2.673q.183-.684.344-1.385c.059-.229.086-.483.125-.726l.049-.371a3.038,3.038,0,0,0-.04-.449c.314.19.46.239.663.347s.358.185.534.287a8.271,8.271,0,0,1,.97.655,7.838,7.838,0,0,1,.861.784,7.67,7.67,0,0,1,.753.915A10.036,10.036,0,0,1,897.191,7.8a13.8,13.8,0,0,1-3.344,10.174c-2.267-1.125-3.739-3.577-4.065-7.114" transform="translate(-858.109)" fill="#47aef5"/>
        <path id="Path_1094" data-name="Path 1094" d="M861,11.271A12.642,12.642,0,0,1,858.975,9.2a24.477,24.477,0,0,1-1.649-2.449L855.793,4.1q-.4-.667-.834-1.33c-.136-.222-.315-.437-.479-.653l-.256-.323a3.377,3.377,0,0,0-.385-.311c.39-.1.54-.182.781-.26s.42-.142.636-.2a9.125,9.125,0,0,1,1.258-.268A8.578,8.578,0,0,1,857.79.671a8.4,8.4,0,0,1,1.3.1,11.031,11.031,0,0,1,5.141,2.3,15.172,15.172,0,0,1,5.5,10.412c-2.622.937-5.685.23-8.734-2.211" transform="translate(-839.549 -0.347)" fill="#47aef5"/>
        <path id="Path_1095" data-name="Path 1095" d="M869.979,32.737a21.2,21.2,0,0,1,2.08-.52,9.891,9.891,0,0,1,2.065-.205,6.079,6.079,0,0,1,2,.339c2.6.923,4.043,2.964,3.991,5.108a14.873,14.873,0,0,1-4.288.764,11.809,11.809,0,0,1-4.048-.536c-2.459-.816-3.764-2.409-3.845-4.325.667-.209,1.353-.425,2.044-.625" transform="translate(-846.837 -16.548)" fill="#47aef5"/>
        <path id="Path_1096" data-name="Path 1096" d="M915.76,37.735a14.373,14.373,0,0,1-1.071,2.619,14.633,14.633,0,0,1-3.448,4.291,6.64,6.64,0,0,1-2.355-3.119,8.979,8.979,0,0,1-.538-2.164,13.866,13.866,0,0,1-.056-2.534,14.188,14.188,0,0,1,1.568-5.139c.816-1.666,1.766-3.289,2.552-5.022,2.458,1.347,4.059,4.457,3.831,8.27a12.94,12.94,0,0,1-.485,2.8" transform="translate(-867.683 -13.786)" fill="#47aef5"/>
        <path id="Path_1097" data-name="Path 1097" d="M884.186,58.346a4.772,4.772,0,0,1-.593-1.409,5.093,5.093,0,0,1-.1-1.535c2.949-.223,6.1-.88,8.628.487,2.5,1.385,3.662,3.693,3.247,5.881a15.825,15.825,0,0,1-4.509.088,12.971,12.971,0,0,1-2.125-.444,11.212,11.212,0,0,1-1.931-.767,6.547,6.547,0,0,1-2.614-2.3" transform="translate(-854.869 -28.458)" fill="#47aef5"/>
        <path id="Path_1098" data-name="Path 1098" d="M928.363,70.385a14.963,14.963,0,0,1-4.173,3.747,6.137,6.137,0,0,1-1.183-1.584,8.163,8.163,0,0,1-.683-1.95,8.788,8.788,0,0,1-.181-2.273c.008-.2.025-.409.044-.618s.036-.417.063-.63a13.088,13.088,0,0,1,.24-1.316,11.724,11.724,0,0,1,.96-2.568,19.28,19.28,0,0,1,1.433-2.369c.536-.774,1.116-1.538,1.7-2.312s1.138-1.547,1.663-2.358a7.344,7.344,0,0,1,2.453,3.72,9.337,9.337,0,0,1,.386,2.508,10.791,10.791,0,0,1-.269,2.774,13.413,13.413,0,0,1-2.449,5.228" transform="translate(-874.856 -29.03)" fill="#47aef5"/>
        <path id="Path_1099" data-name="Path 1099" d="M898.268,85.839a8.618,8.618,0,0,1-.758-.639,6.745,6.745,0,0,1-.647-.666,5.252,5.252,0,0,1-.873-1.432,4.689,4.689,0,0,1-.227-3.094c1.513.117,3.1.133,4.615.339a10.613,10.613,0,0,1,2.173.5,7.026,7.026,0,0,1,1.926,1.018,6.948,6.948,0,0,1,1.458,1.48,6.585,6.585,0,0,1,.889,1.648,5.286,5.286,0,0,1-.011,3.386,16.23,16.23,0,0,1-4.622-.659,12.879,12.879,0,0,1-3.925-1.88" transform="translate(-861.14 -41.361)" fill="#47aef5"/>
        <path id="Path_1100" data-name="Path 1100" d="M938.672,100.414a14.422,14.422,0,0,1-1.957,2.23,15.04,15.04,0,0,1-4.845,3.025,6.65,6.65,0,0,1-1.244-3.887,8.963,8.963,0,0,1,.2-2.315,15.925,15.925,0,0,1,.8-2.524,11.311,11.311,0,0,1,1.393-2.424c.279-.377.578-.744.893-1.1s.625-.7.956-1.049c1.324-1.379,2.82-2.688,4.157-4.162A7.392,7.392,0,0,1,940.23,90.1a7.6,7.6,0,0,1,.637,2.313,10.737,10.737,0,0,1-.784,5.383,13.824,13.824,0,0,1-1.412,2.621" transform="translate(-879.24 -45.598)" fill="#47aef5"/>
        <path id="Path_1101" data-name="Path 1101" d="M913.956,110.246a7.17,7.17,0,0,1,.386.912,4.4,4.4,0,0,1,.224.917,5.433,5.433,0,0,1-.613,3.431,17.178,17.178,0,0,1-4.59-1.491,14.211,14.211,0,0,1-1.967-1.17,10.929,10.929,0,0,1-1.688-1.406,8.267,8.267,0,0,1-1.183-1.551,5.31,5.31,0,0,1-.656-1.581,5.056,5.056,0,0,1,.3-3.147c.765.18,1.553.339,2.34.509s1.582.352,2.315.587a8.924,8.924,0,0,1,3.917,2.232,8.228,8.228,0,0,1,1.211,1.757" transform="translate(-865.351 -54.364)" fill="#47aef5"/>
        <path id="Path_1102" data-name="Path 1102" d="M944.912,128.665a10.692,10.692,0,0,1-1.243,2.653,14.291,14.291,0,0,1-1.911,2.382,13.123,13.123,0,0,1-2.34,1.885,15.533,15.533,0,0,1-5.44,2.157,6.375,6.375,0,0,1-.563-1.975,7.728,7.728,0,0,1-.044-1.056,7.429,7.429,0,0,1,.071-1.1,12.219,12.219,0,0,1,1.883-4.681,15.831,15.831,0,0,1,4.071-4.025c1.574-1.154,3.309-2.209,4.912-3.462a8.181,8.181,0,0,1,1.114,4.584,11.142,11.142,0,0,1-.509,2.633" transform="translate(-880.663 -62.784)" fill="#47aef5"/>
        <path id="Path_1103" data-name="Path 1103" d="M917.06,138.635a4.878,4.878,0,0,1-.353,1.815,5.483,5.483,0,0,1-.915,1.554,17.409,17.409,0,0,1-4.356-2.353,18.47,18.47,0,0,1-1.812-1.545,11.074,11.074,0,0,1-1.437-1.726,8.936,8.936,0,0,1-.523-.9,6.979,6.979,0,0,1-.413-.881,5.355,5.355,0,0,1-.366-1.709,5.755,5.755,0,0,1,.034-.823,4.517,4.517,0,0,1,.138-.795,4.944,4.944,0,0,1,.7-1.5c1.487.628,3.084,1.191,4.544,1.923a9.06,9.06,0,0,1,3.56,2.962,7.281,7.281,0,0,1,1.2,3.969" transform="translate(-866.97 -67.091)" fill="#47aef5"/>
        <path id="Path_1104" data-name="Path 1104" d="M935.735,170.248a15.65,15.65,0,0,1-5.795,1.229,6.871,6.871,0,0,1,.162-4.239q.1-.271.212-.542c.069-.183.144-.366.227-.548a9.961,9.961,0,0,1,.584-1.1,13.083,13.083,0,0,1,1.7-2.176c.349-.358.692-.692,1.056-1A12.886,12.886,0,0,1,935.03,161a21.05,21.05,0,0,1,2.572-1.445c.9-.437,1.845-.842,2.777-1.261s1.849-.851,2.751-1.339a7.672,7.672,0,0,1,.359,1.113c.046.192.086.387.117.584s.041.4.051.6a9.393,9.393,0,0,1-.226,2.5,10.855,10.855,0,0,1-.372,1.28c-.077.213-.16.427-.252.639s-.209.42-.324.629a13.233,13.233,0,0,1-1.733,2.43,13.766,13.766,0,0,1-5.017,3.519" transform="translate(-878.757 -81.142)" fill="#47aef5"/>
        <path id="Path_1105" data-name="Path 1105" d="M913.25,169.694a18.193,18.193,0,0,1-4.051-3.166,14.928,14.928,0,0,1-2.71-3.912,7.849,7.849,0,0,1-.625-1.979c-.057-.316-.067-.624-.092-.925a5.24,5.24,0,0,1,.016-.881,4.728,4.728,0,0,1,.467-1.613,6.208,6.208,0,0,1,.983-1.395l2.152,1.343c.714.452,1.422.916,2.087,1.417a8.08,8.08,0,0,1,3.7,5.849,7.228,7.228,0,0,1,.063,1.054,6.818,6.818,0,0,1-.134,1,5.744,5.744,0,0,1-1.852,3.213" transform="translate(-866.392 -80.554)" fill="#47aef5"/>
        <path id="Path_1106" data-name="Path 1106" d="M925.767,203.315a14.982,14.982,0,0,1-6.081-.087c-.058-2.876,1.537-5.637,4.782-8.043a17.166,17.166,0,0,1,5.454-2.509c.978-.3,1.979-.56,2.993-.839.507-.139,1.016-.283,1.524-.436l.761-.239.741-.243a5.571,5.571,0,0,1,.15,1.21,8.972,8.972,0,0,1-.051,1.276,9.138,9.138,0,0,1-.7,2.6,10.712,10.712,0,0,1-1.492,2.5,12.287,12.287,0,0,1-2.255,2.215,13.34,13.34,0,0,1-2.8,1.65,13.715,13.715,0,0,1-3.027.941" transform="translate(-873.589 -98.698)" fill="#47aef5"/>
        <path id="Path_1107" data-name="Path 1107" d="M908.049,193.834a5.4,5.4,0,0,1-2.6,2.728,21.109,21.109,0,0,1-3.328-4.045,19.844,19.844,0,0,1-1.178-2.175,13.82,13.82,0,0,1-.774-2.167c-.738-2.854-.015-4.934,1.895-6.281,1.269,1.1,2.7,2.209,3.856,3.429a12.129,12.129,0,0,1,1.552,1.953,7.5,7.5,0,0,1,.923,2.237,8.412,8.412,0,0,1,.156,2.3,6.875,6.875,0,0,1-.5,2.018" transform="translate(-863.355 -94.032)" fill="#47aef5"/>
        <path id="Path_1108" data-name="Path 1108" d="M906.923,236.515a15.743,15.743,0,0,1-3.112-.421,16.014,16.014,0,0,1-2.9-1.01c.556-2.87,2.763-5.264,6.531-6.9a17.45,17.45,0,0,1,5.972-1.223c1.038-.065,2.11-.082,3.174-.124s2.137-.1,3.214-.225a8.792,8.792,0,0,1-1.774,4.9,11.917,11.917,0,0,1-4.77,3.77,14.987,14.987,0,0,1-1.541.59,14.728,14.728,0,0,1-4.789.634" transform="translate(-863.882 -117.152)" fill="#47aef5"/>
        <path id="Path_1109" data-name="Path 1109" d="M895.258,215.467a6.471,6.471,0,0,1-.966,1.921,5.607,5.607,0,0,1-1.438,1.394,5.486,5.486,0,0,1-.853.48,5.975,5.975,0,0,1-.936.315,19.813,19.813,0,0,1-1.382-2.351,20.055,20.055,0,0,1-1.052-2.472,19.132,19.132,0,0,1-.681-2.473c-.082-.407-.135-.8-.184-1.2a11.073,11.073,0,0,1-.084-1.176c-.056-3.071,1.153-5.02,3.386-5.92,2.062,2.818,4.609,5.729,4.566,9.129a8.422,8.422,0,0,1-.1,1.229,8.546,8.546,0,0,1-.274,1.127" transform="translate(-857.044 -105.45)" fill="#47aef5"/>
        <path id="Path_1110" data-name="Path 1110" d="M871.6,239.342a20.482,20.482,0,0,1-1.548-5.355,15.857,15.857,0,0,1,.043-5.158c.611-3.178,2.313-4.973,4.778-5.445.359.826.75,1.663,1.126,2.51s.719,1.693,1.01,2.551a12.363,12.363,0,0,1,.608,2.582,7.6,7.6,0,0,1-.1,2.584c-.757,3.44-3.184,5.547-5.912,5.73" transform="translate(-847.836 -115.481)" fill="#47aef5"/>
        <path id="Path_1111" data-name="Path 1111" d="M884.959,261.249a16.549,16.549,0,0,1-3.023-1,16.771,16.771,0,0,1-2.721-1.538c1.059-2.768,3.726-4.763,7.8-5.617a12.9,12.9,0,0,1,3.068-.264,23.369,23.369,0,0,1,3.105.3c1.051.166,2.1.368,3.165.557s2.142.375,3.234.492a8.556,8.556,0,0,1-.98,2.344,10.058,10.058,0,0,1-1.739,2.074,11.539,11.539,0,0,1-2.418,1.641,12.8,12.8,0,0,1-3,1.061,13.972,13.972,0,0,1-3.275.339,15,15,0,0,1-3.218-.381" transform="translate(-852.668 -130.698)" fill="#47aef5"/>
        <path id="Path_1112" data-name="Path 1112" d="M856.032,239.9c.406,1.817.959,3.7,1.227,5.545a13.371,13.371,0,0,1,.159,2.738,8.1,8.1,0,0,1-.551,2.62c-1.35,3.386-4.13,5.165-6.951,4.971a18.31,18.31,0,0,1,.156-10.99c1.2-3.185,3.326-4.8,5.96-4.885" transform="translate(-837.127 -124.02)" fill="#47aef5"/>
        <path id="Path_1113" data-name="Path 1113" d="M824.517,270.291a20.015,20.015,0,0,1-.076-5.911,17.281,17.281,0,0,1,.612-2.793,13.981,13.981,0,0,1,1.041-2.526c1.679-3.135,4.163-4.544,6.9-4.289.275,3.857,1.1,7.987-.728,11.278s-4.887,4.755-7.754,4.241" transform="translate(-824.257 -131.692)" fill="#47aef5"/>
        <path id="Path_1114" data-name="Path 1114" d="M854.877,278c1.451-2.631,4.445-4.253,8.655-4.433a12.841,12.841,0,0,1,3.106.256,22.786,22.786,0,0,1,3.046.842c1.017.352,2.028.74,3.053,1.126s2.065.774,3.121,1.088a8.107,8.107,0,0,1-1.34,2.132,9.627,9.627,0,0,1-2.036,1.735,11.994,11.994,0,0,1-5.759,1.745,15.31,15.31,0,0,1-1.658,0,16,16,0,0,1-1.641-.2,15.654,15.654,0,0,1-3.152-.886A17.194,17.194,0,0,1,854.877,278" transform="translate(-840.086 -141.415)" fill="#47aef5"/>
        <path id="Path_1115" data-name="Path 1115" d="M842.978,292.874a23.38,23.38,0,0,0-2.938-1.275,13.131,13.131,0,0,0-3.083-.677c-4.249-.368-7.484.909-9.246,3.4a17.845,17.845,0,0,0,5.035,4.085,15.92,15.92,0,0,0,6.323,1.916c4.451.349,8.11-1.465,9.768-4.316-2.02-.965-3.92-2.14-5.858-3.13" transform="translate(-826.043 -150.363)" fill="#47aef5"/>
      </g>
    </g>
  </g>
</svg>
