<svg xmlns="http://www.w3.org/2000/svg" xmlns:xlink="http://www.w3.org/1999/xlink" width="113" height="132" viewBox="0 0 113 132">
  <defs>
    <clipPath id="clip-path">
      <rect id="Rectangle_39172" data-name="Rectangle 39172" width="108.763" height="79.397" fill="#01675b"/>
    </clipPath>
  </defs>
  <g id="icon09" transform="translate(-713.142 -3220.58)">
    <rect id="Rectangle_39399" data-name="Rectangle 39399" width="113" height="132" transform="translate(713.142 3220.58)" fill="none"/>
    <g id="_9" data-name="9" transform="translate(715.142 3246.58)">
      <g id="Group_67392" data-name="Group 67392" clip-path="url(#clip-path)">
        <path id="Path_229125" data-name="Path 229125" d="M90.725,50.108a6.717,6.717,0,0,1-4.838-2.092,6.208,6.208,0,0,1-.255-8.344l8.286-9.979a10.384,10.384,0,0,1,6.505-3.65L115.842,22.8a2.058,2.058,0,0,1,.848,4.029l-15.485,3.261c-.047.01-.094.018-.142.025a6.274,6.274,0,0,0-3.977,2.212L88.8,42.3a2.131,2.131,0,0,0,.023,2.827c.481.489,1.749,1.779,5.013-.271l8.269-7.314a2.059,2.059,0,1,1,2.728,3.084l-8.39,7.422a2.034,2.034,0,0,1-.249.188,10.144,10.144,0,0,1-5.468,1.87" transform="translate(-45.65 -12.343)" fill="#01675b"/>
        <path id="Path_229126" data-name="Path 229126" d="M48.575,114.44a5.93,5.93,0,0,1-4.2-1.91c-3.106-3.1-2.727-7.188,1.013-10.936s7.827-4.136,10.934-1.037c3.039,3.033,2.6,6.551-1.294,10.457-2.524,2.53-4.676,3.426-6.457,3.426m3.076-11.82c-.811,0-1.9.437-3.344,1.882-3.065,3.072-1.579,4.555-1.019,5.113.663.662,1.666,1.662,4.83-1.509,2.966-2.972,2.081-3.856,1.3-4.634a2.44,2.44,0,0,0-1.767-.851" transform="translate(-22.944 -53.426)" fill="#01675b"/>
        <path id="Path_229128" data-name="Path 229128" d="M64.541,130.323a5.886,5.886,0,0,1-4.241-1.9c-3.106-3.1-2.727-7.188,1.013-10.936a9.966,9.966,0,0,1,5.059-2.977,6.335,6.335,0,0,1,5.875,1.941,5.749,5.749,0,0,1,1.781,5.773,10.756,10.756,0,0,1-3.075,4.685,11.457,11.457,0,0,1-4.726,3.17,5.989,5.989,0,0,1-1.686.25m3.051-11.82a2.329,2.329,0,0,0-.443.045,6.137,6.137,0,0,0-2.921,1.842c-3.065,3.072-1.579,4.555-1.019,5.113.833.831,1.4.756,1.857.619a8,8,0,0,0,2.973-2.128,7.338,7.338,0,0,0,2.008-2.827c.081-.3.23-.872-.708-1.808a2.434,2.434,0,0,0-1.746-.857" transform="translate(-31.581 -62.057)" fill="#01675b"/>
        <path id="Path_229129" data-name="Path 229129" d="M78.012,130.4a9.966,9.966,0,0,1,5.059-2.977,6.336,6.336,0,0,1,5.875,1.941,5.749,5.749,0,0,1,1.781,5.773,10.756,10.756,0,0,1-3.075,4.685,11.457,11.457,0,0,1-4.726,3.17,5.989,5.989,0,0,1-1.686.25,5.886,5.886,0,0,1-4.241-1.9,6.334,6.334,0,0,1-1.953-5.87m9.245-4.045a2.329,2.329,0,0,0-.443.045,7.78,7.78,0,0,0-4.757,4.767c-.1.538-.111.413.807,1.329.833.831,1.405,1.614,1.867,1.479a8,8,0,0,0,2.973-2.128,7.338,7.338,0,0,0,2.008-2.827c.081-.3.23-.872-.708-1.808a2.434,2.434,0,0,0-1.746-.857" transform="translate(-40.651 -69.063)" fill="#01675b"/>
        <path id="Path_229130" data-name="Path 229130" d="M99.522,154.654a5.886,5.886,0,0,1-4.241-1.9,6.334,6.334,0,0,1-1.953-5.87,11.656,11.656,0,0,1,8.025-8.043,6.334,6.334,0,0,1,5.875,1.941,5.749,5.749,0,0,1,1.781,5.773,10.756,10.756,0,0,1-3.075,4.685,11.463,11.463,0,0,1-4.726,3.17,6.006,6.006,0,0,1-1.686.249m3.051-11.82a2.328,2.328,0,0,0-.443.045,7.78,7.78,0,0,0-4.757,4.767,2.263,2.263,0,0,0,.817,2.188c.833.831,1.395.755,1.857.619a8,8,0,0,0,2.973-2.128,7.338,7.338,0,0,0,2.008-2.827c.081-.3.23-.872-.708-1.808a2.434,2.434,0,0,0-1.746-.857" transform="translate(-50.569 -75.256)" fill="#01675b"/>
        <path id="Path_229131" data-name="Path 229131" d="M120.024,107.857q-.741,0-1.544-.072a2.059,2.059,0,1,1,.367-4.1c2.186.195,3.786-.137,4.509-.936a3.046,3.046,0,0,0,.541-2.335,2.046,2.046,0,0,1,2.337-2.443,2.362,2.362,0,0,0,2.012-.418c1.267-1.013,1.7-3.5,1.753-4.288a2.067,2.067,0,0,1,1.72-1.9c4.719-.778,5.042-3.691,5.064-4.02a2.014,2.014,0,0,1,1.587-1.915,4.751,4.751,0,0,0,3.811-3.877c.426-3.169-2.561-5.563-3.487-6.221L123.059,63.894a2.059,2.059,0,0,1,2.431-3.324L141.1,71.988c3.717,2.642,5.655,6.427,5.16,10.109a8.768,8.768,0,0,1-5.639,6.938,8.079,8.079,0,0,1-.942,2.072,9.559,9.559,0,0,1-5.79,3.991,9.726,9.726,0,0,1-3.056,5.656,6.16,6.16,0,0,1-2.849,1.284,6.423,6.423,0,0,1-1.531,3.422c-1.41,1.593-3.57,2.4-6.432,2.4" transform="translate(-63.26 -32.645)" fill="#01675b"/>
        <path id="Path_229132" data-name="Path 229132" d="M150.97,109.9a2.05,2.05,0,0,1-1.2-.386l-10.137-7.265a2.059,2.059,0,0,1,2.4-3.347l10.137,7.266a2.059,2.059,0,0,1-1.2,3.732" transform="translate(-75.288 -53.449)" fill="#01675b"/>
        <path id="Path_229133" data-name="Path 229133" d="M137.044,124.873a2.05,2.05,0,0,1-1.2-.386l-9.634-6.905a2.059,2.059,0,0,1,2.4-3.347l9.634,6.905a2.059,2.059,0,0,1-1.2,3.732" transform="translate(-68.005 -61.765)" fill="#01675b"/>
        <path id="Path_229134" data-name="Path 229134" d="M122.605,138.13a2.05,2.05,0,0,1-1.2-.386l-9.362-6.71a2.059,2.059,0,1,1,2.4-3.347l9.361,6.71a2.059,2.059,0,0,1-1.2,3.732" transform="translate(-60.32 -69.064)" fill="#01675b"/>
        <path id="Path_229135" data-name="Path 229135" d="M33.807,88.035a2.059,2.059,0,0,1-1.816-1.085L26.414,76.562a2.059,2.059,0,0,1,3.628-1.948L35.619,85a2.059,2.059,0,0,1-1.812,3.033" transform="translate(-14.197 -39.891)" fill="#01675b"/>
        <path id="Path_229136" data-name="Path 229136" d="M84.647,33.554a2.054,2.054,0,0,1-.945-.231l-7.659-3.968A2.059,2.059,0,1,1,77.937,25.7L85.6,29.667a2.059,2.059,0,0,1-.949,3.887" transform="translate(-40.651 -13.817)" fill="#01675b"/>
        <path id="Path_229137" data-name="Path 229137" d="M181.391,83.759a2.059,2.059,0,0,1-1.648-3.291L187.782,69.7a2.059,2.059,0,0,1,3.3,2.464l-8.039,10.766a2.056,2.056,0,0,1-1.651.827" transform="translate(-97.291 -37.366)" fill="#01675b"/>
        <path id="Path_229138" data-name="Path 229138" d="M10.337,35.356a2.059,2.059,0,0,1-1.456-.6L.6,26.475a2.059,2.059,0,0,1,0-2.911L23.564.6a2.059,2.059,0,0,1,2.911,0l8.278,8.278a2.06,2.06,0,0,1,0,2.911L11.792,34.753a2.059,2.059,0,0,1-1.456.6M4.97,25.02l5.366,5.366L30.386,10.337,25.02,4.97Z" transform="translate(0 0)" fill="#01675b"/>
        <path id="Path_229139" data-name="Path 229139" d="M185.477,35.356a2.06,2.06,0,0,1-1.456-.6L161.06,11.792a2.059,2.059,0,0,1,0-2.911L169.338.6a2.059,2.059,0,0,1,2.911,0l22.961,22.961a2.06,2.06,0,0,1,0,2.911l-8.278,8.278a2.06,2.06,0,0,1-1.456.6m-20.049-25.02,20.049,20.05,5.367-5.367L170.794,4.97Z" transform="translate(-87.05 0)" fill="#01675b"/>
      </g>
    </g>
  </g>
</svg>
