<svg xmlns="http://www.w3.org/2000/svg" width="113" height="132" viewBox="0 0 113 132">
  <g id="icon01" transform="translate(-713.142 -3220.58)">
    <rect id="Rectangle_39399" data-name="Rectangle 39399" width="113" height="132" transform="translate(713.142 3220.58)" fill="none"/>
    <g id="img_icon01" transform="translate(735.142 3252.58)">
      <path id="Path_4013" data-name="Path 4013" d="M-125.4,107.773a6.154,6.154,0,0,1-6.147-6.147V86.538a6.154,6.154,0,0,1,6.147-6.147,6.154,6.154,0,0,1,6.147,6.147v15.087A6.154,6.154,0,0,1-125.4,107.773Zm0-24.114a2.882,2.882,0,0,0-2.879,2.879v15.087A2.882,2.882,0,0,0-125.4,104.5a2.882,2.882,0,0,0,2.879-2.879V86.538A2.882,2.882,0,0,0-125.4,83.659Z" transform="translate(131.549 -38.925)" fill="#01675b"/>
      <path id="Path_4014" data-name="Path 4014" d="M-111.177,109.49a6.154,6.154,0,0,1-6.147-6.147v-22.4a6.154,6.154,0,0,1,6.147-6.147,6.155,6.155,0,0,1,6.148,6.147v22.4A6.155,6.155,0,0,1-111.177,109.49Zm0-31.424a2.883,2.883,0,0,0-2.879,2.879v22.4a2.883,2.883,0,0,0,2.879,2.879,2.883,2.883,0,0,0,2.881-2.879v-22.4A2.883,2.883,0,0,0-111.177,78.066Z" transform="translate(135.917 -40.643)" fill="#01675b"/>
      <path id="Path_4015" data-name="Path 4015" d="M-96.951,111.415a6.154,6.154,0,0,1-6.147-6.147V74.677a6.154,6.154,0,0,1,6.147-6.147A6.154,6.154,0,0,1-90.8,74.677v30.59A6.154,6.154,0,0,1-96.951,111.415Zm0-39.617a2.883,2.883,0,0,0-2.879,2.879v30.59a2.882,2.882,0,0,0,2.879,2.879,2.882,2.882,0,0,0,2.879-2.879V74.677A2.883,2.883,0,0,0-96.951,71.8Z" transform="translate(140.285 -42.567)" fill="#01675b"/>
      <path id="Path_4016" data-name="Path 4016" d="M-82.726,113.022a6.154,6.154,0,0,1-6.147-6.147V69.442a6.155,6.155,0,0,1,6.147-6.148,6.155,6.155,0,0,1,6.147,6.148v37.433A6.154,6.154,0,0,1-82.726,113.022Zm0-46.461a2.883,2.883,0,0,0-2.879,2.881v37.433a2.882,2.882,0,0,0,2.879,2.879,2.882,2.882,0,0,0,2.879-2.879V69.442A2.883,2.883,0,0,0-82.726,66.562Z" transform="translate(144.653 -44.175)" fill="#01675b"/>
      <g id="Group_4779" data-name="Group 4779" transform="translate(0.968)">
        <rect id="Rectangle_2343" data-name="Rectangle 2343" width="70.929" height="3.267" transform="translate(0 31.837) rotate(-23.972)" fill="#01675b"/>
        <path id="Path_4017" data-name="Path 4017" d="M-80.325,61.15l-3.026-1.232,2.379-5.845-5.845-2.38,1.232-3.026,8.872,3.612Z" transform="translate(144.316 -48.667)" fill="#01675b"/>
      </g>
    </g>
  </g>
</svg>
