<svg xmlns="http://www.w3.org/2000/svg" width="113" height="132" viewBox="0 0 113 132">
  <g id="icon06" transform="translate(-207 -1342)">
    <g id="Group_67379" data-name="Group 67379" transform="translate(218 1364)">
      <g id="Group_1647" data-name="Group 1647" transform="translate(25.384)">
        <path id="Path_2646" data-name="Path 2646" d="M283.156,92.893A20.063,20.063,0,1,1,303.219,72.83,20.087,20.087,0,0,1,283.156,92.893Zm0-35.914A15.851,15.851,0,1,0,299.007,72.83,15.869,15.869,0,0,0,283.156,56.979Z" transform="translate(-263.093 -52.767)" fill="#01675b"/>
      </g>
      <g id="Group_1650" data-name="Group 1650" transform="translate(32.515 9.2)">
        <g id="Group_1648" data-name="Group 1648" transform="translate(5.267)">
          <path id="Path_2647" data-name="Path 2647" d="M278.116,73.557a7.665,7.665,0,1,1,7.665-7.665A7.674,7.674,0,0,1,278.116,73.557Zm0-11.117a3.453,3.453,0,1,0,3.453,3.453A3.456,3.456,0,0,0,278.116,62.439Z" transform="translate(-270.451 -58.227)" fill="#01675b"/>
        </g>
        <g id="Group_1649" data-name="Group 1649" transform="translate(0 11.117)">
          <path id="Path_2648" data-name="Path 2648" d="M267.4,79.174a13.116,13.116,0,0,1-.076-1.417,12.933,12.933,0,1,1,25.8,1.353l-4.191-.447a8.488,8.488,0,0,0,.049-.907,8.721,8.721,0,0,0-17.441,0,9,9,0,0,0,.051.959Z" transform="translate(-267.325 -64.825)" fill="#01675b"/>
        </g>
      </g>
      <g id="Group_1651" data-name="Group 1651" transform="translate(50.767 43.964)">
        <path id="Path_2649" data-name="Path 2649" d="M298.22,118.985a20.063,20.063,0,1,1,20.065-20.063A20.086,20.086,0,0,1,298.22,118.985Zm0-35.914a15.851,15.851,0,1,0,15.852,15.851A15.869,15.869,0,0,0,298.22,83.071Z" transform="translate(-278.157 -78.859)" fill="#01675b"/>
      </g>
      <g id="Group_1654" data-name="Group 1654" transform="translate(57.897 53.164)">
        <g id="Group_1652" data-name="Group 1652" transform="translate(5.269)">
          <path id="Path_2650" data-name="Path 2650" d="M293.179,99.649a7.665,7.665,0,1,1,7.665-7.665A7.673,7.673,0,0,1,293.179,99.649Zm0-11.117a3.453,3.453,0,1,0,3.453,3.453A3.456,3.456,0,0,0,293.179,88.531Z" transform="translate(-285.516 -84.319)" fill="#01675b"/>
        </g>
        <g id="Group_1653" data-name="Group 1653" transform="translate(0 11.117)">
          <path id="Path_2651" data-name="Path 2651" d="M282.465,105.259a12.934,12.934,0,1,1,25.79-1.41,12.379,12.379,0,0,1-.071,1.353L304,104.756a8.908,8.908,0,0,0,.047-.907,8.721,8.721,0,0,0-17.441,0,9.137,9.137,0,0,0,.052.967Z" transform="translate(-282.389 -90.917)" fill="#01675b"/>
        </g>
      </g>
      <g id="Group_1655" data-name="Group 1655" transform="translate(0 43.964)">
        <path id="Path_2652" data-name="Path 2652" d="M268.091,118.985a20.063,20.063,0,1,1,20.065-20.063A20.086,20.086,0,0,1,268.091,118.985Zm0-35.914a15.851,15.851,0,1,0,15.852,15.851A15.869,15.869,0,0,0,268.091,83.071Z" transform="translate(-248.028 -78.859)" fill="#01675b"/>
      </g>
      <g id="Group_1658" data-name="Group 1658" transform="translate(7.131 53.164)">
        <g id="Group_1656" data-name="Group 1656" transform="translate(5.269)">
          <path id="Path_2653" data-name="Path 2653" d="M263.05,99.649a7.665,7.665,0,1,1,7.665-7.665A7.672,7.672,0,0,1,263.05,99.649Zm0-11.117a3.453,3.453,0,1,0,3.453,3.453A3.456,3.456,0,0,0,263.05,88.531Z" transform="translate(-255.387 -84.319)" fill="#01675b"/>
        </g>
        <g id="Group_1657" data-name="Group 1657" transform="translate(0 11.117)">
          <path id="Path_2654" data-name="Path 2654" d="M252.337,105.268a12.715,12.715,0,0,1-.078-1.419,12.933,12.933,0,0,1,25.866,0,13.148,13.148,0,0,1-.069,1.345l-4.191-.428a8.721,8.721,0,1,0-17.394-.917,8.574,8.574,0,0,0,.052.959Z" transform="translate(-252.26 -90.917)" fill="#01675b"/>
        </g>
      </g>
      <g id="Group_1659" data-name="Group 1659" transform="translate(8.108 20.685)">
        <path id="Path_2655" data-name="Path 2655" d="M256.94,85.8l-4.1-.974a38.183,38.183,0,0,1,11.845-19.778l2.8,3.148A33.971,33.971,0,0,0,256.94,85.8Z" transform="translate(-252.84 -65.043)" fill="#01675b"/>
      </g>
      <g id="Group_1660" data-name="Group 1660" transform="translate(33.349 81.795)">
        <path id="Path_2656" data-name="Path 2656" d="M279.942,107.283a38.475,38.475,0,0,1-12.122-1.971l1.326-4a33.976,33.976,0,0,0,20.52.332l1.2,4.036A38.128,38.128,0,0,1,279.942,107.283Z" transform="translate(-267.82 -101.311)" fill="#01675b"/>
      </g>
      <g id="Group_1661" data-name="Group 1661" transform="translate(68.939 21.492)">
        <path id="Path_2657" data-name="Path 2657" d="M298.915,86.518a33.97,33.97,0,0,0-9.973-17.935l2.893-3.062a38.182,38.182,0,0,1,11.207,20.147Z" transform="translate(-288.942 -65.522)" fill="#01675b"/>
      </g>
    </g>
    <rect id="Rectangle_39399" data-name="Rectangle 39399" width="113" height="132" transform="translate(207 1342)" fill="none"/>
  </g>
</svg>
