<svg xmlns="http://www.w3.org/2000/svg" width="113" height="132" viewBox="0 0 113 132">
  <g id="icon06" transform="translate(-713.142 -3220.58)">
    <rect id="Rectangle_39399" data-name="Rectangle 39399" width="113" height="132" transform="translate(713.142 3220.58)" fill="none"/>
    <g id="Group_67386" data-name="Group 67386" transform="translate(-498.86 1453.579)">
      <rect id="Rectangle_4636" data-name="Rectangle 4636" width="17.856" height="3.247" transform="translate(1252.335 1798.038)" fill="#01675b"/>
      <rect id="Rectangle_4637" data-name="Rectangle 4637" width="2.435" height="3.247" transform="translate(1267.757 1803.72)" fill="#01675b"/>
      <rect id="Rectangle_4638" data-name="Rectangle 4638" width="12.175" height="3.247" transform="translate(1252.335 1803.72)" fill="#01675b"/>
      <g id="Group_67314" data-name="Group 67314" transform="translate(1253.959 1810.066)">
        <g id="Group_7134" data-name="Group 7134" transform="translate(0 33.794)">
          <path id="Path_5081" data-name="Path 5081" d="M178.3,155.359H119.845V137.907a12.126,12.126,0,0,1,6.985-10.957l14.915-7.65,1.532,2.99-14.971,7.678a8.783,8.783,0,0,0-5.1,7.939V152h51.742V137.907A8.754,8.754,0,0,0,169.9,130l-14.93-7.708,1.543-2.986,14.866,7.678a12.1,12.1,0,0,1,6.924,10.927Z" transform="translate(-119.845 -119.301)" fill="#01675b"/>
        </g>
        <g id="Group_7135" data-name="Group 7135" transform="translate(14.286 7.698)">
          <path id="Path_5082" data-name="Path 5082" d="M142.456,136.389c-.334,0-.668-.011-1-.034A15.211,15.211,0,0,1,127.5,120.993v-6.006l1.36-.263c6.853-1.323,13.543-3.38,16.089-9.406l3.094,1.306c-2.973,7.039-9.9,9.6-17.184,11.125v3.244A11.844,11.844,0,0,0,141.668,133a11.584,11.584,0,0,0,12.356-11.558v-5.894a23.442,23.442,0,0,1-6.6-2.936l1.713-2.889c3.706,2.2,5.617,2.659,6.569,2.659h1.68v9.059a15,15,0,0,1-4.725,10.9A14.8,14.8,0,0,1,142.456,136.389Z" transform="translate(-127.5 -105.318)" fill="#01675b"/>
        </g>
        <g id="Group_7136" data-name="Group 7136" transform="translate(8.307)">
          <path id="Path_5083" data-name="Path 5083" d="M166.139,142.976H162.78V122.114a17.562,17.562,0,0,0-35.125,0v20.2H124.3v-20.2a20.921,20.921,0,0,1,41.843,0Z" transform="translate(-124.296 -101.193)" fill="#01675b"/>
        </g>
        <g id="Group_7137" data-name="Group 7137" transform="translate(17.682 36.283)">
          <path id="Path_5084" data-name="Path 5084" d="M140.866,143.337,129.32,122.248l2.947-1.613,8.6,15.707,8.6-15.707,2.947,1.613Z" transform="translate(-129.32 -120.635)" fill="#01675b"/>
        </g>
        <g id="Group_7138" data-name="Group 7138" transform="translate(37.295 58.21)">
          <rect id="Rectangle_3216" data-name="Rectangle 3216" width="8.605" height="3.359" fill="#01675b"/>
        </g>
      </g>
      <path id="Subtraction_92" data-name="Subtraction 92" d="M33.683,67.365A34.489,34.489,0,0,1,28.7,67,33.283,33.283,0,0,1,8.3,55.855,33.7,33.7,0,1,1,66.255,25.069,20.286,20.286,0,0,0,40.583,44.641l.591,19.935-4.8,2.683C35.5,67.328,34.593,67.365,33.683,67.365Z" transform="translate(1223.001 1787.001)" fill="none" stroke="#01675b" stroke-linecap="round" stroke-width="4"/>
      <rect id="Rectangle_39113" data-name="Rectangle 39113" width="10.551" height="3.247" transform="translate(1256.278 1819.466)" fill="#01675b"/>
      <rect id="Rectangle_39114" data-name="Rectangle 39114" width="33.544" height="3.247" transform="translate(1256.127 1821.91) rotate(-135)" fill="#01675b"/>
      <rect id="Rectangle_39115" data-name="Rectangle 39115" width="33.544" height="3.247" transform="translate(1258.423 1821.273) rotate(135)" fill="#01675b"/>
    </g>
  </g>
</svg>
