<svg xmlns="http://www.w3.org/2000/svg" xmlns:xlink="http://www.w3.org/1999/xlink" width="113" height="132" viewBox="0 0 113 132">
  <defs>
    <clipPath id="clip-path">
      <rect id="Rectangle_3815" data-name="Rectangle 3815" width="113" height="113" transform="translate(0.102 0.102)" fill="#01675b"/>
    </clipPath>
  </defs>
  <g id="icon16" transform="translate(-713.142 -3220.58)">
    <rect id="Rectangle_39399" data-name="Rectangle 39399" width="113" height="132" transform="translate(713.142 3220.58)" fill="none"/>
    <g id="_16" data-name="16" transform="translate(-18.959 -65.522)">
      <g id="Group_8303" data-name="Group 8303" transform="translate(732 3296)">
        <g id="Group_8302" data-name="Group 8302" clip-path="url(#clip-path)">
          <path id="Path_229145" data-name="Path 229145" d="M12602.563,12752.715a4.731,4.731,0,0,1-4.73-4.729v-9.867a7.108,7.108,0,0,1-4.73-6.689v-7.1a9.474,9.474,0,0,1,9.461-9.464h4.73a9.474,9.474,0,0,1,9.461,9.464v18.922a9.471,9.471,0,0,1-9.461,9.46Zm-4.73-28.382v7.1a2.37,2.37,0,0,0,2.365,2.365,2.364,2.364,0,0,1,2.365,2.365v11.826h4.73a4.732,4.732,0,0,0,4.73-4.73v-18.922a4.735,4.735,0,0,0-4.73-4.733h-4.73A4.735,4.735,0,0,0,12597.833,12724.333Zm28.386,18.922a4.735,4.735,0,0,1-4.734-4.73v-4.73a4.735,4.735,0,0,1,4.734-4.73h9.46a4.731,4.731,0,0,1,4.73,4.73v4.73a4.731,4.731,0,0,1-4.73,4.73Zm0-4.73h9.46v-4.73h-9.46Zm23.651,0a4.736,4.736,0,0,1-4.73-4.73v-9.464h-14.191a4.731,4.731,0,0,1-4.729-4.73,9.475,9.475,0,0,1,9.46-9.461h23.655v-14.19a4.737,4.737,0,0,1,4.73-4.734h14.191a4.736,4.736,0,0,1,4.729,4.734v23.651a9.471,9.471,0,0,1-9.46,9.461h-4.73a9.476,9.476,0,0,1-9.461,9.464Zm-18.922-18.925h14.191a4.734,4.734,0,0,1,4.73,4.73v9.464h9.464a4.736,4.736,0,0,0,4.73-4.733,4.734,4.734,0,0,1,4.73-4.73h4.73a4.732,4.732,0,0,0,4.73-4.73v-23.651h-14.191v16.556a2.364,2.364,0,0,1-2.365,2.365h-26.021A4.736,4.736,0,0,0,12630.948,12719.6Zm33.116-33.112a9.475,9.475,0,0,1-9.464-9.464v-7.1a7.106,7.106,0,0,1,7.1-7.1h2.774a7.1,7.1,0,0,1,6.689-4.73h4.73a28.757,28.757,0,0,1,11.825,11.826v7.1a9.471,9.471,0,0,1-9.46,9.464Zm-4.733-16.56v7.1a4.739,4.739,0,0,0,4.733,4.733h14.191a4.737,4.737,0,0,0,4.729-4.733v-7.1a2.368,2.368,0,0,0-2.364-2.365,2.363,2.363,0,0,1-2.365-2.365,2.369,2.369,0,0,0-2.365-2.365h-4.73a2.368,2.368,0,0,0-2.365,2.365,2.364,2.364,0,0,1-2.365,2.365h-4.733A2.368,2.368,0,0,0,12659.331,12669.928Z" transform="translate(-12583.976 -12648.579)" fill="#01675b" stroke="#fafdfc" stroke-width="1"/>
        </g>
      </g>
      <g id="Group_67333" data-name="Group 67333" transform="translate(814.21 3346.931)">
        <circle id="Ellipse_1392" data-name="Ellipse 1392" cx="3.015" cy="3.015" r="3.015" transform="translate(10.009 5.668)" fill="#fafdfc"/>
        <g id="Path_229086" data-name="Path 229086" transform="matrix(0.839, 0.545, -0.545, 0.839, 11.144, 0)" fill="#01675b" stroke-linecap="round">
          <path d="M 6.39514684677124 21.46211624145508 C 4.918477058410645 21.46211624145508 3.717117071151733 20.26163673400879 3.717117071151733 18.78604698181152 L 3.717117071151733 13.29026889801025 C 0.9048542380332947 12.19573497772217 -1.000002980232239 9.464165687561035 -1.000002980232239 6.4000563621521 C -1.000002980232239 2.319646120071411 2.317446947097778 -1.000003814697266 6.39514684677124 -1.000003814697266 C 10.47338676452637 -1.000003814697266 13.7912769317627 2.319646120071411 13.7912769317627 6.4000563621521 C 13.7912769317627 9.463796615600586 11.88481998443604 12.19546127319336 9.070226669311523 13.29033851623535 L 9.070226669311523 18.78604698181152 C 9.070226669311523 20.26163673400879 7.870186805725098 21.46211624145508 6.39514684677124 21.46211624145508 Z M 6.39514684677124 4.350166320800781 C 5.266457080841064 4.350166320800781 4.348206996917725 5.26974630355835 4.348206996917725 6.4000563621521 C 4.348206996917725 7.524956226348877 5.266457080841064 8.440126419067383 6.39514684677124 8.440126419067383 C 7.522217273712158 8.440126419067383 8.439146995544434 7.524956226348877 8.439146995544434 6.4000563621521 C 8.439146995544434 5.26974630355835 7.522217273712158 4.350166320800781 6.39514684677124 4.350166320800781 Z" stroke="none"/>
          <path d="M 6.39514684677124 20.46211624145508 C 7.315607070922852 20.46211624145508 8.070226669311523 19.71043586730957 8.070226669311523 18.78604698181152 L 8.070226669311523 12.56851577758789 C 10.78549671173096 11.82861614227295 12.7912769317627 9.341996192932129 12.7912769317627 6.4000563621521 C 12.7912769317627 2.871286153793335 9.919986724853516 -3.78662116418127e-06 6.39514684677124 -3.78662116418127e-06 C 2.867367029190063 -3.78662116418127e-06 -2.964630084534292e-06 2.871286153793335 -2.964630084534292e-06 6.4000563621521 C -2.964630084534292e-06 9.341996192932129 2.001857042312622 11.82861614227295 4.717116832733154 12.56851577758789 L 4.717116832733154 18.78604698181152 C 4.717116832733154 19.71043586730957 5.467816829681396 20.46211624145508 6.39514684677124 20.46211624145508 M 6.39514684677124 3.350166320800781 C 8.072187423706055 3.350166320800781 9.439146995544434 4.714176177978516 9.439146995544434 6.4000563621521 C 9.439146995544434 8.074155807495117 8.072187423706055 9.440126419067383 6.39514684677124 9.440126419067383 C 4.715157032012939 9.440126419067383 3.348206996917725 8.074155807495117 3.348206996917725 6.4000563621521 C 3.348206996917725 4.714176177978516 4.715157032012939 3.350166320800781 6.39514684677124 3.350166320800781 M 6.39514684677124 22.46211624145508 C 4.367076873779297 22.46211624145508 2.717117071151733 20.81303596496582 2.717117071151733 18.78604698181152 L 2.717117071151733 13.94301700592041 C -0.1222516223788261 12.5556697845459 -2.000002861022949 9.641865730285645 -2.000002861022949 6.4000563621521 C -2.000002861022949 1.768246173858643 1.76604700088501 -2.000003814697266 6.39514684677124 -2.000003814697266 C 11.02478694915771 -2.000003814697266 14.7912769317627 1.768246173858643 14.7912769317627 6.4000563621521 C 14.7912769317627 9.641554832458496 12.91173458099365 12.55562782287598 10.07022666931152 13.94324493408203 L 10.07022666931152 18.78604698181152 C 10.07022666931152 20.81303596496582 8.421597480773926 22.46211624145508 6.39514684677124 22.46211624145508 Z M 6.39514684677124 5.350166320800781 C 5.817866802215576 5.350166320800781 5.348206996917725 5.821146011352539 5.348206996917725 6.4000563621521 C 5.348206996917725 6.973556041717529 5.817866802215576 7.440126419067383 6.39514684677124 7.440126419067383 C 6.970807075500488 7.440126419067383 7.439146995544434 6.973556041717529 7.439146995544434 6.4000563621521 C 7.439146995544434 5.821146011352539 6.970807075500488 5.350166320800781 6.39514684677124 5.350166320800781 Z" stroke="none" fill="#fafdfc"/>
        </g>
      </g>
    </g>
  </g>
</svg>
