<svg xmlns="http://www.w3.org/2000/svg" width="113" height="132" viewBox="0 0 113 132">
  <g id="icon23" transform="translate(-713.142 -3220.58)">
    <rect id="Rectangle_39399" data-name="Rectangle 39399" width="113" height="132" transform="translate(713.142 3220.58)" fill="none"/>
    <g id="_23" data-name="23" transform="translate(220.14 -2038.42)">
      <path id="楕円形_1393" data-name="楕円形 1393" d="M3.155-5.906A9.061,9.061,0,1,1-5.906,3.155,9.071,9.071,0,0,1,3.155-5.906Zm0,13.762a4.7,4.7,0,1,0-4.7-4.7A4.706,4.706,0,0,0,3.155,7.856Z" transform="translate(515.315 5281.906)" fill="#01675b"/>
      <path id="パス_229116_-_アウトライン" data-name="パス 229116 - アウトライン" d="M13062.634,17317.389h-10.5l1.852-23.865h8.648a4.3,4.3,0,0,1,4.295,4.3v15.27A4.3,4.3,0,0,1,13062.634,17317.389Zm-5.787-4.361h5.723v-15.205l-4.547.041Zm-13.062,4.361h-6.393a4.3,4.3,0,0,1-4.3-4.3v-15.27a4.3,4.3,0,0,1,4.3-4.3h7.758l.9,23.861Zm-6.393-19.5.064,15.207,4.064-.043-.57-15.164Z" transform="translate(-12531.094 -11959.255)" fill="#01675b"/>
      <path id="楕円形_1394" data-name="楕円形 1394" d="M3.155-5.906A9.061,9.061,0,1,1-5.906,3.155,9.071,9.071,0,0,1,3.155-5.906Zm0,13.762a4.7,4.7,0,1,0-4.7-4.7A4.706,4.706,0,0,0,3.155,7.856Z" transform="translate(575.591 5281.906)" fill="#01675b"/>
      <path id="パス_229117_-_アウトライン" data-name="パス 229117 - アウトライン" d="M13096.553,17317.389h-8.654l.9-23.865h7.758a4.3,4.3,0,0,1,4.3,4.3v15.27A4.3,4.3,0,0,1,13096.553,17317.389Zm-4.127-4.361h4.064v-15.205l-3.5.037Zm-12.971,4.361h-8.143a4.3,4.3,0,0,1-4.3-4.3v-15.27a4.3,4.3,0,0,1,4.3-4.3h8.646l1.852,23.861Zm-8.143-19.5.063,15.207,5.725-.045-1.176-15.162Z" transform="translate(-12505.635 -11959.255)" fill="#01675b"/>
      <path id="パス_229113" data-name="パス 229113" d="M28.65,50.41a10.789,10.789,0,0,1,10.505,8.512L40.209,63.9,53.87,70.77a6.874,6.874,0,1,1-6.193,12.273L37.506,77.9,33.977,123.4a6.885,6.885,0,0,1-13.745-.274L17.919,61.551A10.738,10.738,0,0,1,28.65,50.41ZM50.777,79.425a2.514,2.514,0,0,0,1.133-4.76l-14.6-7.341a2.18,2.18,0,0,1-1.153-1.5l-1.271-6a6.408,6.408,0,0,0-6.239-5.056,6.378,6.378,0,0,0-6.373,6.617l2.314,61.577a2.525,2.525,0,0,0,5.04.1L33.411,74.31a2.18,2.18,0,0,1,3.158-1.777l13.078,6.619A2.482,2.482,0,0,0,50.777,79.425Z" transform="translate(490.702 5244.2)" fill="#01675b"/>
      <path id="パス_229115" data-name="パス 229115" d="M155.939,50.41A10.738,10.738,0,0,1,166.67,61.551l-2.314,61.577a6.885,6.885,0,0,1-13.745.274L147.083,77.9l-10.171,5.148a6.874,6.874,0,1,1-6.193-12.274L144.38,63.9l1.054-4.977A10.79,10.79,0,0,1,155.939,50.41Zm1.537,74.984a2.517,2.517,0,0,0,2.523-2.43l2.314-61.577a6.378,6.378,0,0,0-6.373-6.617,6.408,6.408,0,0,0-6.239,5.056l-1.271,6a2.18,2.18,0,0,1-1.153,1.5l-14.6,7.341a2.514,2.514,0,0,0,1.133,4.76,2.482,2.482,0,0,0,1.131-.272l13.078-6.62a2.18,2.18,0,0,1,3.158,1.777l3.781,48.755A2.536,2.536,0,0,0,157.476,125.394Z" transform="translate(421.925 5244.2)" fill="#01675b"/>
    </g>
  </g>
</svg>
