<svg xmlns="http://www.w3.org/2000/svg" width="113" height="132" viewBox="0 0 113 132">
  <g id="icon24" transform="translate(-713.142 -3220.58)">
    <rect id="Rectangle_39399" data-name="Rectangle 39399" width="113" height="132" transform="translate(713.142 3220.58)" fill="none"/>
    <path id="Path_229109" data-name="Path 229109" d="M12298.884,12036.649a2.331,2.331,0,0,1-2.328-2.331v-30.078h-4.023a8.248,8.248,0,0,1,0-16.5h6.854c.2-1.154.438-2.333.7-3.523,2.5-11.263,8.248-18.461,17.1-21.395a2.333,2.333,0,0,1,2.754,1.049l4.585,7.943v-8.194a2.331,2.331,0,1,1,4.662,0v8.2l4.589-7.945a2.332,2.332,0,0,1,2.753-1.049c8.848,2.934,14.6,10.132,17.093,21.395.264,1.193.5,2.371.7,3.523h4.067v-11.526a7.921,7.921,0,0,0-2.465-5.733l-6.281-5.938a7.117,7.117,0,1,1,3.205-3.388l6.276,5.937a12.618,12.618,0,0,1,3.93,9.123v11.742a8.248,8.248,0,0,1-1.878,16.28h-4.023v30.078a2.331,2.331,0,0,1-2.328,2.331Zm2.334-4.665h51.274v-27.744h-51.274Zm-12.271-35.992a3.591,3.591,0,0,0,3.585,3.586h68.643a3.585,3.585,0,0,0,0-7.171h-68.643A3.59,3.59,0,0,0,12288.947,11995.992Zm60.634-8.248q-.233-1.238-.516-2.515c-1.935-8.735-6.057-14.556-12.25-17.3l-6.131,10.616a2.355,2.355,0,0,1-2.018,1.165h-3.626a2.35,2.35,0,0,1-2.021-1.165l-6.128-10.616c-6.192,2.741-10.312,8.559-12.253,17.3-.187.849-.357,1.689-.513,2.515Zm-5.679-29.513a2.456,2.456,0,1,0,2.456-2.459A2.46,2.46,0,0,0,12343.9,11958.231Zm-30.99-11.29a13.941,13.941,0,1,1,13.941,13.938A13.958,13.958,0,0,1,12312.912,11946.941Zm4.663,0a9.277,9.277,0,1,0,9.278-9.279A9.287,9.287,0,0,0,12317.575,11946.941Z" transform="translate(-11557.642 -8697.92)" fill="#01675b" stroke="#fafdfc" stroke-linecap="round" stroke-width="0.81"/>
  </g>
</svg>
