<svg xmlns="http://www.w3.org/2000/svg" width="113.6" height="132" viewBox="0 0 113.6 132">
  <g id="icon15" transform="translate(-712.542 -3220.58)">
    <rect id="Rectangle_39399" data-name="Rectangle 39399" width="113" height="132" transform="translate(713.142 3220.58)" fill="none"/>
    <g id="_15" data-name="15" transform="translate(-322.858 -13110.421)">
      <path id="Path_2099" data-name="Path 2099" d="M420.521,248.45a11.325,11.325,0,1,0,11.325-11.328,11.343,11.343,0,0,0-11.325,11.328m11.325-6.25a6.25,6.25,0,1,1-6.248,6.25,6.256,6.256,0,0,1,6.248-6.25" transform="translate(690.47 16143.717)" fill="#01675b" stroke="#fafdfc" stroke-width="1.2"/>
      <path id="Path_2100" data-name="Path 2100" d="M382.6,358.891a2.528,2.528,0,0,0-2.177,1.235l-3.741,6.234-.211-1.057,1.368-2.737a2.536,2.536,0,0,0-1.135-3.406l-3.516-1.755a2.542,2.542,0,0,0-2.271,0l-3.515,1.755a2.536,2.536,0,0,0-1.136,3.406l1.369,2.737-.211,1.057-3.741-6.234a2.527,2.527,0,0,0-2.177-1.235,14.86,14.86,0,0,0-14.841,14.841v14.414a2.539,2.539,0,0,0,5.077,0V373.732a9.774,9.774,0,0,1,8.385-9.664l9.748,16.244a2.632,2.632,0,0,0,4.354,0l9.748-16.244a9.774,9.774,0,0,1,8.385,9.664v14.414a2.539,2.539,0,0,0,5.077,0V373.732A14.86,14.86,0,0,0,382.6,358.891m-11.292,13.941.745-3.722.745,3.722-.745,1.242Z" transform="translate(750.263 16046.555)" fill="#01675b" stroke="#fafdfc" stroke-width="1.2"/>
      <path id="Path_2101" data-name="Path 2101" d="M111.846,259.78a11.329,11.329,0,1,0-11.325-11.33,11.343,11.343,0,0,0,11.325,11.33m0-17.58a6.25,6.25,0,1,1-6.248,6.25,6.255,6.255,0,0,1,6.248-6.25" transform="translate(949.541 16143.717)" fill="#01675b" stroke="#fafdfc" stroke-width="1.2"/>
      <path id="Path_2102" data-name="Path 2102" d="M194.283,453.333h-5.078a2.539,2.539,0,0,0,0,5.078h5.078a2.539,2.539,0,0,0,0-5.078" transform="translate(879.798 15968.674)" fill="#01675b" stroke="#fafdfc" stroke-width="1.2"/>
      <path id="Path_2103" data-name="Path 2103" d="M62.6,366.354H56.626a2.535,2.535,0,0,0-2.231,1.329L52.054,372l-2.34-4.319a2.535,2.535,0,0,0-2.231-1.329H41.508a14.86,14.86,0,0,0-14.841,14.841v14.414a2.539,2.539,0,0,0,5.078,0V381.195a9.772,9.772,0,0,1,9.763-9.763H45.97l3.545,6.543v17.634a2.539,2.539,0,0,0,5.078,0V377.974l3.545-6.543H62.6a9.772,9.772,0,0,1,9.763,9.763v14.414a2.539,2.539,0,0,0,5.078,0V381.195A14.86,14.86,0,0,0,62.6,366.354" transform="translate(1009.333 16039.091)" fill="#01675b" stroke="#fafdfc" stroke-width="1.2"/>
      <path id="Path_2104" data-name="Path 2104" d="M230.27,116.822a2.539,2.539,0,0,0,0,5.078h10.155a2.537,2.537,0,0,0,2.539-2.539V109.206a2.539,2.539,0,0,0-5.078,0v5.271a30.407,30.407,0,0,0-43.818,3.268,2.539,2.539,0,0,0,3.917,3.233,25.366,25.366,0,0,1,34.8-4.155Z" transform="translate(874.276 16249.333)" fill="#01675b" stroke="#fafdfc" stroke-width="1.2"/>
    </g>
  </g>
</svg>
