<svg xmlns="http://www.w3.org/2000/svg" width="113" height="132" viewBox="0 0 113 132">
  <g id="icon08" transform="translate(-713.142 -3220.58)">
    <rect id="Rectangle_39399" data-name="Rectangle 39399" width="113" height="132" transform="translate(713.142 3220.58)" fill="none"/>
    <g id="_8" data-name="8" transform="translate(718.142 3224.468)">
      <path id="Path_1591" data-name="Path 1591" d="M3948.229,3022.216a2.415,2.415,0,0,0,2.415-2.415v-20.645a9.832,9.832,0,0,0-9.821-9.822h-20.387a9.832,9.832,0,0,0-9.821,9.822V3019.8a2.415,2.415,0,1,0,4.83,0v-20.645a5,5,0,0,1,4.992-4.992h20.387a5,5,0,0,1,4.992,4.992V3019.8A2.415,2.415,0,0,0,3948.229,3022.216Z" transform="translate(-3906.701 -2959.222)" fill="#01675b"/>
      <path id="Path_1592" data-name="Path 1592" d="M3886.6,3290.334h13.114v10.435h-7.869a2.415,2.415,0,1,0,0,4.83h20.566a2.415,2.415,0,1,0,0-4.83h-7.868v-10.435h13.114a8.409,8.409,0,0,0,8.4-8.4V3281a4.835,4.835,0,0,0-4.83-4.83h-38.2a4.835,4.835,0,0,0-4.829,4.83v.934A8.409,8.409,0,0,0,3886.6,3290.334Zm-3.571-9.334h38.2v.934a3.574,3.574,0,0,1-3.57,3.57H3886.6a3.575,3.575,0,0,1-3.571-3.57Z" transform="translate(-3878.198 -3211.427)" fill="#01675b"/>
      <path id="Path_1593" data-name="Path 1593" d="M4012.079,3068.608a2.415,2.415,0,1,0,0,4.83h11.282a2.415,2.415,0,1,0,0-4.83Z" transform="translate(-3993.791 -3028.925)" fill="#01675b"/>
      <path id="Path_1594" data-name="Path 1594" d="M4369.388,3188.068v-23.437a6.044,6.044,0,0,0-6.037-6.037h-7.062v-2.423a6.812,6.812,0,0,0-6.8-6.8H4340.9a6.811,6.811,0,0,0-6.8,6.8v2.423h-7.063a6.044,6.044,0,0,0-6.037,6.037v23.437a6.044,6.044,0,0,0,6.037,6.037h36.318A6.044,6.044,0,0,0,4369.388,3188.068Zm-30.464-31.9a1.977,1.977,0,0,1,1.975-1.975h8.585a1.977,1.977,0,0,1,1.974,1.975v2.423h-12.535Zm-13.1,31.9v-23.437a1.208,1.208,0,0,1,1.207-1.207h36.318a1.209,1.209,0,0,1,1.208,1.207v23.437a1.209,1.209,0,0,1-1.208,1.207H4359.5v-20.966a2.415,2.415,0,1,0-4.83,0v20.966h-18.949v-20.966a2.415,2.415,0,1,0-4.83,0v20.966h-3.855A1.208,1.208,0,0,1,4325.825,3188.068Z" transform="translate(-4267.533 -3099.933)" fill="#01675b"/>
    </g>
  </g>
</svg>
