<svg xmlns="http://www.w3.org/2000/svg" width="686.765" height="186" viewBox="0 0 686.765 186">
  <g id="Group_67626" data-name="Group 67626" transform="translate(-67.77 -355)">
    <path id="Path_229182" data-name="Path 229182" d="M60.255-41.73v-6.045H36.66v-2.4c0-.39,0-.39,1.04-1.235A.746.746,0,0,0,38.025-52c0-.715-.975-.78-1.95-.845l-7.8-.26v5.33H4.875v6.045h18.85c-.13,2.665-.325,5.005-2.405,7.735-2.47,3.185-6.175,4.29-9.035,5.2l3.9,6.11a28.238,28.238,0,0,0,4.94-2.275c-4.68,5.2-10.335,9.555-16.9,11.83l5.59,5.395c3.64-1.43,6.5-3.185,10.985-6.76a39.812,39.812,0,0,0,5.785,6.37A51.619,51.619,0,0,1,5.85-2.47l3.7,6.63C21.645,1.69,26.78-.65,32.435-3.77c8.06,4.81,14.1,6.37,22.88,7.345L58.76-3.51A59,59,0,0,1,48.75-4.615,39.766,39.766,0,0,1,38.545-8,58.856,58.856,0,0,0,50.375-20.67L48.49-22.88H29.445a11.114,11.114,0,0,0,1.5-.845.814.814,0,0,0,.325-.585c0-.455-.52-.715-.845-.91l-5.33-2.795c3.835-4.03,5.2-7.6,5.4-13.715H35.75v8.84c0,1.82-.39,2.145-1.755,2.145h-3.7l2.8,6.565h1.69c3.965,0,7.67-1.235,7.67-4.875V-41.73ZM37.7-16.9a28.112,28.112,0,0,1-5.46,5.2,22.666,22.666,0,0,1-5.07-5.2ZM59.41-31.46A49.662,49.662,0,0,0,50.9-40.69L45.11-36.2a36.62,36.62,0,0,1,8.06,9.425Zm-40.1-4.68c0-.195,0-.325-.715-.91l-5.655-4.485a24.365,24.365,0,0,1-9.165,8.45l5.655,5.07a29.056,29.056,0,0,0,4.16-3.38c1.235-1.235,2.73-2.665,3.965-4.1C19.175-35.62,19.305-35.62,19.305-36.14Zm98.54,14.755c0-11.245-9.23-16.835-16.77-16.835-5.915,0-10.53,2.925-12.415,4.1a56,56,0,0,1,3.185-4.94l-4.03-3.51L85.8-41.86c-.13-2.795.065-6.24.455-6.63.195-.26,1.3-1.17,1.3-1.5,0-.585-1.17-.715-1.755-.78l-6.955-.65c.26,3.38.195,6.825.13,11.505-5,1.235-7.6,1.755-10.075,2.21l1.17,8.45c2.08-.975,3.64-1.56,8.775-3.445l-.13,4.42C70.915-17.225,70-15.99,66.885-12.35l6.37,4.745c2.015-3.25,3.185-5.005,5.265-7.93C78.325-8,78.195-5.46,77.805,1.69l7.735-.65c-.13-4.615-.455-10.14-.39-18.915l.065-5.915c5.005-5.135,10.4-7.605,14.82-7.605a10.05,10.05,0,0,1,10.27,10.14c0,4.42-3.12,8.255-5.2,10.14A19.256,19.256,0,0,1,94.64-5.98L99.775.585C104.52-1.04,117.845-5.72,117.845-21.385Zm42.445-24.05a77.231,77.231,0,0,0-15.535-6.695l-2.8,6.435c7.735,2.73,10.855,4.42,15.015,7.085Zm11.96,28.99c0-9.425-7.6-14.235-14.43-14.235a25,25,0,0,0-15.99,6.565,83.043,83.043,0,0,1,3.9-14.3l-7.475-2.925c-1.43,4.94-4.55,15.99-5.07,24.83l5.655,2.99c6.7-7.8,13.26-10.4,17.745-10.4,4.875,0,8.19,2.665,8.19,6.825,0,5.98-5.525,12.285-17.615,12.285a65.091,65.091,0,0,1-8.125-.715l3.445,8C150.54,2.275,172.25,1.885,172.25-16.445ZM234.195-7.67a59.7,59.7,0,0,0-11.18-5.915,64.406,64.406,0,0,1-.845-9.035,5.954,5.954,0,0,1,2.47-5.2l-6.76-3.64a9.82,9.82,0,0,0-2.795,6.63c0,1.365.78,7.995.91,9.49a32.8,32.8,0,0,0-5.07-.39c-8.97,0-11.5,5.72-11.5,9.23a7.359,7.359,0,0,0,2.4,5.525c2.73,2.4,6.435,3.055,10.6,3.055,8.515,0,10.465-2.73,11.05-7.93A35.781,35.781,0,0,1,229.9-1.56ZM216.32-8.84c0,2.34.065,5.07-5.2,5.07-3.575,0-5.4-1.495-5.4-2.925,0-1.3,1.56-3.12,4.94-3.12A21.828,21.828,0,0,1,216.32-8.84Zm19.695-26a32.124,32.124,0,0,0-14.495-5.98L218.6-35.23a46.005,46.005,0,0,1,14.235,5.915Zm-19.37-3.38V-45.5c-1.69.585-3.64,1.235-7.475,2.21.26-.845,1.495-5,1.56-5.07.39-.39,1.495-.78,1.495-1.43,0-.715-1.235-1.04-1.56-1.105l-7.085-1.56a62.016,62.016,0,0,1-2.34,10.725,86.529,86.529,0,0,1-11.05.845l.975,6.76c3.055-.195,4.875-.39,7.865-.78-2.665,7.345-5.915,15.73-11.115,23.66l6.955,2.99c3.38-6.175,6.76-12.675,12.025-27.885C212.42-37.115,214.435-37.635,216.645-38.22ZM298.87-16.575A55.258,55.258,0,0,0,288.21-44.2l-6.695,3.25c3.38,5.2,7.67,12.87,9.555,26.39ZM270.2-17.55l-5.395-4.81c-1.235,3.12-3.9,10.01-6.24,10.01-1.3,0-4.42-2.34-4.42-15.015a67.379,67.379,0,0,1,1.235-14.5c1.1-.39,1.885-.65,1.885-1.365,0-.78-1.04-1.1-1.495-1.235l-7.15-1.95a63.3,63.3,0,0,0-1.95,16.9c0,12.35,2.08,19.955,6.63,24.375a7.089,7.089,0,0,0,4.81,2.145C263.38-2.99,266.63-9.88,270.2-17.55ZM519.48-25.285l-2.21-7.41c-3.055,1.365-3.9,1.755-11.505,5.33-1.495-4.29-4.355-6.565-8.84-6.565a12.569,12.569,0,0,0-5.59,1.365c1.1-1.69,1.625-2.6,3.7-6.435a136.822,136.822,0,0,0,15.535-2.47l.455-7.28a54.884,54.884,0,0,1-12.74,3.315c.325-.715,1.95-4.355,2.015-4.42.065,0,1.365-.585,1.495-.65.39-.13.65-.325.65-.715,0-.455-1.105-.585-1.3-.65l-8.125-1.43a50.405,50.405,0,0,1-3.25,8.645,91.423,91.423,0,0,1-12.415-.26l.78,6.76c2.73,0,4.745-.065,8.45-.26-4.42,7.735-7.67,12.35-12.805,17.875l6.37,3.965C483.73-22.425,487.63-28.34,494-28.34c3.77,0,4.55,2.34,4.94,4.29-9.75,5.005-15.73,8.06-15.73,16.12a8.886,8.886,0,0,0,2.47,6.37C489.775,2.8,497.315,2.8,500.955,2.8a107.573,107.573,0,0,0,15.47-.975V-5.525a75.152,75.152,0,0,1-16.575,2.08c-4.745,0-9.75-.845-9.75-5.07,0-4.55,6.76-7.93,9.23-9.165-.065,2.86-.13,6.045-.325,9.75h7.54c0-2.21-.13-10.27-.13-12.805C511.225-22.555,514.345-23.66,519.48-25.285Zm70.07-11.18V-43.42H565.24c.26-.65,1.755-4.55,1.885-4.68s1.04-.52,1.235-.65a.723.723,0,0,0,.39-.65c0-.26-.26-.52-.585-.65l-7.8-2.34c-3.055,10.465-5.915,15.795-12.48,22.62l6.89,3.64a55.489,55.489,0,0,0,7.085-10.335h2.21V2.8h7.54V-9.555h16.9V-16.77h-16.9v-6.5h14.82V-29.9H571.61v-6.565Zm-35.88-12.87a.8.8,0,0,0-.65-.65L544.505-52c-3.38,10.855-6.3,16.12-13.26,23.66l6.5,4.03c.78-.845,1.43-1.56,2.145-2.47V2.86h7.41V-35.685c0-.52.715-1.04.975-1.17.26-.26.715-.52.715-1.04a.892.892,0,0,0-.325-.65l-.91-.455a81.279,81.279,0,0,0,3.835-7.995c.39-.91.52-.975,1.56-1.56A1.069,1.069,0,0,0,553.67-49.335ZM647.855-17.16a14.327,14.327,0,0,0-14.43-14.365,51.754,51.754,0,0,0-6.3.39c9.425-9.62,10.53-10.66,14.43-13.91l-3.38-5.265c-6.175,2.4-17.225,3.25-19.7,3.25-2.015,0-5.72-.26-7.28-.39l1.495,7.28A60.681,60.681,0,0,0,627.9-41.8c-10.4,12.61-17.29,18.4-24.05,23.465l5.46,5.72c3.64-3.7,9.36-9.49,13.39-11.635a17.628,17.628,0,0,1,7.41-1.625c4.225,0,10.53,2.08,10.53,8.515a11.45,11.45,0,0,1-4.29,8.645c-1.82-2.275-6.045-7.6-12.8-7.6-6.37,0-9.555,4.94-9.555,8.645,0,4.81,4.16,8.905,12.285,8.905C637.715,1.235,647.855-6.37,647.855-17.16ZM630.3-5.525a18.48,18.48,0,0,1-4.42.585c-2.34,0-5.33-.65-5.33-2.925,0-.845.585-2.73,3.25-2.73C627.51-10.6,629.46-7.02,630.3-5.525ZM673.4-16.315a10.028,10.028,0,0,0-10.075,10.01A10.126,10.126,0,0,0,673.4,3.77,10.112,10.112,0,0,0,683.41-6.305,10.014,10.014,0,0,0,673.4-16.315Zm0,3.12a6.893,6.893,0,0,1,6.89,6.89A6.852,6.852,0,0,1,673.4.585a6.867,6.867,0,0,1-6.955-6.89A6.949,6.949,0,0,1,673.4-13.195Z" transform="translate(64 529)" fill="#01675b"/>
    <path id="Path_229183" data-name="Path 229183" d="M0,0H365V81H0Z" transform="translate(305 355)" fill="#01675b"/>
    <path id="Path_229185" data-name="Path 229185" d="M0,0H154V75H0Z" transform="translate(373 466)" fill="#01675b"/>
    <path id="Path_229184" data-name="Path 229184" d="M14.972,0V-55.48H4.712V0ZM70.6-46.816V-55.48H20.824v8.664h19.76V0h10.26V-46.816Z" transform="translate(316 424)" fill="#f1f5f3"/>
    <path id="Path_229186" data-name="Path 229186" d="M58.955-24.83c0-14.5-10.66-23.66-24.18-23.66C18.005-48.49,6.11-35.36,6.11-20.93c0,11.635,10.66,17.485,13,17.485,3.38,0,6.37-5.46,8.32-9.49,2.145-4.355,5.98-13.455,8.06-28.925,2.4.2,6.955.455,11.05,4.355A15.324,15.324,0,0,1,51.22-26.13a20.336,20.336,0,0,1-4.68,12.935c-3.965,4.745-8.775,6.11-11.7,6.955l4.81,6.7c3.51-1.43,10.27-4.225,15.145-11.44A24.287,24.287,0,0,0,58.955-24.83Zm-31.2-15.86c-1.3,10.14-6.89,27.1-10.27,27.1-1.17,0-4.16-2.73-4.16-7.995a21.287,21.287,0,0,1,6.5-14.43A19.19,19.19,0,0,1,27.755-40.69Zm97.5,14.1V-31.85H69.68v5.265h4.745v19.7c-1.04.13-1.885.26-4.81.585L70.655-.52a.511.511,0,0,0,.52.39c.195,0,.52-.39.78-.585A16.518,16.518,0,0,1,75.53-1.43c2.34-.325,9.815-1.82,14.235-2.795V2.99h7.15V-2.275l3.9,4.42A48.374,48.374,0,0,0,109.59-3.51a42.321,42.321,0,0,0,10.075,6.045L124.28-3.38a29.009,29.009,0,0,1-10.01-4.68c2.925-3.7,4.68-6.565,7.6-13.065l-2.6-2.665H98.995v5.07h5.33l-4.1,3.445a27.083,27.083,0,0,0,5.005,7.6,22.568,22.568,0,0,1-8.32,4.745v-23.66Zm-35.49,10.27H81.64v-2.99h8.125Zm0-7.54H81.64v-2.73h8.125Zm0,14.755c-3.51.65-5.785.975-8.125,1.3v-3.965h8.125Zm23.465-9.62a24.476,24.476,0,0,1-3.7,6.63,18.348,18.348,0,0,1-4.485-6.63Zm3.965-15.405V-51.35H77.35v17.225Zm-7.54-10.465H84.89v-2.535h24.765Zm0,6.24H84.89v-2.535h24.765ZM161.59-3.9V-34.515H138.06V2.925h6.89V-10.2h9.62V-5.46c0,1.105-.52,1.625-1.82,1.625a30.5,30.5,0,0,1-4.29-.39l2.73,7.41C156.845,3.185,161.59,2.275,161.59-3.9Zm-7.02-21.32h-9.62V-28.8h9.62Zm0,9.3h-9.62V-19.5h9.62Zm36.14-22.62v-5.98H175.89c.455-.585,2.4-3.9,2.6-4.03a12.311,12.311,0,0,1,1.17-.39c.39-.13.52-.325.52-.585a.707.707,0,0,0-.455-.65l-8.255-2.4a40.784,40.784,0,0,1-4.42,8.06H154.31l2.4-1.17a78.543,78.543,0,0,0-5.33-7.215L144.3-49.79a52.458,52.458,0,0,1,4.03,5.265H134.485v5.98Zm-2.21,4.1c0-.26-.325-.52-.78-.585l-8.06-.585V-6.565c0,1.755-.65,2.275-2.925,2.275-1.365,0-2.535-.13-3.9-.26l3.445,7.28c8.06-.065,10.92-.845,10.92-7.215v-28.08c0-.2.455-.715.91-1.105A1.483,1.483,0,0,0,188.5-34.45Zm-13.52.975a.8.8,0,0,0-.845-.715l-7.735-.39v26.2h7.02V-31.72c0-.26.13-.325,1.04-.975A1.007,1.007,0,0,0,174.98-33.475Zm82.875,30.03a36.487,36.487,0,0,1-9.49-8.06c1.105-.975,6.7-6.3,7.02-6.435a12.294,12.294,0,0,1,1.495-.325.717.717,0,0,0,.52-.65,1.119,1.119,0,0,0-.52-.845l-5.33-3.12a34.835,34.835,0,0,1-6.24,6.435,15.471,15.471,0,0,1-1.95-5.4v-3.315h10.075v-22.3H241.02a20.6,20.6,0,0,1,1.495-3.185,8.467,8.467,0,0,0,.975-.65.738.738,0,0,0,.2-.52.686.686,0,0,0-.585-.585l-6.63-1.04a49.687,49.687,0,0,1-1.82,5.98h-7.865v22.3H236.86v20.41c0,1.69-.65,2.275-2.275,2.275H230.75L232.9,3.51h3.25c5.265,0,7.215-1.3,7.215-6.37v-5.4c4.875,6.76,8.255,8.71,10.075,9.75Zm-11.18-35.36h-13.2V-42.38h13.2Zm0,8.515h-13.2v-3.575h13.2ZM235.1-19.175l-1.56-1.95h-8.84v5.59h3.9c-1.69,5.265-3.38,9.035-9.555,14.3l5.915,2.99A32.584,32.584,0,0,0,235.1-19.175ZM224.575-23.4a42.031,42.031,0,0,0-4.355-10.465l-4.875,1.95a39.293,39.293,0,0,1,1.69,3.835c-2.535.39-2.795.39-5.135.585,3.445-5.07,4.875-7.54,8.775-14.365.26-.39.325-.39,1.235-.715a.61.61,0,0,0,.39-.585.856.856,0,0,0-.455-.65l-5.265-2.925c-1.5,3.25-3.77,7.215-5.525,10.14-1.04-.91-1.17-1.04-2.145-1.885a90.862,90.862,0,0,0,5.46-8.775c.2-.39.325-.455,1.56-.78.26-.13.78-.26.78-.845a1.093,1.093,0,0,0-.585-.845L210.21-52.78a77.039,77.039,0,0,1-5.46,11.05c-.845-.65-1.365-.975-2.34-1.625l-3.705,5.4a58.741,58.741,0,0,1,9.1,6.89c-.715,1.3-1.56,2.665-2.4,3.965-1.95.13-2.86.13-6.435.195L200.005-21c.065.52.325.585.65.585s.39-.065.715-.39c.325-.39.52-.39,2.4-.585,1.365-.13,3.315-.39,4.94-.65V3.38h6.37V-23.075c1.625-.26,1.755-.325,3.51-.65a19.1,19.1,0,0,1,.78,2.47Zm-.91,14.69a64.424,64.424,0,0,1-2.21-11.7l-4.68,1.69a63.375,63.375,0,0,0,1.69,11.245ZM207.675-17.1c0-.13,0-.65-1.235-.91l-5.265-.975c-.2,5.2-.845,10.335-2.99,15.08L204.1-2.6a37.582,37.582,0,0,0,2.535-13.39C207.22-16.38,207.675-16.77,207.675-17.1Z" transform="translate(395 420)" fill="#f1f5f3"/>
    <path id="Path_229187" data-name="Path 229187" d="M50.115-5.2H31.85v-5.785H50.115ZM57.525,2.8v-19.76H24.44V2.8h7.41V.78H50.115V2.8ZM23.27-48.685c0-.715-.78-.975-1.365-1.235L15.47-52.13A67.406,67.406,0,0,1,1.625-28.8l5.46,4.16a31.561,31.561,0,0,0,3.25-4.03V2.8H17.42v-37.96a3.5,3.5,0,0,1,.78-1.17,1.185,1.185,0,0,0,.325-.715c0-.715-.78-1.17-1.43-1.56,2.08-4.03,2.34-4.485,3.9-7.865.455-1.04.455-1.04,1.625-1.495C23.01-48.1,23.27-48.295,23.27-48.685ZM55.835-44.72V-50.7H27.04v5.98ZM60.45-36.4v-5.98H22.1v5.98Zm-4.615,8.32v-5.98H27.04v5.98Zm0,8.32v-5.98H27.04v5.98Zm70.59,18.07a30.236,30.236,0,0,1-10.985-7.8h8.32V-40.625h-11.5c1.17-2.015,1.43-2.535,2.275-4.225h10.92v-6.5H95.745v3.185H86V-49.79a11.04,11.04,0,0,1,1.235-1.17.955.955,0,0,0,.455-.78c0-.91-1.365-1.04-1.82-1.04L79.5-53.1v4.94H69.42v6.305H79.5v4.03H70.59v18.98H78A40.576,40.576,0,0,1,67.795-6.175l5.525,5.2a35.727,35.727,0,0,0,6.175-9.1V3.445H86v-14.3a31.016,31.016,0,0,0,5.2,6.695L95.94-9.425c-4.485-2.665-7.67-6.76-9.555-9.425h8.97V-37.83H86v-4.03H96v-2.99H106.08c-.715,2.015-.91,2.6-1.625,4.225H97.11V-9.49h5.2C99.71-6.565,96-3.965,89.635-1.3L95.03,3.51A43.963,43.963,0,0,0,106.535-3.7a12.223,12.223,0,0,0,1.235.195c.845,0,.91-.39.91-.715a1.4,1.4,0,0,0-.585-1.04L103.35-9.49h11.44L110.045-5.2A37.485,37.485,0,0,0,121.1,3.38Zm-9.3-22.295H103.805V-27.04H117.13Zm0-8.06H103.805v-2.99H117.13Zm0,16.445H103.805v-3.315H117.13ZM89.245-24.96H86v-6.89h3.25Zm-9.75,0H76.96v-6.89H79.5Z" transform="translate(383 527)" fill="#f1f5f3"/>
    <path id="Path_229181" data-name="Path 229181" d="M59.735-9.425V-14.82H47.645v-4.55H57.33v-5.265H47.645v-4.03H57.2V-33.8H47.645v-4.03h11.31v-5.525H46.54c.65-1.3,2.34-4.485,3.38-6.89a1.725,1.725,0,0,1,.975-.585c.195-.13.65-.325.65-.585,0-.39-1.04-.52-1.495-.585l-6.63-.975a95.626,95.626,0,0,1-3.445,9.62H31.46c1.1-1.82,2.145-3.575,2.86-5.005.13-.195.26-.325.845-.39.13-.065.715-.13.715-.455,0-.39-.91-.845-1.365-1.04l-5.85-2.6A40.9,40.9,0,0,1,16.9-35.1l5.72,3.9a21.8,21.8,0,0,0,2.8-3.185V-6.89h7.28V-9.425ZM40.3-24.635h-7.6v-4.03h7.6Zm0-9.165h-7.6v-4.03h7.6Zm0,18.98h-7.6v-4.55h7.6ZM18.655-43.94A35.391,35.391,0,0,0,9.815-52l-4.55,5.525a35.721,35.721,0,0,1,8.775,7.8ZM61.815-4.68c-9.62.845-19.825.845-29.7.845-9.1,0-12.415-1.365-12.415-6.37v-19.37H5.005v6.305H12.35v15.8A40.957,40.957,0,0,1,4.1-3.38l3.38,6.89c.39.78.715.78.845.78.325,0,.585-.52.65-1.17.065-.78.2-.78,1.105-1.43a60.011,60.011,0,0,0,6.11-5.2c1.04,1.69,2.34,3.9,7.15,4.875,2.73.585,5.98.975,13.195.975,6.435,0,16.77-.13,23.205-.13Zm57.2-34.84c0-.65-1.1-1.3-1.365-1.495l-6.37-3.965c-3.965,5.525-8.19,9.88-15.275,15.535V-49.01c0-.585.715-1.1.975-1.235.13-.13.65-.52.65-.91,0-.845-1.17-.91-2.08-.975l-6.89-.585v48.75c0,4.355,1.95,6.175,6.3,6.175H108.94c5.265,0,7.54-.91,9.295-9.555l-6.5-4.55c-.65,5.395-1.495,6.955-3.9,6.955H98.8c-2.275,0-2.795-.845-2.795-3.51V-20.735a132.429,132.429,0,0,0,14.82-11.96c.975-.91,5.46-5.72,5.785-5.85.325-.065,1.625-.065,1.885-.13A.981.981,0,0,0,119.015-39.52Zm-33.6-8.515c0-.585-.78-1.04-1.235-1.3L77.22-53.04A81.362,81.362,0,0,1,60.385-26l6.305,4.485a51.082,51.082,0,0,0,4.03-5.07V2.99h7.6V-33.8c0-.52.13-.715.845-1.56A1.758,1.758,0,0,0,79.5-36.4c0-.52-.39-.78-.975-1.17,2.99-5.2,3.445-6.24,4.745-8.71.195-.39.325-.455,1.5-.91A.937.937,0,0,0,85.41-48.035Zm85.93,10.4v-7.02c-6.63.52-8.645.715-17.68,1.235v-6.7c0-.26.065-.39.52-.78s.585-.585.585-.975c0-.65-.39-.845-1.885-.91l-7.215-.455c.39,4.745.39,8.19.455,10.205-13.65.65-19.24.65-23.66.65v7.54c8.255-1.04,18.07-1.625,23.855-1.95l.13,4.875a8.574,8.574,0,0,0-3.055-.52c-6.63,0-10.205,4.94-10.205,12.09,0,3.185.715,6.695,3.38,9.035A8.184,8.184,0,0,0,141.9-9.3a13.071,13.071,0,0,0,3.51-.65c-1.43,4.745-5.4,8.125-9.295,10.66l7.28,3.77a45.1,45.1,0,0,0,8.84-12.09,29.145,29.145,0,0,0,3.315-12.545,16.765,16.765,0,0,0-1.885-7.93v-9.1C162.11-37.505,166.4-37.635,171.34-37.635ZM147.68-21.19c0,4.615-3.12,6.045-4.485,6.045-1.5,0-3.575-1.5-3.575-5.4,0-3.445,1.82-5.72,4.42-5.72a3.382,3.382,0,0,1,2.4.91A6.061,6.061,0,0,1,147.68-21.19Zm77.48,4.03a14.327,14.327,0,0,0-14.43-14.365,51.754,51.754,0,0,0-6.305.39c9.425-9.62,10.53-10.66,14.43-13.91l-3.38-5.265c-6.175,2.4-17.225,3.25-19.7,3.25-2.015,0-5.72-.26-7.28-.39l1.5,7.28a60.681,60.681,0,0,0,15.21-1.625c-10.4,12.61-17.29,18.4-24.05,23.465l5.46,5.72c3.64-3.7,9.36-9.49,13.39-11.635a17.628,17.628,0,0,1,7.41-1.625c4.225,0,10.53,2.08,10.53,8.515a11.45,11.45,0,0,1-4.29,8.645c-1.82-2.275-6.045-7.6-12.8-7.6-6.37,0-9.555,4.94-9.555,8.645,0,4.81,4.16,8.905,12.285,8.905C215.02,1.235,225.16-6.37,225.16-17.16ZM207.61-5.525a18.48,18.48,0,0,1-4.42.585c-2.34,0-5.33-.65-5.33-2.925,0-.845.585-2.73,3.25-2.73C204.815-10.6,206.765-7.02,207.61-5.525Z" transform="translate(64 420)" fill="#01675b"/>
    <path id="Path_229188" data-name="Path 229188" d="M58.5-31.33a29.987,29.987,0,0,0-5.4-4.94l-2.73,3.12a30.092,30.092,0,0,1,5.4,4.94Zm-5.265,5.915a28.341,28.341,0,0,0-5.4-5L45.175-27.3a28.858,28.858,0,0,1,5.33,5ZM55.38-42.38v-7.54C43.095-46.15,22.945-44.59,8.9-44.72l1.105,7.28c6.5-.91,16.055-1.69,24.765-2.4a48.464,48.464,0,0,0-8.58,9.88c-2.795,4.225-4.42,8.58-4.42,12.935a16.305,16.305,0,0,0,4.81,11.7C31.85-.065,39.13,1.3,42.575,1.885l2.535-7.93C42.445-6.175,37.9-6.37,33.67-9.36a10.316,10.316,0,0,1-4.68-8.45c0-4.94,3.12-10.79,7.93-15.6C45.175-41.73,52.325-42.185,55.38-42.38Zm5.85,31.72A53.441,53.441,0,0,1,73.775,3.77l6.76-5.395a38.234,38.234,0,0,0-14.43-14.1Z" transform="translate(674 420)" fill="#01675b"/>
  </g>
</svg>
