<svg xmlns="http://www.w3.org/2000/svg" width="45" height="62.635" viewBox="0 0 45 62.635">
  <g id="pixta_92566040" transform="translate(0 0)">
    <path id="Path_882" data-name="Path 882" d="M45.025,11.375C42.609,6.735,38.91,2.4,34.356.775S24.423.225,19.937,2.7s-8.062,6.362-7.768,10.547,4.451,8.672,9.067,12.068,9.7,5.711,14.524,5.629,9.393-2.558,11.109-6.267.579-8.662-1.844-13.306" transform="translate(-2.689 0)" fill="#edeff0"/>
    <path id="Path_883" data-name="Path 883" d="M23.262,61.221c-.578-3.7-2.11-7.4-4.866-9.337s-6.715-2.1-10.387-1.118S.963,53.879.184,56.89s1.034,6.9,3.42,10.1S8.95,72.7,12.29,73.474s7.071-.192,9.123-2.52,2.429-6.03,1.849-9.732" transform="translate(0 -11.102)" fill="#edeff0"/>
  </g>
</svg>
