<svg xmlns="http://www.w3.org/2000/svg" xmlns:xlink="http://www.w3.org/1999/xlink" width="353.157" height="60" viewBox="0 0 353.157 60">
  <defs>
    <clipPath id="clip-path">
      <rect id="Rectangle_4" data-name="Rectangle 4" width="353.157" height="60" fill="#009aef"/>
    </clipPath>
  </defs>
  <g id="logo_bl" transform="translate(0 0)">
    <g id="Group_4" data-name="Group 4" transform="translate(0 0)" clip-path="url(#clip-path)">
      <path id="Path_17" data-name="Path 17" d="M130.762,21.064a2.868,2.868,0,0,1,.928,2.174V52.205a2.957,2.957,0,0,1-3.1,3.053,3.127,3.127,0,0,1-2.276-.851,2.927,2.927,0,0,1-.875-2.2V32.044l-8.257,12.609a4.223,4.223,0,0,1-1.152.974,2.3,2.3,0,0,1-1.347.325,2.214,2.214,0,0,1-1.3-.325,4.281,4.281,0,0,1-1.152-.974L103.973,31.6v20.61a3.086,3.086,0,0,1-.8,2.2,2.756,2.756,0,0,1-2.1.851,2.656,2.656,0,0,1-2.051-.876,3.111,3.111,0,0,1-.8-2.178V23.237a2.892,2.892,0,0,1,.924-2.149,3.088,3.088,0,0,1,2.227-.9,3.358,3.358,0,0,1,1.5.375,2.852,2.852,0,0,1,1.149.977L114.929,38.3,126.137,21.54a2.974,2.974,0,0,1,1.075-.977,2.814,2.814,0,0,1,1.377-.375,3.068,3.068,0,0,1,2.174.876" transform="translate(-22.507 -4.626)" fill="#009aef"/>
      <path id="Path_18" data-name="Path 18" d="M188.047,52.505a2.834,2.834,0,0,1-.851,2.125,2.706,2.706,0,0,1-1.95.827,2.629,2.629,0,0,1-1.629-.55,3.568,3.568,0,0,1-1.123-1.5l-2.6-6.05h-14.91l-2.6,6.1a3.064,3.064,0,0,1-1.075,1.474,2.637,2.637,0,0,1-1.576.526,2.393,2.393,0,0,1-2.65-2.6,3.36,3.36,0,0,1,.146-.949l12.459-29.916a3.325,3.325,0,0,1,1.2-1.551,2.631,2.631,0,0,1,1.8-.452,2.926,2.926,0,0,1,1.677.526,2.976,2.976,0,0,1,1.128,1.478l12.3,29.313a3.376,3.376,0,0,1,.253,1.2M167.433,41.6h10.007l-5.052-11.705Z" transform="translate(-35.995 -4.577)" fill="#009aef"/>
      <path id="Path_19" data-name="Path 19" d="M241.188,51.421a2.677,2.677,0,0,1,.375,1.347,2.594,2.594,0,0,1-.6,1.653,2.84,2.84,0,0,1-2.3.9,4.486,4.486,0,0,1-2.2-.55q-3.6-2.052-3.6-8.354a3.63,3.63,0,0,0-1.176-2.854,4.9,4.9,0,0,0-3.376-1.051H218.95v9.706a3.294,3.294,0,0,1-.725,2.2,2.413,2.413,0,0,1-1.926.851,3.891,3.891,0,0,1-2.528-.876,2.707,2.707,0,0,1-1.075-2.178V23.305a2.991,2.991,0,0,1,3.049-3.054h14.408a9.3,9.3,0,0,1,4.906,1.4,10.421,10.421,0,0,1,3.677,3.852,11.071,11.071,0,0,1,1.376,5.5,9.753,9.753,0,0,1-1.352,4.878,10.764,10.764,0,0,1-3.5,3.778,7.673,7.673,0,0,1,3.453,5.9,8.59,8.59,0,0,1,.146,1.552,15.919,15.919,0,0,0,.4,2.227,1.651,1.651,0,0,0,.9,1.026,2.942,2.942,0,0,1,1.026,1.05m-9.531-14.909a6.47,6.47,0,0,0,1.4-2.276,8.507,8.507,0,0,0,.55-3.078,6.028,6.028,0,0,0-.55-2.578,5.312,5.312,0,0,0-1.4-1.876,2.751,2.751,0,0,0-1.751-.7H218.95V37.363h10.956a2.5,2.5,0,0,0,1.751-.851" transform="translate(-48.739 -4.641)" fill="#009aef"/>
      <path id="Path_20" data-name="Path 20" d="M292.174,21.039a3.076,3.076,0,0,1,.8,2.2V41.351a15.088,15.088,0,0,1-1.751,7.352,12.654,12.654,0,0,1-4.9,5,15.367,15.367,0,0,1-14.433,0,12.607,12.607,0,0,1-4.927-5,15.062,15.062,0,0,1-1.75-7.352V23.237a2.917,2.917,0,0,1,.9-2.174,3.168,3.168,0,0,1,2.3-.876,3.039,3.039,0,0,1,3,3.049V41.351a8.589,8.589,0,0,0,1.05,4.274A7.321,7.321,0,0,0,275.29,48.5a7.668,7.668,0,0,0,3.827,1,8.417,8.417,0,0,0,4.026-1,7.629,7.629,0,0,0,3-2.879,8.11,8.11,0,0,0,1.129-4.274V23.237a3.192,3.192,0,0,1,.748-2.2,2.6,2.6,0,0,1,2.053-.851,2.756,2.756,0,0,1,2.1.851" transform="translate(-60.772 -4.626)" fill="#009aef"/>
      <path id="Path_21" data-name="Path 21" d="M343.438,21.054a2.752,2.752,0,0,1,.847,2.1,2.676,2.676,0,0,1-.847,2.077,3.146,3.146,0,0,1-2.2.773h-7.854V52.219a2.842,2.842,0,0,1-.952,2.178,3.348,3.348,0,0,1-2.35.876,3.177,3.177,0,0,1-2.3-.876,2.925,2.925,0,0,1-.9-2.178V26h-7.854a3.083,3.083,0,0,1-2.2-.8,2.755,2.755,0,0,1-.851-2.1,2.658,2.658,0,0,1,.876-2.052,3.113,3.113,0,0,1,2.178-.8h22.214a3.092,3.092,0,0,1,2.2.8" transform="translate(-72.404 -4.641)" fill="#009aef"/>
      <path id="Path_22" data-name="Path 22" d="M393.989,21.054a2.752,2.752,0,0,1,.847,2.1,2.676,2.676,0,0,1-.847,2.077,3.147,3.147,0,0,1-2.2.773h-7.854V52.219a2.842,2.842,0,0,1-.952,2.178,3.348,3.348,0,0,1-2.35.876,3.177,3.177,0,0,1-2.3-.876,2.925,2.925,0,0,1-.9-2.178V26h-7.854a3.083,3.083,0,0,1-2.2-.8,2.755,2.755,0,0,1-.851-2.1,2.658,2.658,0,0,1,.876-2.052,3.113,3.113,0,0,1,2.178-.8h22.214a3.092,3.092,0,0,1,2.2.8" transform="translate(-83.987 -4.641)" fill="#009aef"/>
      <path id="Path_23" data-name="Path 23" d="M445.842,46.692a16.9,16.9,0,0,1-6.078,6.531,17.069,17.069,0,0,1-17.462,0,16.687,16.687,0,0,1-6.054-6.531,19.18,19.18,0,0,1-2.174-9.079,19.184,19.184,0,0,1,2.174-9.079A16.685,16.685,0,0,1,422.3,22a17.069,17.069,0,0,1,17.462,0,16.9,16.9,0,0,1,6.078,6.53,19.013,19.013,0,0,1,2.2,9.079,19.009,19.009,0,0,1-2.2,9.079m-5.655-15.157a10.9,10.9,0,0,0-3.749-4.328,10.034,10.034,0,0,0-10.834-.025,10.565,10.565,0,0,0-3.7,4.328,14.7,14.7,0,0,0,0,12.206,10.567,10.567,0,0,0,3.7,4.328,10.034,10.034,0,0,0,10.834-.025,10.881,10.881,0,0,0,3.749-4.328,14.347,14.347,0,0,0,0-12.157" transform="translate(-94.884 -4.492)" fill="#009aef"/>
      <path id="Path_24" data-name="Path 24" d="M30,0A30,30,0,1,0,60,30,30,30,0,0,0,30,0M13.574,18.638l14.914-.028L25.349,24.1l-7.089-.095,3.7,6.013L18.827,35.5,11.252,22.715Zm11.38,27.2-7.932-.034L35.128,14.138l7.852.009Zm21.928-5.3-14.853.028,3.123-5.49,7.044.094-3.689-5.99,3.127-5.5L49.2,36.466Z" transform="translate(0 0)" fill="#009aef"/>
    </g>
  </g>
</svg>
