<svg xmlns="http://www.w3.org/2000/svg" xmlns:xlink="http://www.w3.org/1999/xlink" width="420" height="387" viewBox="0 0 420 387">
  <defs>
    <clipPath id="clip-path">
      <rect id="Rectangle_1917" data-name="Rectangle 1917" width="138.591" height="216.296" fill="none"/>
    </clipPath>
    <clipPath id="clip-path-2">
      <rect id="Rectangle_1916" data-name="Rectangle 1916" width="138.59" height="216.295" fill="none"/>
    </clipPath>
    <clipPath id="clip-path-3">
      <rect id="Rectangle_1914" data-name="Rectangle 1914" width="111.122" height="132.001" fill="none"/>
    </clipPath>
    <clipPath id="clip-path-4">
      <rect id="Rectangle_1915" data-name="Rectangle 1915" width="89.039" height="54.265" fill="none"/>
    </clipPath>
  </defs>
  <g id="Group_589" data-name="Group 589" transform="translate(-1373 -229)">
    <path id="pixta_92566040" d="M262.578,343.458A149.576,149.576,0,0,1,199.386,306c-17.074-17.191-40.608-25.78-64.984-26.264-15.291-.3-39.406-2.076-51.657-3.714C9.427,266.218-17.448,168.235,11.318,94.077c30.449-78.5,118.9-106.52,176.921-89.107,32.326,9.7,55.674,37.215,66.189,72.631a87.544,87.544,0,0,0,62.167,59.581q3.212.818,6.425,1.782c68.222,20.473,110,82.847,93.307,139.317S330.8,363.931,262.578,343.458" transform="translate(1373 266)" fill="#8aa2bf"/>
    <g id="pixta_75536062" transform="translate(1418 229)">
      <g id="Group_536" data-name="Group 536" clip-path="url(#clip-path)">
        <g id="Group_535" data-name="Group 535" transform="translate(0 0.001)">
          <g id="Group_534" data-name="Group 534" clip-path="url(#clip-path-2)">
            <path id="Path_864" data-name="Path 864" d="M53.578,89.925s23.157,12.708,27.776,4.189a5.19,5.19,0,0,0-.29-5.392c-2.7-4.584-10.415-8.057-10.415-8.057L58.113,69.986l-.866-8.032-14-2.292s-1.922,10.462-3.438,16.654c-.255,1.077-.508,2.015-.729,2.756-1.85,6.111,14.5,10.855,14.5,10.855" transform="translate(56.61 86.754)" fill="#404d61"/>
            <path id="Path_865" data-name="Path 865" d="M15.015,83.435s.567,14.582,2.165,20.8,7.812,11.434,15.115,10.415,5-5.635,5.139-8.528-7.095-23.83-7.095-23.83l-.324-1.274-2.859-11.2H16.473L15.211,81.56Z" transform="translate(21.834 101.52)" fill="#404d61"/>
            <path id="Path_866" data-name="Path 866" d="M106.372,123.711c-.7,3-14.771,2.393-20.161-1.394a3.015,3.015,0,0,1-.491-.38.573.573,0,0,1-.223-.174,4.31,4.31,0,0,1-.807-.967,3.293,3.293,0,0,1-.4-1.031c-.618-3.487,9.353-42.606,14.757-54.3-1.806-.081-4.167-.334-6.911-.7-.285-.047-.555-.079-.839-.11-1.126-.142-2.314-.317-3.551-.506-4.341-.65-9.272-1.443-14.327-2.268-.729-.128-1.443-.238-2.172-.366-12.57-2.044-25.582-4.074-32.066-3.865-.54.015-1.031.061-1.475.093C27.106,58.9,6.467,35.362,6.467,35.362s14.6-3.836,14.614-3.836l32.257-8.5s3.914.317,9.969,1.252c9.272,1.426,23.552,4.327,36.439,9.844,11.176,4.756,21.272,11.49,26.122,20.921,3.836,11.269-12.347,39.4-19.5,68.664" transform="translate(9.404 33.488)" fill="#004896"/>
            <path id="Path_867" data-name="Path 867" d="M7.1,68.279l20.526,32.154c-2.992,11.812-.091,28.362.2,48.81-.079,1.234,1.09,2.508,2.889,3.61,5.669,3.478,17.743,5.289,18.323-1.3l3.478-51.5a71.134,71.134,0,0,0-.7-10.5,167.338,167.338,0,0,0-6.9-28.755c-2.952-8.977-5.787-15.316-6.484-14.936l7.024-6.695,13.623-12.98L6.931,20.86c-.248,1.234-2.138,11.615-2.361,12.8C1.787,48.972,1.156,61.073,7.1,68.279" transform="translate(3.669 30.333)" fill="#004896"/>
            <g id="Group_530" data-name="Group 530" transform="translate(6.191 51.191)" opacity="0.5" style="mix-blend-mode: multiply;isolation: isolate">
              <g id="Group_529" data-name="Group 529">
                <g id="Group_528" data-name="Group 528" clip-path="url(#clip-path-3)">
                  <path id="Path_868" data-name="Path 868" d="M113.646,63.211c-8.243,17.071-15.3,38.454-21.7,62.259-.206-.157-.346-.285-.488-.38l-.226-.174a4.481,4.481,0,0,1-.807-.967,3.3,3.3,0,0,1-.393-1.028c-.618-3.487,9.348-42.606,14.757-54.305-1.809-.093-4.172-.348-6.913-.7-.287-.047-.552-.079-.839-.11-1.124-.16-2.317-.334-3.549-.508-4.344-.648-9.277-1.441-14.33-2.265-.731-.128-1.445-.238-2.174-.366C64.416,62.624,51.4,60.595,44.918,60.8a168.4,168.4,0,0,1,6.9,28.753l-9.939.38S25.82,76.493,15.611,73.624c5.723,10.352,13.473,20,17.579,23.918-3.914,9.591-3.043,32.89-2.471,55.319-1.809-1.109-2.965-2.378-2.886-3.615-.3-20.445-3.2-36.994-.206-48.818L7.1,68.284C1.154,61.071,1.792,48.977,4.563,33.651c.221-1.173,2.125-11.557,2.363-12.791L22.618,33.651s4.184,1.028,4.2,1.028l42.226-7.242c9.272,1.426,23.552,4.327,36.439,9.844l-.952,13.235c15.326,5.88-12.663,7.942,9.115,12.7" transform="translate(-2.523 -20.859)" fill="#004896"/>
                </g>
              </g>
            </g>
            <path id="Path_869" data-name="Path 869" d="M50.926,36,47.139,48.6l-5.083,5.318S39.907,57.9,39.732,60.8s-.763,6.553-.763,6.553c-.668,2.3,1.315,2.727,2.675.874L40.8,71.678l-1.463,2.847c-1.409,2.334.844,3.257,2.785,1.4l2.447-3.264,1.946-3.73-.5,4.754-.893,3.156c-.7,2.231,1.249,2.65,2.871.712l2.052-4.685-.13,3.416c-.147,2.187,1.949,2.2,2.508.223l2.479-9.262.27,2.206-.594,2.945c-.285,1.536,1.276,2.047,2.184.211l1.485-3.428.425-11.208L56.693,50.7l1.338-8.108Z" transform="translate(56.472 52.348)" fill="#ffb2a3"/>
            <path id="Path_870" data-name="Path 870" d="M32.209,46.926l6.5,2.965s5.038,4.189,6.005,5.35c.741.891,4.327,6.29,5.956,8.759a2.8,2.8,0,0,1,.258,2.6l-.412,1.014-.194,1.806-3.868,3.544H44.971s-.709,1.225-3.124.709l-6.479,1.418c-2,0-2.128-1.934-.388-2.449l5.286-2.255s-5.22-5.868-5.478-8.251a32.18,32.18,0,0,0-1.485-5.8l-5.478-3.031Z" transform="translate(40.463 68.236)" fill="#ffb2a3"/>
            <path id="Path_871" data-name="Path 871" d="M4.275,49.457c.155,7.083-.214,7.3,2.4,11.363C15.193,74.013,32.64,73.449,32.64,73.449H47.293c22.161-7.814,37.084-22.225,45.833-33.227a88.1,88.1,0,0,0,9.785-14.808s6.894-5.752-22.735-23.275C42.128-4.435,16.654,24.56,4.275,49.457" transform="translate(6.216 1.735)" fill="#43b2ff"/>
            <g id="Group_533" data-name="Group 533" transform="translate(12.891 20.923)" opacity="0.5" style="mix-blend-mode: multiply;isolation: isolate">
              <g id="Group_532" data-name="Group 532">
                <g id="Group_531" data-name="Group 531" clip-path="url(#clip-path-4)">
                  <path id="Path_872" data-name="Path 872" d="M5.253,50.158c8.518,13.193,25.965,12.629,25.965,12.629H45.871C68.032,54.973,82.956,40.562,91.7,29.56L94.291,8.526,70.312,9.91C68.148,25.641,56.454,51.989,49.4,30.662L26.2,35.7S21.649,50.978,5.253,50.158" transform="translate(-5.252 -8.526)" fill="#227fbc"/>
                </g>
              </g>
            </g>
            <path id="Path_873" data-name="Path 873" d="M34.663,15.289l-1.8,11.574,1.8,5.544L31.139,80.65l5.627,8.766,4.2-13.665L38.508,31.018l1.438-7.608-3.181-8.121Z" transform="translate(45.28 22.232)" fill="#ff9a3a"/>
            <path id="Path_874" data-name="Path 874" d="M19.176,16.86S4.4,62.956,11.664,82.292c0,0,13.576,14.825,46.837,26.944,0,0,1.47-8.251,6.626-6.96,0,0-21.452-23.076-36.149-30.039,0,0,10.639-35.163,12.249-38.417C47.286,21.574,27.044.559,19.176,16.86" transform="translate(14.043 15.853)" fill="#43b2ff"/>
            <path id="Path_875" data-name="Path 875" d="M35.732,21.438,55.844,51.8,51.632,97.729s5.919-.12,9.787,2.881c0,0,14.727-38.564,11.441-54.614,0,0-14.116-37.32-23.979-42.928S35.732,21.438,35.732,21.438" transform="translate(51.959 3.226)" fill="#43b2ff"/>
            <path id="Path_876" data-name="Path 876" d="M33.068,23.124l5.6,3.615,4.579-12.079H36.315Z" transform="translate(48.085 21.316)" fill="#dfe8f1"/>
            <path id="Path_877" data-name="Path 877" d="M43.971,4.741c-6.553,2.066-10.462,3.073-14.489,6.354-4.69,3.824-5.205,27.4,13.674,26.421,0,0,8.035-3.468,10.354-10.963S43.971,4.741,43.971,4.741" transform="translate(38.888 6.893)" fill="#ffb294"/>
            <path id="Path_878" data-name="Path 878" d="M68.014,14.439,67.1,21.308s-1.593,3.1-7.571,6.192a51.806,51.806,0,0,1-2.081,5.674c-1.009,1.421-4.324-.481-4.27-.641a9.58,9.58,0,0,1-8.7,2.4c-5.392-1.281-12.168-16.705-12.168-16.705l5.549-9.34Z" transform="translate(46.982 12.924)" fill="#ffb294"/>
            <path id="Path_879" data-name="Path 879" d="M32.675,26.082s-6.864-11.7,8.432-22.2c8.035-5.517,17.4-6.3,27.648,5.338,6.339,7.2,5.181,20.107,1.934,23.734-7.556,8.437-25.376-3.428-25.55-3.588l-5.487,4.442Z" transform="translate(45.281 0)" fill="#404d61"/>
            <path id="Path_880" data-name="Path 880" d="M38.415,12.507a3.24,3.24,0,0,0-2.091-2.768,3.27,3.27,0,0,0-3.554,1.941,9.529,9.529,0,0,0-.633,4.309c.012,1.193.1,2.557,1.036,3.3,1.617,1.286,3.816-.255,4.629-1.74a9.747,9.747,0,0,0,.614-5.041" transform="translate(46.728 14.034)" fill="#ffb294"/>
            <path id="Path_881" data-name="Path 881" d="M35.553,10.782C33.445,16.3,30.387,29.3,43.691,38.04l-4.734,7.326A23.021,23.021,0,0,1,25.83,22.346C26.988,5.209,39.269,3.93,41.7,4.5l-1.3,2.307L39.075,7.3a5.97,5.97,0,0,0-3.522,3.485" transform="translate(37.462 6.399)" fill="#dfe8f1"/>
          </g>
        </g>
      </g>
    </g>
  </g>
</svg>
