<svg xmlns="http://www.w3.org/2000/svg" xmlns:xlink="http://www.w3.org/1999/xlink" width="70" height="74" viewBox="0 0 70 74">
  <defs>
    <clipPath id="clip-path">
      <rect id="Rectangle_39356" data-name="Rectangle 39356" width="70" height="74" transform="translate(766 2092)" fill="#fff" stroke="#707070" stroke-width="1"/>
    </clipPath>
  </defs>
  <g id="Mask_Group_60932" data-name="Mask Group 60932" transform="translate(-766 -2092)" clip-path="url(#clip-path)">
    <path id="Path_229172" data-name="Path 229172" d="M12991-559.579v-3.943h18.775v-63.938l-14.831,7.977v52.76H12991v-55.116L13011.749-633l20.745,11.161v55.116h-3.943v-.792l-14.83-7.979v11.971h18.773v3.943ZM13028.551-572v-5.914l-14.83-7.978v5.914Zm0-10.393V-588.3l-14.83-7.978v5.914Zm0-10.393V-598.7l-14.83-7.978v5.914Zm0-10.393v-5.914l-14.83-7.978v5.914Zm0-10.393v-5.915l-14.83-7.978v5.916Zm-28.187,44v-5.048h3.943v5.048Zm0-8.841v-5.046h3.943v5.046Zm0-8.839v-5.046h3.943v5.046Zm0-8.839v-5.048h3.943v5.048Zm0-8.839v-5.046h3.943v5.046Zm0-8.839v-5.048h3.943v5.048Z" transform="translate(-12211 2725.58)" fill="#01675b"/>
  </g>
</svg>
