<svg xmlns="http://www.w3.org/2000/svg" width="230.272" height="134.448" viewBox="0 0 230.272 134.448">
  <g id="Group_67095" data-name="Group 67095" transform="translate(-5.216 -4.76)">
    <g id="Group_67036" data-name="Group 67036" transform="translate(3 0)">
      <path id="Path_229237" data-name="Path 229237" d="M7.289,0V-27.01h-5V0ZM34.373-22.792V-27.01H10.138v4.218h9.62V0h5V-22.792Z" transform="translate(0 33)" fill="#01675b"/>
      <path id="Path_229236" data-name="Path 229236" d="M27.168-12.448,26.08-16.1c-1.5.672-1.92.864-5.664,2.624A4.289,4.289,0,0,0,16.064-16.7a6.188,6.188,0,0,0-2.752.672c.544-.832.8-1.28,1.824-3.168a67.358,67.358,0,0,0,7.648-1.216L23.008-24a27.02,27.02,0,0,1-6.272,1.632c.16-.352.96-2.144.992-2.176.032,0,.672-.288.736-.32.192-.064.32-.16.32-.352,0-.224-.544-.288-.64-.32l-4-.7a24.815,24.815,0,0,1-1.6,4.256,45.009,45.009,0,0,1-6.112-.128l.384,3.328c1.344,0,2.336-.032,4.16-.128a42.547,42.547,0,0,1-6.3,8.8L7.808-8.16c1.76-2.88,3.68-5.792,6.816-5.792a2.217,2.217,0,0,1,2.432,2.112C12.256-9.376,9.312-7.872,9.312-3.9A4.375,4.375,0,0,0,10.528-.768c2.016,2.144,5.728,2.144,7.52,2.144A52.959,52.959,0,0,0,25.664.9V-2.72A37,37,0,0,1,17.5-1.7c-2.336,0-4.8-.416-4.8-2.5,0-2.24,3.328-3.9,4.544-4.512-.032,1.408-.064,2.976-.16,4.8H20.8c0-1.088-.064-5.056-.064-6.3C23.1-11.1,24.64-11.648,27.168-12.448Zm32.9,6.688V-18.368H55.52l.448-.608c-.16-.1-.864-.48-1.024-.544,2.528-2.3,3.872-3.68,4.608-4.448l-.992-1.248H43.84v3.072H47.1l-.928,1.664c1.408.64,2.752,1.344,4.1,2.112h-6.56V-3.424H47.04V-7.68h3.168v3.936h3.3V-7.68h3.232v1.12c0,.8-.224.8-2.208.768l1.12,2.72h1.7A2.627,2.627,0,0,0,60.064-5.76Zm-3.328-8.288H53.5v-1.664h3.232Zm0,3.968H53.5v-1.728h3.232Zm-6.528-3.968H47.04v-1.664h3.168Zm0,3.968H47.04v-1.728h3.168Zm2.848-12.064a9.314,9.314,0,0,1-.992,1.152c-.384-.16-2.144-.992-2.56-1.152ZM41.7-21.6a20.691,20.691,0,0,0-4.512-3.808L35.04-22.944a21.049,21.049,0,0,1,4.416,3.776ZM62.656-2.624c-4.8.448-9.632.672-14.464.672-2.56,0-7.136,0-7.136-3.2V-14.4H34.5v3.2h3.136v6.88A26.041,26.041,0,0,1,33.7-2.208l1.728,3.36c.1.16.192.384.384.384.16,0,.288-.416.48-.832A30.684,30.684,0,0,0,39.52-2.208C40.544-.928,42.112.928,47.1.928H61.376ZM91.52-7.808,88.384-10.4c-3.136,6.144-7.424,7.264-9.216,7.264A3.086,3.086,0,0,1,76.352-4.48c-.608-1.088-.608-4.192-.608-5.664a120.95,120.95,0,0,1,.9-12.8c.512-.416.9-.672.9-.928,0-.192-.288-.416-1.056-.512l-4.256-.608c.1,2.144-.16,11.648-.16,13.6,0,7.68.512,9.312,2.016,10.624A7.118,7.118,0,0,0,78.752.864,11.567,11.567,0,0,0,85.12-1.184,23.876,23.876,0,0,0,91.52-7.808Zm31.9-13.152V-24.8c-6.24,1.824-15.808,2.912-23.328,2.976l.64,3.776a122.359,122.359,0,0,1,12.192-1.376c-1.5,1.408-6.208,5.824-6.208,11.3,0,7.136,8,8.8,10.592,9.344l1.12-4.032a9.5,9.5,0,0,1-5.568-1.536,5.483,5.483,0,0,1-2.368-4.48c0-3.2,2.656-6.752,5.472-9.024A12.385,12.385,0,0,1,123.424-20.96Z" transform="translate(40 31)" fill="#01675b"/>
    </g>
    <path id="Path_229238" data-name="Path 229238" d="M26.624,1.344v-23.68h-11.2c.16-.288.832-1.856.9-1.952.16-.256.256-.288.832-.608.1-.064.288-.16.288-.352s-.192-.32-.48-.352l-4.352-.416a14.2,14.2,0,0,1-1.12,3.68H5.5V1.344H9.216V-.32H22.944V1.344ZM22.944-9.92H9.216v-3.168H22.944Zm0-6.272H9.216v-2.88H22.944Zm0,12.768H9.216V-6.848H22.944ZM52.032-22.368a38.022,38.022,0,0,0-7.648-3.3L43.008-22.5A30.311,30.311,0,0,1,50.4-19.008ZM57.92-8.1a6.906,6.906,0,0,0-7.1-7.008,12.306,12.306,0,0,0-7.872,3.232,40.883,40.883,0,0,1,1.92-7.04l-3.68-1.44a62.467,62.467,0,0,0-2.5,12.224l2.784,1.472c3.3-3.84,6.528-5.12,8.736-5.12,2.4,0,4.032,1.312,4.032,3.36,0,2.944-2.72,6.048-8.672,6.048a32.045,32.045,0,0,1-4-.352l1.7,3.936C47.232,1.12,57.92.928,57.92-8.1Zm33.248-4.352L90.08-16.1c-1.5.672-1.92.864-5.664,2.624A4.289,4.289,0,0,0,80.064-16.7a6.188,6.188,0,0,0-2.752.672c.544-.832.8-1.28,1.824-3.168a67.358,67.358,0,0,0,7.648-1.216L87.008-24a27.02,27.02,0,0,1-6.272,1.632c.16-.352.96-2.144.992-2.176.032,0,.672-.288.736-.32.192-.064.32-.16.32-.352,0-.224-.544-.288-.64-.32l-4-.7a24.814,24.814,0,0,1-1.6,4.256,45.009,45.009,0,0,1-6.112-.128l.384,3.328c1.344,0,2.336-.032,4.16-.128a42.547,42.547,0,0,1-6.3,8.8L71.808-8.16c1.76-2.88,3.68-5.792,6.816-5.792a2.217,2.217,0,0,1,2.432,2.112c-4.8,2.464-7.744,3.968-7.744,7.936A4.375,4.375,0,0,0,74.528-.768c2.016,2.144,5.728,2.144,7.52,2.144A52.959,52.959,0,0,0,89.664.9V-2.72A37,37,0,0,1,81.5-1.7c-2.336,0-4.8-.416-4.8-2.5,0-2.24,3.328-3.9,4.544-4.512-.032,1.408-.064,2.976-.16,4.8H84.8c0-1.088-.064-5.056-.064-6.3C87.1-11.1,88.64-11.648,91.168-12.448Zm34.656,8.672L122.848-5.5c-.256,1.152-.544,2.624-1.184,2.624-1.12,0-2.688-2.432-3.136-3.1a30.439,30.439,0,0,0,3.9-7.136c.16-.352.16-.352.768-.7a.457.457,0,0,0,.32-.416.433.433,0,0,0-.288-.384l-3.424-1.792a25.3,25.3,0,0,1-3.04,6.72,30.461,30.461,0,0,1-1.472-7.872H125.5v-3.2h-4.736L122.56-22.4a21.765,21.765,0,0,0-2.912-3.264l-2.336,1.984a16.669,16.669,0,0,1,2.752,2.912H115.1c-.032-1.024-.032-2.016-.032-3.008a1.033,1.033,0,0,1,.384-.992.759.759,0,0,0,.288-.48c0-.16-.224-.352-.48-.384l-4-.416c.032,1.728.032,2.848.16,5.28H100.256c.128,1.952.224,3.52.224,5.664,0,8.608-1.568,12.48-2.848,15.168l3.392,1.024a23.089,23.089,0,0,0,1.92-5.888l1.6,2.848h1.376c3.264,0,3.808-1.952,4.064-2.88a45.748,45.748,0,0,0,.864-9.472H103.84c.032-.864.064-1.536.064-3.264h7.776c.64,5.984,1.44,8.512,2.592,11.264a23.051,23.051,0,0,1-6.432,5.28L110.464,1.5A30.341,30.341,0,0,0,116.1-3.072c.832,1.088,3.52,4.576,6.144,4.576.608,0,1.312-.16,2.112-1.536A14.882,14.882,0,0,0,125.824-3.776ZM107.2-10.944a18.71,18.71,0,0,1-.48,5.088c-.192.448-.576.576-1.184.576a16.39,16.39,0,0,1-2.464-.192,43.78,43.78,0,0,0,.64-5.472Zm50.5,1.728v-2.912H139.36v-1.7h13.984v-2.592H139.36v-1.632h13.984v-2.56H139.36v-1.664h15.552V-25.28H135.84v13.152h-5.568v2.912h4.768v6.944c-.96.128-2.688.384-3.776.416l.864,3.136c.128.448.192.64.416.64.1,0,.192-.032.32-.256.16-.32.352-.416,1.472-.608a76.586,76.586,0,0,0,11.328-2.72l.224-2.368c2.24,2.336,4.064,3.712,9.184,5.92L157.312-.9a20.855,20.855,0,0,1-6.88-3.3,41.382,41.382,0,0,0,3.84-3.072c.128-.064.736-.128.864-.192a.148.148,0,0,0,.1-.16c0-.16-.192-.32-.288-.448l-1.12-1.152Zm-6.432,0a12.3,12.3,0,0,1-3.072,2.944,17.575,17.575,0,0,1-2.176-2.944Zm-5.6,4.928c-2.048.576-4.736,1.056-6.976,1.44V-9.216H142.4A22.414,22.414,0,0,0,145.664-4.288ZM185.7-9.5a32.134,32.134,0,0,1-6.176-8.512,29.335,29.335,0,0,0,4.992-2.336l-1.6-3.04a18.857,18.857,0,0,1-4.7,2.56,22.5,22.5,0,0,1-1.344-3.808c0-.192.416-.832.416-.992,0-.416-.9-.224-1.12-.192l-3.232.48a44.231,44.231,0,0,0,2.08,5.6A39.974,39.974,0,0,1,168.32-18.4a16.183,16.183,0,0,1-2.528,0l1.632,3.36a36.767,36.767,0,0,0,8.96-1.888,34.993,34.993,0,0,0,3.008,4.96,21.264,21.264,0,0,0-3.9-.544c-3.52,0-7.552,1.952-7.552,6.592a5.859,5.859,0,0,0,1.248,3.744c2.24,2.88,6.592,3.04,8.448,3.04a26.7,26.7,0,0,0,5.056-.352L182.432-3.1a24.213,24.213,0,0,1-4.928.544c-3.744,0-5.888-.992-5.888-3.456,0-2.176,2.144-3.456,4.7-3.456a12.322,12.322,0,0,1,7.328,2.688ZM220.64-15.36l-.032-3.52c-2.944.48-3.968.608-5.76.864l.16-4.768c.032-.128.032-.224.288-.384.288-.192.352-.256.352-.416,0-.192,0-.384-1.056-.512l-3.264-.384a48.136,48.136,0,0,1,.288,6.88c-3.68.512-4.864.64-6.784.864,0-3.68.032-3.872.064-4.384,0-.064.032-.256.32-.48.48-.32.544-.352.544-.512,0-.416-.416-.448-1.088-.544l-3.616-.48c.16,2.24.192,5.536.192,6.848-2.4.256-3.36.352-5.888.576l.128,3.52c2.88-.448,3.2-.48,5.76-.864l.032,4.384c.032,5.952.9,8.192,8.1,8.192a71.95,71.95,0,0,0,8.576-.48l.288-3.84a27.385,27.385,0,0,1-8.224,1.12c-4.736,0-5.312-.928-5.312-4.576,0-.192,0-2.112.064-5.312,2.88-.384,3.424-.48,6.816-.9,0,3.488-.1,4.064-2.048,4.064a7.7,7.7,0,0,1-1.888-.224l.8,3.36a11.18,11.18,0,0,0,1.856.128c2.4,0,3.424-.7,3.9-2.048.32-.9.384-1.856.544-5.632C217.76-15.168,219.232-15.3,220.64-15.36Zm5.344,10.112a26.31,26.31,0,0,1,6.176,7.1L235.488-.8a18.823,18.823,0,0,0-7.1-6.944Z" transform="translate(0 84)" fill="#01675b"/>
    <path id="Path_229239" data-name="Path 229239" d="M29.6.9V-2.56H22.944V-13.248H28.8V-16.7H22.944V-24.32c0-.128.192-.288.448-.544a.509.509,0,0,0,.16-.32c0-.16-.192-.288-.352-.288l-3.936-.384V-16.7H14.432v3.456h4.832V-2.56H11.712V.9ZM15.2-9.024a17.313,17.313,0,0,1-4.128-3.584,24.3,24.3,0,0,0,3.52-6.048l-1.44-1.44H9.7v-4.032c0-.128.064-.192.512-.64a.463.463,0,0,0,.224-.32c0-.16-.16-.256-.352-.288l-3.712-.416v5.7H2.528v3.456H9.7a24.231,24.231,0,0,1-8.48,8.864l2.4,2.464A20.267,20.267,0,0,0,6.432-7.488v8.96h3.36V-9.408A22.021,22.021,0,0,0,13.28-6.336ZM62.176-17.28A29.086,29.086,0,0,1,55.968-20.1a23.872,23.872,0,0,1-5.408-4.576.456.456,0,0,0,.288-.416c0-.224-.224-.384-.48-.416l-4.576-.8a22.5,22.5,0,0,1-11.68,9.76l2.432,2.816a28.48,28.48,0,0,0,4-2.08v2.624H55.968V-15.9a19.264,19.264,0,0,0,3.68,1.7Zm-7.008.928H41.408a31.165,31.165,0,0,0,6.624-6.272A29.044,29.044,0,0,0,55.168-16.352ZM60.448-.608A47.347,47.347,0,0,0,52.992-8.16h6.752v-3.1H36.224v3.1h7.264c-1.44,2.752-2.112,3.872-2.912,5.152-1.6.064-2.5.1-4.512.1L37.088,1.28a.374.374,0,0,0,.288.288c.1,0,.192-.1.384-.48a.4.4,0,0,1,.32-.224c.768-.128,4.16-.416,4.832-.48.928-.1,8.128-.9,12.512-1.44a22.043,22.043,0,0,1,2.112,2.848ZM52.832-3.84c-2.656.32-5.312.48-8,.608.576-.864,1.5-2.272,3.008-4.928h4.8l-2.3,2.336A19.355,19.355,0,0,1,52.832-3.84ZM90.5-19.136v-3.712a22.354,22.354,0,0,1-7.584,1.312,28.186,28.186,0,0,1-4.1-.352v3.52c1.7.16,3.168.16,3.424.16A42.977,42.977,0,0,0,90.5-19.136Zm1.536,16.8V-6.3a26.1,26.1,0,0,1-7.3.992c-3.232,0-3.552-.864-3.584-3.9l-3.488.48c.1,5.408,1.312,6.976,7.136,6.976A43.739,43.739,0,0,0,92.032-2.336ZM75.3-8.032,73.408-9.056c-.7,1.248-.9,1.568-1.28,2.24A17.6,17.6,0,0,1,71.68-11.2c0-4.832,1.376-10.624,1.856-10.912.064-.032.48-.192.544-.224a.379.379,0,0,0,.16-.288c0-.256-.608-.48-.832-.576l-3.264-1.184a63.071,63.071,0,0,0-1.344,7.3,56.6,56.6,0,0,0-.48,6.3,27.879,27.879,0,0,0,1.312,8.416A9.8,9.8,0,0,0,70.816.16l2.528-.992A28.39,28.39,0,0,1,75.3-8.032Zm49.632,6.464a17.55,17.55,0,0,1-7.392-2.4h4.256V-17.216H102.144V-3.968h4.768a19.259,19.259,0,0,1-8.416,2.5l2.24,3.2a31.205,31.205,0,0,0,8.992-3.392,1.989,1.989,0,0,0,.672.192c.128,0,.352,0,.352-.352a.841.841,0,0,0-.224-.48l-1.312-1.664h5.472l-1.248,1.76A27.283,27.283,0,0,0,122.592,1.6Zm-6.944-8.384H105.952v-1.536h12.032Zm0-3.52H105.952V-14.88h12.032Zm0,7.1H105.952v-1.6h12.032ZM125.6-18.5v-2.528H113.984v-1.792h9.088v-2.528H100.864v2.528h9.056v1.792H98.208V-18.5Zm32.448-1.216A25.084,25.084,0,0,0,155.9-24.32L152.96-23.1a34.314,34.314,0,0,1,1.888,4.608Zm.8,19.136A22.474,22.474,0,0,1,154.4-7.264a20.264,20.264,0,0,1-1.792-7.2h5.248v-3.552h-5.248v-6.336c0-.256.064-.352.576-.864a.458.458,0,0,0,.16-.352c0-.16,0-.384-.992-.448l-3.3-.224v8.224H145.44v3.552h3.52c-.544,5.664-1.184,8.16-4.192,12.512A9.166,9.166,0,0,0,144.8-3.2V-18.016h-5.152V-19.9h6.016V-23.04h-6.016v-1.344c0-.288.064-.32.512-.768a.539.539,0,0,0,.16-.384c0-.288-.256-.384-.736-.416l-3.68-.224v3.136h-5.792V-19.9H135.9v1.888h-5.248V1.664h3.1V-15.072h7.968V-13.5a.992.992,0,0,0-.416-.192l-2.592-.512a18.666,18.666,0,0,1-.9,3.328h-2.208l1.632-.544a29.681,29.681,0,0,0-.864-2.976l-2.432.672A10.717,10.717,0,0,1,135.2-10.88h-.9v2.592h1.824v1.152H134.3v2.464h1.824V.512h2.688V-4.672h2.048V-7.136h-2.048V-8.288h2.048V-10.88h-.736c.128-.256.736-1.632.768-1.7.1-.128.8-.416.832-.544v9.984c0,.672-.256,1.184-1.312,1.184a5.878,5.878,0,0,1-1.28-.128l1.152,3.968c2.08-.032,3.36-.224,4.1-1.632l2.048,1.5A28.736,28.736,0,0,0,150.976-8.7,32.645,32.645,0,0,0,155.3,1.5Zm29.184-17.952v-3.456c-3.264.256-4.256.352-8.7.608v-3.3c0-.128.032-.192.256-.384s.288-.288.288-.48c0-.32-.192-.416-.928-.448l-3.552-.224c.192,2.336.192,4.032.224,5.024-6.72.32-9.472.32-11.648.32v3.712c4.064-.512,8.9-.8,11.744-.96l.064,2.4a4.221,4.221,0,0,0-1.5-.256c-3.264,0-5.024,2.432-5.024,5.952a5.726,5.726,0,0,0,1.664,4.448,4.029,4.029,0,0,0,2.624.992,6.435,6.435,0,0,0,1.728-.32c-.7,2.336-2.656,4-4.576,5.248l3.584,1.856a22.2,22.2,0,0,0,4.352-5.952,14.348,14.348,0,0,0,1.632-6.176,8.253,8.253,0,0,0-.928-3.9V-18.3C183.488-18.464,185.6-18.528,188.032-18.528Zm-11.648,8.1c0,2.272-1.536,2.976-2.208,2.976-.736,0-1.76-.736-1.76-2.656,0-1.7.9-2.816,2.176-2.816a1.665,1.665,0,0,1,1.184.448A2.984,2.984,0,0,1,176.384-10.432Zm36.224,1.984a7.053,7.053,0,0,0-7.1-7.072,25.479,25.479,0,0,0-3.1.192,79.12,79.12,0,0,1,7.1-6.848l-1.664-2.592a36.266,36.266,0,0,1-9.7,1.6c-.992,0-2.816-.128-3.584-.192l.736,3.584a29.874,29.874,0,0,0,7.488-.8,63.175,63.175,0,0,1-11.84,11.552l2.688,2.816c1.792-1.824,4.608-4.672,6.592-5.728a8.678,8.678,0,0,1,3.648-.8c2.08,0,5.184,1.024,5.184,4.192a5.637,5.637,0,0,1-2.112,4.256c-.9-1.12-2.976-3.744-6.3-3.744a4.482,4.482,0,0,0-4.7,4.256c0,2.368,2.048,4.384,6.048,4.384C207.616.608,212.608-3.136,212.608-8.448Zm-8.64,5.728a9.1,9.1,0,0,1-2.176.288c-1.152,0-2.624-.32-2.624-1.44a1.41,1.41,0,0,1,1.6-1.344C202.592-5.216,203.552-3.456,203.968-2.72Z" transform="translate(4 137)" fill="#01675b"/>
  </g>
</svg>
