<svg xmlns="http://www.w3.org/2000/svg" xmlns:xlink="http://www.w3.org/1999/xlink" width="440" height="554" viewBox="0 0 440 554">
  <defs>
    <clipPath id="clip-path">
      <rect id="Rectangle_1913" data-name="Rectangle 1913" width="170.55" height="352.728" fill="none"/>
    </clipPath>
    <clipPath id="clip-path-3">
      <rect id="Rectangle_1907" data-name="Rectangle 1907" width="25.569" height="24.08" fill="none"/>
    </clipPath>
    <clipPath id="clip-path-4">
      <rect id="Rectangle_1908" data-name="Rectangle 1908" width="34.333" height="115.319" fill="none"/>
    </clipPath>
    <clipPath id="clip-path-5">
      <rect id="Rectangle_1909" data-name="Rectangle 1909" width="42.569" height="178.728" fill="none"/>
    </clipPath>
    <clipPath id="clip-path-6">
      <rect id="Rectangle_1910" data-name="Rectangle 1910" width="97.285" height="80.061" fill="none"/>
    </clipPath>
    <clipPath id="clip-path-7">
      <rect id="Rectangle_1911" data-name="Rectangle 1911" width="17.804" height="24.725" fill="none"/>
    </clipPath>
  </defs>
  <g id="Group_588" data-name="Group 588" transform="translate(-363 -307)">
    <path id="pixta_92566040" d="M267.446,291.033c-20.012,4.947-31.429,12.268-46.548,26.35-16.612,15.475-51.357,38.125-73.776,31.4-27.338-8.2-34.388-32.877-47.185-53.785C93.8,284.975,81.177,270.184,73.012,261.83c-9.59-9.809-28.748-22.295-40.041-29.786C.1,210.245-9.142,168.217,9.542,135.7c14.785-25.732,58.644-32.929,74.643-44.649,24.681-18.078,35.781-30.154,55.176-54.19S188.894-7.479,219.109,2.681c17.391,5.848,29.145,20.629,42.518,28.1,15.251,8.523,32.862,15.7,49.483,16.024,23.839.465,46.536-8.321,76.722,12.237,35.434,24.134,59.613,82.7,50.074,123.112-7.889,33.416-40.438,78.831-81.71,92.759-22.416,7.565-65.719,10.425-88.75,16.118" transform="translate(363 511)" fill="#c3d3e8"/>
    <g id="pixta_75536062" transform="translate(587.45 307)">
      <g id="Group_526" data-name="Group 526" clip-path="url(#clip-path)">
        <g id="Group_525" data-name="Group 525">
          <g id="Group_524" data-name="Group 524" clip-path="url(#clip-path)">
            <path id="Path_844" data-name="Path 844" d="M66.415,5.149a3.071,3.071,0,0,0-2.057-2.9L60.076.746,53.445,0,48.826.839a13.106,13.106,0,0,0-7.8,4.606L37.748,9.458l-3.73,4.317,3.311,5.951Z" transform="translate(49.467)" fill="#ffb294"/>
            <path id="Path_845" data-name="Path 845" d="M48.374,40.329l-2.736-6.437L47.65,28,63.624,16.249l1.124-.825C61.066,12.87,58.19,9.913,61.611,3.856c0,0-21.768,4.145-29.813,11.066C22.281,27.153,18,41.9,17.616,58.495L49.662,43.326Z" transform="translate(25.616 5.607)" fill="#43b2ff"/>
            <g id="Group_511" data-name="Group 511" transform="translate(63.669 21.856)" opacity="0.5" style="mix-blend-mode: multiply;isolation: isolate">
              <g id="Group_510" data-name="Group 510">
                <g id="Group_509" data-name="Group 509" clip-path="url(#clip-path-3)">
                  <path id="Path_846" data-name="Path 846" d="M25.943,26.689l3.139,6.3h7.181L33.527,26.55l2.012-5.895L51.513,8.907,31.134,18.12Z" transform="translate(-25.943 -8.905)" fill="#227fbc"/>
                </g>
              </g>
            </g>
            <path id="Path_847" data-name="Path 847" d="M57.714,44.782l7.276-14L45.627,14.817,29.032,32.8Z" transform="translate(42.217 21.546)" fill="#ffb294"/>
            <path id="Path_848" data-name="Path 848" d="M51.325,49.078s9.466,3.5,13.277,1.536S83.55,31.465,80.34,17.42C77.388,4.514,59.875-3.879,47.023,7.341c-11.552,10.079-7.5,26.431-7.5,26.431L33.13,45.819l18.195,8.116Z" transform="translate(48.175 3.05)" fill="#ffb294"/>
            <path id="Path_849" data-name="Path 849" d="M79.424,25.794a5.568,5.568,0,0,1-4.643,4.219c-2,.3-2.5,1.168-4.042,3.639l-2.734,4.273-3,1.215a12.516,12.516,0,0,0-5.323,4.108A4.328,4.328,0,0,1,56.4,45.262c-8.508.052-20.389-9.952-20.389-9.952S30.756,17.98,43.454,7.292,67.47,3.52,71.242,5.783c3.406,2.044,10.968,7.679,8.182,20.011" transform="translate(50.802 2.166)" fill="#404d61"/>
            <path id="Path_850" data-name="Path 850" d="M50.38,14.41s3.262.361.162,6.229-4.27,4.172-4.27,4.172a8.307,8.307,0,0,1-.253-4.567c.574-2.763,2.542-6.265,4.361-5.833" transform="translate(66.635 20.901)" fill="#ffb294"/>
            <path id="Path_851" data-name="Path 851" d="M59.34,36.4,60,30.723S46.159,16.268,37.7,16.749l-6.2,4.849Z" transform="translate(45.792 24.338)" fill="#004896"/>
            <path id="Path_852" data-name="Path 852" d="M2.414,122.57a52.524,52.524,0,0,0-2.388,17.9c.768,7.375,8.486,7.966,12.784,3.986l5.667-7.875s5.3-3.235,7.458-5.794a17.62,17.62,0,0,0,3.014-5.011s2.007-4.393-1.048-6.577c-2.479-1.772-3.635-1.89-6.756-1.752Z" transform="translate(0.001 170.726)" fill="#404d61"/>
            <path id="Path_853" data-name="Path 853" d="M33.044,130.1l-2.577,13.758s-5.294,12.784-1.85,17.5,14.327.348,14.327.348l10.941-3.041S61.151,158,65.522,156.5a51.551,51.551,0,0,0,8.945-4.373c6.337-5.875,4.513-14.732-4.209-13.827l-18.632,1.873L50.412,130.1Z" transform="translate(39.92 189.179)" fill="#404d61"/>
            <path id="Path_854" data-name="Path 854" d="M113.926,165.522,91,249.64c-6.246,5.887-21.189,7.794-23.525.668,1.335-34.584,8.239-61.452,18.512-81.5-10.774-20.671-34.53-42.717-35.825-44.732L39.271,153.053C32.1,168.187,26.328,190.14,19.915,217.169a24.179,24.179,0,0,1-4.074,2.837C9.6,223.415,2.731,223.248.373,218.171c1.571-26.554,2.025-58.062,13.9-75.2l6.648-46.214C15.832,83.93,18.9,63.347,27.638,54.826L75.573,70.913,85.583,73.8V86.025c9.8,22.453,29.128,50.393,28.343,79.5" transform="translate(0.542 79.724)" fill="#004896"/>
            <g id="Group_514" data-name="Group 514" transform="translate(16.375 184.399)" opacity="0.5" style="mix-blend-mode: multiply;isolation: isolate">
              <g id="Group_513" data-name="Group 513">
                <g id="Group_512" data-name="Group 512" clip-path="url(#clip-path-4)">
                  <path id="Path_855" data-name="Path 855" d="M41.005,94.543,30.119,123.516c-7.191,15.13-12.943,37.1-19.361,64.107a22.981,22.981,0,0,1-4.086,2.835l13.9-69.131s9.08-25.906,1.367-46.189C34.023,90.813,40.755,92.9,41.005,94.543" transform="translate(-6.673 -75.138)" fill="#004896"/>
                </g>
              </g>
            </g>
            <g id="Group_517" data-name="Group 517" transform="translate(71.923 150.637)" opacity="0.5" style="mix-blend-mode: multiply;isolation: isolate">
              <g id="Group_516" data-name="Group 516">
                <g id="Group_515" data-name="Group 515" clip-path="url(#clip-path-5)">
                  <path id="Path_856" data-name="Path 856" d="M71.852,155.99,48.93,240.108c.6-32.677,6.665-53.7,13.912-78.518a27.542,27.542,0,0,0,.547-13.348c-5.5-26.48-21.236-51.91-34.083-75.1,0-.022,4.192-11.758,4.192-11.758l10.01,2.884V76.494c9.8,22.453,29.128,50.393,28.343,79.5" transform="translate(-29.307 -61.381)" fill="#004896"/>
                </g>
              </g>
            </g>
            <path id="Path_857" data-name="Path 857" d="M62.89,47.693l-4.329-6.815s-5.534-5.694-6.977-11.468-2.444-6.287-3.058-7.77-1.774-3.608-1.774-3.608c-.906-2.623,1.323-3.789,2.746-1.755l4.81,6.8v-4.41l-1.931-6.015L48.32,5.987c-1.237-1.819,1.048-2.962,2.611-1.338-.852-2.317,1.774-3.188,3.819-.361.12-1.053,1.806-.842,3.4.692L60.59,7.47l.481.091a4.01,4.01,0,0,1,2.4,1.445L67.7,14.332l1.843,8.1s.481,9.142-1.524,14.033l4.332,7.458Z" transform="translate(67.677 3.655)" fill="#ffb294"/>
            <path id="Path_858" data-name="Path 858" d="M43.83,44.236,46.3,74.613l.8,9.937s1.669-.179,4.528-.523c6.538-.763,19.25-2.373,32.206-4.687,22.632-4,22.794-10.722,22.794-10.722a23.086,23.086,0,0,0-.282-7.424c-3.843-19.211-29.209-39.288-34.38-44.56C66.1,14.2,61.713,21.785,61.713,21.785l2.677,5.632c0,.02,11.225,23.6,11.225,23.6l-23.2-4.948Z" transform="translate(63.735 23.489)" fill="#43b2ff"/>
            <path id="Path_859" data-name="Path 859" d="M39.733,2.949l5.237.685c1.76.169,2.14,2.626-.555,2.935,0,0-5.883,1.811-7.672,3.914s2.989-7.534,2.989-7.534" transform="translate(52.847 4.288)" fill="#ffb294"/>
            <path id="Path_860" data-name="Path 860" d="M9.861,114.855c7.34,13.922,32.79,23.979,49.065,24.765,5.932.3,10.661-.643,12.852-3.058,6.9-19.454,21.268-37.156,29.253-54.116.442-.945.861-1.87,1.266-2.8a62.294,62.294,0,0,0,2.295-6.1c2.088-6.859,2.007-12.894.724-25.992,0,0-1.247-1.166-3.5-3.077A216.9,216.9,0,0,0,72.363,23.3a42.949,42.949,0,0,0-25.145-5.912C19.574,29.942,9.861,114.855,9.861,114.855" transform="translate(14.339 25.07)" fill="#43b2ff"/>
            <g id="Group_520" data-name="Group 520" transform="translate(73.265 84.682)" opacity="0.5" style="mix-blend-mode: multiply;isolation: isolate">
              <g id="Group_519" data-name="Group 519">
                <g id="Group_518" data-name="Group 518" clip-path="url(#clip-path-6)">
                  <path id="Path_861" data-name="Path 861" d="M29.854,114.512c5.934.3,10.661-.643,12.855-3.058C49.61,92,63.971,74.3,71.96,57.338c6.538-.763,19.25-2.373,32.206-4.685,22.632-4.005,22.794-10.725,22.794-10.725a23.071,23.071,0,0,0-.282-7.421c.162.984,2.314,16.192-51.156,13.939-2.8-.12-5.775-.3-8.891-.523l-1.752-.12s-9.5,39.973-35.023,66.708" transform="translate(-29.853 -34.505)" fill="#227fbc"/>
                </g>
              </g>
            </g>
            <g id="Group_523" data-name="Group 523" transform="translate(128.124 50.926)" opacity="0.5" style="mix-blend-mode: multiply;isolation: isolate">
              <g id="Group_522" data-name="Group 522">
                <g id="Group_521" data-name="Group 521" clip-path="url(#clip-path-7)">
                  <path id="Path_862" data-name="Path 862" d="M52.207,20.751,63.433,44.328l6.58,1.146Z" transform="translate(-52.207 -20.75)" fill="#227fbc"/>
                </g>
              </g>
            </g>
          </g>
        </g>
      </g>
    </g>
  </g>
</svg>
