<svg xmlns="http://www.w3.org/2000/svg" width="572.908" height="101.56" viewBox="0 0 572.908 101.56">
  <g id="Group_67095" data-name="Group 67095" transform="translate(-587.578 -1346.418)">
    <g id="Group_67036" data-name="Group 67036" transform="translate(584.494 1340.219)">
      <path id="Path_229235" data-name="Path 229235" d="M9.062,0V-33.58H2.852V0ZM42.734-28.336V-33.58H12.6v5.244h11.96V0h6.21V-28.336Z" transform="translate(0.232 41)" fill="#01675b"/>
      <path id="Path_229234" data-name="Path 229234" d="M33.96-15.56,32.6-20.12c-1.88.84-2.4,1.08-7.08,3.28-.92-2.64-2.68-4.04-5.44-4.04a7.735,7.735,0,0,0-3.44.84c.68-1.04,1-1.6,2.28-3.96a84.2,84.2,0,0,0,9.56-1.52L28.76-30a33.775,33.775,0,0,1-7.84,2.04c.2-.44,1.2-2.68,1.24-2.72.04,0,.84-.36.92-.4.24-.08.4-.2.4-.44,0-.28-.68-.36-.8-.4l-5-.88a31.019,31.019,0,0,1-2,5.32,56.261,56.261,0,0,1-7.64-.16l.48,4.16c1.68,0,2.92-.04,5.2-.16a53.184,53.184,0,0,1-7.88,11L9.76-10.2c2.2-3.6,4.6-7.24,8.52-7.24,2.32,0,2.8,1.44,3.04,2.64-6,3.08-9.68,4.96-9.68,9.92A5.468,5.468,0,0,0,13.16-.96c2.52,2.68,7.16,2.68,9.4,2.68a66.2,66.2,0,0,0,9.52-.6V-3.4a46.248,46.248,0,0,1-10.2,1.28c-2.92,0-6-.52-6-3.12,0-2.8,4.16-4.88,5.68-5.64-.04,1.76-.08,3.72-.2,6H26c0-1.36-.08-6.32-.08-7.88C28.88-13.88,30.8-14.56,33.96-15.56ZM75.08-7.2V-22.96H69.4l.56-.76c-.2-.12-1.08-.6-1.28-.68,3.16-2.88,4.84-4.6,5.76-5.56L73.2-31.52H54.8v3.84h4.08L57.72-25.6c1.76.8,3.44,1.68,5.12,2.64h-8.2V-4.28H58.8V-9.6h3.96v4.92h4.12V-9.6h4.04v1.4c0,1-.28,1-2.76.96l1.4,3.4h2.12A3.284,3.284,0,0,0,75.08-7.2ZM70.92-17.56H66.88v-2.08h4.04Zm0,4.96H66.88v-2.16h4.04Zm-8.16-4.96H58.8v-2.08h3.96Zm0,4.96H58.8v-2.16h3.96Zm3.56-15.08a11.643,11.643,0,0,1-1.24,1.44c-.48-.2-2.68-1.24-3.2-1.44ZM52.12-27a25.863,25.863,0,0,0-5.64-4.76L43.8-28.68a26.311,26.311,0,0,1,5.52,4.72ZM78.32-3.28c-6,.56-12.04.84-18.08.84-3.2,0-8.92,0-8.92-4V-18h-8.2v4h3.92v8.6a32.552,32.552,0,0,1-4.92,2.64l2.16,4.2c.12.2.24.48.48.48.2,0,.36-.52.6-1.04A38.356,38.356,0,0,0,49.4-2.76c1.28,1.6,3.24,3.92,9.48,3.92H76.72ZM114.4-9.76,110.48-13c-3.92,7.68-9.28,9.08-11.52,9.08A3.857,3.857,0,0,1,95.44-5.6c-.76-1.36-.76-5.24-.76-7.08a151.183,151.183,0,0,1,1.12-16c.64-.52,1.12-.84,1.12-1.16,0-.24-.36-.52-1.32-.64l-5.32-.76c.12,2.68-.2,14.56-.2,17,0,9.6.64,11.64,2.52,13.28a8.9,8.9,0,0,0,5.84,2.04,14.458,14.458,0,0,0,7.96-2.56A29.845,29.845,0,0,0,114.4-9.76ZM154.28-26.2V-31c-7.8,2.28-19.76,3.64-29.16,3.72l.8,4.72a152.949,152.949,0,0,1,15.24-1.72c-1.88,1.76-7.76,7.28-7.76,14.12,0,8.92,10,11,13.24,11.68l1.4-5.04a11.872,11.872,0,0,1-6.96-1.92,6.854,6.854,0,0,1-2.96-5.6c0-4,3.32-8.44,6.84-11.28C149.32-25.84,152.56-26.04,154.28-26.2Z" transform="translate(48.232 39)" fill="#01675b"/>
    </g>
    <path id="Path_229189" data-name="Path 229189" d="M33.28,1.68v-29.6h-14c.2-.36,1.04-2.32,1.12-2.44.2-.32.32-.36,1.04-.76.12-.08.36-.2.36-.44s-.24-.4-.6-.44l-5.44-.52a17.754,17.754,0,0,1-1.4,4.6H6.88V1.68h4.64V-.4H28.68V1.68ZM28.68-12.4H11.52v-3.96H28.68Zm0-7.84H11.52v-3.6H28.68Zm0,15.96H11.52V-8.56H28.68ZM65.04-27.96a47.527,47.527,0,0,0-9.56-4.12l-1.72,3.96A37.889,37.889,0,0,1,63-23.76ZM72.4-10.12a8.633,8.633,0,0,0-8.88-8.76,15.382,15.382,0,0,0-9.84,4.04,51.1,51.1,0,0,1,2.4-8.8l-4.6-1.8c-.88,3.04-2.8,9.84-3.12,15.28l3.48,1.84c4.12-4.8,8.16-6.4,10.92-6.4,3,0,5.04,1.64,5.04,4.2,0,3.68-3.4,7.56-10.84,7.56a40.056,40.056,0,0,1-5-.44l2.12,4.92C59.04,1.4,72.4,1.16,72.4-10.12Zm41.56-5.44-1.36-4.56c-1.88.84-2.4,1.08-7.08,3.28-.92-2.64-2.68-4.04-5.44-4.04a7.735,7.735,0,0,0-3.44.84c.68-1.04,1-1.6,2.28-3.96a84.2,84.2,0,0,0,9.56-1.52l.28-4.48a33.775,33.775,0,0,1-7.84,2.04c.2-.44,1.2-2.68,1.24-2.72.04,0,.84-.36.92-.4.24-.08.4-.2.4-.44,0-.28-.68-.36-.8-.4l-5-.88a31.019,31.019,0,0,1-2,5.32,56.261,56.261,0,0,1-7.64-.16l.48,4.16c1.68,0,2.92-.04,5.2-.16a53.184,53.184,0,0,1-7.88,11l3.92,2.44c2.2-3.6,4.6-7.24,8.52-7.24,2.32,0,2.8,1.44,3.04,2.64-6,3.08-9.68,4.96-9.68,9.92A5.468,5.468,0,0,0,93.16-.96c2.52,2.68,7.16,2.68,9.4,2.68a66.2,66.2,0,0,0,9.52-.6V-3.4a46.248,46.248,0,0,1-10.2,1.28c-2.92,0-6-.52-6-3.12,0-2.8,4.16-4.88,5.68-5.64-.04,1.76-.08,3.72-.2,6H106c0-1.36-.08-6.32-.08-7.88C108.88-13.88,110.8-14.56,113.96-15.56ZM157.28-4.72l-3.72-2.16c-.32,1.44-.68,3.28-1.48,3.28-1.4,0-3.36-3.04-3.92-3.88a38.049,38.049,0,0,0,4.88-8.92c.2-.44.2-.44.96-.88a.572.572,0,0,0,.4-.52.541.541,0,0,0-.36-.48l-4.28-2.24a31.621,31.621,0,0,1-3.8,8.4,38.077,38.077,0,0,1-1.84-9.84h12.76v-4h-5.92L153.2-28a27.205,27.205,0,0,0-3.64-4.08l-2.92,2.48a20.837,20.837,0,0,1,3.44,3.64h-6.2c-.04-1.28-.04-2.52-.04-3.76a1.291,1.291,0,0,1,.48-1.24.948.948,0,0,0,.36-.6c0-.2-.28-.44-.6-.48l-5-.52c.04,2.16.04,3.56.2,6.6H125.32c.16,2.44.28,4.4.28,7.08,0,10.76-1.96,15.6-3.56,18.96l4.24,1.28A28.861,28.861,0,0,0,128.68-6l2,3.56h1.72c4.08,0,4.76-2.44,5.08-3.6.76-2.88,1-7.4,1.08-11.84H129.8c.04-1.08.08-1.92.08-4.08h9.72c.8,7.48,1.8,10.64,3.24,14.08a28.813,28.813,0,0,1-8.04,6.6l3.28,3.16a37.927,37.927,0,0,0,7.04-5.72c1.04,1.36,4.4,5.72,7.68,5.72.76,0,1.64-.2,2.64-1.92A18.6,18.6,0,0,0,157.28-4.72ZM134-13.68c-.04,4.16-.44,5.96-.6,6.36-.24.56-.72.72-1.48.72a20.487,20.487,0,0,1-3.08-.24,54.725,54.725,0,0,0,.8-6.84Zm63.12,2.16v-3.64H174.2v-2.12h17.48v-3.24H174.2v-2.04h17.48v-3.2H174.2v-2.08h19.44V-31.6H169.8v16.44h-6.96v3.64h5.96v8.68c-1.2.16-3.36.48-4.72.52l1.08,3.92c.16.56.24.8.52.8.12,0,.24-.04.4-.32.2-.4.44-.52,1.84-.76a95.732,95.732,0,0,0,14.16-3.4l.28-2.96c2.8,2.92,5.08,4.64,11.48,7.4l2.8-3.48a26.069,26.069,0,0,1-8.6-4.12,51.727,51.727,0,0,0,4.8-3.84c.16-.08.92-.16,1.08-.24a.185.185,0,0,0,.12-.2c0-.2-.24-.4-.36-.56l-1.4-1.44Zm-8.04,0a15.374,15.374,0,0,1-3.84,3.68,21.969,21.969,0,0,1-2.72-3.68Zm-7,6.16c-2.56.72-5.92,1.32-8.72,1.8v-7.96H178A28.016,28.016,0,0,0,182.08-5.36Zm50.04-6.52a40.168,40.168,0,0,1-7.72-10.64,36.669,36.669,0,0,0,6.24-2.92l-2-3.8a23.571,23.571,0,0,1-5.88,3.2,28.122,28.122,0,0,1-1.68-4.76c0-.24.52-1.04.52-1.24,0-.52-1.12-.28-1.4-.24l-4.04.6a55.287,55.287,0,0,0,2.6,7A49.967,49.967,0,0,1,210.4-23a20.227,20.227,0,0,1-3.16,0l2.04,4.2a45.958,45.958,0,0,0,11.2-2.36,43.74,43.74,0,0,0,3.76,6.2,26.581,26.581,0,0,0-4.88-.68c-4.4,0-9.44,2.44-9.44,8.24a7.323,7.323,0,0,0,1.56,4.68c2.8,3.6,8.24,3.8,10.56,3.8a33.371,33.371,0,0,0,6.32-.44l-.32-4.52a30.266,30.266,0,0,1-6.16.68c-4.68,0-7.36-1.24-7.36-4.32,0-2.72,2.68-4.32,5.88-4.32a15.4,15.4,0,0,1,9.16,3.36ZM275.8-19.2l-.04-4.4c-3.68.6-4.96.76-7.2,1.08l.2-5.96c.04-.16.04-.28.36-.48.36-.24.44-.32.44-.52,0-.24,0-.48-1.32-.64l-4.08-.48a60.166,60.166,0,0,1,.36,8.6c-4.6.64-6.08.8-8.48,1.08,0-4.6.04-4.84.08-5.48,0-.08.04-.32.4-.6.6-.4.68-.44.68-.64,0-.52-.52-.56-1.36-.68l-4.52-.6c.2,2.8.24,6.92.24,8.56-3,.32-4.2.44-7.36.72l.16,4.4c3.6-.56,4-.6,7.2-1.08l.04,5.48C251.64-3.4,252.72-.6,261.72-.6a89.938,89.938,0,0,0,10.72-.6L272.8-6a34.231,34.231,0,0,1-10.28,1.4c-5.92,0-6.64-1.16-6.64-5.72,0-.24,0-2.64.08-6.64,3.6-.48,4.28-.6,8.52-1.12,0,4.36-.12,5.08-2.56,5.08a9.62,9.62,0,0,1-2.36-.28l1,4.2a13.975,13.975,0,0,0,2.32.16c3,0,4.28-.88,4.88-2.56.4-1.12.48-2.32.68-7.04C272.2-18.96,274.04-19.12,275.8-19.2Zm6.68,12.64a32.887,32.887,0,0,1,7.72,8.88L294.36-1a23.528,23.528,0,0,0-8.88-8.68Z" transform="translate(581.727 1445.219)" fill="#01675b"/>
    <path id="Path_229190" data-name="Path 229190" d="M37,1.12V-3.2H28.68V-16.56H36v-4.32H28.68V-30.4c0-.16.24-.36.56-.68a.637.637,0,0,0,.2-.4c0-.2-.24-.36-.44-.36l-4.92-.48v11.44H18.04v4.32h6.04V-3.2H14.64V1.12ZM19-11.28a21.642,21.642,0,0,1-5.16-4.48,30.376,30.376,0,0,0,4.4-7.56l-1.8-1.8H12.12v-5.04c0-.16.08-.24.64-.8a.578.578,0,0,0,.28-.4c0-.2-.2-.32-.44-.36l-4.64-.52v7.12H3.16v4.32h8.96A30.289,30.289,0,0,1,1.52-9.72l3,3.08A25.334,25.334,0,0,0,8.04-9.36V1.84h4.2v-13.6A27.526,27.526,0,0,0,16.6-7.92ZM77.72-21.6a36.357,36.357,0,0,1-7.76-3.52,29.84,29.84,0,0,1-6.76-5.72.57.57,0,0,0,.36-.52c0-.28-.28-.48-.6-.52l-5.72-1a28.119,28.119,0,0,1-14.6,12.2l3.04,3.52a35.6,35.6,0,0,0,5-2.6v3.28H69.96v-3.4a24.08,24.08,0,0,0,4.6,2.12Zm-8.76,1.16H51.76a38.957,38.957,0,0,0,8.28-7.84A36.306,36.306,0,0,0,68.96-20.44ZM75.56-.76a59.184,59.184,0,0,0-9.32-9.44h8.44v-3.88H45.28v3.88h9.08c-1.8,3.44-2.64,4.84-3.64,6.44-2,.08-3.12.12-5.64.12L46.36,1.6a.468.468,0,0,0,.36.36c.12,0,.24-.12.48-.6a.506.506,0,0,1,.4-.28c.96-.16,5.2-.52,6.04-.6C54.8.36,63.8-.64,69.28-1.32a27.553,27.553,0,0,1,2.64,3.56ZM66.04-4.8c-3.32.4-6.64.6-10,.76.72-1.08,1.88-2.84,3.76-6.16h6L62.92-7.28A24.194,24.194,0,0,1,66.04-4.8Zm47.08-19.12v-4.64a27.942,27.942,0,0,1-9.48,1.64,35.233,35.233,0,0,1-5.12-.44v4.4c2.12.2,3.96.2,4.28.2A53.722,53.722,0,0,0,113.12-23.92Zm1.92,21V-7.88a32.63,32.63,0,0,1-9.12,1.24c-4.04,0-4.44-1.08-4.48-4.88l-4.36.6C97.2-4.16,98.72-2.2,106-2.2A54.675,54.675,0,0,0,115.04-2.92ZM94.12-10.04l-2.36-1.28c-.88,1.56-1.12,1.96-1.6,2.8A22,22,0,0,1,89.6-14c0-6.04,1.72-13.28,2.32-13.64.08-.04.6-.24.68-.28a.474.474,0,0,0,.2-.36c0-.32-.76-.6-1.04-.72l-4.08-1.48A78.838,78.838,0,0,0,86-21.36a70.755,70.755,0,0,0-.6,7.88A34.849,34.849,0,0,0,87.04-2.96,12.243,12.243,0,0,0,88.52.2l3.16-1.24A35.488,35.488,0,0,1,94.12-10.04Zm62.04,8.08a21.937,21.937,0,0,1-9.24-3h5.32V-21.52H127.68V-4.96h5.96a24.073,24.073,0,0,1-10.52,3.12l2.8,4a39.007,39.007,0,0,0,11.24-4.24,2.487,2.487,0,0,0,.84.24c.16,0,.44,0,.44-.44a1.051,1.051,0,0,0-.28-.6l-1.64-2.08h6.84l-1.56,2.2A34.1,34.1,0,0,0,153.24,2Zm-8.68-10.48H132.44v-1.92h15.04Zm0-4.4H132.44V-18.6h15.04Zm0,8.88H132.44v-2h15.04ZM157-23.12v-3.16H142.48v-2.24h11.36v-3.16H126.08v3.16H137.4v2.24H122.76v3.16Zm40.56-1.52a31.356,31.356,0,0,0-2.68-5.76l-3.68,1.52a42.894,42.894,0,0,1,2.36,5.76Zm1,23.92A28.093,28.093,0,0,1,193-9.08a25.33,25.33,0,0,1-2.24-9h6.56v-4.44h-6.56v-7.92c0-.32.08-.44.72-1.08a.573.573,0,0,0,.2-.44c0-.2,0-.48-1.24-.56l-4.12-.28v10.28H181.8v4.44h4.4c-.68,7.08-1.48,10.2-5.24,15.64A11.454,11.454,0,0,0,181-4V-22.52h-6.44v-2.36h7.52V-28.8h-7.52v-1.68c0-.36.08-.4.64-.96a.674.674,0,0,0,.2-.48c0-.36-.32-.48-.92-.52l-4.6-.28v3.92h-7.24v3.92h7.24v2.36h-6.56V2.08h3.88V-18.84h9.96v1.96a1.24,1.24,0,0,0-.52-.24l-3.24-.64a23.33,23.33,0,0,1-1.12,4.16h-2.76l2.04-.68A37.1,37.1,0,0,0,170.48-18l-3.04.84A13.4,13.4,0,0,1,169-13.6h-1.12v3.24h2.28v1.44h-2.28v3.08h2.28V.64h3.36V-5.84h2.56V-8.92h-2.56v-1.44h2.56V-13.6h-.92c.16-.32.92-2.04.96-2.12.12-.16,1-.52,1.04-.68V-3.92c0,.84-.32,1.48-1.64,1.48a7.347,7.347,0,0,1-1.6-.16l1.44,4.96c2.6-.04,4.2-.28,5.12-2.04l2.56,1.88a35.919,35.919,0,0,0,5.68-13.08,40.806,40.806,0,0,0,5.4,12.76Zm36.48-22.44v-4.32c-4.08.32-5.32.44-10.88.76v-4.12c0-.16.04-.24.32-.48s.36-.36.36-.6c0-.4-.24-.52-1.16-.56l-4.44-.28c.24,2.92.24,5.04.28,6.28-8.4.4-11.84.4-14.56.4v4.64c5.08-.64,11.12-1,14.68-1.2l.08,3a5.276,5.276,0,0,0-1.88-.32c-4.08,0-6.28,3.04-6.28,7.44a7.158,7.158,0,0,0,2.08,5.56,5.036,5.036,0,0,0,3.28,1.24,8.044,8.044,0,0,0,2.16-.4c-.88,2.92-3.32,5-5.72,6.56l4.48,2.32a27.751,27.751,0,0,0,5.44-7.44,17.936,17.936,0,0,0,2.04-7.72,10.317,10.317,0,0,0-1.16-4.88v-5.6C229.36-23.08,232-23.16,235.04-23.16ZM220.48-13.04c0,2.84-1.92,3.72-2.76,3.72-.92,0-2.2-.92-2.2-3.32,0-2.12,1.12-3.52,2.72-3.52a2.081,2.081,0,0,1,1.48.56A3.73,3.73,0,0,1,220.48-13.04Zm45.28,2.48a8.817,8.817,0,0,0-8.88-8.84,31.848,31.848,0,0,0-3.88.24c5.8-5.92,6.48-6.56,8.88-8.56l-2.08-3.24c-3.8,1.48-10.6,2-12.12,2-1.24,0-3.52-.16-4.48-.24l.92,4.48a37.342,37.342,0,0,0,9.36-1,78.97,78.97,0,0,1-14.8,14.44l3.36,3.52c2.24-2.28,5.76-5.84,8.24-7.16a10.848,10.848,0,0,1,4.56-1c2.6,0,6.48,1.28,6.48,5.24a7.046,7.046,0,0,1-2.64,5.32c-1.12-1.4-3.72-4.68-7.88-4.68a5.6,5.6,0,0,0-5.88,5.32c0,2.96,2.56,5.48,7.56,5.48C259.52.76,265.76-3.92,265.76-10.56ZM254.96-3.4a11.372,11.372,0,0,1-2.72.36c-1.44,0-3.28-.4-3.28-1.8a1.762,1.762,0,0,1,2-1.68C253.24-6.52,254.44-4.32,254.96-3.4Z" transform="translate(894.727 1445.219)" fill="#01675b"/>
  </g>
</svg>
