<svg xmlns="http://www.w3.org/2000/svg" width="301.217" height="114.571" viewBox="0 0 301.217 114.571">
  <g id="Group_153" data-name="Group 153" transform="translate(-349.413 -181.715)">
    <path id="Path_326" data-name="Path 326" d="M1380.2,136.568a20.275,20.275,0,0,0-20.217,20.217v94.354l44.649-44.649h236.351a20.275,20.275,0,0,0,20.217-20.217V156.785a20.275,20.275,0,0,0-20.217-20.217H1380.2" transform="translate(-1010.574 45.147)" fill="#404d61" fill-rule="evenodd"/>
    <path id="PCディスプレイのアイコン素材_2" data-name="PCディスプレイのアイコン素材 2" d="M44.095,39.2H3.138A3.138,3.138,0,0,0,0,42.341v26.2a3.138,3.138,0,0,0,3.138,3.138H20.3v.7a3.138,3.138,0,0,1-3.138,3.138H12.546V79.2h22.14v-3.69H30.076a3.138,3.138,0,0,1-3.138-3.138v-.7H44.095a3.138,3.138,0,0,0,3.138-3.138v-26.2A3.138,3.138,0,0,0,44.095,39.2ZM42.8,64.725a1.046,1.046,0,0,1-1.047,1.047H5.475a1.046,1.046,0,0,1-1.047-1.047V44.678a1.046,1.046,0,0,1,1.047-1.047H41.759a1.046,1.046,0,0,1,1.047,1.047V64.725Z" transform="translate(529.064 156.297)" fill="#fff"/>
    <path id="iPhone風のスマートフォンのアイコン素材" d="M130.421,0H120.39a3.116,3.116,0,0,0-3.113,3.113V26.887A3.116,3.116,0,0,0,120.39,30h10.031a3.116,3.116,0,0,0,3.113-3.112V3.113A3.116,3.116,0,0,0,130.421,0Zm-5.016,28.161a1.261,1.261,0,1,1,1.261-1.261A1.263,1.263,0,0,1,125.405,28.161Zm6.286-24.22V23.873H119.12V3.942Z" transform="translate(463.276 205.5)" fill="#fff"/>
  </g>
</svg>
