<svg xmlns="http://www.w3.org/2000/svg" xmlns:xlink="http://www.w3.org/1999/xlink" width="113" height="132" viewBox="0 0 113 132">
  <defs>
    <clipPath id="clip-path">
      <rect id="Rectangle_3927" data-name="Rectangle 3927" width="102" height="94.405" fill="#01675b" stroke="#01675b" stroke-width="0.6"/>
    </clipPath>
  </defs>
  <g id="icon14" transform="translate(-713.142 -3220.58)">
    <rect id="Rectangle_39399" data-name="Rectangle 39399" width="113" height="132" transform="translate(713.142 3220.58)" fill="none"/>
    <g id="_14" data-name="14" transform="translate(718.142 3239.58)">
      <g id="Group_8535" data-name="Group 8535" clip-path="url(#clip-path)">
        <path id="Path_2526" data-name="Path 2526" d="M101.348,71.318l-2.909-6.733a6.6,6.6,0,0,1-.026-5.15l1.6-3.8a18.878,18.878,0,0,0-1-16.575L90.042,23.336A9.835,9.835,0,0,0,83.8,18.67a11.354,11.354,0,1,0-15.043,2.087c-6.39-.371-9.865-4.609-11.743-8.791a6.723,6.723,0,0,0-7.5-3.816l-.135.029a6.59,6.59,0,0,0-4.279,3.08,6.483,6.483,0,0,0-.634,5.15c1.668,5.556,6.956,15.346,23.664,19.13L71.8,43.82a25.794,25.794,0,0,1-7.868,7.174A40.511,40.511,0,0,1,42.967,56.7H38.323a14.743,14.743,0,0,0,5.652-11.6V34.635A14.753,14.753,0,0,0,25.844,20.262,9.69,9.69,0,0,0,7.7,25.006V38.612A6.131,6.131,0,0,1,1.58,44.736,1.58,1.58,0,0,0,.3,47.242l.612.847a10.9,10.9,0,0,0,7.971,4.5q.449.036.895.036a10.935,10.935,0,0,0,5.867-1.7,14.848,14.848,0,0,0,4.861,6.093A18.127,18.127,0,0,0,5.761,74.8V92.825a1.58,1.58,0,1,0,3.161,0V74.8A14.953,14.953,0,0,1,23.858,59.862H42.967a43.673,43.673,0,0,0,22.6-6.162,29.385,29.385,0,0,0,9.264-8.672,1.56,1.56,0,0,0,.138-.193c.906-1.267,1.834-2.687,2.825-4.306a5.772,5.772,0,0,1,10.264,5.2,41.9,41.9,0,0,1-8.282,12.986,1.575,1.575,0,0,0-.429.455c-6.634,6.918-17.259,13.456-34.242,16.1a1.589,1.589,0,0,0-.253.039,110.634,110.634,0,0,1-16.687,1.191,1.58,1.58,0,0,0,0,3.161,116.269,116.269,0,0,0,15.472-.981V92.825a1.58,1.58,0,1,0,3.161,0V78.195c15.962-2.687,26.481-8.76,33.4-15.392l6.585,14.884a7.9,7.9,0,0,0,5.35,4.5,8,8,0,0,0,1.938.24,7.956,7.956,0,0,0,7.278-11.107M9.135,49.435a7.619,7.619,0,0,1-4.619-2.014,9.3,9.3,0,0,0,6.348-8.809V25.006a6.528,6.528,0,0,1,11.93-3.667,14.782,14.782,0,0,0-8.349,13.3V45.1a14.781,14.781,0,0,0,.239,2.628,7.762,7.762,0,0,1-5.549,1.709M17.606,45.1V34.635a11.6,11.6,0,0,1,23.208,0V45.1a11.6,11.6,0,0,1-23.208,0m49.32-33.742a8.2,8.2,0,1,1,8.2,8.2,8.206,8.206,0,0,1-8.2-8.2m30.083,66.88a4.788,4.788,0,0,1-7.337-1.827l-7.1-16.053A45.145,45.145,0,0,0,90.99,46.9,8.933,8.933,0,0,0,75.1,38.879c-.409.668-.8,1.3-1.19,1.893l-3.2-7.244a1.581,1.581,0,0,0-1.121-.907C54.633,29.474,49.321,21.574,47.5,15.5a3.276,3.276,0,0,1,.327-2.633,3.42,3.42,0,0,1,2.216-1.6l.142-.03a3.5,3.5,0,0,1,3.948,2.021c2.109,4.7,8.776,14.953,25.109,8.709A6.631,6.631,0,0,1,87.3,24.9l8.971,15.72A15.7,15.7,0,0,1,97.1,54.4l-1.6,3.8a9.775,9.775,0,0,0,.038,7.63l2.909,6.733a4.789,4.789,0,0,1-1.437,5.664" transform="translate(0)" fill="#01675b" stroke="#01675b" stroke-width="0.6"/>
      </g>
    </g>
  </g>
</svg>
