<svg xmlns="http://www.w3.org/2000/svg" width="113" height="132" viewBox="0 0 113 132">
  <g id="icon02" transform="translate(-713.142 -3220.58)">
    <rect id="Rectangle_39399" data-name="Rectangle 39399" width="113" height="132" transform="translate(713.142 3220.58)" fill="none"/>
    <path id="img_icon02" d="M12991-559.579v-3.943h18.775v-63.938l-14.831,7.977v52.76H12991v-55.116L13011.749-633l20.745,11.161v55.116h-3.943v-.792l-14.83-7.979v11.971h18.773v3.943ZM13028.551-572v-5.914l-14.83-7.978v5.914Zm0-10.393V-588.3l-14.83-7.978v5.914Zm0-10.393V-598.7l-14.83-7.978v5.914Zm0-10.393v-5.914l-14.83-7.978v5.914Zm0-10.393v-5.915l-14.83-7.978v5.916Zm-28.187,44v-5.048h3.943v5.048Zm0-8.841v-5.046h3.943v5.046Zm0-8.839v-5.046h3.943v5.046Zm0-8.839v-5.048h3.943v5.048Zm0-8.839v-5.046h3.943v5.046Zm0-8.839v-5.048h3.943v5.048Z" transform="translate(-12242.859 3882.581)" fill="#01675b"/>
  </g>
</svg>
