<svg xmlns="http://www.w3.org/2000/svg" width="113" height="132" viewBox="0 0 113 132">
  <g id="icon05" transform="translate(-207 -1439)">
    <rect id="Rectangle_39399" data-name="Rectangle 39399" width="113" height="132" transform="translate(207 1439)" fill="none"/>
    <g id="Group_67375" data-name="Group 67375" transform="translate(232 1466)">
      <path id="Path_1694" data-name="Path 1694" d="M4034.161,3897.73a7.431,7.431,0,1,0-7.431-7.431A7.439,7.439,0,0,0,4034.161,3897.73Zm0-11.147a3.715,3.715,0,1,1-3.716,3.716A3.72,3.72,0,0,1,4034.161,3886.584Z" transform="translate(-4021.044 -3882.868)" fill="#01675b"/>
      <path id="Path_1695" data-name="Path 1695" d="M3985.549,4082.2h-.52a3.691,3.691,0,0,0-3.159,1.76l-3.232,5.221-3.232-5.221a3.693,3.693,0,0,0-3.16-1.76h-.52a6.213,6.213,0,0,0-6.206,6.206v23.764a6.215,6.215,0,0,0,5.508,6.167l1.424,17.149a6.206,6.206,0,0,0,12.37,0l1.424-17.149a6.215,6.215,0,0,0,5.508-6.167v-23.764A6.213,6.213,0,0,0,3985.549,4082.2Zm2.49,29.97a2.493,2.493,0,0,1-2.49,2.49h-1.016a1.857,1.857,0,0,0-1.851,1.7l-1.562,18.814a2.49,2.49,0,0,1-4.963,0l-1.562-18.814a1.858,1.858,0,0,0-1.852-1.7h-1.016a2.493,2.493,0,0,1-2.49-2.49v-23.764a2.493,2.493,0,0,1,2.49-2.49h.52l4.812,7.773a1.859,1.859,0,0,0,3.16,0l4.812-7.773h.52a2.493,2.493,0,0,1,2.49,2.49Z" transform="translate(-3965.521 -4063.687)" fill="#01675b"/>
      <path id="Path_1696" data-name="Path 1696" d="M4388.43,3897.73A7.431,7.431,0,1,0,4381,3890.3,7.44,7.44,0,0,0,4388.43,3897.73Zm0-11.147a3.715,3.715,0,1,1-3.716,3.716A3.719,3.719,0,0,1,4388.43,3886.584Z" transform="translate(-4342.404 -3882.868)" fill="#01675b"/>
      <path id="Path_1697" data-name="Path 1697" d="M4313.188,4101.869l-1.424-14.084a6.189,6.189,0,0,0-6.175-5.582h-3.966a6.189,6.189,0,0,0-6.175,5.582l-1.424,14.084-6.068,11a3.715,3.715,0,0,0,3.253,5.51H4296l1.42,17.11a6.206,6.206,0,0,0,12.37,0l1.42-17.111H4316a3.715,3.715,0,0,0,3.253-5.51Zm-3.686,12.794a1.859,1.859,0,0,0-1.852,1.7l-1.562,18.815a2.491,2.491,0,0,1-4.964,0l-1.562-18.814a1.858,1.858,0,0,0-1.851-1.7h-6.5l6.253-11.332a1.88,1.88,0,0,0,.221-.711l1.462-14.462a2.483,2.483,0,0,1,2.478-2.24h3.966a2.483,2.483,0,0,1,2.478,2.24l1.462,14.462a1.863,1.863,0,0,0,.222.711l6.252,11.332Z" transform="translate(-4257.582 -4063.687)" fill="#01675b"/>
    </g>
  </g>
</svg>
