<svg xmlns="http://www.w3.org/2000/svg" width="113" height="132" viewBox="0 0 113 132">
  <g id="icon07" transform="translate(-713.142 -3220.58)">
    <rect id="Rectangle_39399" data-name="Rectangle 39399" width="113" height="132" transform="translate(713.142 3220.58)" fill="none"/>
    <g id="Group_165" data-name="Group 165" transform="translate(729.142 3244.58)">
      <path id="Path_1613" data-name="Path 1613" d="M4049.666,484.614h0l-7.938-2.4-3.95-12.017v0a6.9,6.9,0,0,0-4.976-4.545h-.006l-9.641-2.238h0a16.218,16.218,0,0,0-14.545,3.812l0,0-15.06,13.628c-.015.013-.027.027-.041.041s-.029.026-.043.04l-.049.053-.012.013a5.665,5.665,0,0,0,7.619,8.346l.014-.011.049-.038c.014-.011.026-.024.04-.036s.032-.026.048-.04l12.329-11.3-2.93,9.672h0v0h0a10.889,10.889,0,0,0-.4,4.446L3994.44,523.4h0a6.393,6.393,0,0,0,5.689,9.263,6.524,6.524,0,0,0,5.726-3.475c0-.006.006-.012.009-.018s.011-.02.017-.03l12.108-23.97,14.044,24.623q.034.061.073.118h0l.01.014c.021.032.043.063.066.093a6.4,6.4,0,0,0,5.241,2.732,6.273,6.273,0,0,0,3.155-.848,6.491,6.491,0,0,0,2.6-8.433c-.006-.013-.015-.025-.021-.038s-.012-.026-.02-.038l-14.556-25.609h0a2.14,2.14,0,0,1-.186-1.673l2.9-9.526.56,1.673c0,.006,0,.011.006.017a6.039,6.039,0,0,0,3.964,3.863l.008,0,.006,0,10.59,3.139.008,0a5.574,5.574,0,0,0,3.227-10.671ZM3999.042,528.5a2.5,2.5,0,0,1-1.113-3.352h0L4012.043,497q.238.341.5.667h0l0,0h0l2.993,3.684-13.13,25.993A2.556,2.556,0,0,1,3999.042,528.5Zm50.6-38.068a1.675,1.675,0,0,1-2.087,1.112l-.007,0-.007,0-10.578-3.135a2.134,2.134,0,0,1-1.4-1.374l0-.006v-.005l-2.5-7.463c-.006-.019-.015-.036-.021-.054-.013-.035-.026-.069-.041-.1s-.027-.057-.041-.085-.027-.055-.042-.082-.035-.061-.054-.091l-.045-.069c-.021-.03-.042-.059-.064-.087s-.034-.043-.051-.064-.045-.052-.069-.077l-.062-.064-.069-.064c-.025-.022-.049-.043-.076-.064s-.046-.035-.069-.052-.056-.04-.085-.059-.049-.031-.074-.045-.058-.034-.088-.049-.059-.029-.088-.042l-.082-.036c-.036-.015-.073-.027-.11-.04-.017-.006-.034-.013-.051-.018l-.019,0c-.042-.012-.083-.022-.125-.031l-.063-.014c-.041-.008-.083-.013-.125-.018l-.068-.009c-.038,0-.075,0-.113,0s-.054,0-.081,0-.064,0-.1.005-.065,0-.1.007-.054.008-.081.012-.074.011-.111.019l-.072.018c-.039.01-.078.02-.116.032l-.021.006c-.019.006-.036.014-.054.021-.035.013-.07.026-.1.041s-.057.026-.084.04-.056.028-.083.043-.06.035-.089.053l-.071.046c-.029.02-.057.041-.085.062s-.045.035-.066.053-.05.044-.074.066-.045.043-.067.065l-.061.066c-.023.026-.045.052-.067.079s-.033.043-.049.065-.042.059-.062.09-.028.046-.042.069-.036.062-.052.094-.026.054-.039.081-.027.059-.039.089-.025.067-.037.1-.015.038-.021.057l-4.685,15.367h0a6.061,6.061,0,0,0,.525,4.738h0l14.523,25.55a2.612,2.612,0,0,1-1.087,3.264,2.432,2.432,0,0,1-3.246-.75L4020,500.826v0a8.072,8.072,0,0,0-.641-.956l-.017-.022c-.034-.043-.067-.087-.1-.129l0,0-3.662-4.507v0l0,0a6.979,6.979,0,0,1-1.277-6.467v0l3.684-12.161h0v0s0-.007,0-.011a3.189,3.189,0,0,0-5.2-3.273l0,0,0,0-14.188,13.005a1.762,1.762,0,0,1-2.367-2.6l15-13.572,0,0,0,0a12.315,12.315,0,0,1,11.05-2.9h0l9.64,2.238h0a2.971,2.971,0,0,1,2.146,1.96v0l4.066,12.37h0v0a3.194,3.194,0,0,0,2.1,2.054h0l8.292,2.5A1.675,1.675,0,0,1,4049.641,490.434Z" transform="translate(-3973.284 -448.753)" fill="#01675b"/>
      <path id="Path_1614" data-name="Path 1614" d="M3854.124,653.018h0a3.67,3.67,0,0,0,.257-5.185v0h0L3844.2,636.638l0,0a3.675,3.675,0,0,0-5.176-.254l0,0-7.613,6.879h0a3.67,3.67,0,0,0-.257,5.185h0l10.182,11.19,0,0a3.645,3.645,0,0,0,2.534,1.2q.093,0,.186,0a3.644,3.644,0,0,0,2.456-.947l0,0Zm-9.769,4.5a.457.457,0,0,1-.645-.032h0l0,0-10.178-11.187h0a.456.456,0,0,1,.032-.645l2.839-2.565,3.942,4.394a2.5,2.5,0,0,0,2.852,3.082l3.967,4.422-2.8,2.533h0Zm-3.183-18.746h0a.458.458,0,0,1,.646.032h0v0L3852,649.988h0a.456.456,0,0,1-.032.645h0l-2.934,2.651-3.911-4.36a2.5,2.5,0,0,0-3-3.248l-3.848-4.29Z" transform="translate(-3830.196 -601.397)" fill="#01675b"/>
      <path id="Path_1615" data-name="Path 1615" d="M4272.949,353.03a7.082,7.082,0,1,0-7.082-7.082A7.09,7.09,0,0,0,4272.949,353.03Zm0-10.261a3.18,3.18,0,1,1-3.18,3.179A3.183,3.183,0,0,1,4272.949,342.768Z" transform="translate(-4215.862 -338.866)" fill="#01675b"/>
    </g>
  </g>
</svg>
