<svg xmlns="http://www.w3.org/2000/svg" width="113.067" height="132" viewBox="0 0 113.067 132">
  <g id="icon25" transform="translate(-713.142 -3220.58)">
    <rect id="Rectangle_39399" data-name="Rectangle 39399" width="113" height="132" transform="translate(713.142 3220.58)" fill="none"/>
    <g id="Group_67351" data-name="Group 67351" transform="translate(713.142 3224.58)">
      <path id="楕円形_1393" data-name="楕円形 1393" d="M4.282-6.75A11.032,11.032,0,1,1-6.75,4.282,11.044,11.044,0,0,1,4.282-6.75Zm0,18.224A7.192,7.192,0,1,0-2.91,4.282,7.2,7.2,0,0,0,4.282,11.474Z" transform="translate(52.252 72.549)" fill="#01675b"/>
      <path id="楕円形_1394" data-name="楕円形 1394" d="M4.282-6.75A11.032,11.032,0,1,1-6.75,4.282,11.044,11.044,0,0,1,4.282-6.75Zm0,18.224A7.192,7.192,0,1,0-2.91,4.282,7.2,7.2,0,0,0,4.282,11.474Z" transform="translate(8.708 72.549)" fill="#01675b"/>
      <path id="パス_229109" data-name="パス 229109" d="M95.94,359.679a1.92,1.92,0,0,1-1.92-1.92A3.164,3.164,0,0,0,90.86,354.6H82.012a1.92,1.92,0,0,1-1.358-.562L68.572,341.955a1.92,1.92,0,0,1,2.715-2.715l11.519,11.519H90.86a7.009,7.009,0,0,1,7,7A1.92,1.92,0,0,1,95.94,359.679Z" transform="translate(-48.664 -242.34)" fill="#01675b"/>
      <path id="線_338" data-name="線 338" d="M5.042,6.962A1.914,1.914,0,0,1,3.685,6.4L-6.188-3.472a1.92,1.92,0,0,1,0-2.715,1.92,1.92,0,0,1,2.715,0L6.4,3.685A1.92,1.92,0,0,1,5.042,6.962Z" transform="translate(18.91 110.272)" fill="#01675b"/>
      <path id="パス_229110" data-name="パス 229110" d="M1.92,356.37A1.92,1.92,0,0,1,0,354.449v-15.86a12.99,12.99,0,0,1,22.7-8.627,1.92,1.92,0,0,1-2.87,2.551A9.15,9.15,0,0,0,3.84,338.589v15.86A1.92,1.92,0,0,1,1.92,356.37Z" transform="translate(0 -232.982)" fill="#01675b"/>
      <path id="線_339" data-name="線 339" d="M64.725-2.91H-4.83A1.92,1.92,0,0,1-6.75-4.83,1.92,1.92,0,0,1-4.83-6.75H64.725a1.92,1.92,0,0,1,1.92,1.92A1.92,1.92,0,0,1,64.725-2.91Z" transform="translate(26.097 126.298)" fill="#01675b"/>
      <path id="楕円形_1395" data-name="楕円形 1395" d="M4.282-6.75A11.032,11.032,0,1,1-6.75,4.282,11.044,11.044,0,0,1,4.282-6.75Zm0,18.224A7.192,7.192,0,1,0-2.91,4.282,7.2,7.2,0,0,0,4.282,11.474Z" transform="translate(95.796 72.549)" fill="#01675b"/>
      <path id="パス_229111" data-name="パス 229111" d="M226.464,359.679a1.92,1.92,0,0,1-1.92-1.92,7.009,7.009,0,0,1,7-7H239.6l11.519-11.519a1.92,1.92,0,1,1,2.715,2.715L241.75,354.036a1.92,1.92,0,0,1-1.358.562h-8.848a3.164,3.164,0,0,0-3.161,3.161A1.92,1.92,0,0,1,226.464,359.679Z" transform="translate(-160.672 -242.34)" fill="#01675b"/>
      <path id="線_340" data-name="線 340" d="M-4.83,6.962A1.914,1.914,0,0,1-6.188,6.4a1.92,1.92,0,0,1,0-2.715L3.685-6.188a1.92,1.92,0,0,1,2.715,0,1.92,1.92,0,0,1,0,2.715L-3.472,6.4A1.914,1.914,0,0,1-4.83,6.962Z" transform="translate(93.945 110.272)" fill="#01675b"/>
      <path id="パス_229112" data-name="パス 229112" d="M337.246,356.37a1.92,1.92,0,0,1-1.92-1.92v-15.86a9.15,9.15,0,0,0-15.992-6.076,1.92,1.92,0,1,1-2.87-2.551,12.99,12.99,0,0,1,22.7,8.627v15.86A1.92,1.92,0,0,1,337.246,356.37Z" transform="translate(-226.098 -232.982)" fill="#01675b"/>
      <path id="パス_229113" data-name="パス 229113" d="M166.79,336.1a1.92,1.92,0,0,1-1.744-1.115,17.795,17.795,0,0,0-32.313,0,1.92,1.92,0,1,1-3.485-1.612,21.635,21.635,0,0,1,39.284,0,1.921,1.921,0,0,1-1.741,2.727Z" transform="translate(-92.355 -229.552)" fill="#01675b"/>
      <path id="パス_229114" data-name="パス 229114" d="M160.588,80.544h22.125a19.406,19.406,0,0,1,0,38.812h-.253v8.137a1.92,1.92,0,0,1-3.278,1.358l-9.495-9.494h-9.1a19.406,19.406,0,1,1,0-38.812Zm22.125,34.972a15.566,15.566,0,0,0,0-31.132H160.588a15.566,15.566,0,1,0,0,31.132h9.9a1.92,1.92,0,0,1,1.358.562l6.779,6.779v-5.421a1.92,1.92,0,0,1,1.92-1.92Z" transform="translate(-101.023 -57.633)" fill="#01675b"/>
      <path id="パス_229115" data-name="パス 229115" d="M28.625,48.869a1.92,1.92,0,0,1-1.92-1.92V38.812h-.253A19.406,19.406,0,0,1,26.453,0H48.578A19.428,19.428,0,0,1,67.984,19.406a1.92,1.92,0,1,1-3.84,0A15.584,15.584,0,0,0,48.578,3.84H26.453a15.566,15.566,0,0,0,0,31.132h2.173a1.92,1.92,0,0,1,1.92,1.92v5.421l6.779-6.779a1.92,1.92,0,0,1,1.358-.562h2.941a1.92,1.92,0,0,1,0,3.84H39.478l-9.495,9.494A1.92,1.92,0,0,1,28.625,48.869Z" transform="translate(-5.042)" fill="#01675b"/>
    </g>
  </g>
</svg>
