<svg xmlns="http://www.w3.org/2000/svg" width="113" height="132" viewBox="0 0 113 132">
  <g id="icon18" transform="translate(-713.142 -3220.58)">
    <rect id="Rectangle_39399" data-name="Rectangle 39399" width="113" height="132" transform="translate(713.142 3220.58)" fill="none"/>
    <g id="_18" data-name="18" transform="translate(243.901 1737.9)">
      <path id="Path_9206" data-name="Path 9206" d="M498.8,78.88a11.6,11.6,0,1,0-11.6-11.6,11.612,11.612,0,0,0,11.6,11.6m0-18.56a6.96,6.96,0,1,1-6.96,6.96,6.968,6.968,0,0,1,6.96-6.96" transform="translate(52 1454)" fill="#01675b"/>
      <path id="Path_9207" data-name="Path 9207" d="M480.24,102.08a2.319,2.319,0,0,0,2.32-2.32V95.12a6.968,6.968,0,0,1,6.96-6.96h18.56a6.968,6.968,0,0,1,6.96,6.96v13.92a6.968,6.968,0,0,1-6.96,6.96H494.16a2.32,2.32,0,1,1,0-4.64h11.6a4.643,4.643,0,0,0,4.64-4.64V97.44a2.32,2.32,0,1,0-4.64,0v9.28h-11.6a6.96,6.96,0,0,0,0,13.92h13.92a11.611,11.611,0,0,0,11.6-11.6V95.12a11.612,11.612,0,0,0-11.6-11.6H489.52a11.612,11.612,0,0,0-11.6,11.6v4.64a2.319,2.319,0,0,0,2.32,2.32" transform="translate(52 1454)" fill="#01675b"/>
      <path id="Path_9208" data-name="Path 9208" d="M522,129.92H495.031a4.608,4.608,0,0,0-.472-2.075l-1.681-3.353a6.918,6.918,0,0,0-6.226-3.852h-7.315l-5.182-18.148a6.987,6.987,0,0,0-6.693-5.052H429.173a5.8,5.8,0,0,0-5.574,7.395l7.046,24.673c.043.15.144.267.2.412H424.56a2.32,2.32,0,1,0,0,4.64H522a2.32,2.32,0,1,0,0-4.64m-55.68,0H437.338a2.332,2.332,0,0,1-2.229-1.686l-7.051-24.677a1.161,1.161,0,0,1,1.115-1.477h38.289a2.332,2.332,0,0,1,2.229,1.686l7.051,24.677a1.157,1.157,0,0,1-1.115,1.477Zm23.2,0H481.3a5.756,5.756,0,0,0-.1-2.75v0l-.539-1.885h5.99a2.3,2.3,0,0,1,2.075,1.282l1.681,3.358Z" transform="translate(52 1454)" fill="#01675b"/>
      <path id="Path_9209" data-name="Path 9209" d="M452.4,111.36h-4.64a2.32,2.32,0,1,0,0,4.64h4.64a2.32,2.32,0,1,0,0-4.64" transform="translate(52 1454)" fill="#01675b"/>
    </g>
  </g>
</svg>
