<svg xmlns="http://www.w3.org/2000/svg" xmlns:xlink="http://www.w3.org/1999/xlink" width="113" height="132.666" viewBox="0 0 113 132.666">
  <defs>
    <clipPath id="clip-path">
      <rect id="Rectangle_39163" data-name="Rectangle 39163" width="91.953" height="45.476" fill="#01675b" stroke="#01675b" stroke-width="1"/>
    </clipPath>
  </defs>
  <g id="icon20" transform="translate(-713.142 -3220.08)">
    <rect id="Rectangle_39399" data-name="Rectangle 39399" width="113" height="132" transform="translate(713.142 3220.58)" fill="none"/>
    <g id="_20" data-name="20" transform="translate(363.311 -2124.659)">
      <g id="Group_67365" data-name="Group 67365" transform="matrix(0.777, -0.629, 0.629, 0.777, 355.831, 5442.063)">
        <g id="Group_67364" data-name="Group 67364" clip-path="url(#clip-path)">
          <path id="Path_229113" data-name="Path 229113" d="M84.108,45.476H45.382a14.946,14.946,0,0,1-8.607-2.711L14.068,26.887H4.544A4.549,4.549,0,0,1,0,22.342V4.544A4.549,4.549,0,0,1,4.544,0H36.3a8.853,8.853,0,0,1,5.21,1.682c3.619,2.611,9.406,7.2,14.511,11.251,3.24,2.57,6.3,5,8.405,6.6,4.122,3.141,4.689,7.2,3.462,10.253H84.108a7.844,7.844,0,0,1,0,15.689M4.544,2.893A1.653,1.653,0,0,0,2.893,4.544v17.8a1.653,1.653,0,0,0,1.651,1.651h9.979a1.446,1.446,0,0,1,.829.261L38.433,40.4a12.068,12.068,0,0,0,6.949,2.189H84.108a4.952,4.952,0,0,0,0-9.9H65.876a8.19,8.19,0,0,1-4.131,2.028,9.992,9.992,0,0,1-7.2-1.672A179.776,179.776,0,0,1,39.471,21.55a1.446,1.446,0,0,1,1.872-2.206,180.572,180.572,0,0,0,14.77,11.261c3.744,2.415,7.057,1.224,8.551-.9,1.444-2.058,1.388-5.288-1.994-7.865-2.127-1.621-5.2-4.057-8.45-6.636C49.138,11.168,43.38,6.6,39.814,4.028A5.979,5.979,0,0,0,36.3,2.893Z" fill="#01675b" stroke="#01675b" stroke-width="1"/>
        </g>
      </g>
      <path id="Path_229114" data-name="Path 229114" d="M13077.365,17252.17h-26.677a3.911,3.911,0,0,1-3.905-3.9v-23.176l-3.176,3.352a2.671,2.671,0,0,1-3.878-3.674l27.428-28.949a4.692,4.692,0,0,1,6.834,0l5.086,5.367v-6.516a2.673,2.673,0,0,1,2.671-2.674h9.956a2.673,2.673,0,0,1,2.672,2.674v18.684a2.671,2.671,0,0,1-1.5,2.4l8.539,9.014a2.672,2.672,0,0,1-3.88,3.674l-3.174-3.352v23.176a3.907,3.907,0,0,1-3.9,3.9Zm11.657-5.338v-23.707a2.671,2.671,0,0,1,1.3-2.295l-19.747-20.854-19.752,20.854a2.671,2.671,0,0,1,1.3,2.295v23.707h9.474v-9.785a9.219,9.219,0,0,1,18.438,0v9.785Zm-22.08-9.785v9.779h7.752v-9.779a3.876,3.876,0,1,0-7.752,0Zm22.1-25.34v-14.363h-4.624v5.5a2.667,2.667,0,0,1-1.5,2.4Z" transform="translate(-12663.18 -11846.762)" fill="#01675b" stroke="#fafdfc" stroke-linecap="round" stroke-width="1"/>
    </g>
  </g>
</svg>
