<svg xmlns="http://www.w3.org/2000/svg" width="113" height="132" viewBox="0 0 113 132">
  <g id="icon21" transform="translate(-713.142 -3220.58)">
    <rect id="Rectangle_39399" data-name="Rectangle 39399" width="113" height="132" transform="translate(713.142 3220.58)" fill="none"/>
    <g id="_21" data-name="21" transform="translate(-306.638 -1589.924)">
      <path id="Path_229112" data-name="Path 229112" d="M13332.642,17002.855a5.257,5.257,0,0,1-5.253-5.248v-42.941l-6.7,7.066a3.293,3.293,0,1,1-4.783-4.527l11.414-12.045c.127.121.254.242.383.363a26.877,26.877,0,1,1,40.23-35.242,6.656,6.656,0,0,1,1.052.895l9.733,10.283V16908.7a3.293,3.293,0,0,1,3.294-3.285h15.84a3.287,3.287,0,0,1,3.281,3.285v29.7a3.3,3.3,0,0,1-3.238,3.295l14.688,15.506a3.317,3.317,0,0,1-.128,4.66,3.29,3.29,0,0,1-4.651-.129l-6.7-7.066v42.941a5.255,5.255,0,0,1-5.244,5.248Zm-1.464-52.182a3.306,3.306,0,0,1,2.791,3.25v42.352h60.563v-42.352a3.3,3.3,0,0,1,.8-2.154,3.336,3.336,0,0,1,2-1.1l-24.427-25.783c.012.328.019.654.019.986a26.884,26.884,0,0,1-40.312,23.281Zm-6.008-24.8a20.877,20.877,0,1,0,20.875-20.875A20.9,20.9,0,0,0,13325.17,16925.877Zm2.769,19.859-.028-.025Zm-.124-.113-.066-.062Zm57.492-23.934a3.3,3.3,0,0,1-3.256,3.291l12.512,13.2v-26.187h-9.256Zm-33.715,40.91a3.07,3.07,0,1,1,0-6.08h25.116a3.071,3.071,0,1,1,0,6.08Z" transform="translate(-12288.233 -12074.498)" fill="#01675b" stroke="#fafdfc" stroke-width="2"/>
      <path id="Path_229111" data-name="Path 229111" d="M13322.71,16925.088v-5.539h-5.667a2.026,2.026,0,1,1,0-4.053h5.667v-3.066h-5.667a2.026,2.026,0,1,1,0-4.053h5.667v-.18l-6.287-5.67a2.007,2.007,0,0,1-.667-1.385,2.026,2.026,0,0,1,3.382-1.619l5.6,5.051,5.587-5.051a2.028,2.028,0,0,1,3.386,1.619,1.991,1.991,0,0,1-.667,1.385l-6.279,5.67v.18h5.663a2.026,2.026,0,1,1,0,4.053h-5.663v3.066h5.663a2.026,2.026,0,1,1,0,4.053h-5.663v5.539a2.026,2.026,0,1,1-4.053,0Z" transform="translate(-12267.126 -12060.09)" fill="#01675b"/>
    </g>
  </g>
</svg>
