<svg xmlns="http://www.w3.org/2000/svg" width="113" height="132" viewBox="0 0 113 132">
  <g id="icon10" transform="translate(-713.142 -3220.58)">
    <rect id="Rectangle_39399" data-name="Rectangle 39399" width="113" height="132" transform="translate(713.142 3220.58)" fill="none"/>
    <g id="_10" data-name="10" transform="translate(499.164 3035.58)">
      <g id="Group_67396" data-name="Group 67396" transform="translate(230.978 210)">
        <path id="Union_97" data-name="Union 97" d="M24.146,61.467C18.479,63.456,13.2,64.642,9.024,64.642,5.1,64.642,2.155,63.6.768,61.19c-2.034-3.524-.009-8.74,5.859-15.08A68.627,68.627,0,0,1,12.2,40.778C3.381,33.193-2.1,25.363.768,20.4c1.322-2.292,4.1-3.455,8.27-3.455,4.054,0,9.3,1.128,15.111,3.166C26.3,8.668,30.341,0,36.072,0S45.839,8.661,48,20.095c5.757-2.02,10.942-3.134,15-3.153a8.178,8.178,0,1,1,7.181,12.451c-2.045,3.507-5.6,7.441-10.227,11.42C68.766,48.4,74.243,56.227,71.379,61.19c-1.323,2.294-4.106,3.456-8.27,3.456-4.054,0-9.3-1.128-15.111-3.166C45.843,72.92,41.806,81.588,36.072,81.588S26.3,72.915,24.146,61.467ZM36.072,78.328c3.274,0,6.806-7.026,8.82-18-2.86-1.121-5.824-2.44-8.828-3.935-2.943,1.459-5.911,2.782-8.814,3.92C29.265,71.3,32.8,78.328,36.072,78.328Zm-27.055-30c-4.525,4.891-6.606,9.2-5.429,11.236,1.639,2.839,9.49,2.383,20-1.362-.467-3.088-.806-6.325-1.015-9.607-2.747-1.829-5.386-3.748-7.832-5.7A66.3,66.3,0,0,0,9.018,48.325ZM63.109,61.388c2.834,0,4.768-.648,5.447-1.826,1.637-2.837-2.675-9.406-11.159-16.636-2.4,1.913-5.024,3.821-7.83,5.68-.209,3.291-.55,6.535-1.02,9.629C54.2,60.263,59.258,61.388,63.109,61.388Zm-17.678-4.34c.289-1.984.53-4.074.714-6.255q-1.572.97-3.2,1.91t-3.27,1.823C41.629,55.451,43.555,56.295,45.432,57.048ZM26.71,57.021c1.854-.739,3.777-1.573,5.746-2.5Q30.83,53.645,29.2,52.7q-1.611-.93-3.2-1.914C26.183,52.96,26.422,55.044,26.71,57.021Zm4.12-7.141q2.625,1.516,5.239,2.863,2.587-1.332,5.247-2.863,2.619-1.515,5.1-3.112.142-2.9.146-5.974c0-2.044-.051-4.039-.146-5.974q-2.442-1.576-5.1-3.112c-1.75-1.012-3.5-1.968-5.24-2.865-1.744.9-3.5,1.854-5.246,2.865s-3.45,2.047-5.1,3.106q-.144,2.906-.146,5.979t.146,5.974Q28.175,48.343,30.83,49.881Zm18.985-9.086c0,1.241-.02,2.489-.057,3.735C51.53,43.3,53.22,42.053,54.81,40.8c-1.571-1.241-3.258-2.494-5.051-3.74C49.8,38.308,49.815,39.554,49.815,40.795ZM22.387,44.526c-.037-1.245-.057-2.491-.057-3.731s.02-2.5.058-3.746q-2.662,1.841-5.061,3.729C18.9,42.021,20.592,43.276,22.387,44.526Zm35.007-5.832a50.115,50.115,0,0,0,9.357-9.959,8.192,8.192,0,0,1-4.9-8.5,50.157,50.157,0,0,0-13.3,3.129c.469,3.095.81,6.339,1.018,9.631C52.313,34.824,54.949,36.741,57.394,38.694ZM3.589,22.027c-1.637,2.837,2.674,9.405,11.16,16.638,2.41-1.925,5.037-3.832,7.83-5.682.208-3.291.549-6.535,1.019-9.63C17.948,21.326,12.888,20.2,9.037,20.2,6.2,20.2,4.269,20.851,3.589,22.027Zm39.355,6.858q1.611.93,3.2,1.914c-.184-2.177-.424-4.265-.712-6.247-1.876.752-3.8,1.593-5.749,2.513Q41.313,27.943,42.944,28.886ZM26,30.795q1.573-.97,3.2-1.909t3.267-1.825c-1.954-.924-3.878-1.767-5.753-2.52C26.425,26.525,26.185,28.615,26,30.795Zm43.967-4.659a4.921,4.921,0,1,0-.593-.036l.086.01C69.627,26.126,69.8,26.136,69.968,26.136Zm-33.9-.945c3.009-1.5,5.971-2.821,8.822-3.94C42.875,10.281,39.346,3.261,36.072,3.261s-6.8,7.025-8.819,18C30.11,22.381,33.069,23.7,36.068,25.19Zm-3.595,15.6a3.6,3.6,0,1,1,3.6,3.6A3.6,3.6,0,0,1,32.474,40.795Z" fill="#01675b"/>
      </g>
    </g>
  </g>
</svg>
