<svg xmlns="http://www.w3.org/2000/svg" width="113" height="132" viewBox="0 0 113 132">
  <g id="icon11" transform="translate(-713.142 -3220.58)">
    <rect id="Rectangle_39399" data-name="Rectangle 39399" width="113" height="132" transform="translate(713.142 3220.58)" fill="none"/>
    <g id="_11" data-name="11" transform="translate(719.142 3237.58)">
      <g id="Group_2932" data-name="Group 2932" transform="translate(0 81.737)">
        <rect id="Rectangle_1492" data-name="Rectangle 1492" width="4.83" height="16.464" fill="#01675b"/>
      </g>
      <g id="Group_2933" data-name="Group 2933" transform="translate(10.643 85.501)">
        <rect id="Rectangle_1493" data-name="Rectangle 1493" width="4.83" height="12.699" fill="#01675b"/>
      </g>
      <g id="Group_2934" data-name="Group 2934" transform="translate(21.286 71.781)">
        <rect id="Rectangle_1494" data-name="Rectangle 1494" width="4.83" height="26.42" fill="#01675b"/>
      </g>
      <g id="Group_2935" data-name="Group 2935" transform="translate(31.929 83.852)">
        <rect id="Rectangle_1495" data-name="Rectangle 1495" width="4.83" height="14.348" fill="#01675b"/>
      </g>
      <g id="Group_2936" data-name="Group 2936" transform="translate(42.573 84.025)">
        <rect id="Rectangle_1496" data-name="Rectangle 1496" width="4.83" height="14.176" fill="#01675b"/>
      </g>
      <g id="Group_2937" data-name="Group 2937" transform="translate(53.215 87.532)">
        <rect id="Rectangle_1497" data-name="Rectangle 1497" width="4.83" height="10.669" fill="#01675b"/>
      </g>
      <g id="Group_2938" data-name="Group 2938" transform="translate(63.858 87.532)">
        <rect id="Rectangle_1498" data-name="Rectangle 1498" width="4.83" height="10.669" fill="#01675b"/>
      </g>
      <g id="Group_2939" data-name="Group 2939" transform="translate(74.501 81.22)">
        <rect id="Rectangle_1499" data-name="Rectangle 1499" width="4.83" height="16.981" fill="#01675b"/>
      </g>
      <g id="Group_2940" data-name="Group 2940" transform="translate(85.144 72.249)">
        <rect id="Rectangle_1500" data-name="Rectangle 1500" width="4.83" height="25.952" fill="#01675b"/>
      </g>
      <g id="Group_2941" data-name="Group 2941" transform="translate(95.788 81.737)">
        <rect id="Rectangle_1501" data-name="Rectangle 1501" width="4.83" height="16.464" fill="#01675b"/>
      </g>
      <g id="Group_2942" data-name="Group 2942" transform="translate(29.764)">
        <path id="Path_3326" data-name="Path 3326" d="M182.18,93.141a20.53,20.53,0,1,1,25.253-14.582l-4.671-1.231a15.717,15.717,0,1,0-19.319,11.151Z" transform="translate(-167.021 -52.767)" fill="#01675b"/>
      </g>
      <g id="Group_2943" data-name="Group 2943" transform="translate(16.979 22.844)">
        <path id="Path_3327" data-name="Path 3327" d="M180.991,104.96a20.546,20.546,0,0,1-5.425-40.368l1.271,4.66a15.79,15.79,0,0,0-3.738,1.559,15.715,15.715,0,1,0,23.055,9.6l4.669-1.236a20.54,20.54,0,0,1-19.832,25.79Z" transform="translate(-160.403 -64.592)" fill="#01675b"/>
      </g>
      <g id="Group_2944" data-name="Group 2944" transform="translate(48.605 22.135)">
        <path id="Path_3328" data-name="Path 3328" d="M191.219,105.3a20.54,20.54,0,0,1-14.443-5.96l3.4-3.427a15.716,15.716,0,1,0,0-22.307l-3.406-3.423A20.545,20.545,0,1,1,191.219,105.3Z" transform="translate(-176.774 -64.225)" fill="#01675b"/>
      </g>
      <g id="Group_2948" data-name="Group 2948" transform="translate(59.242 31.037)">
        <g id="Group_2945" data-name="Group 2945">
          <rect id="Rectangle_1502" data-name="Rectangle 1502" width="19.454" height="4.83" fill="#01675b"/>
        </g>
        <g id="Group_2946" data-name="Group 2946" transform="translate(1.932 9.221)">
          <rect id="Rectangle_1503" data-name="Rectangle 1503" width="20.043" height="4.83" fill="#01675b"/>
        </g>
        <g id="Group_2947" data-name="Group 2947" transform="translate(0 18.442)">
          <rect id="Rectangle_1504" data-name="Rectangle 1504" width="19.543" height="4.83" fill="#01675b"/>
        </g>
      </g>
      <g id="Group_2952" data-name="Group 2952" transform="translate(25.895 36.922)">
        <g id="Group_2949" data-name="Group 2949" transform="translate(18.443 7.088)">
          <rect id="Rectangle_1505" data-name="Rectangle 1505" width="4.83" height="14.252" fill="#01675b"/>
        </g>
        <g id="Group_2950" data-name="Group 2950" transform="translate(9.222 4.873)">
          <rect id="Rectangle_1506" data-name="Rectangle 1506" width="4.83" height="18.988" fill="#01675b"/>
        </g>
        <g id="Group_2951" data-name="Group 2951">
          <rect id="Rectangle_1507" data-name="Rectangle 1507" width="4.83" height="21.429" fill="#01675b"/>
        </g>
      </g>
    </g>
  </g>
</svg>
