<svg xmlns="http://www.w3.org/2000/svg" width="113" height="132" viewBox="0 0 113 132">
  <g id="icon13" transform="translate(-713.142 -3220.58)">
    <rect id="Rectangle_39399" data-name="Rectangle 39399" width="113" height="132" transform="translate(713.142 3220.58)" fill="none"/>
    <g id="_13" data-name="13" transform="translate(725.142 3245.58)">
      <g id="Group_6781" data-name="Group 6781" transform="translate(3.25 26.938)">
        <path id="Path_4970" data-name="Path 4970" d="M211.554,415.313H164.308a7.929,7.929,0,0,1-7.92-7.922v-46.5h34.066V364.6H160.1v42.79a4.218,4.218,0,0,0,4.212,4.214h47.246a4.218,4.218,0,0,0,4.212-4.214V390.648h3.708v16.743A7.928,7.928,0,0,1,211.554,415.313Z" transform="translate(-156.388 -360.893)" fill="#01675b"/>
      </g>
      <g id="Group_6782" data-name="Group 6782" transform="translate(22.662 7.76)">
        <rect id="Rectangle_3032" data-name="Rectangle 3032" width="3.708" height="8.218" fill="#01675b"/>
      </g>
      <g id="Group_6783" data-name="Group 6783" transform="translate(32.939 7.76)">
        <rect id="Rectangle_3033" data-name="Rectangle 3033" width="3.708" height="8.218" fill="#01675b"/>
      </g>
      <g id="Group_6784" data-name="Group 6784" transform="translate(12.386 7.76)">
        <rect id="Rectangle_3034" data-name="Rectangle 3034" width="3.708" height="8.218" fill="#01675b"/>
      </g>
      <g id="Group_6785" data-name="Group 6785" transform="translate(0 14.125)">
        <path id="Path_4971" data-name="Path 4971" d="M191.513,368.774H154.2v-16.52h40.292v3.708H157.9v9.1h33.608Z" transform="translate(-154.197 -352.254)" fill="#01675b"/>
      </g>
      <g id="Group_6796" data-name="Group 6796" transform="translate(16.961 39.768)">
        <g id="Group_6788" data-name="Group 6788">
          <g id="Group_6786" data-name="Group 6786" transform="translate(0 12.526)">
            <rect id="Rectangle_3035" data-name="Rectangle 3035" width="6.585" height="3.708" fill="#01675b"/>
          </g>
          <g id="Group_6787" data-name="Group 6787">
            <rect id="Rectangle_3036" data-name="Rectangle 3036" width="6.585" height="3.708" fill="#01675b"/>
          </g>
        </g>
        <g id="Group_6789" data-name="Group 6789" transform="translate(29.079 12.526)">
          <rect id="Rectangle_3037" data-name="Rectangle 3037" width="6.584" height="3.708" fill="#01675b"/>
        </g>
        <g id="Group_6795" data-name="Group 6795">
          <g id="Group_6790" data-name="Group 6790" transform="translate(14.539 12.526)">
            <rect id="Rectangle_3038" data-name="Rectangle 3038" width="6.585" height="3.708" fill="#01675b"/>
          </g>
          <g id="Group_6791" data-name="Group 6791" transform="translate(14.539)">
            <rect id="Rectangle_3039" data-name="Rectangle 3039" width="6.585" height="3.708" fill="#01675b"/>
          </g>
          <g id="Group_6792" data-name="Group 6792" transform="translate(0 25.05)">
            <rect id="Rectangle_3040" data-name="Rectangle 3040" width="6.585" height="3.708" fill="#01675b"/>
          </g>
          <g id="Group_6793" data-name="Group 6793" transform="translate(29.079 25.05)">
            <rect id="Rectangle_3041" data-name="Rectangle 3041" width="6.584" height="3.708" fill="#01675b"/>
          </g>
          <g id="Group_6794" data-name="Group 6794" transform="translate(14.539 25.05)">
            <rect id="Rectangle_3042" data-name="Rectangle 3042" width="6.585" height="3.708" fill="#01675b"/>
          </g>
        </g>
      </g>
      <g id="Group_6804" data-name="Group 6804" transform="translate(41.101)">
        <g id="Group_6797" data-name="Group 6797" transform="translate(0 5.411)">
          <path id="Path_4972" data-name="Path 4972" d="M205.289,393.14a23.38,23.38,0,1,1,23.38-23.38A23.407,23.407,0,0,1,205.289,393.14Zm0-43.053a19.672,19.672,0,1,0,19.673,19.672A19.694,19.694,0,0,0,205.289,350.087Z" transform="translate(-181.909 -346.379)" fill="#01675b"/>
        </g>
        <g id="Group_6798" data-name="Group 6798" transform="translate(16.028)">
          <rect id="Rectangle_3043" data-name="Rectangle 3043" width="14.705" height="3.708" fill="#01675b"/>
        </g>
        <g id="Group_6799" data-name="Group 6799" transform="translate(21.527 7.265)">
          <rect id="Rectangle_3044" data-name="Rectangle 3044" width="3.708" height="6.322" fill="#01675b"/>
        </g>
        <g id="Group_6800" data-name="Group 6800" transform="translate(1.854 26.937)">
          <rect id="Rectangle_3045" data-name="Rectangle 3045" width="6.322" height="3.708" fill="#01675b"/>
        </g>
        <g id="Group_6801" data-name="Group 6801" transform="translate(21.527 43.996)">
          <rect id="Rectangle_3046" data-name="Rectangle 3046" width="3.708" height="6.322" fill="#01675b"/>
        </g>
        <g id="Group_6802" data-name="Group 6802" transform="translate(38.585 26.937)">
          <rect id="Rectangle_3047" data-name="Rectangle 3047" width="6.322" height="3.708" fill="#01675b"/>
        </g>
        <g id="Group_6803" data-name="Group 6803" transform="translate(21.527 17.243)">
          <path id="Path_4973" data-name="Path 4973" d="M203.369,371.287l-6.946-4.357V354.356h3.708v10.523l5.208,3.268Z" transform="translate(-196.423 -354.356)" fill="#01675b"/>
        </g>
      </g>
    </g>
  </g>
</svg>
