<svg xmlns="http://www.w3.org/2000/svg" xmlns:xlink="http://www.w3.org/1999/xlink" width="113" height="132" viewBox="0 0 113 132">
  <defs>
    <clipPath id="clip-path">
      <rect id="Rectangle_3932" data-name="Rectangle 3932" width="74" height="105.488" fill="#01675b" stroke="#01675b" stroke-width="1"/>
    </clipPath>
  </defs>
  <g id="icon22" transform="translate(-713.142 -3220.58)">
    <rect id="Rectangle_39399" data-name="Rectangle 39399" width="113" height="132" transform="translate(713.142 3220.58)" fill="none"/>
    <g id="_22" data-name="22" transform="translate(732.142 3233.58)" clip-path="url(#clip-path)">
      <path id="Path_2535" data-name="Path 2535" d="M74,76.6a15.491,15.491,0,0,0-4.028-10.431V17.6c0-.059,0-.117-.009-.175s-.012-.091-.021-.137c0-.011,0-.022-.005-.033-.011-.053-.024-.1-.039-.155a.1.1,0,0,0,0-.011c-.015-.05-.033-.1-.053-.147,0,0,0-.01-.005-.014-.018-.042-.038-.083-.059-.124-.005-.01-.01-.021-.015-.031-.017-.031-.036-.06-.054-.09A1.744,1.744,0,0,0,69.5,16.4c-.012-.012-.023-.026-.035-.038l-.005-.006L53.412.5c-.021-.021-.044-.039-.066-.059s-.037-.034-.056-.05-.039-.029-.058-.043-.052-.04-.079-.058L53.106.265c-.033-.02-.066-.041-.1-.06L52.971.189c-.039-.02-.079-.039-.12-.056L52.826.123c-.044-.017-.089-.034-.134-.048L52.665.069c-.045-.013-.091-.025-.137-.034L52.477.027C52.438.02,52.4.014,52.36.01Q52.274,0,52.187,0H1.742A1.742,1.742,0,0,0,0,1.743V83.575a1.742,1.742,0,0,0,1.742,1.742H45.574A15.68,15.68,0,0,0,49.072,89v14.747A1.742,1.742,0,0,0,52,105.026l6.454-5.957,6.453,5.957a1.742,1.742,0,0,0,2.923-1.28V89A15.534,15.534,0,0,0,74,76.6M58.449,88.672A12.068,12.068,0,1,1,70.517,76.6,12.081,12.081,0,0,1,58.449,88.672M53.929,5.913,63.99,15.856H53.929ZM3.483,81.833V3.484H50.445V17.6a1.742,1.742,0,0,0,1.742,1.742h14.3V63.3A15.546,15.546,0,0,0,43.8,81.833ZM64.342,99.768l-4.711-4.349a1.743,1.743,0,0,0-2.363,0l-4.713,4.35V90.992a15.512,15.512,0,0,0,11.787,0Z" transform="translate(0 -0.001)" fill="#01675b" stroke="#01675b" stroke-width="1"/>
      <path id="Path_2536" data-name="Path 2536" d="M250.925,332.1l-8.486,8.486-2.348-2.348a1.741,1.741,0,1,0-2.463,2.463l3.58,3.58a1.741,1.741,0,0,0,2.463,0l9.718-9.718a1.741,1.741,0,1,0-2.463-2.463" transform="translate(-187.059 -261.587)" fill="#01675b" stroke="#01675b" stroke-width="1"/>
      <path id="Path_2537" data-name="Path 2537" d="M67.592,105a1.742,1.742,0,0,0-1.742-1.742h-20.8a1.742,1.742,0,1,0,0,3.483h20.8A1.742,1.742,0,0,0,67.592,105" transform="translate(-34.164 -81.458)" fill="#01675b" stroke="#01675b" stroke-width="1"/>
      <path id="Path_2538" data-name="Path 2538" d="M62.106,163.144a1.742,1.742,0,0,0,1.742,1.742h40.266a1.742,1.742,0,1,0,0-3.483H63.848a1.742,1.742,0,0,0-1.742,1.742" transform="translate(-48.995 -127.328)" fill="#01675b" stroke="#01675b" stroke-width="1"/>
      <path id="Path_2539" data-name="Path 2539" d="M93.256,224.389H63.848a1.742,1.742,0,0,0,0,3.483H93.256a1.742,1.742,0,0,0,0-3.483" transform="translate(-48.995 -177.018)" fill="#01675b" stroke="#01675b" stroke-width="1"/>
      <path id="Path_2540" data-name="Path 2540" d="M84.049,287.378h-20.2a1.742,1.742,0,1,0,0,3.483h20.2a1.742,1.742,0,0,0,0-3.483" transform="translate(-48.995 -226.709)" fill="#01675b" stroke="#01675b" stroke-width="1"/>
    </g>
  </g>
</svg>
