<svg xmlns="http://www.w3.org/2000/svg" xmlns:xlink="http://www.w3.org/1999/xlink" width="113" height="132" viewBox="0 0 113 132">
  <defs>
    <clipPath id="clip-path">
      <rect id="Rectangle_39126" data-name="Rectangle 39126" width="81.131" height="81.137" fill="#01675b" stroke="#01675b" stroke-linecap="round" stroke-linejoin="round" stroke-width="1"/>
    </clipPath>
  </defs>
  <g id="icon17" transform="translate(-713.142 -3220.58)">
    <rect id="Rectangle_39399" data-name="Rectangle 39399" width="113" height="132" transform="translate(713.142 3220.58)" fill="none"/>
    <g id="_17" data-name="17" transform="translate(728.142 3246.58)">
      <g id="Group_67335" data-name="Group 67335" clip-path="url(#clip-path)">
        <path id="Path_229087" data-name="Path 229087" d="M64.232,30.429a1.07,1.07,0,0,1-.772-1.811,14.554,14.554,0,0,0,3.3-5.078,10.516,10.516,0,0,0,.543-2.884,4.2,4.2,0,0,1-3.389.917,4.5,4.5,0,0,1-3.916-4.424,4.413,4.413,0,0,1,1.781-3.354,4.294,4.294,0,0,1,3.608-.8,4.593,4.593,0,0,1,2.25,1.3c.043-.582.058-1.144.064-1.655a19.732,19.732,0,0,0-1.764-8.427,1.07,1.07,0,0,1,1.943-.9,21.893,21.893,0,0,1,1.96,9.346,17.824,17.824,0,0,1-.614,4.916,13.307,13.307,0,0,1-.455,6.685A16.666,16.666,0,0,1,65,30.1a1.066,1.066,0,0,1-.771.329m.192-15.406a2.368,2.368,0,0,0-2.292,2.206,2.4,2.4,0,0,0,2.126,2.233c1.661.276,2.483-1.341,2.739-1.986a5.011,5.011,0,0,0-.389-.975,2.628,2.628,0,0,0-1.732-1.424,1.914,1.914,0,0,0-.453-.054" transform="translate(-33.663 -1.512)" fill="#01675b" stroke="#01675b" stroke-linecap="round" stroke-linejoin="round" stroke-width="1"/>
        <path id="Path_229088" data-name="Path 229088" d="M129.4,111.07c-2.3,0-3.853-2.055-4.158-4.038a4.461,4.461,0,0,1,.927-3.535,9.493,9.493,0,0,0-2.754.563,13.957,13.957,0,0,0-4.889,3.4,1.07,1.07,0,1,1-1.534-1.49,16.054,16.054,0,0,1,5.652-3.908,12.006,12.006,0,0,1,6.5-.485,16.3,16.3,0,0,1,4.74-.628,20.184,20.184,0,0,1,9.069,2.039,1.07,1.07,0,1,1-.947,1.918,17.876,17.876,0,0,0-8.1-1.817c-.5.006-1.06.022-1.634.07a4.78,4.78,0,0,1,1.327,2.389,4.654,4.654,0,0,1-.87,3.81,4.237,4.237,0,0,1-3.175,1.707c-.052,0-.1,0-.156,0m-.154-7.25a2.776,2.776,0,0,0-1.889,2.887c.166,1.082.995,2.223,2.054,2.223h.06a2.107,2.107,0,0,0,1.562-.871,2.492,2.492,0,0,0,.482-2.034,2.742,2.742,0,0,0-1.493-1.879,4.747,4.747,0,0,0-.775-.324" transform="translate(-65.475 -56.646)" fill="#01675b" stroke="#01675b" stroke-linecap="round" stroke-linejoin="round" stroke-width="1"/>
        <path id="Path_229089" data-name="Path 229089" d="M102.172,91.894a3.237,3.237,0,0,1-2.195-.86,3.5,3.5,0,0,1-.31-4.785,3.251,3.251,0,0,1,4.71-.324,3.5,3.5,0,0,1,.31,4.785h0a3.26,3.26,0,0,1-2.3,1.176c-.073,0-.147.007-.219.007m1.7-1.871h0Zm-1.69-2.818c-.025,0-.049,0-.073,0a1.137,1.137,0,0,0-.8.416,1.338,1.338,0,0,0,.113,1.831,1.112,1.112,0,0,0,.829.3,1.138,1.138,0,0,0,.8-.416,1.339,1.339,0,0,0-.113-1.831,1.119,1.119,0,0,0-.757-.3" transform="translate(-55.477 -47.732)" fill="#01675b" stroke="#01675b" stroke-linecap="round" stroke-linejoin="round" stroke-width="1"/>
        <path id="Path_229090" data-name="Path 229090" d="M146.556,75.91a3.237,3.237,0,0,1-2.195-.86,3.5,3.5,0,0,1-.31-4.785,3.251,3.251,0,0,1,4.71-.324,3.5,3.5,0,0,1,.31,4.785,3.258,3.258,0,0,1-2.3,1.176c-.074,0-.147.007-.22.007m.007-4.689-.073,0a1.138,1.138,0,0,0-.8.416,1.339,1.339,0,0,0,.113,1.831,1.1,1.1,0,0,0,.829.3,1.137,1.137,0,0,0,.8-.416,1.339,1.339,0,0,0-.113-1.831,1.116,1.116,0,0,0-.756-.3" transform="translate(-80.382 -38.764)" fill="#01675b" stroke="#01675b" stroke-linecap="round" stroke-linejoin="round" stroke-width="1"/>
        <path id="Path_229091" data-name="Path 229091" d="M173.082,6.829a3.237,3.237,0,0,1-2.195-.86,3.5,3.5,0,0,1-.31-4.785,3.252,3.252,0,0,1,4.71-.324,3.5,3.5,0,0,1,.31,4.785,3.258,3.258,0,0,1-2.3,1.176c-.073,0-.146.007-.219.007m1.7-1.871h0Zm-1.69-2.818-.073,0a1.135,1.135,0,0,0-.8.416,1.339,1.339,0,0,0,.113,1.831,1.124,1.124,0,0,0,.829.3,1.138,1.138,0,0,0,.8-.416,1.339,1.339,0,0,0-.113-1.831,1.119,1.119,0,0,0-.757-.3" transform="translate(-95.266 0)" fill="#01675b" stroke="#01675b" stroke-linecap="round" stroke-linejoin="round" stroke-width="1"/>
        <path id="Path_229092" data-name="Path 229092" d="M95.83,12.173a3.239,3.239,0,0,1-2.2-.86,3.5,3.5,0,0,1-.31-4.785,3.251,3.251,0,0,1,4.71-.324,3.5,3.5,0,0,1,.31,4.785,3.258,3.258,0,0,1-2.3,1.176c-.074,0-.147.007-.22.007m.006-4.689-.073,0a1.138,1.138,0,0,0-.8.416,1.339,1.339,0,0,0,.113,1.831,1.108,1.108,0,0,0,.83.3,1.136,1.136,0,0,0,.8-.416h0a1.338,1.338,0,0,0-.113-1.831,1.116,1.116,0,0,0-.756-.3" transform="translate(-51.918 -2.999)" fill="#01675b" stroke="#01675b" stroke-linecap="round" stroke-linejoin="round" stroke-width="1"/>
        <path id="Path_229093" data-name="Path 229093" d="M107.586,52.706a1.07,1.07,0,0,1-.846-.415l-2.179-2.818a.614.614,0,0,0-.531-.248l-3.46.277a1.069,1.069,0,0,1-.993-1.633l1.894-3.035a.78.78,0,0,0,.061-.7l-1.321-3.349a1.07,1.07,0,0,1,1.285-1.422l3.35.943a.6.6,0,0,0,.555-.135l2.643-2.346a1.07,1.07,0,0,1,1.779.748L110,42.192a.732.732,0,0,0,.322.583h0l2.955,1.9a1.07,1.07,0,0,1-.182,1.894l-3.241,1.293a.7.7,0,0,0-.408.5l-.817,3.52a1.069,1.069,0,0,1-1.042.828m-3.51-5.622a2.751,2.751,0,0,1,2.177,1.08l.8,1.035.308-1.325a2.835,2.835,0,0,1,1.7-2l1.311-.523-1.207-.775a2.872,2.872,0,0,1-1.3-2.279l-.068-1.387-.973.864a2.72,2.72,0,0,1-2.555.594l-1.274-.358.53,1.343a2.926,2.926,0,0,1-.237,2.615l-.769,1.233,1.343-.108c.073-.006.145-.009.218-.009" transform="translate(-55.784 -21.074)" fill="#01675b" stroke="#01675b" stroke-linecap="round" stroke-linejoin="round" stroke-width="1"/>
        <path id="Path_229094" data-name="Path 229094" d="M157.921,38.548a1.069,1.069,0,0,1-1.057-.9L156.448,35a.252.252,0,0,0-.126-.188L154,33.669a1.07,1.07,0,0,1-.036-1.9l2.282-1.23a.256.256,0,0,0,.122-.2l.322-2.658a1.07,1.07,0,0,1,1.831-.615l1.826,1.885a.171.171,0,0,0,.151.054l2.522-.5a1.07,1.07,0,0,1,1.173,1.513l-1.153,2.395a.3.3,0,0,0,0,.269l1.236,2.35a1.07,1.07,0,0,1-1.115,1.554l-2.538-.4a.168.168,0,0,0-.151.061h0l-1.758,1.953a1.071,1.071,0,0,1-.8.354m1.759-3.023h0Zm-2.872-2.86.46.226a2.385,2.385,0,0,1,1.3,1.777l.067.425.255-.284a2.3,2.3,0,0,1,2.079-.743l.428.068-.241-.459a2.447,2.447,0,0,1-.039-2.193l.223-.464-.42.083a2.3,2.3,0,0,1-2.105-.664l-.266-.274-.052.433a2.4,2.4,0,0,1-1.231,1.822Z" transform="translate(-86.078 -15.005)" fill="#01675b" stroke="#01675b" stroke-linecap="round" stroke-linejoin="round" stroke-width="1"/>
        <path id="Path_229095" data-name="Path 229095" d="M136.607,22.577A2.009,2.009,0,1,1,134.6,20.6a1.99,1.99,0,0,1,2.009,1.972" transform="translate(-74.399 -11.562)" fill="#01675b" stroke="#01675b" stroke-linecap="round" stroke-linejoin="round" stroke-width="1"/>
        <path id="Path_229096" data-name="Path 229096" d="M1.07,119.227A1.07,1.07,0,0,1,.1,117.715L22.357,68.509a1.07,1.07,0,0,1,1.744-.3L49.365,94.364a1.069,1.069,0,0,1-.3,1.706L1.537,119.119a1.07,1.07,0,0,1-.467.107m22.587-48.4L3.263,115.9,46.8,94.789Z" transform="translate(0 -38.09)" fill="#01675b" stroke="#01675b" stroke-linecap="round" stroke-linejoin="round" stroke-width="1"/>
        <path id="Path_229097" data-name="Path 229097" d="M45.333,99.456a1.066,1.066,0,0,1-.48-.115l-5.586-2.811a1.07,1.07,0,1,1,.962-1.911l5.586,2.811a1.07,1.07,0,0,1-.482,2.025" transform="translate(-21.703 -53.029)" fill="#01675b" stroke="#01675b" stroke-linecap="round" stroke-linejoin="round" stroke-width="1"/>
        <path id="Path_229098" data-name="Path 229098" d="M81.56,117.687a1.066,1.066,0,0,1-.48-.115L60.962,107.449a1.07,1.07,0,1,1,.962-1.911l20.118,10.124a1.07,1.07,0,0,1-.482,2.025" transform="translate(-33.877 -59.156)" fill="#01675b" stroke="#01675b" stroke-linecap="round" stroke-linejoin="round" stroke-width="1"/>
        <path id="Path_229099" data-name="Path 229099" d="M50.8,118a1.066,1.066,0,0,1-.48-.114l-16.854-8.477a1.07,1.07,0,1,1,.962-1.911l16.854,8.476A1.07,1.07,0,0,1,50.8,118" transform="translate(-18.446 -60.257)" fill="#01675b" stroke="#01675b" stroke-linecap="round" stroke-linejoin="round" stroke-width="1"/>
        <path id="Path_229100" data-name="Path 229100" d="M85.033,135.221a1.068,1.068,0,0,1-.48-.114l-4.892-2.461a1.07,1.07,0,1,1,.962-1.911l4.892,2.46a1.07,1.07,0,0,1-.481,2.026" transform="translate(-44.369 -73.295)" fill="#01675b" stroke="#01675b" stroke-linecap="round" stroke-linejoin="round" stroke-width="1"/>
        <path id="Path_229101" data-name="Path 229101" d="M32.285,144.188a1.064,1.064,0,0,1-.48-.114l-11.436-5.746a1.07,1.07,0,1,1,.961-1.911l11.436,5.746a1.07,1.07,0,0,1-.481,2.026" transform="translate(-11.099 -76.483)" fill="#01675b" stroke="#01675b" stroke-linecap="round" stroke-linejoin="round" stroke-width="1"/>
        <path id="Path_229102" data-name="Path 229102" d="M25.742,156.675a1.067,1.067,0,0,1-.481-.115l-10.7-5.39a1.07,1.07,0,1,1,.963-1.91l10.7,5.389a1.07,1.07,0,0,1-.482,2.025" transform="translate(-7.842 -83.69)" fill="#01675b" stroke="#01675b" stroke-linecap="round" stroke-linejoin="round" stroke-width="1"/>
      </g>
    </g>
  </g>
</svg>
