<svg xmlns="http://www.w3.org/2000/svg" width="109" height="107" viewBox="0 0 109 107">
  <g id="Group_67679" data-name="Group 67679" transform="translate(-838 -1865)">
    <rect id="Rectangle_38325" data-name="Rectangle 38325" width="109" height="107" transform="translate(838 1865)" fill="#01675b"/>
    <g id="Group_67026" data-name="Group 67026" transform="translate(849 1889.224)">
      <path id="Path_226751" data-name="Path 226751" d="M86.965,49.268H80.057V4.092A4.055,4.055,0,0,0,76.006.041H47.3c0-.014,0-.027,0-.041H45.314c0,.014,0,.027,0,.041H42.642c0-.014,0-.027,0-.041H40.655c0,.014,0,.027,0,.041h-28.7A4.055,4.055,0,0,0,7.9,4.092V49.268H1a1,1,0,0,0-1,1v1.049a7.632,7.632,0,0,0,7.623,7.623H80.337a7.632,7.632,0,0,0,7.623-7.623V50.264a1,1,0,0,0-1-1M9.9,4.092a2.062,2.062,0,0,1,2.06-2.059H76.006a2.062,2.062,0,0,1,2.06,2.059V6.763h-67.8a.993.993,0,0,0-.373.074ZM85.969,51.313a5.638,5.638,0,0,1-5.632,5.632H7.623a5.638,5.638,0,0,1-5.632-5.632v-.053H43.229l-1.406-1.991H9.9V46.684a.993.993,0,0,0,.373.074H40.049l-1.406-1.991H10.268a.993.993,0,0,0-.373.074V8.681a.992.992,0,0,0,.373.074h67.8V44.766H73.592v1.991h4.474v2.511H73.592v1.991H85.969Z" transform="translate(0 0)" fill="#fafdfc" stroke="#fafdfc" stroke-linecap="round" stroke-linejoin="round" stroke-width="1"/>
      <path id="Path_226752" data-name="Path 226752" d="M113.419,54.351a7.738,7.738,0,1,0-7.738-7.738,7.747,7.747,0,0,0,7.738,7.738m5.747-7.738a5.747,5.747,0,1,1-5.747-5.747,5.753,5.753,0,0,1,5.747,5.747" transform="translate(-53.069 -19.521)" fill="#fafdfc" stroke="#fafdfc" stroke-linecap="round" stroke-linejoin="round" stroke-width="1"/>
      <path id="Path_226753" data-name="Path 226753" d="M66.178,65.717l2.377,3.338,1.418,1.991,3.621,5.085a1,1,0,0,0,1.622-1.155l-7.65-10.743-.188-.444q-.018-.041-.039-.081A1.566,1.566,0,1,1,70.1,62.234a.964.964,0,0,0,.083.13L77.236,71.9a1,1,0,0,0,1.8-.591V67.94A5.475,5.475,0,0,1,84.5,62.471H96.062a5.475,5.475,0,0,1,5.469,5.469V81.874a1,1,0,0,0,1.991,0V67.94a7.438,7.438,0,0,0-.339-2.223l-.972-1.991a7.456,7.456,0,0,0-6.15-3.246H84.5a7.455,7.455,0,0,0-6.149,3.246l-.972,1.991a7.438,7.438,0,0,0-.338,2.223v.344l-1.9-2.567-1.471-1.991-1.457-1.973-.4-.53A3.562,3.562,0,0,0,67.942,59.5L61.449,48.9a1,1,0,0,0-1.7,1.04L66.2,60.465a3.569,3.569,0,0,0-.948,3.261Z" transform="translate(-29.931 -24.316)" fill="#fafdfc" stroke="#fafdfc" stroke-linecap="round" stroke-linejoin="round" stroke-width="1"/>
      <path id="Path_226754" data-name="Path 226754" d="M106.2,91.007a1,1,0,0,0-1.991,0v12.127a1,1,0,0,0,1.991,0V91.007Z" transform="translate(-52.33 -45.2)" fill="#fafdfc" stroke="#fafdfc" stroke-linecap="round" stroke-linejoin="round" stroke-width="1"/>
      <path id="Path_226755" data-name="Path 226755" d="M136.215,91.007a1,1,0,1,0-1.991,0v12.127a1,1,0,1,0,1.991,0V91.007Z" transform="translate(-67.402 -45.2)" fill="#fafdfc" stroke="#fafdfc" stroke-linecap="round" stroke-linejoin="round" stroke-width="1"/>
    </g>
  </g>
</svg>
