<svg xmlns="http://www.w3.org/2000/svg" width="109.3" height="107.3" viewBox="0 0 109.3 107.3">
  <g id="Group_67680" data-name="Group 67680" transform="translate(-538.85 -2219.85)">
    <rect id="Rectangle_38325" data-name="Rectangle 38325" width="109" height="107" transform="translate(539 2220)" fill="#01675b" stroke="#01675b" stroke-width="0.3"/>
    <g id="Group_67263" data-name="Group 67263" transform="translate(547.699 2231)">
      <g id="Group_67264" data-name="Group 67264" transform="translate(0)">
        <path id="パス_229078" data-name="パス 229078" d="M15.766,168.238a6.117,6.117,0,1,1-6.118,6.117A6.124,6.124,0,0,1,15.766,168.238Zm0,8.706a2.588,2.588,0,1,0-2.588-2.588A2.591,2.591,0,0,0,15.766,176.944Z" transform="translate(-6.765 -117.97)" fill="#fafdfc"/>
        <path id="パス_229080" data-name="パス 229080" d="M16.049,219.791a1.765,1.765,0,0,1-1.765-1.765c0-9.128-4.048-9.128-5.378-9.128s-5.378,0-5.378,9.128a1.765,1.765,0,0,1-3.529,0c0-11.013,5.581-12.657,8.907-12.657s8.907,1.644,8.907,12.657A1.765,1.765,0,0,1,16.049,219.791Z" transform="translate(0 -144.006)" fill="#fafdfc"/>
        <path id="パス_229082" data-name="パス 229082" d="M86.586,168.238a6.117,6.117,0,1,1-6.118,6.117A6.124,6.124,0,0,1,86.586,168.238Zm0,8.706A2.588,2.588,0,1,0,84,174.355,2.591,2.591,0,0,0,86.586,176.944Z" transform="translate(-56.425 -117.97)" fill="#fafdfc"/>
        <path id="パス_229084" data-name="パス 229084" d="M86.869,219.791a1.765,1.765,0,0,1-1.765-1.765c0-9.128-4.048-9.128-5.378-9.128s-5.378,0-5.378,9.128a1.765,1.765,0,0,1-3.529,0c0-11.013,5.58-12.657,8.907-12.657s8.907,1.644,8.907,12.657A1.765,1.765,0,0,1,86.869,219.791Z" transform="translate(-49.66 -144.006)" fill="#fafdfc"/>
        <path id="パス_229086" data-name="パス 229086" d="M157.4,168.238a6.117,6.117,0,1,1-6.118,6.117A6.124,6.124,0,0,1,157.4,168.238Zm0,8.706a2.588,2.588,0,1,0-2.588-2.588A2.591,2.591,0,0,0,157.4,176.944Z" transform="translate(-106.084 -117.97)" fill="#fafdfc"/>
        <path id="パス_229088" data-name="パス 229088" d="M157.688,219.791a1.765,1.765,0,0,1-1.765-1.765c0-9.128-4.048-9.128-5.378-9.128s-5.378,0-5.378,9.128a1.765,1.765,0,1,1-3.529,0c0-11.013,5.581-12.657,8.907-12.657s8.907,1.644,8.907,12.657A1.765,1.765,0,0,1,157.688,219.791Z" transform="translate(-99.318 -144.006)" fill="#fafdfc"/>
        <path id="楕円形_1392" data-name="楕円形 1392" d="M2.354-5.906a8.26,8.26,0,1,1-8.26,8.26A8.269,8.269,0,0,1,2.354-5.906Zm0,12.991A4.731,4.731,0,1,0-2.377,2.354,4.736,4.736,0,0,0,2.354,7.085Z" transform="translate(74.02 5.906)" fill="#fafdfc"/>
        <path id="パス_229092" data-name="パス 229092" d="M193.026,56a1.768,1.768,0,0,1,.206.012c6.326.74,9.53,4.6,10.082,12.146.769,10.514.019,15.907-.013,16.131a1.765,1.765,0,0,1-.737,1.2l-2.913,2.032-.514,28.181a1.765,1.765,0,0,1-1.764,1.733h-5.965a1.765,1.765,0,0,1-1.762-1.67l-.913-17.03-.912,17.03a1.765,1.765,0,0,1-1.762,1.67h-5.965a1.765,1.765,0,0,1-1.764-1.732L177.8,86.62c-.416-10.046-.631-16.729-.644-19.955h-11.8a5.116,5.116,0,0,1,0-10.233L184.4,56a1.766,1.766,0,0,1,1.6.931l2.738,5.109,2.739-5.11A1.765,1.765,0,0,1,193.026,56Zm-4.293,11.541a1.765,1.765,0,0,1-1.555-.931L183.4,59.556l-18,.4a1.587,1.587,0,1,0-.04,3.175h13.591a1.765,1.765,0,0,1,1.717,2.174c-.1,1.092.352,13.606.666,21.206l.5,27.389h2.56l1.057-19.726a1.765,1.765,0,0,1,1.762-1.67h3.056a1.765,1.765,0,0,1,1.762,1.67L193.08,113.9h2.559l.5-27.349a1.765,1.765,0,0,1,.755-1.415l2.995-2.089a91.035,91.035,0,0,0-.094-14.632c-.484-6.606-3.007-8.181-5.8-8.722l-3.707,6.916A1.765,1.765,0,0,1,188.733,67.544Z" transform="translate(-112.359 -39.27)" fill="#fafdfc"/>
        <path id="前面オブジェクトで型抜き_94_-_アウトライン" data-name="前面オブジェクトで型抜き 94 - アウトライン" d="M-9233.657,14986.938h-45.7a6.5,6.5,0,0,1-4.635-1.921,6.5,6.5,0,0,1-1.92-4.631v-27.74a6.51,6.51,0,0,1,1.92-4.634,6.506,6.506,0,0,1,4.635-1.919h50.395a6.565,6.565,0,0,1,3.014.733,1.761,1.761,0,0,1,.953,1.625,1.765,1.765,0,0,1-1.061,1.56,4.733,4.733,0,0,0-2.848,4.341,4.678,4.678,0,0,0,.371,1.84,4.7,4.7,0,0,0,1.015,1.506,4.744,4.744,0,0,0,1.5,1.015,4.712,4.712,0,0,0,1.842.371,1.764,1.764,0,0,1,1.764,1.765v11.752a1.762,1.762,0,0,1-1.335,1.711,1.766,1.766,0,0,1-1.985-.877l-3.78-7.055-18,.4a1.59,1.59,0,0,0-1.163.466,1.557,1.557,0,0,0-.465,1.122,1.561,1.561,0,0,0,.465,1.123,1.559,1.559,0,0,0,1.123.465h13.591a1.763,1.763,0,0,1,1.384.671,1.763,1.763,0,0,1,.333,1.5c0,.126-.058,1.847.348,12.977a1.769,1.769,0,0,1-.493,1.29A1.767,1.767,0,0,1-9233.657,14986.938Zm-45.7-37.316a3,3,0,0,0-2.139.886,3,3,0,0,0-.887,2.139v27.74a3,3,0,0,0,.886,2.136,3,3,0,0,0,2.14.888h43.866c-.189-5.387-.261-8.3-.273-9.922h-11.789a5.087,5.087,0,0,1-3.619-1.5,5.087,5.087,0,0,1-1.5-3.618,5.086,5.086,0,0,1,1.5-3.617,5.088,5.088,0,0,1,3.619-1.5l19.047-.429a1.758,1.758,0,0,1,1.595.932l.973,1.814v-3.147a8.355,8.355,0,0,1-1.451-.462,8.23,8.23,0,0,1-2.624-1.77,8.207,8.207,0,0,1-1.77-2.626,8.187,8.187,0,0,1-.649-3.215,8.262,8.262,0,0,1,1.487-4.73Z" transform="translate(9300.542 -14946.094)" fill="#fafdfc"/>
      </g>
    </g>
  </g>
</svg>
