<svg xmlns="http://www.w3.org/2000/svg" width="109" height="107" viewBox="0 0 109 107">
  <g id="Group_67676" data-name="Group 67676" transform="translate(-239 -1510)">
    <rect id="Rectangle_38325" data-name="Rectangle 38325" width="109" height="107" transform="translate(239 1510)" fill="#01675b"/>
    <g id="Group_67195" data-name="Group 67195" transform="translate(266.347 1531.084)">
      <path id="Path_1450" data-name="Path 1450" d="M1671.245,2776.418l2.719,1.218,0,0h0a2.8,2.8,0,0,0,1.138.243,2.837,2.837,0,0,0,1.088-.219,2.873,2.873,0,0,0,1.584-1.609c.005-.014.009-.028.014-.042l1.051-2.725,2.987.066h.066a2.818,2.818,0,0,0,2.006-.839,2.887,2.887,0,0,0,.839-2.1s0,0,0,0l-.065-2.959,2.762-1.066h0a2.878,2.878,0,0,0,1.588-3.834l-1.2-2.7,2.136-2.049,0,0a2.887,2.887,0,0,0,.879-2.075,2.816,2.816,0,0,0-.879-2.049l0,0-2.137-2.05,1.2-2.728a.015.015,0,0,1,0,0,2.905,2.905,0,0,0,.02-2.271,2.817,2.817,0,0,0-1.611-1.555h0l-2.762-1.066.065-2.96a.037.037,0,0,0,0,0,2.887,2.887,0,0,0-.838-2.1,2.822,2.822,0,0,0-2.077-.838h-.007l-2.975.087-1.064-2.78v0h0a2.882,2.882,0,0,0-1.583-1.615,2.8,2.8,0,0,0-2.216.047l-.005,0-2.725,1.2-2.048-2.157h0a2.9,2.9,0,0,0-2.085-.915,2.835,2.835,0,0,0-2.058.915h0l-2.048,2.157-2.72-1.2h0l0,0h0a2.8,2.8,0,0,0-3.8,1.567h0v0l-1.064,2.779-2.975-.087h-.007a2.89,2.89,0,0,0-2.1.838,2.837,2.837,0,0,0-.812,2.1.026.026,0,0,0,0,0l.065,2.959-2.761,1.065h0a2.848,2.848,0,0,0-1.641,1.556,2.905,2.905,0,0,0,.047,2.271l0,0,1.2,2.728-2.137,2.05,0,0a2.83,2.83,0,0,0-.906,2.049,2.9,2.9,0,0,0,.906,2.075l0,0,2.136,2.049-1.2,2.7h0a2.835,2.835,0,0,0-.05,2.254,2.906,2.906,0,0,0,1.639,1.581h0l2.762,1.066-.065,2.959a.026.026,0,0,0,0,0,2.836,2.836,0,0,0,.811,2.1,2.887,2.887,0,0,0,2.034.84h.066l2.987-.066,1.065,2.761h0a2.818,2.818,0,0,0,1.555,1.613,2.875,2.875,0,0,0,1.1.219,2.843,2.843,0,0,0,1.152-.242h0l2.719-1.218,2.045,2.153h0a2.818,2.818,0,0,0,2.058.888,2.887,2.887,0,0,0,2.084-.888h0Zm-11.951-1.764-1.209-3.135-.011-.024c-.011-.028-.024-.056-.037-.083s-.019-.04-.028-.059-.028-.05-.043-.075-.023-.04-.036-.059-.031-.044-.047-.065-.03-.041-.046-.06-.032-.037-.048-.055l-.056-.061-.049-.045c-.022-.02-.044-.041-.067-.06l-.049-.038c-.025-.019-.05-.037-.076-.055l-.02-.015c-.192-.123-.36-.236-.516-.344l-.02-.013-.08-.049-.055-.031c-.025-.014-.052-.026-.078-.039l-.064-.029-.072-.027c-.025-.009-.05-.018-.075-.026l-.065-.017c-.028-.008-.057-.015-.086-.02l-.06-.01c-.031,0-.063-.01-.094-.012l-.058,0c-.032,0-.064,0-.1,0h-.024l-3.379.074.075-3.378c0-.009,0-.017,0-.025,0-.03,0-.06,0-.09s0-.043,0-.065-.007-.057-.011-.086-.006-.046-.011-.068-.012-.053-.018-.079-.012-.048-.019-.072-.016-.047-.024-.07-.018-.051-.028-.076-.019-.041-.028-.062-.025-.053-.038-.078l-.033-.056c-.016-.026-.031-.052-.048-.077l-.013-.021c-.077-.111-.154-.232-.235-.36l-.1-.157a1.555,1.555,0,0,0-.85-.647l-3.058-1.18,1.361-3.068.009-.025c.012-.028.022-.057.033-.085s.015-.041.021-.061.016-.056.023-.084.011-.045.016-.067.009-.053.013-.08.008-.049.01-.073,0-.05.005-.075,0-.053,0-.08,0-.046,0-.069,0-.058-.005-.087-.006-.043-.009-.065-.009-.06-.015-.09c0-.009,0-.017,0-.026-.046-.212-.087-.42-.123-.617,0-.008,0-.015-.005-.023-.006-.03-.013-.06-.021-.089s-.01-.042-.016-.062-.018-.056-.029-.083-.015-.043-.024-.064-.022-.049-.034-.073-.021-.045-.032-.067-.025-.043-.037-.064-.027-.047-.043-.069-.026-.037-.04-.055-.035-.047-.053-.069-.029-.033-.043-.049-.041-.045-.062-.066l-.017-.018-2.426-2.327,2.426-2.327.005-.005c.036-.035.071-.071.1-.11l.01-.013c.028-.033.054-.067.079-.1.01-.014.018-.028.028-.042s.034-.053.05-.081.019-.035.028-.052.026-.05.037-.076.018-.04.026-.06.019-.049.028-.074.015-.043.021-.066.013-.048.019-.073.011-.046.016-.07,0-.017.006-.025c.036-.2.077-.4.123-.617,0-.008,0-.016,0-.024.006-.03.01-.059.015-.089s.006-.043.009-.065,0-.057.005-.086,0-.046,0-.069,0-.053,0-.079,0-.051,0-.075-.006-.048-.01-.072-.008-.055-.014-.082-.01-.043-.015-.064-.015-.058-.023-.086-.014-.04-.021-.059-.021-.059-.033-.087c0-.007-.005-.015-.009-.022l-1.364-3.1,3.144-1.213c.047-.018.093-.039.138-.061l.02-.01c.041-.021.082-.044.121-.069l.021-.013c.035-.023.07-.048.1-.074l.014-.01q.052-.041.1-.088l.025-.024c.028-.028.055-.056.081-.086l.012-.013c.027-.033.053-.067.078-.1l.023-.034.021-.03c.121-.188.234-.358.345-.518l.013-.021c.017-.025.033-.052.048-.078s.022-.037.032-.056.026-.052.039-.079.019-.041.028-.062.019-.051.028-.076.017-.047.024-.07.013-.048.019-.072.013-.052.018-.078.007-.045.011-.068.009-.057.011-.086,0-.043,0-.065,0-.061,0-.091c0-.009,0-.017,0-.025l-.075-3.376,3.368.1h.047c.047,0,.095,0,.142-.007l.035,0c.036,0,.072-.01.108-.016l.037-.007q.063-.013.124-.031l.01,0c.043-.013.086-.029.129-.046l.04-.017c.028-.012.056-.026.084-.039l.047-.025.073-.043.046-.029.018-.011c.156-.108.325-.221.516-.344l.01-.008c.041-.027.08-.055.119-.085l.007-.005c.034-.028.067-.057.1-.088l.029-.029c.025-.025.048-.05.071-.077l.026-.031c.029-.035.057-.072.083-.11l0-.006c.024-.036.047-.073.069-.112l.023-.043c.014-.026.027-.053.039-.081l.022-.051c0-.011.01-.021.014-.032l1.2-3.137,3.071,1.351h0l.012.005.019.007c.039.017.079.031.12.045l.043.013c.034.01.069.02.1.027l.047.01c.036.007.071.012.108.017l.041.005c.049,0,.1.008.148.008h0c.05,0,.1,0,.149-.008l.034,0c.05-.006.1-.013.15-.024h0c.218-.047.425-.089.615-.123l.013,0c.03-.006.059-.013.089-.021l.065-.016c.026-.008.052-.018.079-.027s.047-.016.07-.026.045-.02.067-.031l.076-.036.057-.034c.026-.016.052-.031.078-.048l.05-.037c.026-.019.052-.038.076-.059l.046-.04c.025-.022.048-.044.071-.068l.019-.018,2.322-2.445,2.322,2.445.019.019c.023.023.047.045.07.067l.047.042c.024.02.049.038.074.057s.035.026.053.038.049.031.074.046l.061.036c.023.012.047.023.072.034s.047.023.071.033.044.016.066.024.055.021.083.029l.062.015c.031.008.061.016.092.022l.013,0c.183.033.385.073.614.123h0c.049.01.1.018.148.024l.035,0c.049,0,.1.008.148.008h0c.05,0,.1,0,.147-.008l.041-.005c.036,0,.072-.01.107-.016l.047-.01c.035-.008.069-.017.1-.027l.043-.013c.04-.014.08-.029.119-.045l.019-.007.012-.006h0l3.071-1.351,1.2,3.137c0,.01.009.021.013.031s.014.034.022.051.025.054.039.08l.023.044c.021.038.043.074.067.109l0,.008c.026.039.055.075.084.111l.026.029c.023.027.047.053.072.078l.028.028c.032.031.065.061.1.089l.006.005c.039.03.078.059.119.085l.01.007c.188.121.358.235.52.346l.016.01.046.029c.024.015.048.029.072.043l.048.025c.027.014.055.027.082.039l.041.018c.042.017.085.033.128.046l.008,0c.042.012.084.023.126.032l.037.007c.036.007.071.012.107.016l.035,0c.047,0,.095.007.142.007h.047l3.368-.1-.075,3.376c0,.008,0,.017,0,.025,0,.03,0,.06,0,.091s0,.043,0,.065.007.057.011.086.006.046.011.068.012.052.018.078.012.049.019.072.016.047.024.07.018.051.028.076.019.042.028.062.025.053.039.079.021.037.032.056.031.052.048.078c0,.007.008.014.013.021.113.163.225.332.345.517.006.01.014.02.021.031l.023.033c.025.035.051.069.078.1l.013.014q.039.044.08.085l.025.024c.032.031.066.06.1.088l.014.011q.05.039.1.073l.021.014c.039.025.08.048.121.069l.02.01a1.491,1.491,0,0,0,.137.061l3.144,1.214-1.364,3.1c0,.008-.006.016-.009.024-.012.027-.022.056-.032.084s-.015.042-.022.063-.015.055-.022.083-.012.045-.016.068-.009.052-.013.078-.008.05-.01.075,0,.048,0,.073,0,.055,0,.082,0,.044,0,.067,0,.059.005.089.005.042.008.063.009.061.015.092c0,.008,0,.016,0,.024.047.216.089.423.123.617,0,.009,0,.017.006.025s.01.046.016.07.012.049.019.073.014.044.022.066.018.049.027.073.017.04.026.06.024.051.037.075.018.036.028.053.032.054.049.08l.028.043c.025.036.051.069.078.1l.011.013c.033.039.067.075.1.11l.005.005,2.426,2.327-2.426,2.327-.016.017c-.022.021-.044.044-.065.068l-.041.046c-.019.023-.037.047-.054.071s-.027.036-.039.053-.029.047-.043.07-.025.041-.037.063-.022.044-.033.067-.023.048-.033.073-.016.043-.024.064-.02.054-.028.082-.012.042-.017.063-.015.059-.021.089c0,.008,0,.016-.006.023-.033.187-.075.394-.123.616,0,.009,0,.018,0,.026-.006.03-.01.059-.015.089s-.006.043-.008.065,0,.057-.005.086,0,.046,0,.07,0,.053,0,.08,0,.05.005.075.006.049.01.073.008.054.014.08.01.044.016.066.015.057.023.085.014.041.021.061.021.057.033.086c0,.008.006.016.009.024l1.361,3.068-3.147,1.215-.024.01c-.029.012-.057.024-.085.038l-.057.028c-.026.014-.052.029-.077.044l-.057.035c-.023.015-.045.032-.068.048s-.039.028-.058.043-.039.033-.057.051-.039.035-.058.053-.032.034-.048.052-.038.042-.056.064-.027.035-.041.053-.036.048-.052.073l-.016.022c-.121.188-.233.356-.344.515l-.014.022c-.017.024-.032.05-.048.076s-.023.038-.033.057-.026.051-.038.078-.02.042-.029.063-.019.05-.028.075-.017.047-.025.071-.012.047-.018.071-.013.053-.019.079-.007.045-.011.067-.008.058-.011.087,0,.043,0,.065,0,.061,0,.091c0,.009,0,.017,0,.025l.075,3.378-3.379-.074h-.027l-.077,0c-.029,0-.058,0-.087.006l-.047.006c-.038,0-.076.01-.113.018l-.017,0a1.545,1.545,0,0,0-.57.251c-.15.1-.316.214-.506.337l-.021.015c-.026.017-.051.035-.076.054l-.05.038c-.023.019-.045.039-.067.059l-.049.046c-.019.019-.037.04-.056.06s-.033.036-.048.055-.03.04-.045.06-.032.043-.047.065-.024.039-.036.059-.03.05-.043.075-.019.039-.028.058-.026.055-.037.084c0,.008-.007.016-.01.023l-1.21,3.135-3.068-1.374-.03-.012-.077-.03c-.023-.008-.046-.017-.069-.023s-.051-.015-.077-.021l-.073-.018c-.025-.005-.049-.009-.074-.012s-.052-.009-.078-.011l-.071-.005-.083,0c-.023,0-.045,0-.068,0s-.058,0-.087.005l-.066.008-.088.014-.029.005c-.215.046-.423.088-.618.123l-.025.006c-.031.006-.061.014-.091.022l-.06.016c-.029.009-.057.019-.085.029l-.062.023c-.026.011-.051.023-.076.035l-.064.032-.066.039c-.022.014-.045.027-.067.042s-.038.028-.057.042-.045.034-.067.052-.034.03-.05.044-.044.041-.065.062l-.02.019-2.322,2.445-2.322-2.445-.02-.019c-.021-.021-.043-.042-.066-.062s-.032-.03-.049-.043-.045-.036-.069-.053-.037-.028-.056-.04-.045-.029-.068-.043l-.064-.038c-.022-.012-.044-.022-.066-.033s-.049-.024-.074-.034l-.064-.025-.083-.028-.062-.017c-.03-.008-.06-.016-.09-.021l-.026-.006c-.194-.035-.4-.077-.618-.123l-.029-.005-.088-.014-.066-.008c-.029,0-.058,0-.088-.005s-.045,0-.068,0l-.084,0-.07.005c-.027,0-.053.007-.079.011s-.049.007-.073.012l-.074.018c-.026.007-.051.013-.076.021l-.069.023-.077.03-.03.012Z" transform="translate(-1641.786 -2731.962)" fill="#fff"/>
      <path id="Path_1451" data-name="Path 1451" d="M1648.39,3196.229a1.565,1.565,0,0,0-2.138.57l-8.144,14.063-1.313-4.012c0-.006,0-.012-.007-.018a2.134,2.134,0,0,0-2.482-1.431l-.017,0h0l-4.141.871,7.411-12.836a1.565,1.565,0,1,0-2.71-1.564l-8.475,14.679h0a2.168,2.168,0,0,0,2.319,3.224h.007l5.394-1.134,1.714,5.235.005.015a2.129,2.129,0,0,0,1.8,1.48,2.2,2.2,0,0,0,2.109-1.053l.023-.037,9.217-15.916A1.564,1.564,0,0,0,1648.39,3196.229Z" transform="translate(-1626.068 -3148.835)" fill="#fff"/>
      <path id="Path_1452" data-name="Path 1452" d="M1948.562,3207.7h0l-8.408-14.563a1.565,1.565,0,0,0-2.71,1.564l7.343,12.719-4.14-.871h0l-.012,0a2.134,2.134,0,0,0-2.485,1.426c0,.007-.006.014-.009.021l-1.314,4.012-8.144-14.062a1.565,1.565,0,0,0-2.708,1.568l9.216,15.913h0l.009.016a2.155,2.155,0,0,0,1.867,1.086,2.278,2.278,0,0,0,.23-.012,2.147,2.147,0,0,0,1.826-1.475l.007-.02,1.714-5.235,5.4,1.135c.018,0,.036.005.054.008a2.2,2.2,0,0,0,.409.04,2.125,2.125,0,0,0,1.728-.892A2.191,2.191,0,0,0,1948.562,3207.7Z" transform="translate(-1898.179 -3149.984)" fill="#fff"/>
      <path id="Path_1453" data-name="Path 1453" d="M1848.665,2836.063a5.365,5.365,0,1,0-5.365-5.366A5.372,5.372,0,0,0,1848.665,2836.063Zm0-8.43a3.065,3.065,0,1,1-3.064,3.064A3.068,3.068,0,0,1,1848.665,2827.633Z" transform="translate(-1823.307 -2816.739)" fill="#fff"/>
      <path id="Path_1454" data-name="Path 1454" d="M1806.5,2976.278c.04,0,.08,0,.119-.006a1.953,1.953,0,0,0,1.815-1.959v-6.455h0a7.011,7.011,0,0,0-2.013-4.954,6.872,6.872,0,0,0-4.935-2.056H1794.5a7.034,7.034,0,0,0-7.042,7.01v6.455c0,.04,0,.079.006.118a1.965,1.965,0,0,0,1.842,1.841,1.1,1.1,0,0,0,.118.006Zm-12-13.13h6.989a4.629,4.629,0,0,1,4.646,4.709v6.12h-1.844v-6.057a.828.828,0,1,0-1.656,0v6.057h-9.343v-6.057a.828.828,0,1,0-1.656,0v6.057h-1.876v-6.12A4.731,4.731,0,0,1,1794.5,2963.148Z" transform="translate(-1772.606 -2939.781)" fill="#fff"/>
    </g>
  </g>
</svg>
