<svg xmlns="http://www.w3.org/2000/svg" width="109" height="107" viewBox="0 0 109 107">
  <g id="Group_67678" data-name="Group 67678" transform="translate(-241 -1865)">
    <rect id="Rectangle_38325" data-name="Rectangle 38325" width="109" height="107" transform="translate(241 1865)" fill="#01675b"/>
    <g id="Group_67130" data-name="Group 67130" transform="translate(222 1856.371)">
      <g id="Group_67130-2" data-name="Group 67130" transform="translate(36 27.629)">
        <g id="Group_3562" data-name="Group 3562" transform="translate(1.174)">
          <path id="Path_3597" data-name="Path 3597" d="M268.394,171.517a9.887,9.887,0,0,1-9.875-9.875v.2a10.142,10.142,0,1,1,20.285,0v-.736A10.421,10.421,0,0,1,268.394,171.517Zm.267-16.248a6.581,6.581,0,0,0-6.574,6.576v-.2a6.314,6.314,0,0,0,6.307,6.307,6.849,6.849,0,0,0,6.842-6.841v.736A6.583,6.583,0,0,0,268.661,155.269Z" transform="translate(-258.519 -151.701)" fill="#fff"/>
        </g>
        <g id="Group_3563" data-name="Group 3563" transform="translate(20.58 64.238)">
          <rect id="Rectangle_1739" data-name="Rectangle 1739" width="40.884" height="3.567" fill="#fff"/>
        </g>
        <g id="Group_3564" data-name="Group 3564" transform="translate(45.984 39.106)">
          <path id="Path_3598" data-name="Path 3598" d="M309.522,207.64H292.8l10.557-28.7h16.728Zm-11.609-3.568h9.123l7.934-21.566h-9.123Z" transform="translate(-292.798 -178.94)" fill="#fff"/>
        </g>
        <g id="Group_3565" data-name="Group 3565" transform="translate(0 23.148)">
          <path id="Path_3599" data-name="Path 3599" d="M280.394,213.311H257.762V179.969a11.318,11.318,0,0,1,22.348-2.533l-3.478.8a7.75,7.75,0,0,0-15.3,1.737v29.774h15.5v-8.9h3.566Z" transform="translate(-257.762 -168.653)" fill="#fff"/>
        </g>
        <g id="Group_3566" data-name="Group 3566" transform="translate(6.254 31.905)">
          <path id="Path_3600" data-name="Path 3600" d="M302.1,203.827H286.111l-14.8-6.754-9.512-17.381,3.129-1.713,8.944,16.339,13.019,5.943h10.891c-1.013-1.221-3.324-2.629-8.6-2.629h-.633l-10.768-8.755-3.36-13.73,3.465-.848,3.074,12.566,8.864,7.205c4.677.1,8.124,1.243,10.252,3.411a6.754,6.754,0,0,1,2.063,4.6Z" transform="translate(-261.794 -174.298)" fill="#fff"/>
        </g>
        <g id="Group_3567" data-name="Group 3567" transform="translate(34.194 4.312)">
          <rect id="Rectangle_1740" data-name="Rectangle 1740" width="31.063" height="3.567" fill="#fff"/>
        </g>
        <g id="Group_3568" data-name="Group 3568" transform="translate(34.194 10.666)">
          <rect id="Rectangle_1741" data-name="Rectangle 1741" width="31.063" height="3.567" fill="#fff"/>
        </g>
        <g id="Group_3569" data-name="Group 3569" transform="translate(37.861 23.777)">
          <rect id="Rectangle_1742" data-name="Rectangle 1742" width="5.84" height="3.567" fill="#fff"/>
        </g>
        <g id="Group_3570" data-name="Group 3570" transform="translate(37.268 17.221)">
          <rect id="Rectangle_1743" data-name="Rectangle 1743" width="14.347" height="3.567" fill="#fff"/>
        </g>
      </g>
    </g>
  </g>
</svg>
