<svg xmlns="http://www.w3.org/2000/svg" width="196" height="196" viewBox="0 0 196 196">
  <path id="contents.svg" d="M1007.4,979.727a2.861,2.861,0,0,1-1.905.613,3.267,3.267,0,0,1-1.7-.5,2.8,2.8,0,0,1-1.142-1.45,6.113,6.113,0,0,1-.334-2.246,6.035,6.035,0,0,1,.345-1.926,2.948,2.948,0,0,1,1.123-1.474,3.256,3.256,0,0,1,1.951-.523,2.7,2.7,0,0,1,1.666.529,3.089,3.089,0,0,1,.99,1.616l1.317-.287a3.984,3.984,0,0,0-1.4-2.185,4.128,4.128,0,0,0-2.527-.811,5,5,0,0,0-2.452.568,4.112,4.112,0,0,0-1.742,1.749,5.894,5.894,0,0,0-.645,2.731,6.777,6.777,0,0,0,.486,2.705,4.123,4.123,0,0,0,1.522,1.943,4.784,4.784,0,0,0,2.638.706,4.16,4.16,0,0,0,2.676-.817,4.492,4.492,0,0,0,1.552-2.476l-1.328-.359A3.286,3.286,0,0,1,1007.4,979.727Zm5.579-.455a4.424,4.424,0,0,0,1.4,2.1,4.714,4.714,0,0,0,2.414,1.051,4.987,4.987,0,0,0,2.508-.254,4.228,4.228,0,0,0,2-1.551,5.933,5.933,0,0,0,1.017-2.617,6.038,6.038,0,0,0-.186-2.757,4.325,4.325,0,0,0-1.416-2.087,4.816,4.816,0,0,0-2.387-1.028,4.588,4.588,0,0,0-3.651.891,5.48,5.48,0,0,0-1.909,3.681,5.66,5.66,0,0,0,.2,2.569Zm2.641-5.4a3.419,3.419,0,0,1,2.554-.6,3.306,3.306,0,0,1,1.7.763,3.172,3.172,0,0,1,.991,1.584,5.162,5.162,0,0,1,.1,2.182,4.292,4.292,0,0,1-1.4,2.823,3.422,3.422,0,0,1-4.884-.715,4.028,4.028,0,0,1-.547-2.977,4.331,4.331,0,0,1,1.488-3.057Zm9.871,10.084,2.19-7.595,2.9,9.057,1.313.379,2.786-9.668-1.23-.353-2.186,7.588-2.9-9.049-1.317-.379-2.786,9.666Zm13.089,4.494,3.457-8.172,3.07,1.3.463-1.094-7.355-3.1-.463,1.094,3.055,1.288-3.457,8.171Zm11.81,6.1.584-1.035-5.385-3.039,1.689-2.978,4.85,2.736.584-1.027-4.854-2.736,1.518-2.683,5.18,2.922.588-1.031-6.341-3.581-4.96,8.758Zm3.465,2.338,4.714-6.351-.459,9.5,1.1.811,6-8.083-1.024-.758-4.71,6.344.455-9.489-1.1-.815-6,8.083Zm10.687,8.769,6.095-6.457,2.425,2.281.816-.864-5.814-5.468-.816.864,2.417,2.274-6.091,6.457Zm5.233,3.214a3.2,3.2,0,0,0,.019,1.876,5.722,5.722,0,0,0,1.173,2,4.628,4.628,0,0,0,1.556,1.228,3.03,3.03,0,0,0,1.7.3,2.743,2.743,0,0,0,1.454-.625,2.492,2.492,0,0,0,.823-1.243,3.052,3.052,0,0,0-.053-1.652,13.162,13.162,0,0,0-.949-2.115,5.27,5.27,0,0,1-.748-2,1.14,1.14,0,0,1,.429-.875,1.33,1.33,0,0,1,1.173-.265,2.821,2.821,0,0,1,1.476,1.057,2.7,2.7,0,0,1,.759,1.652,2.055,2.055,0,0,1-.649,1.463l.9.913a3.051,3.051,0,0,0,.9-1.4,2.862,2.862,0,0,0-.042-1.69,4.978,4.978,0,0,0-1-1.739,4.739,4.739,0,0,0-1.457-1.186,2.67,2.67,0,0,0-1.583-.318,2.59,2.59,0,0,0-1.37.591,2.3,2.3,0,0,0-.729,1.076,2.727,2.727,0,0,0-.023,1.425,9.334,9.334,0,0,0,.774,1.891,18.2,18.2,0,0,1,.786,1.682,2.021,2.021,0,0,1,.129,1.076,1.3,1.3,0,0,1-.455.743,1.416,1.416,0,0,1-.843.337,1.848,1.848,0,0,1-1.036-.261,3.735,3.735,0,0,1-1.04-.879,3.835,3.835,0,0,1-.77-1.372,2.267,2.267,0,0,1-.057-1.281,2.781,2.781,0,0,1,.679-1.114l-.9-.891a3.389,3.389,0,0,0-1.025,1.591Zm17.165,14.931a1.451,1.451,0,1,0-.577,1.967,1.452,1.452,0,0,0,.577-1.967Zm3.021,20.9a2.855,2.855,0,0,1-1.176-1.618,3.238,3.238,0,0,1-.053-1.774,2.791,2.791,0,0,1,1.025-1.531,6.052,6.052,0,0,1,2.034-1.02,5.921,5.921,0,0,1,1.939-.269,2.937,2.937,0,0,1,1.753.6,3.253,3.253,0,0,1,1.1,1.686,2.688,2.688,0,0,1,.015,1.751,3.091,3.091,0,0,1-1.226,1.44l.683,1.163a4.022,4.022,0,0,0,1.643-2.009,4.125,4.125,0,0,0-.019-2.653,4.973,4.973,0,0,0-1.3-2.152,4.109,4.109,0,0,0-2.2-1.107,5.979,5.979,0,0,0-2.8.235,6.882,6.882,0,0,0-2.425,1.307,4.112,4.112,0,0,0-1.374,2.046,4.805,4.805,0,0,0,.148,2.725,4.145,4.145,0,0,0,1.613,2.285,4.484,4.484,0,0,0,2.839.7l-.072-1.368a3.33,3.33,0,0,1-2.144-.44Zm2.163,5.142a4.4,4.4,0,0,0-1.567,1.982,4.746,4.746,0,0,0-.254,2.619,5.014,5.014,0,0,0,1.021,2.3,4.231,4.231,0,0,0,2.1,1.421,5.915,5.915,0,0,0,2.8.152,6.009,6.009,0,0,0,2.569-1.027,4.38,4.38,0,0,0,1.548-1.99,4.8,4.8,0,0,0,.239-2.588,4.569,4.569,0,0,0-1.977-3.187,5.49,5.49,0,0,0-4.1-.675,5.683,5.683,0,0,0-2.383.989Zm5.962.834a3.386,3.386,0,0,1,1.366,2.236,3.293,3.293,0,0,1-.2,1.853,3.186,3.186,0,0,1-1.2,1.436,5.187,5.187,0,0,1-2.046.766,4.291,4.291,0,0,1-3.123-.458,3.4,3.4,0,0,1-.831-4.854,4.042,4.042,0,0,1,2.664-1.444,4.357,4.357,0,0,1,3.37.466Zm-6.539,12.521,7.909-.284-7.723,5.567.049,1.364,10.068-.36-.046-1.277-7.9.284,7.715-5.563-.049-1.364-10.064.36Zm-.193,13.821,8.854.716-.27,3.316,1.188.1.645-7.947-1.184-.1-.27,3.3-8.858-.72Zm-2.091,13.112,1.165.231,1.2-6.06,3.366.667-1.085,5.457,1.161.231,1.082-5.461,3.028.6-1.158,5.828,1.165.231,1.416-7.136-9.882-1.952Zm-1.135,4,7.518,2.482-9.176,2.535-.433,1.3,9.567,3.157.4-1.213-7.51-2.478,9.169-2.535.429-1.3-9.563-3.156Zm-5.006,12.877,8.045,3.771-1.416,3.013,1.074.5,3.393-7.219-1.074-.5-1.412,3-8.042-3.771Zm-1.427,5.965a3.227,3.227,0,0,0-1.784.6,5.79,5.79,0,0,0-1.545,1.739,4.636,4.636,0,0,0-.683,1.857,3.025,3.025,0,0,0,.247,1.7,2.73,2.73,0,0,0,1.047,1.186,2.509,2.509,0,0,0,1.438.4,3.07,3.07,0,0,0,1.556-.565,13.24,13.24,0,0,0,1.719-1.558,5.43,5.43,0,0,1,1.666-1.334,1.154,1.154,0,0,1,.968.136,1.335,1.335,0,0,1,.619,1.031,2.813,2.813,0,0,1-.55,1.732,2.717,2.717,0,0,1-1.336,1.235,2.057,2.057,0,0,1-1.594-.167l-.592,1.137a3.062,3.062,0,0,0,1.613.413,2.837,2.837,0,0,0,1.594-.561,4.962,4.962,0,0,0,1.344-1.489,4.749,4.749,0,0,0,.679-1.751,2.664,2.664,0,0,0-.19-1.6,2.564,2.564,0,0,0-.987-1.114,2.278,2.278,0,0,0-1.252-.356,2.708,2.708,0,0,0-1.362.42,9.074,9.074,0,0,0-1.56,1.323,18.52,18.52,0,0,1-1.359,1.266,2.034,2.034,0,0,1-.983.458,1.321,1.321,0,0,1-.85-.2,1.441,1.441,0,0,1-.584-.693,1.889,1.889,0,0,1-.072-1.065,3.72,3.72,0,0,1,.516-1.266,3.836,3.836,0,0,1,1.067-1.156,2.269,2.269,0,0,1,1.2-.451,2.767,2.767,0,0,1,1.275.3l.565-1.125a3.357,3.357,0,0,0-1.829-.482ZM1072.8,1133.9a1.449,1.449,0,1,0-1.011.457,1.445,1.445,0,0,0,1.011-.457Zm-18.922,9.379a2.85,2.85,0,0,1,1.169-1.622,3.274,3.274,0,0,1,1.67-.606,2.8,2.8,0,0,1,1.78.493,6.487,6.487,0,0,1,2.47,3.365,2.934,2.934,0,0,1-.027,1.849,3.26,3.26,0,0,1-1.26,1.577,2.737,2.737,0,0,1-1.658.565,3.128,3.128,0,0,1-1.757-.716l-.888,1.012a4,4,0,0,0,2.425.928,4.1,4.1,0,0,0,2.516-.845,5.007,5.007,0,0,0,1.64-1.91,4.079,4.079,0,0,0,.36-2.437,5.907,5.907,0,0,0-1.1-2.58,6.866,6.866,0,0,0-2-1.891,4.133,4.133,0,0,0-2.379-.663,4.783,4.783,0,0,0-2.543,1,4.141,4.141,0,0,0-1.67,2.243,4.481,4.481,0,0,0,.224,2.91l1.283-.5a3.28,3.28,0,0,1-.254-2.168Zm-4.231,3.676a4.45,4.45,0,0,0-2.38-.864,4.76,4.76,0,0,0-2.569.58,5.054,5.054,0,0,0-1.871,1.69,4.2,4.2,0,0,0-.691,2.437,5.9,5.9,0,0,0,.733,2.709,6.051,6.051,0,0,0,1.784,2.111,4.368,4.368,0,0,0,2.379.845,4.834,4.834,0,0,0,2.535-.588,4.576,4.576,0,0,0,2.41-2.876,5.439,5.439,0,0,0-.645-4.093,5.686,5.686,0,0,0-1.685-1.952Zm1.078,5.916a3.419,3.419,0,0,1-1.7,2,3.286,3.286,0,0,1-1.825.39,3.162,3.162,0,0,1-1.738-.686,5.141,5.141,0,0,1-1.374-1.7,4.261,4.261,0,0,1-.543-3.1,3.417,3.417,0,0,1,4.357-2.315,4.034,4.034,0,0,1,2.2,2.077,4.324,4.324,0,0,1,.619,3.342Zm-13.958-2.278,2.74,7.416-7.7-5.586-1.283.474,3.488,9.436,1.2-.44-2.74-7.412,7.7,5.582,1.283-.474-3.488-9.436Zm-13.2,4.119,2.061,8.629-3.241.773.277,1.156,7.764-1.853-.277-1.156-3.226.769-2.064-8.629Zm-13.142,2.077.144,1.179,6.14-.739.41,3.4-5.537.663.144,1.175,5.533-.663.368,3.058-5.909.708.14,1.179,7.233-.868-1.2-9.989Zm-4.155.2-.129,7.9-5.161-7.992-1.366-.019-.163,10.057,1.279.019.129-7.9,5.161,7.985,1.366.023.163-10.058Zm-13.829-.758-1.063,8.807-3.309-.4-.14,1.179,7.928.955.14-1.179-3.294-.4,1.063-8.807Zm-6.118.515a3.232,3.232,0,0,0-1.135-1.5,5.716,5.716,0,0,0-2.137-.917,4.628,4.628,0,0,0-1.977-.068,3.019,3.019,0,0,0-1.544.769,2.742,2.742,0,0,0-.8,1.364,2.509,2.509,0,0,0,.076,1.489,3.064,3.064,0,0,0,1.025,1.3,13.6,13.6,0,0,0,2.019,1.141,5.319,5.319,0,0,1,1.791,1.163,1.152,1.152,0,0,1,.171.959,1.331,1.331,0,0,1-.786.91,2.815,2.815,0,0,1-1.818.019,2.709,2.709,0,0,1-1.594-.879,2.044,2.044,0,0,1-.341-1.565l-1.268-.2a3.052,3.052,0,0,0,.114,1.656,2.855,2.855,0,0,0,1.032,1.338,5.124,5.124,0,0,0,1.837.807,4.83,4.83,0,0,0,1.878.095,2.686,2.686,0,0,0,1.465-.686,2.534,2.534,0,0,0,.751-1.285,2.292,2.292,0,0,0-.053-1.3,2.729,2.729,0,0,0-.827-1.16,9.167,9.167,0,0,0-1.746-1.061,17.611,17.611,0,0,1-1.632-.894,2.049,2.049,0,0,1-.744-.788,1.325,1.325,0,0,1-.076-.868,1.443,1.443,0,0,1,.478-.769,1.843,1.843,0,0,1,.99-.4,3.713,3.713,0,0,1,1.362.091,3.834,3.834,0,0,1,1.434.648,2.274,2.274,0,0,1,.8,1,2.79,2.79,0,0,1,.118,1.3l1.249.186a3.414,3.414,0,0,0-.118-1.887Zm-22.694-1.883a1.448,1.448,0,1,0-.7-1.925,1.451,1.451,0,0,0,.7,1.925Zm-14.816-15.056a2.87,2.87,0,0,1,1.909.606,3.273,3.273,0,0,1,1.093,1.4,2.762,2.762,0,0,1,.084,1.842,6.172,6.172,0,0,1-1.032,2.024,5.922,5.922,0,0,1-1.4,1.364,2.92,2.92,0,0,1-1.768.549,3.278,3.278,0,0,1-1.894-.7,2.684,2.684,0,0,1-1.047-1.4,3.111,3.111,0,0,1,.133-1.891l-1.237-.531a3.983,3.983,0,0,0-.133,2.592,4.1,4.1,0,0,0,1.586,2.126,4.961,4.961,0,0,0,2.326.962,4.111,4.111,0,0,0,2.433-.413,5.948,5.948,0,0,0,2.118-1.845,6.893,6.893,0,0,0,1.176-2.486,4.125,4.125,0,0,0-.106-2.463,4.818,4.818,0,0,0-1.738-2.107,4.162,4.162,0,0,0-2.653-.887,4.493,4.493,0,0,0-2.7,1.114l.873,1.065a3.3,3.3,0,0,1,1.985-.917Zm-4.8-2.861a4.4,4.4,0,0,0,.083-2.524,4.758,4.758,0,0,0-1.351-2.258,5.03,5.03,0,0,0-2.193-1.25,4.231,4.231,0,0,0-2.532.1,5.942,5.942,0,0,0-2.35,1.539,6.036,6.036,0,0,0-1.456,2.35,4.344,4.344,0,0,0-.063,2.52,4.817,4.817,0,0,0,1.346,2.224,4.581,4.581,0,0,0,3.487,1.391,5.476,5.476,0,0,0,3.7-1.883,5.671,5.671,0,0,0,1.332-2.21Zm-5.294,2.865a3.413,3.413,0,0,1-2.429-.993,3.28,3.28,0,0,1-.942-1.607,3.192,3.192,0,0,1,.114-1.868,5.19,5.19,0,0,1,1.193-1.83,4.268,4.268,0,0,1,2.785-1.482,3.416,3.416,0,0,1,3.556,3.414,4.024,4.024,0,0,1-1.286,2.74,4.353,4.353,0,0,1-2.991,1.625Zm-2.176-13.949-6.2,4.919,2.9-9.053-.851-1.068-7.886,6.26.8,1,6.192-4.915-2.9,9.053.851,1.069,7.886-6.26Zm-8.063-11.247-7.56,4.661-1.751-2.831-1.012.622,4.2,6.783,1.011-.621-1.743-2.819,7.56-4.661Zm-6.09-11.793-1.076.5,2.627,5.59-3.1,1.455-2.367-5.036-1.07.5,2.367,5.036-2.793,1.311-2.528-5.381-1.076.5,3.094,6.586,9.12-4.275Zm-1.466-3.9-7.527,2.448,5.889-7.473-.423-1.3-9.579,3.111.4,1.216,7.521-2.444-5.882,7.469.423,1.3,9.579-3.115Zm-3.609-13.343-8.716,1.721-.645-3.263-1.166.227,1.549,7.822,1.166-.227-.645-3.251,8.716-1.72Zm-2.385-5.643a3.211,3.211,0,0,0,1.078-1.542,5.772,5.772,0,0,0,.212-2.312,4.576,4.576,0,0,0-.551-1.9,3,3,0,0,0-1.21-1.228,2.744,2.744,0,0,0-1.548-.337,2.528,2.528,0,0,0-1.394.534,3.044,3.044,0,0,0-.919,1.376,13.3,13.3,0,0,0-.46,2.27,5.272,5.272,0,0,1-.553,2.058,1.132,1.132,0,0,1-.859.462,1.335,1.335,0,0,1-1.11-.462,2.819,2.819,0,0,1-.584-1.72,2.7,2.7,0,0,1,.344-1.785,2.068,2.068,0,0,1,1.382-.811l-.2-1.266a3.084,3.084,0,0,0-1.542.621,2.849,2.849,0,0,0-.952,1.395,5.047,5.047,0,0,0-.2,2,4.8,4.8,0,0,0,.493,1.811,2.692,2.692,0,0,0,1.106,1.179,2.57,2.57,0,0,0,1.457.314,2.3,2.3,0,0,0,1.221-.455A2.733,2.733,0,0,0,911,1079a9.2,9.2,0,0,0,.469-1.986,17.614,17.614,0,0,1,.345-1.826,2.027,2.027,0,0,1,.519-.951,1.322,1.322,0,0,1,.8-.341,1.471,1.471,0,0,1,.883.216,1.862,1.862,0,0,1,.69.815,3.692,3.692,0,0,1,.335,1.323,3.821,3.821,0,0,1-.173,1.561,2.26,2.26,0,0,1-.7,1.072,2.81,2.81,0,0,1-1.2.515l.211,1.243a3.411,3.411,0,0,0,1.757-.7Zm-5.286-22.1a1.45,1.45,0,1,0,1.611-1.266,1.448,1.448,0,0,0-1.611,1.266Zm9.675-18.781a2.861,2.861,0,0,1,.02,2,3.24,3.24,0,0,1-.987,1.474,2.794,2.794,0,0,1-1.725.659,6.191,6.191,0,0,1-2.248-.349,5.974,5.974,0,0,1-1.738-.906,2.937,2.937,0,0,1-1.076-1.5,3.249,3.249,0,0,1,.079-2.016,2.692,2.692,0,0,1,1-1.432,3.107,3.107,0,0,1,1.839-.466l.117-1.342a4.019,4.019,0,0,0-2.5.686,4.136,4.136,0,0,0-1.527,2.171,4.98,4.98,0,0,0-.188,2.5,4.119,4.119,0,0,0,1.154,2.183,5.987,5.987,0,0,0,2.419,1.429,6.862,6.862,0,0,0,2.732.337,4.121,4.121,0,0,0,2.31-.872,4.775,4.775,0,0,0,1.46-2.3,4.153,4.153,0,0,0,.015-2.8,4.48,4.48,0,0,0-1.907-2.213l-.737,1.16a3.3,3.3,0,0,1,1.49,1.595Zm1.226-5.446a4.429,4.429,0,0,0,2.429-.7,4.792,4.792,0,0,0,1.727-1.986,5,5,0,0,0,.508-2.471,4.22,4.22,0,0,0-.884-2.372,5.979,5.979,0,0,0-2.2-1.751,6.062,6.062,0,0,0-2.69-.648,4.342,4.342,0,0,0-2.418.724,4.807,4.807,0,0,0-1.7,1.971,4.57,4.57,0,0,0-.24,3.744,5.476,5.476,0,0,0,2.946,2.918,5.631,5.631,0,0,0,2.514.576Zm-4.374-4.13a3.406,3.406,0,0,1,.19-2.615,3.306,3.306,0,0,1,1.238-1.395,3.212,3.212,0,0,1,1.811-.474,5.207,5.207,0,0,1,2.114.561,4.271,4.271,0,0,1,2.277,2.183,3.41,3.41,0,0,1-2.143,4.438,4.04,4.04,0,0,1-3.009-.368,4.37,4.37,0,0,1-2.478-2.331Zm12.6-6.419-6.606-4.354,9.522-.053.753-1.141-8.406-5.544-.7,1.065,6.6,4.354-9.516.057-.753,1.141,8.406,5.54Zm8.192-11.122-6.786-5.73,2.151-2.539-.908-.769-5.154,6.09.908.769,2.142-2.531,6.786,5.726Zm9.33-9.451-.816-.864-4.5,4.233-2.353-2.49,4.057-3.816-.812-.86-4.055,3.816-2.116-2.243,4.331-4.074-.815-.864-5.3,4.987,6.907,7.321Zm3.256-2.615-4.683-6.37,8.949,3.247,1.1-.807-5.958-8.113-1.032.754,4.679,6.37-8.945-3.244-1.1.807,5.962,8.113Zm11.556-7.6-4.372-7.723,2.9-1.641-.584-1.032-6.952,3.923.588,1.034,2.888-1.633,4.372,7.727Zm4.63-4.04a3.222,3.222,0,0,0,1.8.538,5.844,5.844,0,0,0,2.266-.523,4.622,4.622,0,0,0,1.636-1.118,3.019,3.019,0,0,0,.786-1.531,2.724,2.724,0,0,0-.163-1.573,2.511,2.511,0,0,0-.945-1.156,3.028,3.028,0,0,0-1.594-.44,13.536,13.536,0,0,0-2.307.273,5.265,5.265,0,0,1-2.129.121,1.155,1.155,0,0,1-.71-.667,1.329,1.329,0,0,1,.095-1.2,2.822,2.822,0,0,1,1.45-1.093,2.719,2.719,0,0,1,1.807-.234,2.063,2.063,0,0,1,1.207,1.056l1.138-.585a3.024,3.024,0,0,0-1.074-1.268,2.845,2.845,0,0,0-1.624-.465,5.076,5.076,0,0,0-1.962.436,4.81,4.81,0,0,0-1.567,1.034,2.691,2.691,0,0,0-.774,1.418,2.578,2.578,0,0,0,.156,1.478,2.3,2.3,0,0,0,.816,1.016,2.712,2.712,0,0,0,1.355.447,9.4,9.4,0,0,0,2.038-.178,17.626,17.626,0,0,1,1.841-.246,2.083,2.083,0,0,1,1.07.193,1.315,1.315,0,0,1,.573.655,1.42,1.42,0,0,1,.072.906,1.873,1.873,0,0,1-.558.909,3.742,3.742,0,0,1-1.15.731,3.872,3.872,0,0,1-1.541.326,2.268,2.268,0,0,1-1.241-.326,2.745,2.745,0,0,1-.865-.982l-1.116.591a3.407,3.407,0,0,0,1.215,1.453Zm19.389-11.9a1.447,1.447,0,1,0,1.7,1.137,1.447,1.447,0,0,0-1.7-1.137Z" transform="translate(-905.852 -971.078)" fill-rule="evenodd"/>
</svg>
