<svg xmlns="http://www.w3.org/2000/svg" width="196" height="196" viewBox="0 0 196 196">
  <path id="scroll_down.svg" data-name="scroll down.svg" d="M190.975,979.8a3.206,3.206,0,0,0,1.429,1.22,5.8,5.8,0,0,0,2.282.435,4.605,4.605,0,0,0,1.945-.363,3.032,3.032,0,0,0,1.339-1.083,2.737,2.737,0,0,0,.484-1.5,2.506,2.506,0,0,0-.4-1.437,3.055,3.055,0,0,0-1.28-1.047,13.3,13.3,0,0,0-2.216-.677,5.3,5.3,0,0,1-2-.749,1.145,1.145,0,0,1-.376-.9,1.326,1.326,0,0,1,.568-1.058,2.813,2.813,0,0,1,1.767-.414,2.712,2.712,0,0,1,1.745.515,2.059,2.059,0,0,1,.673,1.452l1.278-.076a3.041,3.041,0,0,0-.468-1.591,2.843,2.843,0,0,0-1.3-1.081,5.047,5.047,0,0,0-1.967-.392,4.792,4.792,0,0,0-1.852.313,2.677,2.677,0,0,0-1.279.985,2.551,2.551,0,0,0-.455,1.416,2.293,2.293,0,0,0,.333,1.258,2.717,2.717,0,0,0,1.059.953,9.126,9.126,0,0,0,1.933.659,17.88,17.88,0,0,1,1.781.52,2.033,2.033,0,0,1,.9.606,1.308,1.308,0,0,1,.261.831,1.439,1.439,0,0,1-.3.856,1.865,1.865,0,0,1-.878.606,3.7,3.7,0,0,1-1.349.2,3.831,3.831,0,0,1-1.539-.324,2.263,2.263,0,0,1-1-.8,2.765,2.765,0,0,1-.395-1.245l-1.258.089a3.394,3.394,0,0,0,.525,1.816Zm16.241.9a2.866,2.866,0,0,1-1.962.393,3.266,3.266,0,0,1-1.633-.691,2.785,2.785,0,0,1-.967-1.57,6.141,6.141,0,0,1-.08-2.269,6,6,0,0,1,.564-1.873,2.935,2.935,0,0,1,1.279-1.337,3.255,3.255,0,0,1,1.995-.3,2.709,2.709,0,0,1,1.6.714,3.111,3.111,0,0,1,.8,1.717l1.34-.136A3.992,3.992,0,0,0,209,973.018a4.125,4.125,0,0,0-2.418-1.092,5,5,0,0,0-2.5.285,4.117,4.117,0,0,0-1.925,1.54,5.927,5.927,0,0,0-.952,2.639,6.84,6.84,0,0,0,.177,2.743,4.132,4.132,0,0,0,1.289,2.1,4.774,4.774,0,0,0,2.537,1,4.158,4.158,0,0,0,2.749-.508,4.481,4.481,0,0,0,1.819-2.284l-1.277-.506A3.3,3.3,0,0,1,207.215,980.7Zm5.753,2.728,1.124-4.321,1.494.388a4,4,0,0,1,.7.233,1.993,1.993,0,0,1,.521.411,3.03,3.03,0,0,1,.485.821q.244.56.581,1.581l.762,2.36,1.621.421-1-3.088a6.923,6.923,0,0,0-.733-1.572,3.452,3.452,0,0,0-.651-.686,3.51,3.51,0,0,0,2.307-.364,2.529,2.529,0,0,0,1.125-1.572,2.852,2.852,0,0,0-.024-1.573,2.236,2.236,0,0,0-.842-1.207,5.938,5.938,0,0,0-1.911-.777l-4.318-1.122-2.531,9.734Zm2.252-8.657,3.082.8a2.425,2.425,0,0,1,1.469.857,1.5,1.5,0,0,1,.206,1.266,1.638,1.638,0,0,1-.486.806,1.519,1.519,0,0,1-.91.387,4.293,4.293,0,0,1-1.429-.176l-2.77-.72Zm7.956,9.051a4.406,4.406,0,0,0,.872,2.372,4.764,4.764,0,0,0,2.1,1.587,5,5,0,0,0,2.5.337,4.233,4.233,0,0,0,2.307-1.042,5.961,5.961,0,0,0,1.6-2.307,6.039,6.039,0,0,0,.466-2.724,4.343,4.343,0,0,0-.888-2.358,4.817,4.817,0,0,0-2.08-1.556,4.576,4.576,0,0,0-3.752.016,5.463,5.463,0,0,0-2.714,3.133,5.671,5.671,0,0,0-.4,2.541ZM227,979.185a3.407,3.407,0,0,1,2.62.01,3.293,3.293,0,0,1,1.476,1.137,3.189,3.189,0,0,1,.6,1.772,5.156,5.156,0,0,1-.417,2.144,4.292,4.292,0,0,1-2.022,2.417,3.416,3.416,0,0,1-4.574-1.834,4.026,4.026,0,0,1,.164-3.022A4.342,4.342,0,0,1,227,979.183Zm11.289,14.353.569-1.042-4.352-2.368,4.245-7.793-1.17-.635-4.814,8.832Zm7.107,4.713.666-.981-4.1-2.777,4.979-7.342-1.1-.75-5.645,8.327Zm8.05,6.782a6.881,6.881,0,0,0,1.292.985,3.69,3.69,0,0,0,1.219.458,3.572,3.572,0,0,0,1.293-.034,4.846,4.846,0,0,0,1.505-.591,6.991,6.991,0,0,0,1.592-1.292,6.733,6.733,0,0,0,1.357-2.008,4.086,4.086,0,0,0,.316-2.065,3.4,3.4,0,0,0-.577-1.538,8.435,8.435,0,0,0-1.2-1.334l-2.518-2.383-6.916,7.306Zm4.428-8.024,1.535,1.455a5.185,5.185,0,0,1,1.11,1.33,2.606,2.606,0,0,1,.134,1.69,4.667,4.667,0,0,1-1.289,2.118,6.175,6.175,0,0,1-1.524,1.228,3.172,3.172,0,0,1-1.411.417,2.234,2.234,0,0,1-1.014-.239,5.28,5.28,0,0,1-1.261-.94l-1.561-1.474Zm2.674,11.729a4.4,4.4,0,0,0-.376,2.5,4.739,4.739,0,0,0,1.077,2.4,5.015,5.015,0,0,0,2.028,1.5,4.231,4.231,0,0,0,2.523.2,5.934,5.934,0,0,0,2.511-1.258,6,6,0,0,0,1.718-2.163,4.339,4.339,0,0,0,.357-2.493,4.8,4.8,0,0,0-1.076-2.364,4.582,4.582,0,0,0-3.3-1.792,5.474,5.474,0,0,0-3.887,1.443,5.685,5.685,0,0,0-1.577,2.036Zm5.587-2.228a3.405,3.405,0,0,1,2.292,1.269,3.276,3.276,0,0,1,.746,1.7,3.2,3.2,0,0,1-.33,1.841,5.177,5.177,0,0,1-1.4,1.678,4.289,4.289,0,0,1-2.936,1.148,3.414,3.414,0,0,1-3.129-3.807,4.025,4.025,0,0,1,1.6-2.569,4.351,4.351,0,0,1,3.155-1.267Zm1.331,15.348,7.671-2.114q.489-.131,1.164-.352-.164.152-.849.875l-5.481,5.762.661,1.1,10.044-2.811-.689-1.148-6.355,1.974q-1.218.375-2.135.7a26.974,26.974,0,0,0,2.651-2.5l3.624-3.857-.827-1.375-6.81,1.853q-.248.068-1.828.572.785-.682,1.546-1.425l4.867-4.705-.7-1.171-7.251,7.464Zm5.813,10.638,7.285-3.069-5.234,7.935.531,1.258,9.271-3.906-.5-1.174-7.279,3.065,5.227-7.933-.531-1.258-9.272,3.9Zm12.834,17.784a1.442,1.442,0,1,0-.212,1.085,1.447,1.447,0,0,0,.212-1.085Zm-3.558,14.071a3.183,3.183,0,0,0-1.175,1.466,5.775,5.775,0,0,0-.36,2.292,4.592,4.592,0,0,0,.426,1.932,3.042,3.042,0,0,0,1.126,1.3,2.742,2.742,0,0,0,1.52.436,2.506,2.506,0,0,0,1.424-.443,3.048,3.048,0,0,0,1-1.311,13.27,13.27,0,0,0,.606-2.239,5.262,5.262,0,0,1,.685-2.016,1.134,1.134,0,0,1,.885-.405,1.324,1.324,0,0,1,1.076.534,2.81,2.81,0,0,1,.471,1.75,2.717,2.717,0,0,1-.459,1.762,2.061,2.061,0,0,1-1.43.72l.117,1.273a3.019,3.019,0,0,0,1.577-.519,2.85,2.85,0,0,0,1.039-1.33,5.026,5.026,0,0,0,.328-1.978,4.783,4.783,0,0,0-.373-1.841,2.7,2.7,0,0,0-1.026-1.246,2.531,2.531,0,0,0-1.431-.405,2.256,2.256,0,0,0-1.247.371,2.747,2.747,0,0,0-.92,1.087,9.26,9.26,0,0,0-.6,1.951,17.805,17.805,0,0,1-.462,1.8,2.053,2.053,0,0,1-.579.917,1.33,1.33,0,0,1-.822.288,1.452,1.452,0,0,1-.866-.273,1.863,1.863,0,0,1-.635-.856,3.7,3.7,0,0,1-.248-1.341,3.84,3.84,0,0,1,.273-1.549,2.28,2.28,0,0,1,.766-1.023,2.768,2.768,0,0,1,1.232-.436l-.13-1.254a3.394,3.394,0,0,0-1.8.581Zm-.459,16.276a2.853,2.853,0,0,1-.444-1.948,3.268,3.268,0,0,1,.649-1.652,2.8,2.8,0,0,1,1.545-1.008,6.094,6.094,0,0,1,2.267-.136,5.934,5.934,0,0,1,1.889.515,2.919,2.919,0,0,1,1.371,1.243,3.248,3.248,0,0,1,.351,1.985,2.72,2.72,0,0,1-.673,1.614,3.108,3.108,0,0,1-1.7.841l.171,1.337a4.008,4.008,0,0,0,2.3-1.2,4.12,4.12,0,0,0,1.029-2.447,4.979,4.979,0,0,0-.349-2.485,4.114,4.114,0,0,0-1.592-1.887,5.964,5.964,0,0,0-2.664-.883,6.881,6.881,0,0,0-2.738.25,4.136,4.136,0,0,0-2.069,1.341,4.778,4.778,0,0,0-.934,2.561,4.154,4.154,0,0,0,.58,2.735,4.494,4.494,0,0,0,2.331,1.758l.473-1.292a3.286,3.286,0,0,1-1.793-1.244Zm-2.577,5.831,4.352,1.012-.349,1.5a3.981,3.981,0,0,1-.214.708,1.962,1.962,0,0,1-.4.53,3.014,3.014,0,0,1-.808.508c-.369.17-.891.379-1.568.621l-2.34.822-.379,1.633,3.063-1.087a6.8,6.8,0,0,0,1.554-.773,3.454,3.454,0,0,0,.67-.667,3.5,3.5,0,0,0,.424,2.3,2.535,2.535,0,0,0,1.6,1.083,2.873,2.873,0,0,0,1.572-.064,2.255,2.255,0,0,0,1.186-.875,5.938,5.938,0,0,0,.727-1.928l1.009-4.345-9.8-2.273Zm8.717,2.023-.72,3.1a2.434,2.434,0,0,1-.819,1.489,1.51,1.51,0,0,1-1.26.239,1.607,1.607,0,0,1-.818-.466,1.511,1.511,0,0,1-.412-.9,4.289,4.289,0,0,1,.139-1.432l.647-2.785Zm-8.845,8.187a4.421,4.421,0,0,0-2.35.932,4.75,4.75,0,0,0-1.531,2.137,5.011,5.011,0,0,0-.272,2.508,4.219,4.219,0,0,0,1.1,2.277,5.919,5.919,0,0,0,2.35,1.534,6,6,0,0,0,2.735.394,4.347,4.347,0,0,0,2.336-.947,4.827,4.827,0,0,0,1.5-2.122,4.568,4.568,0,0,0-.114-3.747,5.457,5.457,0,0,0-3.2-2.629,5.7,5.7,0,0,0-2.555-.339Zm4.738,3.7a3.4,3.4,0,0,1,.06,2.618,3.275,3.275,0,0,1-1.1,1.5,3.184,3.184,0,0,1-1.756.644,5.193,5.193,0,0,1-2.154-.36,4.29,4.29,0,0,1-2.47-1.959,3.409,3.409,0,0,1,1.713-4.618,4.043,4.043,0,0,1,3.026.083,4.33,4.33,0,0,1,2.676,2.086Zm-14.062,11.661,1.057.538,2.256-4.41,7.9,4.039.606-1.186-8.959-4.577Zm-4.529,7.217,1,.64,2.672-4.171,7.472,4.785.718-1.121-8.472-5.422Zm-6.567,8.214a6.863,6.863,0,0,0-.952,1.318,3.717,3.717,0,0,0-.427,1.228,3.655,3.655,0,0,0,.067,1.292,4.93,4.93,0,0,0,.631,1.489,7.075,7.075,0,0,0,1.333,1.557,6.734,6.734,0,0,0,2.043,1.3,4.115,4.115,0,0,0,2.075.261,3.409,3.409,0,0,0,1.522-.614,8.4,8.4,0,0,0,1.3-1.239l2.315-2.576-7.486-6.717Zm8.138,4.217-1.413,1.572a5.172,5.172,0,0,1-1.3,1.144,2.607,2.607,0,0,1-1.687.178,4.707,4.707,0,0,1-2.151-1.235,6.18,6.18,0,0,1-1.266-1.493,3.153,3.153,0,0,1-.455-1.4,2.236,2.236,0,0,1,.215-1.019,5.179,5.179,0,0,1,.905-1.284l1.435-1.6Zm-11.646,2.963a4.419,4.419,0,0,0-2.508-.311,4.766,4.766,0,0,0-2.371,1.14,5,5,0,0,0-1.444,2.065,4.216,4.216,0,0,0-.13,2.527,5.934,5.934,0,0,0,1.321,2.478,6.026,6.026,0,0,0,2.209,1.66,4.351,4.351,0,0,0,2.5.292,4.825,4.825,0,0,0,2.337-1.136,4.577,4.577,0,0,0,1.7-3.342,5.461,5.461,0,0,0-1.544-3.845,5.667,5.667,0,0,0-2.08-1.529Zm2.372,5.528a3.41,3.41,0,0,1-1.208,2.322,3.319,3.319,0,0,1-1.689.792A3.222,3.222,0,0,1,253.1,1143a5.126,5.126,0,0,1-1.715-1.353,4.262,4.262,0,0,1-1.224-2.9,3.411,3.411,0,0,1,3.724-3.228,4.035,4.035,0,0,1,2.612,1.531,4.332,4.332,0,0,1,1.346,3.12Zm-15.335,1.743,2.315,7.607c.1.326.225.708.385,1.156-.105-.106-.406-.383-.9-.826l-5.905-5.327-1.082.689,3.074,9.964,1.129-.716-2.139-6.3q-.4-1.21-.753-2.114a27.376,27.376,0,0,0,2.572,2.584l3.95,3.52,1.355-.86-2.032-6.759c-.05-.163-.255-.769-.616-1.811.466.512.954,1.012,1.464,1.508l4.832,4.74,1.152-.731-7.657-7.056Zm-10.482,6.084,3.26,7.2-8.073-5.02-1.244.561,4.148,9.161,1.163-.523-3.257-7.194,8.073,5.016,1.244-.564-4.148-9.161Zm-17.446,13.294a1.448,1.448,0,1,0-1.736-1.087,1.448,1.448,0,0,0,1.736,1.087Zm-14.181-3.182a3.211,3.211,0,0,0-1.493-1.14,5.793,5.793,0,0,0-2.3-.307,4.542,4.542,0,0,0-1.922.47,3.023,3.023,0,0,0-1.277,1.156,2.727,2.727,0,0,0-.4,1.527,2.489,2.489,0,0,0,.474,1.413,3.057,3.057,0,0,0,1.336.974,13.464,13.464,0,0,0,2.25.557,5.319,5.319,0,0,1,2.034.636,1.145,1.145,0,0,1,.426.875,1.322,1.322,0,0,1-.511,1.087,2.8,2.8,0,0,1-1.743.512,2.726,2.726,0,0,1-1.771-.417,2.062,2.062,0,0,1-.752-1.413l-1.272.144a3.047,3.047,0,0,0,.556,1.565,2.833,2.833,0,0,0,1.355,1.008,4.984,4.984,0,0,0,1.985.284,4.8,4.8,0,0,0,1.831-.417,2.664,2.664,0,0,0,1.223-1.053,2.55,2.55,0,0,0,.376-1.436,2.3,2.3,0,0,0-.4-1.239,2.708,2.708,0,0,0-1.11-.894,9.143,9.143,0,0,0-1.965-.553q-1.4-.279-1.809-.417a2.014,2.014,0,0,1-.928-.561,1.308,1.308,0,0,1-.307-.815,1.441,1.441,0,0,1,.251-.871,1.881,1.881,0,0,1,.843-.655,3.747,3.747,0,0,1,1.335-.276,3.808,3.808,0,0,1,1.554.239,2.24,2.24,0,0,1,1.042.743,2.747,2.747,0,0,1,.463,1.22l1.251-.159a3.388,3.388,0,0,0-.622-1.786Zm-16.266-.049a2.862,2.862,0,0,1,1.939-.5,3.273,3.273,0,0,1,1.668.606,2.784,2.784,0,0,1,1.048,1.516,6.129,6.129,0,0,1,.2,2.262,5.987,5.987,0,0,1-.466,1.9,2.936,2.936,0,0,1-1.208,1.4,3.247,3.247,0,0,1-1.977.4,2.709,2.709,0,0,1-1.63-.629,3.1,3.1,0,0,1-.887-1.675l-1.331.208a4,4,0,0,0,1.261,2.266,4.1,4.1,0,0,0,2.471.962,4.974,4.974,0,0,0,2.48-.413,4.1,4.1,0,0,0,1.843-1.637,5.933,5.933,0,0,0,.813-2.686,6.825,6.825,0,0,0-.319-2.728,4.129,4.129,0,0,0-1.4-2.034,4.805,4.805,0,0,0-2.586-.868,4.168,4.168,0,0,0-2.719.652,4.478,4.478,0,0,0-1.7,2.375l1.3.44a3.293,3.293,0,0,1,1.193-1.828Zm-5.91-2.428-.9,4.376-1.513-.311a4.112,4.112,0,0,1-.717-.193,1.982,1.982,0,0,1-.541-.386,2.965,2.965,0,0,1-.528-.792c-.182-.364-.4-.883-.663-1.549l-.884-2.319-1.641-.337,1.165,3.035a6.908,6.908,0,0,0,.814,1.531,3.434,3.434,0,0,0,.686.652,3.506,3.506,0,0,0-2.285.485,2.524,2.524,0,0,0-1.041,1.629,2.848,2.848,0,0,0,.106,1.568,2.247,2.247,0,0,0,.9,1.163,5.936,5.936,0,0,0,1.949.674l4.37.894,2.019-9.85Zm-1.8,8.763-3.12-.636a2.426,2.426,0,0,1-1.511-.78,1.488,1.488,0,0,1-.272-1.25,1.626,1.626,0,0,1,.443-.83,1.491,1.491,0,0,1,.887-.436,4.158,4.158,0,0,1,1.436.1l2.8.572Zm-8.42-8.623a4.418,4.418,0,0,0-.995-2.323,4.783,4.783,0,0,0-2.178-1.474,4.98,4.98,0,0,0-2.512-.2,4.243,4.243,0,0,0-2.249,1.16,5.934,5.934,0,0,0-1.474,2.391,6.015,6.015,0,0,0-.322,2.743,4.35,4.35,0,0,0,1.009,2.307,4.826,4.826,0,0,0,2.16,1.447,4.582,4.582,0,0,0,3.745-.212,5.468,5.468,0,0,0,2.547-3.273,5.662,5.662,0,0,0,.268-2.563Zm-3.58,4.83a3.389,3.389,0,0,1-2.615.129,3.29,3.29,0,0,1-1.533-1.061,3.182,3.182,0,0,1-.688-1.735,5.161,5.161,0,0,1,.3-2.163,4.272,4.272,0,0,1,1.893-2.519,3.409,3.409,0,0,1,4.664,1.591,4.029,4.029,0,0,1-.006,3.027,4.355,4.355,0,0,1-2.019,2.73Zm-12.017-13.741-.513,1.072,4.469,2.137-3.832,8,1.2.576,4.343-9.074Zm-7.336-4.334-.614,1.019,4.241,2.561-4.59,7.592,1.14.686,5.2-8.608Zm-8.393-6.353a6.826,6.826,0,0,0-1.341-.917,3.735,3.735,0,0,0-1.241-.394,3.561,3.561,0,0,0-1.289.1,4.945,4.945,0,0,0-1.473.67,7.077,7.077,0,0,0-1.521,1.372,6.748,6.748,0,0,0-1.251,2.076,4.085,4.085,0,0,0-.209,2.08,3.409,3.409,0,0,0,.655,1.5,8.4,8.4,0,0,0,1.27,1.273l2.638,2.247,6.526-7.657Zm-4.006,8.24-1.609-1.368a5.289,5.289,0,0,1-1.178-1.273,2.613,2.613,0,0,1-.222-1.682,4.672,4.672,0,0,1,1.18-2.182,6.272,6.272,0,0,1,1.459-1.3,3.147,3.147,0,0,1,1.387-.489,2.251,2.251,0,0,1,1.023.186,5.286,5.286,0,0,1,1.309.871l1.635,1.394Zm-3.277-11.57a4.412,4.412,0,0,0,.246-2.512,4.759,4.759,0,0,0-1.2-2.341,4.992,4.992,0,0,0-2.1-1.391,4.2,4.2,0,0,0-2.53-.065,5.9,5.9,0,0,0-2.442,1.383,6.045,6.045,0,0,0-1.6,2.25,4.351,4.351,0,0,0-.227,2.512,4.812,4.812,0,0,0,1.2,2.3,4.583,4.583,0,0,0,3.384,1.618,5.479,5.479,0,0,0,3.807-1.644,5.669,5.669,0,0,0,1.47-2.116Zm-5.464,2.512a3.413,3.413,0,0,1-2.355-1.148,3.284,3.284,0,0,1-.834-1.667,3.191,3.191,0,0,1,.235-1.853,5.147,5.147,0,0,1,1.308-1.747,4.276,4.276,0,0,1,2.873-1.3,3.408,3.408,0,0,1,3.321,3.637,4.039,4.039,0,0,1-1.462,2.652,4.361,4.361,0,0,1-3.087,1.423Zm-2.137-15.274-7.55,2.512c-.321.106-.7.242-1.144.413q.156-.159.8-.921l5.174-6.035-.717-1.065-9.886,3.33.748,1.106,6.244-2.3q1.2-.432,2.1-.807a27.112,27.112,0,0,0-2.517,2.637l-3.419,4.039.9,1.333,6.7-2.209q.244-.079,1.8-.663-.748.72-1.47,1.5l-4.616,4.952.763,1.133,6.854-7.831Zm-6.348-10.3-7.115,3.444,4.81-8.2-.6-1.227-9.054,4.387.557,1.148,7.108-3.444-4.8,8.195.6,1.231,9.053-4.387ZM101.7,1092.695a1.445,1.445,0,1,0,.157-1.095,1.447,1.447,0,0,0-.157,1.095Zm2.8-14.268a3.2,3.2,0,0,0,1.1-1.523,5.779,5.779,0,0,0,.249-2.307,4.606,4.606,0,0,0-.519-1.909,3.028,3.028,0,0,0-1.188-1.247,2.73,2.73,0,0,0-1.54-.36,2.508,2.508,0,0,0-1.4.508,3.078,3.078,0,0,0-.94,1.36,13.321,13.321,0,0,0-.5,2.266,5.265,5.265,0,0,1-.586,2.046,1.153,1.153,0,0,1-.865.451,1.331,1.331,0,0,1-1.1-.485,2.813,2.813,0,0,1-.555-1.728,2.714,2.714,0,0,1,.373-1.781,2.073,2.073,0,0,1,1.393-.788l-.179-1.265a3.033,3.033,0,0,0-1.55.595,2.851,2.851,0,0,0-.973,1.379,5.054,5.054,0,0,0-.232,1.993,4.79,4.79,0,0,0,.462,1.818,2.663,2.663,0,0,0,1.085,1.193,2.531,2.531,0,0,0,1.449.341,2.309,2.309,0,0,0,1.227-.432,2.734,2.734,0,0,0,.866-1.133,9.16,9.16,0,0,0,.5-1.978,17.886,17.886,0,0,1,.374-1.818,2.029,2.029,0,0,1,.534-.943,1.3,1.3,0,0,1,.807-.326,1.433,1.433,0,0,1,.878.227,1.872,1.872,0,0,1,.676.826,3.719,3.719,0,0,1,.313,1.326,3.837,3.837,0,0,1-.2,1.561,2.268,2.268,0,0,1-.716,1.061,2.75,2.75,0,0,1-1.209.493l.19,1.246a3.392,3.392,0,0,0,1.772-.667Zm-.366-16.261a2.854,2.854,0,0,1,.544,1.924,3.253,3.253,0,0,1-.562,1.678,2.778,2.778,0,0,1-1.49,1.087,6.122,6.122,0,0,1-2.258.254,5.9,5.9,0,0,1-1.912-.417,2.931,2.931,0,0,1-1.433-1.171,3.241,3.241,0,0,1-.455-1.963,2.7,2.7,0,0,1,.592-1.644,3.088,3.088,0,0,1,1.65-.932l-.24-1.326a4.023,4.023,0,0,0-2.234,1.318,4.131,4.131,0,0,0-.9,2.5,4.983,4.983,0,0,0,.478,2.466,4.113,4.113,0,0,0,1.685,1.8,5.92,5.92,0,0,0,2.706.743,6.8,6.8,0,0,0,2.722-.39,4.114,4.114,0,0,0,2-1.447,4.762,4.762,0,0,0,.8-2.6,4.151,4.151,0,0,0-.72-2.7,4.492,4.492,0,0,0-2.419-1.637l-.406,1.311a3.311,3.311,0,0,1,1.856,1.152Zm2.27-5.952-4.4-.781.27-1.519a3.941,3.941,0,0,1,.177-.72,2.035,2.035,0,0,1,.37-.553,3.048,3.048,0,0,1,.781-.546q.539-.29,1.533-.7l2.294-.943.293-1.648-3,1.243a7.056,7.056,0,0,0-1.511.852,3.451,3.451,0,0,0-.634.7,3.493,3.493,0,0,0-.544-2.269,2.53,2.53,0,0,0-1.656-1,2.892,2.892,0,0,0-1.566.148,2.246,2.246,0,0,0-1.137.932,5.948,5.948,0,0,0-.624,1.966l-.78,4.391,9.906,1.758Zm-8.811-1.565.556-3.133a2.424,2.424,0,0,1,.739-1.531,1.506,1.506,0,0,1,1.246-.3,1.634,1.634,0,0,1,.841.421,1.511,1.511,0,0,1,.458.875,4.291,4.291,0,0,1-.064,1.44l-.5,2.815Zm8.4-8.642a4.4,4.4,0,0,0,2.3-1.057,4.745,4.745,0,0,0,1.416-2.213,4.989,4.989,0,0,0,.14-2.516,4.227,4.227,0,0,0-1.22-2.22,5.954,5.954,0,0,0-2.426-1.409,6.1,6.1,0,0,0-2.752-.25,4.372,4.372,0,0,0-2.282,1.068,4.822,4.822,0,0,0-1.389,2.2,4.565,4.565,0,0,0,.31,3.735,5.449,5.449,0,0,0,3.338,2.459,5.68,5.68,0,0,0,2.57.2Zm-4.927-3.451a3.4,3.4,0,0,1-.2-2.61,3.307,3.307,0,0,1,1.02-1.561,3.2,3.2,0,0,1,1.72-.731,5.17,5.17,0,0,1,2.17.246,4.279,4.279,0,0,1,2.57,1.826,3.411,3.411,0,0,1-1.468,4.7,4.031,4.031,0,0,1-3.027.072,4.343,4.343,0,0,1-2.785-1.944Zm13.43-12.374-1.084-.485-2.021,4.52-8.1-3.618-.543,1.216,9.186,4.1Zm4.142-7.441-1.032-.587-2.451,4.3-7.712-4.387-.659,1.156,8.744,4.974Zm6.136-8.551a6.888,6.888,0,0,0,.883-1.364,3.724,3.724,0,0,0,.363-1.25,3.632,3.632,0,0,0-.134-1.284,4.887,4.887,0,0,0-.708-1.455,7,7,0,0,0-1.411-1.485,6.743,6.743,0,0,0-2.108-1.2,4.107,4.107,0,0,0-2.085-.155,3.389,3.389,0,0,0-1.488.7,8.355,8.355,0,0,0-1.238,1.3l-2.179,2.694,7.824,6.323Zm-8.346-3.789,1.329-1.644A5.189,5.189,0,0,1,119,1007.55a2.616,2.616,0,0,1,1.675-.265,4.7,4.7,0,0,1,2.212,1.121,6.193,6.193,0,0,1,1.342,1.424,3.173,3.173,0,0,1,.526,1.375,2.227,2.227,0,0,1-.162,1.027,5.209,5.209,0,0,1-.838,1.33l-1.35,1.671Zm11.49-3.576a4.405,4.405,0,0,0,2.52.182,4.759,4.759,0,0,0,2.309-1.262,4.976,4.976,0,0,0,1.335-2.137,4.214,4.214,0,0,0,0-2.531,5.927,5.927,0,0,0-1.447-2.4,6.033,6.033,0,0,0-2.292-1.546,4.329,4.329,0,0,0-2.516-.159,4.814,4.814,0,0,0-2.274,1.254,4.571,4.571,0,0,0-1.528,3.425,5.473,5.473,0,0,0,1.74,3.762,5.7,5.7,0,0,0,2.155,1.413Zm-2.653-5.4a3.4,3.4,0,0,1,1.086-2.383,3.288,3.288,0,0,1,1.645-.875,3.193,3.193,0,0,1,1.86.186,5.165,5.165,0,0,1,1.784,1.262,4.269,4.269,0,0,1,1.372,2.838,3.411,3.411,0,0,1-3.552,3.414,4.036,4.036,0,0,1-2.688-1.394,4.343,4.343,0,0,1-1.5-3.046Zm15.224-2.534-2.706-7.479c-.114-.318-.262-.693-.444-1.133.111.1.425.36.942.78l6.173,5.012,1.046-.742-3.586-9.793-1.091.777,2.464,6.179c.31.788.6,1.481.861,2.072a27.168,27.168,0,0,0-2.7-2.447l-4.127-3.311-1.308.932,2.379,6.641q.088.244.71,1.777-.738-.727-1.541-1.428l-5.071-4.486-1.113.792,8.009,6.645Zm10.136-6.607-3.632-7.02,8.326,4.592,1.213-.629-4.622-8.931-1.134.586,3.629,7.015-8.322-4.588-1.213.625,4.624,8.933ZM167.339,978.1a1.446,1.446,0,1,0,1.1.127,1.447,1.447,0,0,0-1.1-.127Z" transform="translate(-95.425 -971.045)" fill="#fff" fill-rule="evenodd"/>
</svg>
