<svg xmlns="http://www.w3.org/2000/svg" width="38" height="84" viewBox="0 0 38 84">
  <g id="Polygon_210" data-name="Polygon 210" transform="translate(38) rotate(90)" fill="#01675b">
    <path d="M 71.02115631103516 37.00000381469727 L 12.97883987426758 37.00000381469727 C 10.9545202255249 37.00000381469727 9.723389625549316 35.67653274536133 9.24623966217041 34.43796539306641 C 8.769089698791504 33.19938278198242 8.794079780578613 31.39200401306152 10.29518985748291 30.03386497497559 L 39.31634140014648 3.776624441146851 C 40.05321884155273 3.109934329986572 41.00629043579102 2.742764472961426 42 2.742764472961426 C 42.99370956420898 2.742764472961426 43.94678115844727 3.10992431640625 44.68365097045898 3.776614427566528 L 73.70481109619141 30.03386497497559 C 75.20591735839844 31.39200401306152 75.23091125488281 33.19938278198242 74.75376129150391 34.43796539306641 C 74.276611328125 35.67653274536133 73.04547882080078 37.00000381469727 71.02115631103516 37.00000381469727 Z" stroke="none"/>
    <path d="M 42 3.742759704589844 C 41.25471115112305 3.742759704589844 40.53990936279297 4.01812744140625 39.98725509643555 4.518150329589844 L 10.96610260009766 30.77538299560547 C 9.54925537109375 32.05729293823242 10.00574493408203 33.62768173217773 10.17939758300781 34.07846069335938 C 10.35305786132812 34.52922821044922 11.06814575195312 35.99999618530273 12.97884368896484 35.99999618530273 L 71.02115631103516 35.99999618530273 C 72.93185424804688 35.99999618530273 73.64694213867188 34.52922821044922 73.82060241699219 34.07846069335938 C 73.99425506591797 33.62769317626953 74.45074462890625 32.05730438232422 73.03388977050781 30.77538299560547 L 44.01273345947266 4.518150329589844 C 43.46009063720703 4.01812744140625 42.74528884887695 3.742759704589844 42 3.742759704589844 M 42.00000381469727 1.742759704589844 C 43.20116806030273 1.742759704589844 44.4023323059082 2.173534393310547 45.35456848144531 3.035083770751953 L 74.37570953369141 29.29231643676758 C 77.76897430419922 32.36240386962891 75.59713745117188 37.99999618530273 71.02115631103516 37.99999618530273 L 12.97884368896484 37.99999618530273 C 8.402870178222656 37.99999618530273 6.231025695800781 32.36240386962891 9.624275207519531 29.29231643676758 L 38.64543151855469 3.035083770751953 C 39.59767150878906 2.173534393310547 40.7988395690918 1.742759704589844 42.00000381469727 1.742759704589844 Z" stroke="none" fill="#fff"/>
  </g>
</svg>
