<svg xmlns="http://www.w3.org/2000/svg" xmlns:xlink="http://www.w3.org/1999/xlink" width="73" height="19" viewBox="0 0 73 19">
  <defs>
    <clipPath id="clip-path">
      <rect id="Rectangle_32042" data-name="Rectangle 32042" width="73" height="19" transform="translate(220 1118)" fill="#01675b"/>
    </clipPath>
    <clipPath id="clip-path-2">
      <circle id="Ellipse_29" data-name="Ellipse 29" cx="44.5" cy="44.5" r="44.5" transform="translate(884.906 62)" fill="#01675b"/>
    </clipPath>
  </defs>
  <g id="Mask_Group_13" data-name="Mask Group 13" transform="translate(-220 -1118)" clip-path="url(#clip-path)">
    <g id="Mask_Group_12" data-name="Mask Group 12" transform="translate(-672.906 1056)" clip-path="url(#clip-path-2)">
      <g id="Group_63010" data-name="Group 63010" transform="translate(881.943 62)">
        <path id="Union_3" data-name="Union 3" d="M0,89V85.783H95V89Zm0-4.825V81.494H95v2.681Zm0-4.825V76.133H95v3.217Zm0-6.434V69.7H95v3.217Zm0-6.433V22.518H95V66.482ZM0,18.765V15.548H95v3.217Zm0-5.9V9.651H95v3.217ZM0,7.184v-2.9H95v2.9ZM0,3.217V0H95V3.217Z" transform="translate(-0.037 0)" fill="#01675b"/>
      </g>
    </g>
  </g>
</svg>
